<svg width="440" height="440" viewBox="0 0 440 440" fill="none" xmlns="http://www.w3.org/2000/svg">
<path d="M143.715 176.534C147.369 154.02 132.081 132.807 109.567 129.152C87.0533 125.498 65.8397 140.786 62.1852 163.3C58.5307 185.814 73.8192 207.028 96.333 210.682C118.847 214.337 140.06 199.048 143.715 176.534Z" fill="#369577"/>
<path opacity="0.7" d="M143.715 176.534C147.369 154.02 132.081 132.807 109.567 129.152C87.0533 125.498 65.8397 140.786 62.1852 163.3C58.5307 185.814 73.8192 207.028 96.333 210.682C118.847 214.337 140.06 199.048 143.715 176.534Z" fill="#FAFAFA"/>
<path d="M80.6168 169.215C80.6168 164.023 81.5526 160.389 83.424 158.312C85.2955 156.235 88.1438 155.197 91.9688 155.197C93.5078 155.151 95.0427 155.38 96.5008 155.874C97.5746 156.26 98.5594 156.859 99.396 157.634C100.095 158.303 100.689 159.075 101.156 159.922C101.615 160.812 101.96 161.755 102.186 162.73C102.702 164.817 102.959 166.96 102.951 169.11C102.951 174.061 102.112 177.69 100.434 179.995C98.7566 182.301 95.8672 183.451 91.7664 183.445C89.8457 183.527 87.9332 183.15 86.1872 182.345C84.7451 181.608 83.5289 180.495 82.6672 179.124C81.9072 177.85 81.3854 176.449 81.1272 174.988C80.762 173.086 80.591 171.152 80.6168 169.215ZM88.1496 169.215C88.1496 172.694 88.443 175.07 89.0296 176.343C89.2272 176.89 89.5847 177.364 90.0555 177.705C90.5263 178.045 91.0888 178.236 91.6696 178.253C92.419 178.258 93.1401 177.967 93.676 177.443C94.3276 176.726 94.7611 175.838 94.9256 174.882C95.2412 173.079 95.3738 171.248 95.3216 169.418C95.3216 165.78 95.0283 163.34 94.4416 162.096C94.2235 161.542 93.843 161.066 93.3499 160.731C92.8569 160.397 92.2742 160.219 91.6784 160.222C91.0793 160.212 90.4925 160.392 90.0023 160.737C89.5122 161.082 89.1439 161.573 88.9504 162.14C88.4166 163.425 88.1496 165.792 88.1496 169.242V169.215Z" fill="#FAFAFA"/>
<path d="M123.297 155.197V183.04H115.614V164.824C114.485 165.699 113.277 166.468 112.006 167.121C110.589 167.801 109.117 168.36 107.606 168.793V162.571C109.778 161.945 111.818 160.928 113.626 159.57C115.059 158.4 116.208 156.919 116.987 155.241L123.297 155.197Z" fill="#FAFAFA"/>
<path d="M225.723 179.389C230.963 157.19 217.214 134.947 195.016 129.708C172.817 124.469 150.575 138.217 145.335 160.415C140.096 182.614 153.844 204.857 176.043 210.096C198.241 215.335 220.484 201.587 225.723 179.389Z" fill="#369577"/>
<path opacity="0.7" d="M225.723 179.389C230.963 157.19 217.214 134.947 195.016 129.708C172.817 124.469 150.575 138.217 145.335 160.415C140.096 182.614 153.844 204.857 176.043 210.096C198.241 215.335 220.484 201.587 225.723 179.389Z" fill="#FAFAFA"/>
<path d="M161.506 169.215C161.506 164.023 162.442 160.389 164.314 158.312C166.185 156.235 169.033 155.197 172.858 155.197C174.397 155.151 175.932 155.38 177.39 155.874C178.463 156.258 179.445 156.857 180.277 157.634C180.978 158.302 181.572 159.073 182.037 159.922C182.495 160.812 182.841 161.755 183.066 162.73C183.583 164.817 183.84 166.96 183.832 169.11C183.832 174.061 182.993 177.69 181.315 179.995C179.637 182.301 176.748 183.451 172.647 183.445C170.726 183.528 168.814 183.151 167.068 182.345C165.626 181.608 164.41 180.495 163.548 179.124C162.788 177.85 162.266 176.449 162.008 174.988C161.646 173.086 161.478 171.152 161.506 169.215ZM169.039 169.215C169.039 172.694 169.333 175.07 169.919 176.343C170.117 176.89 170.474 177.364 170.945 177.705C171.416 178.045 171.978 178.236 172.559 178.253C172.929 178.256 173.296 178.186 173.639 178.047C173.982 177.908 174.294 177.703 174.557 177.443C175.215 176.73 175.65 175.84 175.806 174.882C176.131 173.08 176.266 171.248 176.211 169.418C176.211 165.78 175.903 163.34 175.287 162.096C175.069 161.54 174.687 161.064 174.192 160.729C173.697 160.394 173.112 160.218 172.515 160.222C171.918 160.214 171.333 160.395 170.844 160.74C170.356 161.084 169.989 161.574 169.796 162.14C169.312 163.434 169.039 165.792 169.039 169.242V169.215Z" fill="#FAFAFA"/>
<path d="M209.202 183.04H186.41C186.684 180.764 187.502 178.588 188.795 176.695C190.115 174.718 192.597 172.371 196.24 169.655C197.821 168.592 199.256 167.325 200.508 165.889C201.071 165.196 201.397 164.342 201.441 163.451C201.452 163.053 201.379 162.657 201.227 162.289C201.076 161.92 200.849 161.588 200.561 161.313C199.915 160.734 199.078 160.414 198.211 160.414C197.344 160.414 196.507 160.734 195.862 161.313C195.121 162.234 194.688 163.363 194.621 164.542L187.018 163.926C187.189 162.156 187.751 160.446 188.663 158.919C189.491 157.69 190.659 156.73 192.025 156.156C193.944 155.437 195.988 155.111 198.035 155.197C200.152 155.099 202.268 155.397 204.274 156.077C205.708 156.63 206.936 157.61 207.794 158.884C208.644 160.134 209.089 161.614 209.07 163.126C209.062 164.824 208.554 166.483 207.61 167.895C206.172 169.872 204.382 171.566 202.33 172.894C200.798 173.95 199.778 174.689 199.267 175.111C198.757 175.534 198.15 176.088 197.446 176.774H209.308L209.202 183.04Z" fill="#FAFAFA"/>
<path d="M267.342 187.137C290.122 185.991 307.659 166.596 306.513 143.816C305.367 121.037 285.972 103.499 263.192 104.645C240.412 105.791 222.875 125.187 224.021 147.966C225.167 170.746 244.562 188.283 267.342 187.137Z" fill="#369577"/>
<path opacity="0.7" d="M267.342 187.137C290.122 185.991 307.659 166.596 306.513 143.816C305.367 121.037 285.972 103.499 263.192 104.645C240.412 105.791 222.875 125.187 224.021 147.966C225.167 170.746 244.562 188.283 267.342 187.137Z" fill="#FAFAFA"/>
<path d="M244.174 153.842C242.197 149.037 241.678 145.32 242.616 142.692C243.555 140.064 245.793 138.01 249.331 136.532C250.737 135.903 252.246 135.533 253.783 135.441C254.923 135.384 256.062 135.567 257.127 135.978C258.03 136.327 258.873 136.814 259.627 137.421C260.393 138.067 261.076 138.806 261.659 139.621C262.929 141.354 263.981 143.237 264.792 145.226C266.687 149.808 267.294 153.484 266.614 156.253C265.933 159.022 263.701 161.204 259.917 162.8C258.169 163.6 256.259 163.979 254.338 163.909C252.734 163.76 251.197 163.189 249.885 162.254C248.702 161.366 247.688 160.272 246.893 159.025C245.813 157.394 244.902 155.657 244.174 153.842ZM251.152 150.99C252.472 154.211 253.669 156.27 254.716 157.23C255.112 157.664 255.63 157.967 256.202 158.101C256.774 158.234 257.372 158.191 257.919 157.978C258.265 157.84 258.58 157.636 258.846 157.376C259.111 157.116 259.323 156.806 259.468 156.464C259.802 155.554 259.863 154.566 259.644 153.622C259.257 151.831 258.685 150.085 257.937 148.412C256.547 145.056 255.332 142.918 254.294 141.997C253.88 141.567 253.345 141.273 252.761 141.154C252.176 141.034 251.569 141.095 251.02 141.328C250.47 141.55 250.004 141.941 249.688 142.443C249.372 142.945 249.222 143.534 249.26 144.126C249.213 145.517 249.844 147.805 251.152 150.99Z" fill="#FAFAFA"/>
<path d="M272.378 136.11L265.25 137.65C264.896 135.521 265.314 133.337 266.429 131.49C267.538 129.73 269.526 128.263 272.395 127.09C275.695 125.726 278.335 125.33 280.315 125.981C281.243 126.243 282.097 126.717 282.811 127.364C283.526 128.011 284.081 128.815 284.434 129.712C284.886 130.763 285 131.929 284.759 133.047C284.456 134.318 283.852 135.498 282.999 136.488C283.853 136.334 284.725 136.308 285.586 136.409C286.613 136.567 287.578 136.995 288.385 137.65C289.258 138.379 289.929 139.322 290.33 140.386C290.938 141.876 291.142 143.501 290.919 145.094C290.708 146.762 289.996 148.327 288.878 149.582C287.409 151.126 285.601 152.307 283.598 153.032C281.78 153.865 279.821 154.349 277.825 154.458C276.345 154.483 274.884 154.135 273.574 153.446C272.18 152.66 270.958 151.601 269.984 150.33L276.619 146.511C277.189 147.546 278.057 148.386 279.11 148.922C279.94 149.228 280.857 149.193 281.662 148.826C282.11 148.652 282.515 148.383 282.848 148.036C283.181 147.689 283.434 147.274 283.589 146.819C283.93 145.786 283.86 144.661 283.395 143.678C283.047 142.661 282.319 141.819 281.362 141.328C280.914 141.126 280.428 141.021 279.937 141.021C279.445 141.021 278.959 141.126 278.511 141.328C277.754 141.685 277.046 142.141 276.408 142.683L274.701 137.518C275.023 137.44 275.341 137.343 275.651 137.227C276.511 136.894 277.207 136.237 277.587 135.397C277.773 135.014 277.875 134.597 277.885 134.171C277.896 133.746 277.815 133.324 277.649 132.933C277.529 132.587 277.339 132.271 277.091 132.003C276.842 131.734 276.541 131.521 276.206 131.375C275.855 131.24 275.481 131.179 275.105 131.194C274.73 131.209 274.362 131.301 274.023 131.463C273.648 131.601 273.303 131.811 273.01 132.083C272.717 132.355 272.481 132.683 272.316 133.047C272.01 134.049 272.032 135.121 272.378 136.11Z" fill="#FAFAFA"/>
<path d="M390.907 179.397C396.147 157.199 382.398 134.956 360.2 129.716C338.001 124.477 315.758 138.225 310.519 160.424C305.28 182.622 319.028 204.865 341.227 210.104C363.425 215.344 385.668 201.596 390.907 179.397Z" fill="#369577"/>
<path opacity="0.7" d="M390.907 179.397C396.147 157.199 382.398 134.956 360.2 129.716C338.001 124.477 315.758 138.225 310.519 160.424C305.28 182.622 319.028 204.865 341.227 210.104C363.425 215.344 385.668 201.596 390.907 179.397Z" fill="#FAFAFA"/>
<path d="M325.899 169.215C325.899 164.023 326.835 160.389 328.706 158.312C330.578 156.235 333.426 155.197 337.251 155.197C338.79 155.151 340.325 155.38 341.783 155.874C342.855 156.258 343.837 156.857 344.669 157.634C345.371 158.302 345.965 159.073 346.429 159.922C346.888 160.812 347.234 161.755 347.459 162.73C347.975 164.817 348.232 166.96 348.225 169.11C348.225 174.061 347.386 177.69 345.708 179.995C344.03 182.301 341.141 183.457 337.04 183.462C335.119 183.545 333.206 183.168 331.461 182.362C330.018 181.626 328.802 180.513 327.941 179.142C327.181 177.868 326.659 176.466 326.401 175.006C326.037 173.098 325.869 171.157 325.899 169.215ZM333.432 169.215C333.432 172.694 333.74 175.07 334.356 176.343C334.553 176.89 334.911 177.364 335.382 177.705C335.853 178.045 336.415 178.236 336.996 178.253C337.366 178.256 337.733 178.186 338.075 178.047C338.418 177.908 338.73 177.703 338.993 177.443C339.652 176.73 340.086 175.84 340.243 174.882C340.567 173.08 340.703 171.248 340.648 169.418C340.648 165.78 340.34 163.34 339.724 162.096C339.505 161.54 339.123 161.064 338.628 160.729C338.134 160.394 337.549 160.218 336.952 160.222C336.354 160.214 335.769 160.395 335.281 160.74C334.793 161.084 334.426 161.574 334.233 162.14C333.705 163.425 333.438 165.792 333.432 169.242V169.215Z" fill="#FAFAFA"/>
<path d="M364.417 177.892H350.583V171.644L364.417 155.197H371.034V171.996H374.466V177.892H371.034V183.04H364.417V177.892ZM364.417 171.996V163.398L357.104 171.996H364.417Z" fill="#FAFAFA"/>
<path d="M350.724 215.028C349.557 215.028 348.438 214.564 347.613 213.739C346.788 212.914 346.324 211.795 346.324 210.628C346.324 209.461 346.788 208.342 347.613 207.517C348.438 206.692 349.557 206.228 350.724 206.228C358.022 206.23 365.157 204.067 371.226 200.014C377.295 195.96 382.026 190.198 384.82 183.456C387.614 176.714 388.346 169.295 386.923 162.136C385.501 154.978 381.987 148.403 376.827 143.242C371.667 138.08 365.092 134.565 357.935 133.141C350.777 131.716 343.357 132.447 336.614 135.239C329.872 138.032 324.108 142.761 320.054 148.829C315.999 154.897 313.834 162.031 313.834 169.33C313.834 181.45 309.02 193.073 300.45 201.643C291.88 210.213 280.256 215.028 268.136 215.028C256.016 215.028 244.393 210.213 235.822 201.643C227.252 193.073 222.438 181.45 222.438 169.33C222.438 159.544 218.55 150.158 211.63 143.239C204.711 136.319 195.325 132.431 185.539 132.431C175.753 132.431 166.368 136.319 159.448 143.239C152.528 150.158 148.641 159.544 148.641 169.33C148.641 178.369 145.96 187.205 140.938 194.72C135.916 202.236 128.778 208.093 120.426 211.551C112.075 215.009 102.886 215.913 94.0206 214.149C85.1555 212.384 77.0129 208.03 70.6226 201.637C64.2322 195.244 59.8813 187.1 58.12 178.234C56.3587 169.368 57.2662 160.179 60.7277 151.829C64.1892 143.479 70.0492 136.344 77.5666 131.324C85.0839 126.305 93.921 123.628 102.96 123.631C104.127 123.631 105.246 124.095 106.071 124.92C106.896 125.745 107.36 126.864 107.36 128.031C107.36 129.198 106.896 130.317 106.071 131.143C105.246 131.968 104.127 132.431 102.96 132.431C95.6622 132.431 88.5283 134.595 82.4604 138.65C76.3925 142.704 71.6631 148.467 68.8704 155.209C66.0776 161.952 65.3469 169.371 66.7706 176.528C68.1944 183.686 71.7086 190.26 76.8689 195.421C82.0293 200.581 88.6039 204.095 95.7615 205.519C102.919 206.943 110.338 206.212 117.08 203.419C123.823 200.627 129.585 195.897 133.64 189.829C137.694 183.761 139.858 176.627 139.858 169.33C139.858 157.21 144.673 145.586 153.243 137.016C161.813 128.446 173.437 123.631 185.557 123.631C197.677 123.631 209.3 128.446 217.87 137.016C226.441 145.586 231.255 157.21 231.255 169.33C231.255 174.175 232.21 178.973 234.064 183.45C235.918 187.927 238.636 191.994 242.063 195.421C245.489 198.847 249.557 201.565 254.033 203.419C258.51 205.274 263.308 206.228 268.154 206.228C272.999 206.228 277.797 205.274 282.274 203.419C286.751 201.565 290.818 198.847 294.245 195.421C297.671 191.994 300.389 187.927 302.243 183.45C304.098 178.973 305.052 174.175 305.052 169.33C305.052 160.291 307.732 151.455 312.754 143.94C317.776 136.425 324.914 130.568 333.264 127.109C341.615 123.65 350.804 122.746 359.669 124.51C368.534 126.274 376.677 130.627 383.067 137.019C389.458 143.411 393.81 151.555 395.572 160.42C397.334 169.285 396.428 178.474 392.968 186.824C389.508 195.174 383.649 202.31 376.133 207.331C368.617 212.351 359.78 215.03 350.742 215.028H350.724Z" fill="#369577"/>
<path d="M306.038 199.998L305.36 199.443C307.364 196.965 309.118 194.294 310.596 191.47L311.379 191.884C309.867 194.756 308.078 197.473 306.038 199.998Z" fill="#369577"/>
<path d="M286.15 214.658L285.824 213.84C291.359 211.635 296.432 208.414 300.784 204.345L301.382 204.987C296.951 209.131 291.785 212.411 286.15 214.658Z" fill="#369577"/>
<path d="M167.359 359.691H173.818L174.46 344.714H168.001L167.359 359.691Z" fill="#FFC3BD"/>
<path opacity="0.2" d="M174.46 344.722L174.134 352.44H167.666L167.992 344.722H174.46Z" fill="black"/>
<path d="M119.97 354.614L126.289 355.978L132.634 342.038L126.315 340.666L119.97 354.614Z" fill="#FFC3BD"/>
<path opacity="0.2" d="M126.306 340.674L132.634 342.038L129.36 349.228L123.042 347.864L126.306 340.674Z" fill="black"/>
<path d="M153.534 148.94C151.316 152.838 149.081 156.86 146.943 160.864C144.804 164.868 142.71 168.898 140.932 172.911C140.466 173.923 140.052 174.918 139.665 175.912C139.665 176.009 139.665 175.912 139.665 175.912C139.665 175.912 139.665 175.974 139.665 176.044C139.633 176.298 139.633 176.555 139.665 176.81C139.825 177.643 140.089 178.452 140.448 179.221C140.857 180.145 141.315 181.047 141.821 181.922C144.11 185.716 146.653 189.35 149.433 192.799L146.107 196.319C142.166 193.417 138.617 190.018 135.547 186.208C133.761 184.054 132.381 181.594 131.472 178.948C131.201 178.091 131.036 177.205 130.979 176.308C130.932 175.775 130.932 175.239 130.979 174.706C131.009 174.411 131.056 174.117 131.12 173.826C131.12 173.686 131.191 173.536 131.226 173.386L131.34 173.008C131.727 171.829 132.106 170.632 132.537 169.488C134.225 165.006 136.152 160.617 138.31 156.341C140.439 152.099 142.666 147.998 145.147 143.898L153.534 148.94Z" fill="#FFC3BD"/>
<path d="M148.183 191.673L152.724 193.169L148.905 199.593C148.905 199.593 145.579 198.088 144.91 195.026L148.183 191.673Z" fill="#FFC3BD"/>
<path d="M158.91 195.65L154.493 200.596L148.905 199.593L152.724 193.169L158.91 195.65Z" fill="#FFC3BD"/>
<path d="M175.235 113.837C175.34 114.347 175.692 114.717 176.026 114.638C176.361 114.558 176.546 114.101 176.44 113.59C176.334 113.08 175.983 112.71 175.648 112.79C175.314 112.869 175.12 113.326 175.235 113.837Z" fill="#263238"/>
<path d="M175.648 114.717C176.574 116.154 177.694 117.457 178.974 118.589C178.676 118.91 178.311 119.161 177.905 119.325C177.499 119.489 177.062 119.562 176.625 119.539L175.648 114.717Z" fill="#ED847E"/>
<path d="M172.788 111.382C172.709 111.379 172.634 111.347 172.577 111.294C172.521 111.236 172.489 111.159 172.489 111.078C172.489 110.997 172.521 110.92 172.577 110.862C172.903 110.493 173.313 110.209 173.773 110.032C174.233 109.856 174.728 109.794 175.217 109.85C175.297 109.863 175.37 109.908 175.417 109.974C175.465 110.04 175.485 110.122 175.472 110.202C175.457 110.282 175.412 110.352 175.347 110.4C175.281 110.447 175.2 110.468 175.12 110.458C174.737 110.421 174.35 110.476 173.992 110.618C173.634 110.761 173.315 110.986 173.061 111.276C173.029 111.316 172.987 111.347 172.939 111.366C172.891 111.384 172.839 111.39 172.788 111.382Z" fill="#263238"/>
<path d="M160.679 121.018C161.559 125.752 162.527 134.42 159.219 137.57C159.219 137.57 160.512 142.366 169.303 142.366C178.983 142.366 173.923 137.57 173.923 137.57C168.643 136.312 168.784 132.405 169.699 128.726L160.679 121.018Z" fill="#FFC3BD"/>
<path d="M157.899 138.635C157.195 137.755 156.429 136.655 158.013 136.321C159.773 135.96 169.339 135.582 172.639 136.268C175.939 136.954 174.997 138.829 174.997 138.829L157.899 138.635Z" fill="white"/>
<path d="M128.753 356.858C129.014 356.95 129.291 356.99 129.567 356.975C129.843 356.96 130.114 356.89 130.363 356.77C130.46 356.681 130.526 356.565 130.553 356.437C130.58 356.309 130.566 356.176 130.513 356.057C130.485 355.957 130.434 355.865 130.366 355.788C130.297 355.71 130.212 355.649 130.117 355.608C129.237 355.186 127.239 356.004 127.151 356.039C127.124 356.052 127.101 356.072 127.084 356.096C127.067 356.121 127.057 356.15 127.055 356.18C127.056 356.209 127.064 356.237 127.08 356.262C127.095 356.287 127.117 356.307 127.143 356.321C127.659 356.556 128.199 356.736 128.753 356.858ZM129.8 355.819L129.985 355.881C130.04 355.905 130.09 355.941 130.129 355.987C130.169 356.033 130.198 356.087 130.214 356.145C130.302 356.418 130.214 356.506 130.161 356.532C129.818 356.831 128.524 356.532 127.618 356.189C128.31 355.908 129.054 355.782 129.8 355.819Z" fill="#369577"/>
<path d="M127.178 356.329H127.248C127.987 356.118 129.545 355.001 129.563 354.27C129.565 354.156 129.528 354.044 129.457 353.954C129.387 353.864 129.287 353.802 129.175 353.777C129.065 353.738 128.948 353.722 128.831 353.731C128.714 353.74 128.601 353.774 128.498 353.83C127.618 354.27 127.09 356.057 127.063 356.136C127.05 356.159 127.043 356.184 127.043 356.211C127.043 356.237 127.05 356.263 127.063 356.285C127.095 356.313 127.136 356.329 127.178 356.329ZM129.008 354.041H129.07C129.263 354.103 129.263 354.2 129.263 354.235C129.263 354.666 128.216 355.537 127.503 355.898C127.706 355.187 128.117 354.553 128.683 354.077C128.785 354.032 128.899 354.02 129.008 354.041Z" fill="#369577"/>
<path d="M176.414 360.017C177.25 360.017 178.051 359.902 178.315 359.533C178.384 359.435 178.421 359.318 178.421 359.198C178.421 359.079 178.384 358.962 178.315 358.864C178.261 358.774 178.19 358.695 178.105 358.634C178.02 358.572 177.924 358.527 177.822 358.503C176.748 358.213 174.487 359.498 174.399 359.559C174.369 359.572 174.345 359.595 174.331 359.624C174.317 359.653 174.313 359.686 174.319 359.717C174.326 359.748 174.341 359.776 174.363 359.798C174.384 359.819 174.412 359.834 174.443 359.841C175.094 359.955 175.753 360.014 176.414 360.017ZM177.443 358.767C177.54 358.753 177.638 358.753 177.734 358.767C177.796 358.778 177.855 358.803 177.907 358.839C177.959 358.876 178.002 358.923 178.033 358.978C178.147 359.172 178.103 359.269 178.033 359.322C177.734 359.735 176.097 359.744 174.891 359.577C175.681 359.143 176.548 358.868 177.443 358.767Z" fill="#369577"/>
<path d="M174.46 359.841H174.522C175.305 359.489 176.854 358.081 176.73 357.359C176.73 357.183 176.581 356.972 176.167 356.928C176.01 356.91 175.851 356.925 175.7 356.97C175.549 357.015 175.408 357.091 175.287 357.192C174.469 357.87 174.293 359.612 174.284 359.682C174.281 359.709 174.284 359.736 174.295 359.761C174.306 359.786 174.323 359.807 174.346 359.823C174.38 359.842 174.421 359.849 174.46 359.841ZM176.044 357.201H176.132C176.405 357.201 176.422 357.333 176.431 357.368C176.502 357.808 175.454 358.908 174.671 359.383C174.756 358.646 175.063 357.953 175.551 357.394C175.694 357.287 175.866 357.226 176.044 357.218V357.201Z" fill="#369577"/>
<path d="M126.896 355.344L119.795 353.813C119.67 353.784 119.539 353.8 119.425 353.858C119.31 353.916 119.22 354.012 119.17 354.13L116.706 359.471C116.646 359.601 116.616 359.743 116.619 359.886C116.622 360.029 116.657 360.169 116.723 360.296C116.788 360.424 116.881 360.534 116.996 360.62C117.11 360.706 117.243 360.764 117.383 360.791C119.874 361.293 121.106 361.407 124.23 362.085C126.148 362.498 130.487 363.554 133.135 364.126C135.784 364.698 136.699 362.155 135.67 361.68C131.032 359.559 129.096 357.694 127.838 355.96C127.609 355.647 127.274 355.428 126.896 355.344Z" fill="#263238"/>
<path d="M173.774 358.943H166.734C166.605 358.944 166.481 358.987 166.38 359.067C166.28 359.147 166.209 359.258 166.179 359.383L164.903 365.13C164.873 365.268 164.874 365.412 164.907 365.55C164.94 365.688 165.003 365.817 165.093 365.927C165.183 366.037 165.296 366.125 165.425 366.185C165.554 366.245 165.694 366.276 165.836 366.274C168.379 366.274 172.066 366.089 175.261 366.089C179.01 366.089 182.239 366.291 186.63 366.291C189.27 366.291 190.018 363.607 188.91 363.361C183.85 362.261 179.722 362.138 175.349 359.445C174.881 359.133 174.335 358.96 173.774 358.943Z" fill="#263238"/>
<path d="M176.097 139.163C181.113 138.644 186.305 137.984 191.33 137.192C196.271 136.492 201.15 135.404 205.92 133.936C206.475 133.751 207.003 133.549 207.531 133.338C207.967 133.162 208.39 132.956 208.798 132.722C209.766 132.176 210.831 131.516 211.869 130.821C213.963 129.422 216.093 127.943 218.196 126.421L230.965 117.242L234.203 120.859C230.613 124.828 226.873 128.594 222.939 132.229C220.968 134.042 218.962 135.837 216.779 137.562C215.697 138.442 214.615 139.322 213.339 140.122C212.639 140.6 211.906 141.029 211.147 141.407C210.461 141.733 209.775 142.041 209.097 142.287C206.473 143.349 203.78 144.231 201.036 144.927C198.396 145.649 195.695 146.221 193.028 146.731C187.689 147.754 182.299 148.489 176.88 148.931L176.097 139.163Z" fill="#FFC3BD"/>
<path d="M147.647 139.04C141.583 140.43 131.411 170.518 131.411 170.518L141.311 173.809C141.311 173.809 151.413 158.849 154.845 151.624C158.4 144.056 153.842 137.614 147.647 139.04Z" fill="#263238"/>
<path d="M143.035 172.322C143.035 172.322 133.355 170.474 131.129 169.101C130.355 170.218 129.369 174.293 130.055 175.49C130.742 176.686 139.735 178.429 140.941 177.716C142.147 177.003 143.035 172.322 143.035 172.322Z" fill="#263238"/>
<path opacity="0.2" d="M143.035 172.322C143.035 172.322 133.355 170.474 131.129 169.101C130.355 170.218 129.369 174.293 130.055 175.49C130.742 176.686 139.735 178.429 140.941 177.716C142.147 177.003 143.035 172.322 143.035 172.322Z" fill="#FAFAFA"/>
<path d="M183.867 139.366C183.867 139.366 190.74 147.136 184.246 195.246H149.671C149.433 189.966 152.768 164.041 147.647 139.031C151.468 138.295 155.334 137.807 159.219 137.57C164.116 137.289 169.026 137.289 173.923 137.57C177.28 137.91 180.604 138.51 183.867 139.366Z" fill="#263238"/>
<path d="M171.6 149.653C177.804 156.05 208.903 143.29 208.903 143.29L203.914 133.69C203.914 133.69 184.466 137.729 176.475 137.57C166.619 137.368 166.91 144.786 171.6 149.653Z" fill="#263238"/>
<path d="M202.4 133.505C202.4 133.505 207.354 142.05 207.75 144.61C209.114 144.47 212.81 142.525 213.294 141.24C213.778 139.955 209.185 132.018 207.847 131.56C206.51 131.102 202.4 133.505 202.4 133.505Z" fill="#263238"/>
<path opacity="0.2" d="M202.4 133.505C202.4 133.505 207.354 142.05 207.75 144.61C209.114 144.47 212.81 142.525 213.294 141.24C213.778 139.955 209.185 132.018 207.847 131.56C206.51 131.102 202.4 133.505 202.4 133.505Z" fill="#FAFAFA"/>
<path d="M230.763 117.33L235.163 112.147L239.897 117.427C239.897 117.427 236.975 122.329 232.338 121.554L230.763 117.33Z" fill="#FFC3BD"/>
<path d="M241.349 109.701L245.617 112.147L239.941 117.401L235.198 112.147L241.349 109.701Z" fill="#FFC3BD"/>
<path d="M157.969 116.213C159.632 122.417 160.292 126.122 164.129 128.7C169.884 132.581 177.047 128.128 177.267 121.563C177.47 115.65 174.724 106.506 168.071 105.257C166.605 104.969 165.089 105.062 163.669 105.527C162.248 105.991 160.971 106.812 159.958 107.911C158.945 109.01 158.23 110.349 157.882 111.803C157.534 113.256 157.564 114.774 157.969 116.213Z" fill="#FFC3BD"/>
<path d="M171.547 92.6464C175.947 101.904 153.111 96.7736 152.953 105.178C152.953 105.53 152.953 105.846 152.953 106.154C152.302 105.547 150.991 104.878 148.729 105.794C150.055 106.294 151.256 107.078 152.249 108.09C151.369 108.838 150.031 109.234 150.603 112.816C150.876 114.576 152.627 117.216 154.907 119.557C155.901 121.15 159.131 124.766 159.069 125.638C159.563 125.64 160.052 125.538 160.503 125.338C160.646 125.668 160.709 126.027 160.688 126.386C161.885 126.614 162.827 126.447 162.932 125.62C163.909 125.708 164.613 125.444 164.648 124.661C165.581 124.793 166.223 124.494 166.179 123.49C168.397 122.276 169.154 119.715 169.559 116.855C170.029 113.236 171.841 109.926 174.636 107.58C179.115 103.998 180.875 98.3488 171.547 92.6464Z" fill="#263238"/>
<path d="M166.875 115.887C167.303 117.429 168.232 118.785 169.515 119.742C171.204 120.991 172.454 119.742 172.339 117.858C172.234 116.098 171.222 113.458 169.365 112.922C167.508 112.385 166.391 114.022 166.875 115.887Z" fill="#FFC3BD"/>
<path d="M171.979 195.246C171.979 195.246 164.639 244.64 160.618 263.12C156.218 283.36 132.616 348.374 132.616 348.374L121.044 345.866C121.044 345.866 138.706 285.032 141.223 264.959C143.951 243.179 149.671 195.21 149.671 195.21L171.979 195.246Z" fill="#369577"/>
<path opacity="0.5" d="M171.979 195.246C171.979 195.246 164.639 244.64 160.618 263.12C156.218 283.36 132.616 348.374 132.616 348.374L121.044 345.866C121.044 345.866 138.706 285.032 141.223 264.959C143.951 243.179 149.671 195.21 149.671 195.21L171.979 195.246Z" fill="black"/>
<path opacity="0.3" d="M167.341 212.846C158.858 214.509 159.755 246.145 160.776 262.416C163.223 250.914 166.804 228.782 169.251 213.074C168.659 212.783 167.985 212.702 167.341 212.846Z" fill="black"/>
<path d="M184.246 195.245C184.246 195.245 185.126 243.584 184.431 263.296C183.7 283.8 176.511 350.944 176.511 350.944H165.59C165.59 350.944 165.185 284.997 164.71 264.862C164.173 242.862 161.524 195.245 161.524 195.245H184.246Z" fill="#369577"/>
<path opacity="0.5" d="M184.246 195.245C184.246 195.245 185.126 243.584 184.431 263.296C183.7 283.8 176.511 350.944 176.511 350.944H165.59C165.59 350.944 165.185 284.997 164.71 264.862C164.173 242.862 161.524 195.245 161.524 195.245H184.246Z" fill="black"/>
<path opacity="0.2" d="M174.24 343.077C174.226 343.076 174.211 343.072 174.198 343.065C174.185 343.058 174.174 343.048 174.165 343.037C174.155 343.025 174.149 343.012 174.145 342.997C174.142 342.983 174.141 342.968 174.144 342.954C176.071 324.386 180.62 279.435 181.183 263.287C181.773 246.796 181.245 209.889 181.06 198.968C181.06 198.938 181.072 198.908 181.094 198.887C181.115 198.866 181.144 198.854 181.175 198.854C181.203 198.854 181.23 198.865 181.249 198.884C181.269 198.904 181.28 198.931 181.28 198.959C181.465 209.88 181.993 246.796 181.403 263.296C180.831 279.453 176.282 324.403 174.364 342.98C174.362 342.995 174.358 343.009 174.351 343.022C174.345 343.035 174.335 343.047 174.323 343.056C174.312 343.065 174.298 343.071 174.284 343.075C174.27 343.079 174.255 343.079 174.24 343.077Z" fill="#FAFAFA"/>
<path d="M135.388 344.546C135.441 344.546 133.232 348.726 133.232 348.726L120.217 345.91L121.308 341.994L135.388 344.546Z" fill="#263238"/>
<path d="M178.64 346.579C178.693 346.579 178.024 351.129 178.024 351.129H164.71L164.349 347.072L178.64 346.579Z" fill="#263238"/>
</svg>
