<svg width="624" height="624" viewBox="0 0 624 624" fill="none" xmlns="http://www.w3.org/2000/svg">
<path d="M439.82 273.973L445.124 282.085L453.012 280.451L447.059 270.367L439.82 273.973Z" fill="#9F5B53"/>
<path d="M454.859 204.447C455.982 205.808 456.918 207.018 457.879 208.341C458.84 209.664 459.763 210.937 460.674 212.26C462.496 214.893 464.231 217.601 465.853 220.384C467.476 223.167 469.048 226.013 470.421 228.996C471.158 230.456 471.782 232.003 472.455 233.513C473.129 235.023 473.703 236.608 474.19 238.243L474.59 239.491L474.789 240.103C474.902 240.465 475.014 240.852 475.089 241.213C475.363 242.509 475.456 243.836 475.363 245.157C475.198 247.227 474.749 249.263 474.028 251.21C472.806 254.454 471.242 257.558 469.36 260.47C465.855 265.875 461.789 270.895 457.23 275.446L451.776 271.178C454.775 266.06 457.516 260.795 459.988 255.403C461.123 252.942 462.03 250.381 462.696 247.753C462.945 246.766 463.058 245.75 463.033 244.733C463.032 244.517 462.985 244.305 462.896 244.109L462.696 243.635L462.284 242.686C459.948 237.436 457.193 232.382 454.047 227.573C452.475 225.077 450.815 222.668 449.143 220.235C447.47 217.801 445.648 215.367 444.001 213.158L454.859 204.447Z" fill="#9F5B53"/>
<path d="M451.776 198.307C460.375 200.279 470.234 223.704 470.234 223.704L453.024 235.535C448.728 229.378 444.914 222.899 441.617 216.154C436.513 205.433 443.04 196.298 451.776 198.307Z" fill="#369577"/>
<path opacity="0.8" d="M451.776 198.307C460.375 200.279 470.234 223.704 470.234 223.704L453.024 235.535C448.728 229.378 444.914 222.899 441.617 216.154C436.513 205.433 443.04 196.298 451.776 198.307Z" fill="white"/>
<path d="M445.661 213.246L453.823 234.973L453.012 235.535C453.012 235.535 449.48 230.543 445.661 223.891V213.246Z" fill="#369577"/>
<path opacity="0.6" d="M445.661 213.246L453.823 234.973L453.012 235.535C453.012 235.535 449.48 230.543 445.661 223.891V213.246Z" fill="white"/>
<path d="M423.871 511.231H414.698L413.787 490.002H422.96L423.871 511.231Z" fill="#9F5B53"/>
<path d="M478.92 511.231H469.747L465.142 490.002H474.302L478.92 511.231Z" fill="#9F5B53"/>
<path d="M413.787 490.015L414.261 500.947H423.434L422.96 490.015H413.787Z" fill="#8A4743"/>
<path d="M474.315 490.015H465.142L467.513 500.947H476.686L474.315 490.015Z" fill="#8A4743"/>
<path d="M417.306 278.029C417.306 278.029 427.715 348.092 433.418 374.338C439.658 403.042 463.245 498.838 463.245 498.838H480.043C480.043 498.838 464.493 405.4 460.924 376.896C457.055 346.008 448.956 277.979 448.956 277.979L417.306 278.029Z" fill="#369577"/>
<path opacity="0.5" d="M417.306 278.029C417.306 278.029 427.715 348.092 433.418 374.338C439.658 403.042 463.245 498.838 463.245 498.838H480.043C480.043 498.838 464.493 405.4 460.924 376.896C457.055 346.008 448.956 277.979 448.956 277.979L417.306 278.029Z" fill="black"/>
<path opacity="0.4" d="M423.883 302.989C435.914 305.348 434.641 350.214 433.193 373.289C429.724 356.978 424.644 325.591 421.175 303.314C422.014 302.9 422.97 302.786 423.883 302.989Z" fill="black"/>
<path d="M399.909 278.029C399.909 278.029 398.661 346.57 399.647 374.537C400.683 403.616 410.879 498.838 410.879 498.838H426.404C426.404 498.838 426.978 405.313 427.652 376.759C428.401 345.621 432.157 278.029 432.157 278.029H399.909Z" fill="#369577"/>
<path opacity="0.5" d="M399.909 278.029C399.909 278.029 398.661 346.57 399.647 374.537C400.683 403.616 410.879 498.838 410.879 498.838H426.404C426.404 498.838 426.978 405.313 427.652 376.759C428.401 345.621 432.157 278.029 432.157 278.029H399.909Z" fill="black"/>
<path d="M453.76 269.219L447.059 270.367L453.012 280.451C453.012 280.451 457.679 278.204 458.528 273.849L453.76 269.219Z" fill="#9F5B53"/>
<path d="M409.469 164.237C409.469 164.973 409.082 165.572 408.595 165.572C408.109 165.572 407.722 164.973 407.722 164.237C407.722 163.501 408.109 162.901 408.595 162.901C409.082 162.901 409.469 163.488 409.469 164.237Z" fill="#263238"/>
<path d="M409.144 165.572C408.261 167.832 407.073 169.961 405.613 171.9C406.117 172.261 406.695 172.507 407.305 172.621C407.915 172.736 408.543 172.715 409.144 172.561V165.572Z" fill="#892B29"/>
<path d="M412.09 160.143C411.999 160.144 411.91 160.114 411.84 160.056C411.406 159.722 410.899 159.497 410.361 159.4C409.822 159.302 409.268 159.334 408.745 159.494C408.693 159.514 408.637 159.524 408.581 159.522C408.525 159.52 408.469 159.507 408.418 159.484C408.367 159.461 408.321 159.428 408.283 159.387C408.245 159.346 408.215 159.297 408.196 159.245C408.174 159.192 408.162 159.136 408.162 159.079C408.162 159.022 408.173 158.966 408.196 158.914C408.218 158.861 408.25 158.814 408.291 158.774C408.332 158.735 408.38 158.704 408.433 158.683C409.09 158.471 409.789 158.422 410.469 158.539C411.149 158.657 411.791 158.937 412.339 159.357C412.387 159.388 412.428 159.429 412.459 159.477C412.491 159.525 412.512 159.578 412.521 159.635C412.53 159.691 412.528 159.749 412.514 159.804C412.5 159.859 412.474 159.911 412.439 159.956C412.402 160.015 412.351 160.063 412.289 160.096C412.228 160.129 412.159 160.145 412.09 160.143Z" fill="#263238"/>
<path d="M433.343 172.761C432.02 179.475 430.71 191.755 435.402 196.236C435.402 196.236 433.568 203.037 421.1 203.037C407.372 203.037 414.561 196.236 414.561 196.236C422.049 194.451 421.849 188.897 420.539 183.693L433.343 172.761Z" fill="#9F5B53"/>
<path d="M437.199 198.569C438.185 196.423 439.259 193.952 437.025 193.178C434.529 192.329 421.088 191.468 416.445 193.053C415.833 193.223 415.26 193.512 414.76 193.905C414.261 194.298 413.844 194.785 413.534 195.34C413.224 195.895 413.027 196.506 412.955 197.137C412.883 197.769 412.936 198.408 413.113 199.019L437.199 198.569Z" fill="#369577"/>
<path d="M466.066 511.68C465.678 511.732 465.284 511.705 464.907 511.602C464.53 511.499 464.177 511.322 463.869 511.081C463.759 510.931 463.699 510.749 463.699 510.563C463.699 510.377 463.759 510.195 463.869 510.045C463.938 509.916 464.034 509.804 464.15 509.715C464.266 509.627 464.4 509.565 464.543 509.533C465.891 509.234 468.412 510.956 468.524 511.031C468.559 511.056 468.585 511.091 468.601 511.131C468.616 511.17 468.62 511.214 468.612 511.256C468.604 511.296 468.585 511.333 468.556 511.362C468.527 511.391 468.49 511.411 468.449 511.418C467.666 511.587 466.867 511.675 466.066 511.68ZM464.93 509.933H464.655C464.571 509.95 464.491 509.986 464.422 510.038C464.353 510.09 464.297 510.156 464.256 510.232C464.056 510.582 464.181 510.732 464.256 510.781C464.643 511.306 466.515 511.306 467.888 511.081C466.998 510.491 465.987 510.107 464.93 509.958V509.933Z" fill="#369577"/>
<path d="M468.412 511.455H468.312C467.364 510.931 465.529 508.959 465.716 507.911C465.748 507.749 465.835 507.603 465.963 507.499C466.09 507.394 466.25 507.337 466.415 507.337C466.58 507.319 466.746 507.334 466.905 507.382C467.063 507.429 467.211 507.507 467.339 507.612C468.399 508.485 468.587 511.131 468.587 511.243C468.592 511.283 468.585 511.323 468.567 511.358C468.549 511.394 468.521 511.423 468.487 511.443C468.463 511.453 468.438 511.457 468.412 511.455ZM466.565 507.711H466.465C466.178 507.711 466.153 507.886 466.141 507.936C466.028 508.548 467.201 510.058 468.137 510.769C468.072 509.727 467.698 508.728 467.064 507.899C466.921 507.79 466.745 507.733 466.565 507.736V507.711Z" fill="#369577"/>
<path d="M411.016 511.68C409.843 511.68 408.708 511.518 408.321 510.994C408.225 510.854 408.173 510.689 408.173 510.519C408.173 510.35 408.225 510.185 408.321 510.045C408.393 509.916 408.491 509.804 408.609 509.716C408.728 509.628 408.863 509.566 409.007 509.533C410.517 509.122 413.737 510.944 413.874 511.019C413.911 511.042 413.94 511.076 413.958 511.116C413.975 511.156 413.981 511.2 413.974 511.243C413.969 511.288 413.949 511.329 413.917 511.361C413.885 511.393 413.844 511.413 413.799 511.418C412.882 511.591 411.95 511.679 411.016 511.68ZM409.556 509.908C409.42 509.888 409.281 509.888 409.144 509.908C409.057 509.925 408.973 509.961 408.9 510.012C408.827 510.064 408.766 510.13 408.72 510.207C408.57 510.482 408.62 510.607 408.72 510.682C409.144 511.256 411.453 511.293 413.175 511.056C412.053 510.45 410.824 510.069 409.556 509.933V509.908Z" fill="#369577"/>
<path d="M413.787 511.455H413.7C412.589 510.969 410.405 508.959 410.567 507.948C410.567 507.699 410.779 507.399 411.378 507.337C411.601 507.303 411.829 507.319 412.044 507.384C412.26 507.449 412.459 507.56 412.626 507.711C413.799 508.66 414.037 511.131 414.049 511.243C414.054 511.281 414.048 511.32 414.033 511.355C414.018 511.39 413.993 511.421 413.962 511.443C413.935 511.457 413.906 511.466 413.876 511.468C413.846 511.47 413.815 511.466 413.787 511.455ZM411.553 507.711H411.416C411.029 507.711 411.004 507.911 410.991 507.961C410.892 508.585 412.389 510.145 413.487 510.819C413.38 509.771 412.943 508.783 412.239 507.998C412.048 507.834 411.805 507.741 411.553 507.736V507.711Z" fill="#369577"/>
<path d="M469.098 510.17H479.394C479.578 510.171 479.756 510.235 479.899 510.351C480.042 510.466 480.141 510.627 480.181 510.806L481.99 518.956C482.032 519.154 482.028 519.36 481.979 519.556C481.93 519.753 481.837 519.936 481.707 520.092C481.578 520.248 481.415 520.373 481.23 520.457C481.046 520.541 480.845 520.583 480.642 520.578C477.048 520.516 475.301 520.304 470.771 520.304C467.988 520.304 462.247 520.603 458.39 520.603C454.534 520.603 454.047 516.859 455.62 516.447C462.684 514.9 465.342 512.766 467.613 510.744C468.018 510.371 468.548 510.166 469.098 510.17Z" fill="#263238"/>
<path d="M414.76 510.17H424.744C424.928 510.171 425.106 510.235 425.249 510.351C425.392 510.466 425.491 510.627 425.531 510.806L427.34 518.956C427.383 519.153 427.382 519.356 427.335 519.552C427.289 519.748 427.198 519.931 427.071 520.087C426.944 520.243 426.783 520.368 426.6 520.453C426.418 520.538 426.219 520.581 426.017 520.578C422.411 520.516 417.194 520.304 412.651 520.304C407.347 520.304 402.755 520.603 396.527 520.603C392.783 520.603 391.722 516.859 393.295 516.447C400.471 514.875 406.324 514.713 412.526 510.894C413.187 510.445 413.962 510.194 414.76 510.17Z" fill="#263238"/>
<path d="M401.669 217.065C398.037 222.431 394.281 227.436 390.225 232.403C386.173 237.421 381.84 242.204 377.245 246.73L375.448 248.427L374.987 248.851L374.675 249.138L374.213 249.538C373.62 250.005 372.99 250.422 372.328 250.786C370.222 251.894 367.903 252.54 365.527 252.683C361.9 252.908 358.26 252.61 354.719 251.796C348.303 250.375 342.081 248.188 336.186 245.282L338.47 238.792C344.318 239.956 350.233 240.76 356.179 241.201C358.791 241.414 361.419 241.305 364.004 240.876C364.746 240.769 365.454 240.496 366.076 240.078V239.99L366.163 239.891L366.538 239.479L368.01 237.856C371.917 233.401 375.698 228.671 379.367 223.816C383.036 218.962 386.705 214.02 390.212 209.165L401.669 217.065Z" fill="#9F5B53"/>
<path d="M405.9 218.5C404.624 226.242 401.277 233.495 396.215 239.491C396.015 235.098 395.941 231.155 395.953 227.623L405.9 218.5Z" fill="#BED3FC"/>
<path d="M434.129 162.664C433.58 171.75 433.717 177.091 429.137 181.759C422.236 188.773 411.029 184.604 408.857 175.519C406.91 167.357 408.146 153.878 417.044 150.259C419.001 149.455 421.132 149.165 423.233 149.416C425.334 149.667 427.335 150.452 429.048 151.695C430.76 152.938 432.126 154.599 433.015 156.519C433.905 158.439 434.288 160.554 434.129 162.664Z" fill="#9F5B53"/>
<path d="M416.483 156.624C416.558 167.307 420.027 180.411 430.36 179.5C437.224 178.901 442.441 166.383 443.152 161.079C444.238 152.967 444.4 151.42 439.833 150.484C441.83 149.398 442.553 144.244 437.886 142.996C431.396 141.286 419.166 139.614 423.01 135.658C415.347 137.043 413.425 140.113 414.823 143.844C410.343 143.495 407.584 141.149 407.722 137.604C400.296 140.612 395.479 157.622 416.483 156.624Z" fill="#263238"/>
<path d="M421.824 165.31C421.318 167.513 420.098 169.487 418.355 170.926C416.046 172.798 414.199 171.126 414.249 168.43C414.249 165.996 415.572 162.09 418.167 161.267C420.763 160.443 422.46 162.652 421.824 165.31Z" fill="#9F5B53"/>
<path d="M446.784 152.343C445.563 151.566 444.167 151.104 442.723 150.999C441.278 150.894 439.831 151.151 438.51 151.744C438.51 151.744 443.701 144.768 446.784 152.343Z" fill="#263238"/>
<path d="M460.512 492.648C460.437 492.648 462.247 499.1 462.247 499.1H481.141L480.792 493.347L460.512 492.648Z" fill="#369577"/>
<path d="M407.859 492.648C407.784 492.648 408.733 499.1 408.733 499.1H427.627L428.139 493.347L407.859 492.648Z" fill="#369577"/>
<path d="M414.074 487.681C414.036 487.681 414 487.667 413.972 487.642C413.944 487.616 413.927 487.581 413.924 487.544C411.179 461.186 404.726 397.413 403.94 374.537C403.104 351.187 403.865 298.796 404.115 283.296C404.115 283.209 404.19 283.159 404.277 283.146C404.316 283.149 404.352 283.166 404.38 283.193C404.407 283.221 404.424 283.257 404.427 283.296C404.177 298.796 403.416 351.187 404.252 374.525C405.063 397.401 411.516 461.148 414.236 487.506C414.237 487.549 414.222 487.59 414.194 487.622C414.167 487.654 414.128 487.675 414.086 487.681H414.074Z" fill="#369577"/>
<path opacity="0.3" d="M414.074 487.681C414.036 487.681 414 487.667 413.972 487.642C413.944 487.616 413.927 487.581 413.924 487.544C411.179 461.186 404.726 397.413 403.94 374.537C403.104 351.187 403.865 298.796 404.115 283.296C404.115 283.209 404.19 283.159 404.277 283.146C404.316 283.149 404.352 283.166 404.38 283.193C404.407 283.221 404.424 283.257 404.427 283.296C404.177 298.796 403.416 351.187 404.252 374.525C405.063 397.401 411.516 461.148 414.236 487.506C414.237 487.549 414.222 487.59 414.194 487.622C414.167 487.654 414.128 487.675 414.086 487.681H414.074Z" fill="black"/>
<path d="M410.13 206.207C411.378 214.943 394.231 237.07 394.231 237.07L377.046 225.239C377.046 225.239 381.813 213.021 389.838 205.009C398.998 195.936 408.807 196.76 410.13 206.207Z" fill="#369577"/>
<path opacity="0.8" d="M410.13 206.207C411.378 214.943 394.231 237.07 394.231 237.07L377.046 225.239C377.046 225.239 381.813 213.021 389.838 205.009C398.998 195.936 408.807 196.76 410.13 206.207Z" fill="white"/>
<path d="M400.458 198.781C400.458 198.781 390.699 209.801 399.909 278.029H448.956C449.292 270.541 444.563 233.775 451.813 198.307C446.393 197.264 440.912 196.572 435.402 196.236C428.461 195.836 421.502 195.836 414.561 196.236C409.801 196.715 405.085 197.566 400.458 198.781Z" fill="#369577"/>
<path opacity="0.8" d="M400.458 198.781C400.458 198.781 390.699 209.801 399.909 278.029H448.956C449.292 270.541 444.563 233.775 451.813 198.307C446.393 197.264 440.912 196.572 435.402 196.236C428.461 195.836 421.502 195.836 414.561 196.236C409.801 196.715 405.085 197.566 400.458 198.781Z" fill="white"/>
<path d="M256.163 148.693C260.08 131.438 249.268 114.276 232.014 110.359C214.76 106.442 197.597 117.254 193.68 134.508C189.764 151.762 200.576 168.925 217.83 172.842C235.084 176.759 252.246 165.947 256.163 148.693Z" fill="#1F84DE"/>
<path opacity="0.2" d="M256.163 148.693C260.08 131.438 249.268 114.276 232.014 110.359C214.76 106.442 197.597 117.254 193.68 134.508C189.764 151.762 200.576 168.925 217.83 172.842C235.084 176.759 252.246 165.947 256.163 148.693Z" fill="white"/>
<path d="M221.632 183.144C213.346 182.504 205.443 179.39 198.948 174.205C192.452 169.02 187.664 162.004 185.203 154.066L186.389 153.691C188.777 161.392 193.424 168.197 199.725 173.226C206.027 178.255 213.694 181.275 221.732 181.896L221.632 183.144Z" fill="#1F84DE"/>
<path opacity="0.2" d="M221.632 183.144C213.346 182.504 205.443 179.39 198.948 174.205C192.452 169.02 187.664 162.004 185.203 154.066L186.389 153.691C188.777 161.392 193.424 168.197 199.725 173.226C206.027 178.255 213.694 181.275 221.732 181.896L221.632 183.144Z" fill="white"/>
<path d="M186.214 130.067L184.966 129.717C186.575 124.342 189.253 119.347 192.839 115.032C196.426 110.717 200.847 107.171 205.838 104.607C210.829 102.043 216.286 100.514 221.882 100.11C227.479 99.7072 233.099 100.439 238.405 102.261L238.006 103.447C232.855 101.681 227.4 100.974 221.969 101.367C216.538 101.761 211.242 103.248 206.399 105.739C201.557 108.229 197.267 111.672 193.788 115.861C190.308 120.05 187.711 124.899 186.152 130.116L186.214 130.067Z" fill="#1F84DE"/>
<path opacity="0.2" d="M186.214 130.067L184.966 129.717C186.575 124.342 189.253 119.347 192.839 115.032C196.426 110.717 200.847 107.171 205.838 104.607C210.829 102.043 216.286 100.514 221.882 100.11C227.479 99.7072 233.099 100.439 238.405 102.261L238.006 103.447C232.855 101.681 227.4 100.974 221.969 101.367C216.538 101.761 211.242 103.248 206.399 105.739C201.557 108.229 197.267 111.672 193.788 115.861C190.308 120.05 187.711 124.899 186.152 130.116L186.214 130.067Z" fill="white"/>
<path d="M263.503 129.53C260.585 120.199 254.376 112.247 246.031 107.153L246.68 106.08C255.274 111.34 261.668 119.539 264.676 129.156L263.503 129.53Z" fill="#1F84DE"/>
<path opacity="0.2" d="M263.503 129.53C260.585 120.199 254.376 112.247 246.031 107.153L246.68 106.08C255.274 111.34 261.668 119.539 264.676 129.156L263.503 129.53Z" fill="white"/>
<path d="M256.178 237.125C260.094 219.871 249.283 202.708 232.028 198.791C214.774 194.874 197.612 205.686 193.695 222.94C189.778 240.195 200.59 257.357 217.844 261.274C235.098 265.191 252.261 254.379 256.178 237.125Z" fill="#1F84DE"/>
<path opacity="0.6" d="M256.178 237.125C260.094 219.871 249.283 202.708 232.028 198.791C214.774 194.874 197.612 205.686 193.695 222.94C189.778 240.195 200.59 257.357 217.844 261.274C235.098 265.191 252.261 254.379 256.178 237.125Z" fill="white"/>
<path d="M256.167 325.554C260.084 308.3 249.272 291.138 232.018 287.221C214.764 283.304 197.602 294.116 193.685 311.37C189.768 328.624 200.58 345.786 217.834 349.703C235.088 353.62 252.25 342.808 256.167 325.554Z" fill="#1F84DE"/>
<path opacity="0.6" d="M256.167 325.554C260.084 308.3 249.272 291.138 232.018 287.221C214.764 283.304 197.602 294.116 193.685 311.37C189.768 328.624 200.58 345.786 217.834 349.703C235.088 353.62 252.25 342.808 256.167 325.554Z" fill="white"/>
<path d="M256.169 413.999C260.086 396.745 249.274 379.582 232.02 375.665C214.766 371.748 197.604 382.56 193.687 399.814C189.77 417.069 200.582 434.231 217.836 438.148C235.09 442.065 252.252 431.253 256.169 413.999Z" fill="#1F84DE"/>
<path opacity="0.6" d="M256.169 413.999C260.086 396.745 249.274 379.582 232.02 375.665C214.766 371.748 197.604 382.56 193.687 399.814C189.77 417.069 200.582 434.231 217.836 438.148C235.09 442.065 252.252 431.253 256.169 413.999Z" fill="white"/>
<path d="M167.734 148.682C171.651 131.428 160.839 114.266 143.585 110.349C126.33 106.432 109.168 117.244 105.251 134.498C101.334 151.752 112.146 168.915 129.4 172.832C146.654 176.748 163.817 165.936 167.734 148.682Z" fill="#1F84DE"/>
<path opacity="0.6" d="M167.734 148.682C171.651 131.428 160.839 114.266 143.585 110.349C126.33 106.432 109.168 117.244 105.251 134.498C101.334 151.752 112.146 168.915 129.4 172.832C146.654 176.748 163.817 165.936 167.734 148.682Z" fill="white"/>
<path d="M167.748 237.127C171.665 219.873 160.853 202.71 143.599 198.794C126.345 194.877 109.182 205.689 105.266 222.943C101.349 240.197 112.161 257.359 129.415 261.276C146.669 265.193 163.831 254.381 167.748 237.127Z" fill="#1F84DE"/>
<path opacity="0.6" d="M167.748 237.127C171.665 219.873 160.853 202.71 143.599 198.794C126.345 194.877 109.182 205.689 105.266 222.943C101.349 240.197 112.161 257.359 129.415 261.276C146.669 265.193 163.831 254.381 167.748 237.127Z" fill="white"/>
<path d="M167.738 325.556C171.655 308.302 160.843 291.14 143.589 287.223C126.335 283.306 109.172 294.118 105.255 311.372C101.339 328.626 112.151 345.789 129.405 349.706C146.659 353.622 163.821 342.81 167.738 325.556Z" fill="#1F84DE"/>
<path opacity="0.6" d="M167.738 325.556C171.655 308.302 160.843 291.14 143.589 287.223C126.335 283.306 109.172 294.118 105.255 311.372C101.339 328.626 112.151 345.789 129.405 349.706C146.659 353.622 163.821 342.81 167.738 325.556Z" fill="white"/>
<path d="M167.74 413.988C171.657 396.734 160.845 379.572 143.591 375.655C126.337 371.738 109.174 382.55 105.257 399.804C101.341 417.058 112.152 434.221 129.407 438.138C146.661 442.055 163.823 431.243 167.74 413.988Z" fill="#1F84DE"/>
<path opacity="0.6" d="M167.74 413.988C171.657 396.734 160.845 379.572 143.591 375.655C126.337 371.738 109.174 382.55 105.257 399.804C101.341 417.058 112.152 434.221 129.407 438.138C146.661 442.055 163.823 431.243 167.74 413.988Z" fill="white"/>
<path d="M339.706 239.466L332.979 232.502L325.803 241.763C325.803 241.763 331.269 247.029 337.771 245.507L339.706 239.466Z" fill="#9F5B53"/>
<path d="M323.731 228.684L320.661 238.393L325.803 241.763L332.979 232.502L323.731 228.684Z" fill="#9F5B53"/>
<path d="M232.128 229.208C232.684 227.555 233.592 226.042 234.789 224.773C235.985 223.505 237.442 222.51 239.06 221.858C240.677 221.206 242.416 220.911 244.158 220.995C245.9 221.079 247.603 221.539 249.151 222.344L241.663 218.45C238.891 217.049 236.748 214.656 235.661 211.747C234.574 208.837 234.623 205.625 235.797 202.75C236.462 201.234 237.43 199.871 238.643 198.744C239.855 197.618 241.285 196.752 242.846 196.199C244.406 195.647 246.063 195.421 247.714 195.535C249.365 195.648 250.975 196.099 252.445 196.86L244.957 192.978C242.182 191.577 240.037 189.182 238.95 186.27C237.863 183.358 237.914 180.143 239.092 177.266C239.755 175.737 240.727 174.361 241.947 173.226C243.167 172.09 244.609 171.219 246.182 170.667C247.754 170.115 249.424 169.894 251.086 170.018C252.748 170.142 254.367 170.609 255.84 171.388L220.284 152.793C217.669 151.485 215.604 149.289 214.46 146.597C213.317 143.905 213.169 140.894 214.044 138.104C214.604 136.452 215.514 134.94 216.712 133.673C217.91 132.405 219.368 131.411 220.986 130.76C222.604 130.108 224.343 129.813 226.085 129.896C227.827 129.979 229.531 130.437 231.08 131.24L305.96 170.389L298.272 138.84C297.515 135.67 297.988 132.332 299.597 129.498C301.206 126.664 303.83 124.546 306.94 123.571C310.05 122.597 313.413 122.839 316.351 124.248C319.29 125.658 321.584 128.13 322.77 131.165L347.331 194.963C349.434 200.415 353.448 204.917 358.625 207.63L362.906 209.864C363.562 210.206 364.144 210.674 364.619 211.241C365.093 211.809 365.451 212.465 365.671 213.171C365.891 213.877 365.97 214.62 365.902 215.357C365.835 216.094 365.622 216.81 365.277 217.464L335.325 274.685C334.632 276.007 333.442 277.001 332.018 277.447C330.593 277.894 329.049 277.758 327.725 277.069L317.217 271.577C313.236 269.535 308.776 268.612 304.312 268.907C293.519 269.51 282.764 267.181 273.187 262.167L238.243 243.897C235.65 242.569 233.612 240.363 232.492 237.674C231.372 234.984 231.243 231.984 232.128 229.208Z" fill="#369577"/>
<path d="M330.396 279.552C329.188 279.553 327.997 279.262 326.926 278.703L316.418 273.212C312.736 271.327 308.616 270.465 304.487 270.716C293.358 271.34 282.266 268.943 272.388 263.777L237.444 245.507C234.451 243.975 232.097 241.432 230.802 238.329C229.506 235.226 229.353 231.764 230.368 228.559C231.01 226.646 232.06 224.897 233.445 223.431C234.831 221.966 236.519 220.819 238.393 220.072C238.9 219.862 239.422 219.687 239.953 219.548C237.035 217.799 234.843 215.06 233.776 211.83C232.708 208.6 232.836 205.095 234.137 201.951C234.892 200.19 236.007 198.606 237.41 197.301C238.814 195.996 240.475 195 242.287 194.376C242.624 194.264 242.961 194.151 243.298 194.064C240.378 192.317 238.184 189.578 237.116 186.347C236.049 183.117 236.178 179.61 237.482 176.467C238.238 174.708 239.353 173.126 240.757 171.824C242.16 170.521 243.821 169.527 245.631 168.904C245.943 168.792 246.268 168.692 246.58 168.605L219.423 154.403C216.43 152.871 214.076 150.328 212.781 147.225C211.485 144.122 211.332 140.66 212.347 137.455C212.993 135.548 214.044 133.803 215.427 132.339C216.811 130.876 218.494 129.728 220.362 128.976C222.229 128.223 224.238 127.883 226.249 127.979C228.261 128.074 230.228 128.604 232.016 129.53L303.264 166.82L296.537 139.277C295.674 135.647 296.222 131.825 298.068 128.582C299.915 125.34 302.924 122.92 306.486 121.811C310.049 120.701 313.899 120.986 317.26 122.606C320.621 124.227 323.242 127.063 324.592 130.541L349.153 194.339C351.093 199.368 354.797 203.52 359.574 206.02L363.842 208.254C364.716 208.709 365.491 209.332 366.124 210.088C366.756 210.843 367.233 211.716 367.528 212.656C367.822 213.597 367.928 214.586 367.84 215.567C367.751 216.548 367.47 217.503 367.012 218.375L337.06 275.608C336.414 276.811 335.452 277.813 334.277 278.509C333.102 279.204 331.76 279.564 330.396 279.552ZM305.897 266.96C310.159 266.936 314.363 267.943 318.153 269.892L328.661 275.384C329.098 275.616 329.577 275.759 330.069 275.804C330.562 275.85 331.059 275.798 331.531 275.651C332.003 275.503 332.442 275.264 332.821 274.946C333.2 274.628 333.513 274.238 333.74 273.799L363.692 216.565C363.922 216.128 364.062 215.65 364.106 215.158C364.15 214.666 364.096 214.171 363.948 213.7C363.799 213.229 363.559 212.792 363.241 212.414C362.923 212.036 362.534 211.725 362.095 211.499L357.827 209.265C352.262 206.347 347.949 201.502 345.696 195.636L321.123 131.839C320.136 129.211 318.181 127.061 315.659 125.83C313.137 124.599 310.239 124.38 307.56 125.219C304.882 126.057 302.626 127.889 301.256 130.339C299.886 132.789 299.506 135.67 300.194 138.391L307.907 169.953C307.992 170.301 307.975 170.666 307.858 171.005C307.741 171.344 307.528 171.641 307.245 171.862C306.963 172.087 306.622 172.225 306.262 172.258C305.903 172.292 305.542 172.219 305.223 172.049L230.343 132.9C229.038 132.221 227.602 131.833 226.133 131.762C224.664 131.691 223.196 131.938 221.832 132.488C220.45 133.026 219.206 133.865 218.189 134.945C217.172 136.024 216.409 137.316 215.954 138.728C215.208 141.095 215.329 143.649 216.294 145.936C217.259 148.222 219.005 150.09 221.22 151.208L256.788 169.803C257.229 170.033 257.56 170.428 257.708 170.902C257.857 171.376 257.811 171.89 257.581 172.33C257.467 172.548 257.311 172.741 257.123 172.899C256.934 173.057 256.716 173.176 256.482 173.25C256.008 173.398 255.494 173.353 255.054 173.123C253.812 172.478 252.452 172.096 251.056 171.999C249.661 171.903 248.26 172.094 246.942 172.561C245.618 173.017 244.403 173.744 243.376 174.696C242.349 175.648 241.532 176.804 240.976 178.09C239.983 180.529 239.945 183.252 240.87 185.718C241.795 188.183 243.616 190.21 245.968 191.393L253.456 195.287C253.859 195.536 254.152 195.929 254.277 196.385C254.402 196.842 254.349 197.329 254.129 197.748C253.909 198.168 253.538 198.488 253.092 198.645C252.645 198.802 252.155 198.784 251.722 198.594C250.482 197.952 249.123 197.571 247.73 197.475C246.337 197.378 244.939 197.568 243.622 198.033C242.298 198.492 241.083 199.221 240.056 200.175C239.029 201.129 238.212 202.287 237.657 203.574C236.667 206.011 236.631 208.732 237.556 211.195C238.481 213.657 240.299 215.682 242.649 216.865L250.137 220.759C250.577 220.989 250.908 221.384 251.056 221.858C251.205 222.332 251.159 222.846 250.929 223.286C250.699 223.726 250.304 224.057 249.83 224.206C249.356 224.354 248.842 224.308 248.402 224.078C247.095 223.405 245.658 223.021 244.19 222.952C242.721 222.883 241.255 223.131 239.891 223.679C238.514 224.223 237.274 225.065 236.261 226.144C235.247 227.222 234.483 228.511 234.025 229.919C233.277 232.286 233.396 234.842 234.361 237.128C235.326 239.415 237.074 241.284 239.292 242.399L274.236 260.67C283.494 265.456 293.869 267.667 304.275 267.072C304.824 267.072 305.361 266.985 305.897 266.985V266.96Z" fill="#369577"/>
<path d="M258.498 229.095C258.194 229.098 257.894 229.025 257.625 228.883L248.352 224.004C248.134 223.89 247.941 223.734 247.783 223.545C247.625 223.357 247.506 223.139 247.432 222.904C247.359 222.669 247.332 222.422 247.354 222.178C247.376 221.933 247.446 221.694 247.56 221.476C247.673 221.258 247.829 221.065 248.018 220.907C248.206 220.749 248.424 220.63 248.659 220.557C248.894 220.483 249.141 220.456 249.386 220.478C249.63 220.5 249.869 220.57 250.087 220.684L259.409 225.564C259.78 225.757 260.076 226.069 260.249 226.451C260.422 226.832 260.462 227.26 260.362 227.667C260.263 228.073 260.031 228.435 259.702 228.694C259.373 228.953 258.967 229.094 258.548 229.095H258.498Z" fill="#369577"/>
<path d="M261.843 203.611C261.539 203.615 261.238 203.542 260.969 203.399L251.647 198.519C251.411 198.416 251.199 198.266 251.025 198.078C250.85 197.889 250.715 197.667 250.63 197.425C250.545 197.182 250.511 196.925 250.529 196.668C250.548 196.412 250.619 196.162 250.739 195.934C250.858 195.707 251.023 195.506 251.223 195.345C251.424 195.184 251.655 195.066 251.903 194.998C252.151 194.93 252.41 194.914 252.664 194.951C252.919 194.988 253.163 195.077 253.382 195.212L262.704 200.079C263.075 200.273 263.371 200.585 263.544 200.967C263.716 201.348 263.756 201.776 263.657 202.183C263.558 202.589 263.325 202.951 262.997 203.21C262.668 203.469 262.262 203.61 261.843 203.611Z" fill="#369577"/>
<path d="M265.175 178.14C264.876 178.136 264.581 178.063 264.314 177.927L254.991 173.048C254.773 172.934 254.58 172.778 254.422 172.589C254.264 172.401 254.145 172.183 254.072 171.948C253.998 171.714 253.972 171.467 253.993 171.222C254.015 170.977 254.085 170.738 254.199 170.52C254.313 170.303 254.469 170.109 254.657 169.951C254.846 169.794 255.064 169.674 255.298 169.601C255.533 169.527 255.78 169.501 256.025 169.522C256.27 169.544 256.508 169.614 256.726 169.728L266.049 174.608C266.421 174.802 266.717 175.115 266.889 175.498C267.062 175.88 267.101 176.31 267 176.717C266.9 177.124 266.665 177.486 266.334 177.744C266.003 178.002 265.595 178.141 265.175 178.14Z" fill="#369577"/>
<path opacity="0.3" d="M330.396 279.552C329.188 279.553 327.997 279.262 326.926 278.703L316.418 273.212C312.736 271.327 308.616 270.465 304.487 270.716C293.358 271.34 282.266 268.943 272.388 263.777L237.444 245.507C234.451 243.975 232.097 241.432 230.802 238.329C229.506 235.226 229.353 231.764 230.368 228.559C231.01 226.646 232.06 224.897 233.445 223.431C234.831 221.966 236.519 220.819 238.393 220.072C238.9 219.862 239.422 219.687 239.953 219.548C237.035 217.799 234.843 215.06 233.776 211.83C232.708 208.6 232.836 205.095 234.137 201.951C234.892 200.19 236.007 198.606 237.41 197.301C238.814 195.996 240.475 195 242.287 194.376C242.624 194.264 242.961 194.151 243.298 194.064C240.378 192.317 238.184 189.578 237.116 186.347C236.049 183.117 236.178 179.61 237.482 176.467C238.238 174.708 239.353 173.126 240.757 171.824C242.16 170.521 243.821 169.527 245.631 168.904C245.943 168.792 246.268 168.692 246.58 168.605L219.423 154.403C216.43 152.871 214.076 150.328 212.781 147.225C211.485 144.122 211.332 140.66 212.347 137.455C212.993 135.548 214.044 133.803 215.427 132.339C216.811 130.876 218.494 129.728 220.362 128.976C222.229 128.223 224.238 127.883 226.249 127.979C228.261 128.074 230.228 128.604 232.016 129.53L303.264 166.82L296.537 139.277C295.674 135.647 296.222 131.825 298.068 128.582C299.915 125.34 302.924 122.92 306.486 121.811C310.049 120.701 313.899 120.986 317.26 122.606C320.621 124.227 323.242 127.063 324.592 130.541L349.153 194.339C351.093 199.368 354.797 203.52 359.574 206.02L363.842 208.254C364.716 208.709 365.491 209.332 366.124 210.088C366.756 210.843 367.233 211.716 367.528 212.656C367.822 213.597 367.928 214.586 367.84 215.567C367.751 216.548 367.47 217.503 367.012 218.375L337.06 275.608C336.414 276.811 335.452 277.813 334.277 278.509C333.102 279.204 331.76 279.564 330.396 279.552ZM305.897 266.96C310.159 266.936 314.363 267.943 318.153 269.892L328.661 275.384C329.098 275.616 329.577 275.759 330.069 275.804C330.562 275.85 331.059 275.798 331.531 275.651C332.003 275.503 332.442 275.264 332.821 274.946C333.2 274.628 333.513 274.238 333.74 273.799L363.692 216.565C363.922 216.128 364.062 215.65 364.106 215.158C364.15 214.666 364.096 214.171 363.948 213.7C363.799 213.229 363.559 212.792 363.241 212.414C362.923 212.036 362.534 211.725 362.095 211.499L357.827 209.265C352.262 206.347 347.949 201.502 345.696 195.636L321.123 131.839C320.136 129.211 318.181 127.061 315.659 125.83C313.137 124.599 310.239 124.38 307.56 125.219C304.882 126.057 302.626 127.889 301.256 130.339C299.886 132.789 299.506 135.67 300.194 138.391L307.907 169.953C307.992 170.301 307.975 170.666 307.858 171.005C307.741 171.344 307.528 171.641 307.245 171.862C306.963 172.087 306.622 172.225 306.262 172.258C305.903 172.292 305.542 172.219 305.223 172.049L230.343 132.9C229.038 132.221 227.602 131.833 226.133 131.762C224.664 131.691 223.196 131.938 221.832 132.488C220.45 133.026 219.206 133.865 218.189 134.945C217.172 136.024 216.409 137.316 215.954 138.728C215.208 141.095 215.329 143.649 216.294 145.936C217.259 148.222 219.005 150.09 221.22 151.208L256.788 169.803C257.229 170.033 257.56 170.428 257.708 170.902C257.857 171.376 257.811 171.89 257.581 172.33C257.467 172.548 257.311 172.741 257.123 172.899C256.934 173.057 256.716 173.176 256.482 173.25C256.008 173.398 255.494 173.353 255.054 173.123C253.812 172.478 252.452 172.096 251.056 171.999C249.661 171.903 248.26 172.094 246.942 172.561C245.618 173.017 244.403 173.744 243.376 174.696C242.349 175.648 241.532 176.804 240.976 178.09C239.983 180.529 239.945 183.252 240.87 185.718C241.795 188.183 243.616 190.21 245.968 191.393L253.456 195.287C253.859 195.536 254.152 195.929 254.277 196.385C254.402 196.842 254.349 197.329 254.129 197.748C253.909 198.168 253.538 198.488 253.092 198.645C252.645 198.802 252.155 198.784 251.722 198.594C250.482 197.952 249.123 197.571 247.73 197.475C246.337 197.378 244.939 197.568 243.622 198.033C242.298 198.492 241.083 199.221 240.056 200.175C239.029 201.129 238.212 202.287 237.657 203.574C236.667 206.011 236.631 208.732 237.556 211.195C238.481 213.657 240.299 215.682 242.649 216.865L250.137 220.759C250.577 220.989 250.908 221.384 251.056 221.858C251.205 222.332 251.159 222.846 250.929 223.286C250.699 223.726 250.304 224.057 249.83 224.206C249.356 224.354 248.842 224.308 248.402 224.078C247.095 223.405 245.658 223.021 244.19 222.952C242.721 222.883 241.255 223.131 239.891 223.679C238.514 224.223 237.274 225.065 236.261 226.144C235.247 227.222 234.483 228.511 234.025 229.919C233.277 232.286 233.396 234.842 234.361 237.128C235.326 239.415 237.074 241.284 239.292 242.399L274.236 260.67C283.494 265.456 293.869 267.667 304.275 267.072C304.824 267.072 305.361 266.985 305.897 266.985V266.96Z" fill="black"/>
</svg>
