<svg width="576" height="576" viewBox="0 0 576 576" fill="none" xmlns="http://www.w3.org/2000/svg">
<path d="M183.891 168.629C183.891 198.135 159.971 222.054 130.465 222.054C100.96 222.054 77.0402 198.135 77.0402 168.629C77.0402 139.123 100.96 115.203 130.465 115.203C159.971 115.203 183.891 139.123 183.891 168.629Z" stroke="#1F84DE" stroke-opacity="0.34"/>
<path d="M189.014 168.763C189.014 201.173 162.74 227.446 130.331 227.446C97.921 227.446 71.6478 201.173 71.6478 168.763C71.6478 136.354 97.921 110.081 130.331 110.081C162.74 110.081 189.014 136.354 189.014 168.763Z" stroke="#1F84DE" stroke-opacity="0.34"/>
<path d="M193.867 168.629C193.867 203.644 165.481 232.03 130.465 232.03C95.4497 232.03 67.064 203.644 67.064 168.629C67.064 133.613 95.4497 105.227 130.465 105.227C165.481 105.227 193.867 133.613 193.867 168.629Z" stroke="#1F84DE" stroke-opacity="0.34"/>
<path d="M179.307 168.629C179.307 195.603 157.44 217.47 130.465 217.47C103.491 217.47 81.6238 195.603 81.6238 168.629C81.6238 141.654 103.491 119.787 130.465 119.787C157.44 119.787 179.307 141.654 179.307 168.629Z" stroke="#1F84DE" stroke-opacity="0.34"/>
<path d="M173.914 168.763C173.914 192.834 154.401 212.347 130.331 212.347C106.26 212.347 86.7466 192.834 86.7466 168.763C86.7466 144.693 106.26 125.18 130.331 125.18C154.401 125.18 173.914 144.693 173.914 168.763Z" stroke="#1F84DE" stroke-opacity="0.34"/>
<path d="M167.443 168.763C167.443 189.26 150.827 205.876 130.33 205.876C109.833 205.876 93.2175 189.26 93.2175 168.763C93.2175 148.267 109.833 131.651 130.33 131.651C150.827 131.651 167.443 148.267 167.443 168.763Z" stroke="#1F84DE" stroke-opacity="0.34"/>
<path d="M160.163 168.763C160.163 185.24 146.807 198.596 130.33 198.596C113.854 198.596 100.497 185.24 100.497 168.763C100.497 152.287 113.854 138.931 130.33 138.931C146.807 138.931 160.163 152.287 160.163 168.763Z" stroke="#1F84DE" stroke-opacity="0.34"/>
<path d="M152.884 168.629C152.884 181.01 142.847 191.047 130.466 191.047C118.084 191.047 108.047 181.01 108.047 168.629C108.047 156.247 118.084 146.21 130.466 146.21C142.847 146.21 152.884 156.247 152.884 168.629Z" stroke="#1F84DE" stroke-opacity="0.34"/>
<path d="M237.658 185.057C237.807 185.564 238.072 186.336 238.303 186.981L239.04 189.043C239.547 190.414 240.1 191.773 240.687 193.121C241.836 195.789 243.128 198.392 244.558 200.92C247.392 205.874 250.836 210.355 254.926 213.224L255.64 213.719C255.64 213.719 255.64 213.8 255.813 213.823C256.593 213.803 257.356 213.593 258.037 213.212C260.397 211.962 262.569 210.383 264.488 208.524C266.704 206.494 268.815 204.353 270.812 202.107C272.863 199.803 274.879 197.418 276.78 195.08L282.275 198.397C279.42 204.45 275.834 210.13 271.596 215.309C269.267 218.188 266.508 220.691 263.416 222.728C261.384 224.036 259.086 224.875 256.689 225.181C255.163 225.337 253.622 225.196 252.15 224.767C251.391 224.544 250.657 224.243 249.961 223.868L248.636 223.131C245.416 221.189 242.501 218.782 239.985 215.988C237.579 213.36 235.434 210.506 233.58 207.464C231.76 204.51 230.155 201.431 228.776 198.248C228.096 196.681 227.451 195.091 226.863 193.49C226.564 192.684 226.276 191.877 226.011 191.048C225.746 190.218 225.504 189.458 225.228 188.433L237.658 185.057Z" fill="#B97964"/>
<path d="M249.558 205.413L234.824 213.569C234.824 213.569 234.386 212.936 233.672 211.841C233.153 211.035 232.52 209.975 231.713 208.731C227.382 201.692 220.193 188.836 222.071 183.387C224.94 175 235.515 175.139 240.71 184.861C243.223 189.706 245.472 194.682 247.45 199.768C247.991 201.128 248.44 202.314 248.786 203.224C249.281 204.618 249.558 205.413 249.558 205.413Z" fill="#1F84DE"/>
<path opacity="0.2" d="M249.558 205.413L234.824 213.569C234.824 213.569 234.386 212.936 233.672 211.841C233.153 211.035 232.52 209.975 231.713 208.731C227.382 201.692 220.193 188.836 222.071 183.387C224.94 175 235.515 175.139 240.71 184.861C243.223 189.706 245.472 194.682 247.45 199.768C247.991 201.128 248.44 202.314 248.786 203.224C249.281 204.618 249.558 205.413 249.558 205.413Z" fill="#29335C"/>
<path opacity="0.2" d="M248.832 203.282L233.718 211.841C233.199 211.035 232.566 209.975 231.759 208.731L247.496 199.814C247.991 201.174 248.44 202.36 248.832 203.282Z" fill="#29335C"/>
<path opacity="0.2" d="M221.852 184.401C225.147 182.811 228.948 184.136 232.934 190.449C236.92 196.762 240.342 207.36 240.768 210.321L234.881 213.569C234.881 213.569 220.643 192.799 221.852 184.401Z" fill="#29335C"/>
<path d="M235.515 251.839H189.838C189.516 247.761 190.46 234.49 189.758 217.59C189.323 205.063 187.805 192.598 185.219 180.334C185.011 179.412 184.804 178.502 184.585 177.581C184.585 177.581 186.889 177.108 190.218 176.625C192.972 176.221 196.428 175.807 199.814 175.645C206.28 175.277 212.761 175.277 219.226 175.645C222.209 175.922 225.124 176.417 227.451 176.867C230.423 177.466 232.451 178.019 232.451 178.019C232.451 178.019 243.429 203.812 235.515 251.839Z" fill="#1F84DE"/>
<path opacity="0.2" d="M235.515 251.839H189.838C189.516 247.761 190.46 234.49 189.758 217.59C189.323 205.063 187.805 192.598 185.219 180.334C185.011 179.412 184.804 178.502 184.585 177.581C184.585 177.581 186.889 177.108 190.218 176.625C192.972 176.221 196.428 175.807 199.814 175.645C206.28 175.277 212.761 175.277 219.226 175.645C222.209 175.922 225.124 176.417 227.451 176.867C230.423 177.466 232.451 178.019 232.451 178.019C232.451 178.019 243.429 203.812 235.515 251.839Z" fill="#29335C"/>
<path d="M173.226 456.031L180 462.09L192.879 448.669L186.117 442.61L173.226 456.031Z" fill="#B97964"/>
<path d="M196.416 468.645H204.952L206.07 448.865H197.522L196.416 468.645Z" fill="#B97964"/>
<path d="M192.879 448.681L186.232 455.593L179.459 449.534L186.106 442.61L192.879 448.681Z" fill="#A76755"/>
<path d="M197.522 448.877H206.07L205.494 459.072H196.946L197.522 448.877Z" fill="#A76755"/>
<path d="M235.077 251.401C235.077 251.401 244.074 313.678 247.15 347.581C249.615 374.769 190.806 455.869 190.806 455.869L179.424 445.167C179.424 445.167 222.382 372.465 219.076 342.19C215.873 312.86 205.021 251.366 205.021 251.366L235.077 251.401Z" fill="#1F84DE"/>
<path opacity="0.7" d="M235.077 251.401C235.077 251.401 244.074 313.678 247.15 347.581C249.615 374.769 190.806 455.869 190.806 455.869L179.424 445.167C179.424 445.167 222.382 372.465 219.076 342.19C215.873 312.86 205.021 251.366 205.021 251.366L235.077 251.401Z" fill="#29335C"/>
<path d="M205.402 467.712H195.84C195.76 467.709 195.68 467.722 195.604 467.75C195.529 467.777 195.46 467.82 195.401 467.874C195.342 467.929 195.295 467.995 195.262 468.068C195.228 468.141 195.209 468.219 195.206 468.3L194.746 475.891C194.745 476.291 194.903 476.674 195.183 476.958C195.463 477.243 195.844 477.406 196.243 477.412C199.584 477.354 201.174 477.147 205.459 477.147C208.051 477.147 219.087 477.423 222.67 477.423C226.253 477.423 226.126 473.875 224.64 473.553C217.82 472.113 209.376 470.097 206.968 468.242C206.526 467.884 205.97 467.696 205.402 467.712Z" fill="#263238"/>
<path d="M181.866 459.648L173.629 454.107C173.496 454.003 173.332 453.947 173.163 453.947C172.994 453.947 172.83 454.003 172.696 454.107L166.406 460.454C166.282 460.594 166.189 460.76 166.136 460.939C166.083 461.119 166.07 461.308 166.099 461.493C166.127 461.678 166.197 461.854 166.302 462.009C166.407 462.165 166.545 462.294 166.706 462.39C171.959 466.433 175.749 469.475 178.733 472.838C182.189 476.778 184.067 477.331 192.131 477.331C195.863 477.331 197.971 474.186 196.451 473.702C183.007 469.452 186.601 467.597 183.341 461.364C182.994 460.682 182.488 460.094 181.866 459.648Z" fill="#263238"/>
<path d="M275.766 196.531L278.703 187.131L286.33 192.718C286.33 192.718 282.159 201.093 279.337 200.333L275.766 196.531Z" fill="#B97964"/>
<path d="M286.733 183.537L291.03 188.801L286.33 192.718L278.703 187.131L286.733 183.537Z" fill="#B97964"/>
<path opacity="0.2" d="M189.757 217.59C189.323 205.063 187.805 192.598 185.219 180.334C188.271 180.069 193.49 180.334 194.354 185.299C195.287 190.598 194.112 203.063 189.757 217.59Z" fill="#29335C"/>
<path opacity="0.5" d="M219.076 342.213C217.429 327.11 213.742 303.448 210.574 284.072C212.233 280.823 216.876 274.257 216.876 274.257C221.046 288.668 230.112 342.985 217.187 416.356C203.708 438.083 190.806 455.893 190.806 455.893L189.043 427.876C201.496 404.444 221.368 363.168 219.076 342.213Z" fill="#29335C"/>
<path d="M192.868 189.988L190.852 193.444C190.161 194.642 189.493 195.852 188.847 197.073C187.534 199.515 186.271 201.972 185.057 204.445C183.905 206.922 182.753 209.411 181.728 211.899C180.738 214.353 179.873 216.856 179.136 219.398L178.998 219.859L178.929 220.101C178.929 220.17 178.929 220.101 178.929 220.101C178.891 220.164 178.867 220.235 178.86 220.308C178.824 220.665 178.824 221.024 178.86 221.38C178.978 222.467 179.206 223.54 179.539 224.582C180.337 227.083 181.311 229.523 182.454 231.886C184.758 236.84 187.557 241.874 190.357 246.735L185.299 250.687C181.098 246.414 177.3 241.763 173.952 236.794C172.177 234.165 170.635 231.385 169.344 228.488C168.616 226.835 168.052 225.114 167.662 223.35C167.437 222.285 167.322 221.201 167.317 220.113C167.308 219.457 167.354 218.802 167.455 218.154L167.535 217.682V217.382L167.662 216.795C168.903 210.711 170.816 204.785 173.365 199.123C174.574 196.335 175.899 193.617 177.316 190.955C178.03 189.619 178.756 188.306 179.516 186.993C180.277 185.679 181.025 184.435 181.924 183.041L192.868 189.988Z" fill="#B97964"/>
<path d="M195.921 193.133C193.791 199.032 191.318 204.802 188.513 210.413C187.903 211.68 187.361 212.809 186.878 213.719C186.071 215.32 185.564 216.288 185.564 216.288L168.284 206.703C168.284 206.703 168.503 205.978 168.895 204.756C169.194 203.835 169.586 202.625 170.047 201.231C172.927 193.018 178.814 178.364 184.585 177.523C193.214 176.325 199.423 182.776 195.921 193.133Z" fill="#1F84DE"/>
<path opacity="0.2" d="M188.513 210.47C187.903 211.738 187.361 212.867 186.877 213.777L168.872 204.814C169.171 203.892 169.563 202.683 170.024 201.289L188.513 210.47Z" fill="#29335C"/>
<path d="M208.431 469.14C207.655 469.123 206.883 469.022 206.127 468.841C206.089 468.83 206.054 468.81 206.025 468.782C205.997 468.753 205.977 468.718 205.966 468.68C205.962 468.642 205.968 468.603 205.985 468.569C206.001 468.534 206.026 468.505 206.058 468.484C206.323 468.288 208.754 466.641 209.791 467.044C209.909 467.091 210.014 467.168 210.094 467.266C210.175 467.365 210.229 467.483 210.252 467.608C210.304 467.796 210.308 467.993 210.264 468.182C210.22 468.372 210.128 468.547 209.998 468.691C209.548 469.027 208.991 469.187 208.431 469.14ZM206.703 468.553C208.236 468.853 209.353 468.806 209.756 468.415C209.839 468.318 209.895 468.201 209.92 468.076C209.944 467.951 209.935 467.821 209.894 467.701C209.886 467.639 209.861 467.581 209.823 467.532C209.784 467.484 209.733 467.446 209.676 467.424C209.111 467.205 207.694 467.919 206.703 468.553Z" fill="#1F84DE"/>
<path d="M206.208 468.864C206.178 468.874 206.146 468.874 206.116 468.864C206.087 468.847 206.062 468.824 206.044 468.796C206.026 468.768 206.015 468.736 206.012 468.703C206.012 468.599 205.816 466.145 206.68 465.316C206.789 465.207 206.922 465.125 207.068 465.077C207.214 465.029 207.369 465.016 207.521 465.039C207.691 465.047 207.853 465.11 207.984 465.218C208.115 465.326 208.207 465.473 208.247 465.638C208.443 466.572 207.164 468.357 206.312 468.864H206.208ZM207.36 465.408C207.281 465.406 207.202 465.42 207.129 465.45C207.056 465.48 206.989 465.524 206.934 465.581C206.46 466.399 206.262 467.348 206.369 468.288C207.107 467.666 207.959 466.307 207.832 465.696C207.832 465.581 207.74 465.443 207.452 465.408H207.36Z" fill="#1F84DE"/>
<path d="M187.396 464.256C185.873 464.022 184.418 463.46 183.134 462.609C183.099 462.588 183.071 462.557 183.054 462.52C183.038 462.482 183.033 462.441 183.041 462.401C183.05 462.36 183.072 462.322 183.103 462.294C183.133 462.265 183.172 462.246 183.214 462.24C183.675 462.24 187.718 461.94 188.502 462.862C188.565 462.942 188.609 463.036 188.629 463.136C188.649 463.236 188.645 463.34 188.617 463.438C188.583 463.597 188.511 463.745 188.407 463.87C188.302 463.995 188.169 464.092 188.018 464.152C187.819 464.224 187.608 464.259 187.396 464.256ZM183.94 462.597C185.783 463.611 187.235 464.049 187.88 463.749C187.975 463.711 188.059 463.65 188.125 463.571C188.191 463.493 188.238 463.4 188.26 463.3C188.279 463.267 188.289 463.229 188.289 463.19C188.289 463.152 188.279 463.114 188.26 463.081C187.776 462.643 185.564 462.563 183.917 462.632L183.94 462.597Z" fill="#1F84DE"/>
<path d="M183.237 462.678C183.203 462.678 183.169 462.669 183.139 462.653C183.109 462.637 183.083 462.614 183.064 462.586C183.05 462.555 183.042 462.522 183.042 462.488C183.042 462.454 183.05 462.42 183.064 462.39C183.133 462.252 184.677 459.118 186.647 460.086C187.189 460.351 187.246 460.673 187.2 460.892C186.993 461.814 184.424 462.666 183.249 462.701L183.237 462.678ZM185.898 460.293C184.85 460.293 183.951 461.629 183.594 462.252C184.827 462.09 186.693 461.33 186.808 460.788C186.808 460.662 186.716 460.547 186.474 460.42C186.295 460.334 186.097 460.29 185.898 460.293Z" fill="#1F84DE"/>
<path d="M188.064 244.927L196.566 243.452L192.2 253.29C192.2 253.29 184.435 253.29 184.792 249.247L188.064 244.927Z" fill="#B97964"/>
<path d="M202.902 248.394L198.916 256.343L192.2 253.29L196.566 243.452L202.902 248.394Z" fill="#B97964"/>
<path d="M178.733 444.545L191.497 456.549L195.598 452.137L181.014 438.843L178.733 444.545Z" fill="#1F84DE"/>
<path opacity="0.7" d="M178.733 444.545L191.497 456.549L195.598 452.137L181.014 438.843L178.733 444.545Z" fill="white"/>
<path d="M218.88 251.401C218.88 251.401 219.698 316.673 218.316 341.119C216.795 367.903 209.203 456.607 209.203 456.607H193.536C193.536 456.607 193.997 370.057 193.064 343.549C192.038 314.749 189.389 251.389 189.389 251.389L218.88 251.401Z" fill="#1F84DE"/>
<path opacity="0.7" d="M218.88 251.401C218.88 251.401 219.698 316.673 218.316 341.119C216.795 367.903 209.203 456.607 209.203 456.607H193.536C193.536 456.607 193.997 370.057 193.064 343.549C192.038 314.749 189.389 251.389 189.389 251.389L218.88 251.401Z" fill="#29335C"/>
<path d="M192.879 456.607H209.779L210.724 450.674L192.061 451.596L192.879 456.607Z" fill="#1F84DE"/>
<path opacity="0.7" d="M192.879 456.607H209.779L210.724 450.674L192.061 451.596L192.879 456.607Z" fill="white"/>
<path opacity="0.2" d="M195.921 193.133C193.791 199.032 191.318 204.802 188.513 210.413C187.903 211.68 187.361 212.809 186.878 213.719C186.071 215.32 185.564 216.288 185.564 216.288L168.284 206.703C168.284 206.703 168.503 205.978 168.895 204.756C169.194 203.835 169.586 202.625 170.047 201.231C172.927 193.018 178.814 178.364 184.585 177.523C193.214 176.325 199.423 182.776 195.921 193.133Z" fill="#29335C"/>
<path d="M226.518 182.292C225.596 185.345 223.062 189.423 215.977 191.508L214.134 192.061L212.256 191.727C197.798 189.135 192.476 181.359 191.52 179.85L189.585 176.625C192.338 176.221 195.794 175.807 199.181 175.645C205.646 175.277 212.127 175.277 218.592 175.645C221.576 175.922 224.49 176.417 226.817 176.867C227.139 178.674 227.036 180.531 226.518 182.292Z" fill="#1F84DE"/>
<path opacity="0.4" d="M226.518 182.292C225.596 185.345 223.062 189.423 215.977 191.508L214.134 192.061L212.256 191.727C197.798 189.135 192.476 181.359 191.52 179.85L189.585 176.625C192.338 176.221 195.794 175.807 199.181 175.645C205.646 175.277 212.127 175.277 218.592 175.645C221.576 175.922 224.49 176.417 226.817 176.867C227.139 178.674 227.036 180.531 226.518 182.292Z" fill="#29335C"/>
<path d="M214.272 183.79C202.683 181.705 199.054 175.726 199.054 175.726C203.282 171.556 201.658 160.163 200.206 153.907L205.402 158.216L212.475 164.091C212.265 165.033 212.115 165.987 212.026 166.948C211.645 170.784 212.636 174.275 218.281 175.611C218.304 175.576 222.981 181.198 214.272 183.79Z" fill="#B97964"/>
<path d="M212.498 164.056C212.288 164.998 212.138 165.952 212.049 166.913C209.411 166.383 205.885 163.572 205.517 160.877C205.387 159.984 205.356 159.08 205.425 158.181L212.498 164.056Z" fill="#A76755"/>
<path d="M217.302 132.054C221.518 133.955 223.857 145.809 218.454 148.366C213.051 150.924 209.33 128.448 217.302 132.054Z" fill="#263238"/>
<path d="M198.144 144.875C199.953 153.181 200.586 158.123 205.494 161.914C207.076 163.16 208.969 163.951 210.968 164.2C212.967 164.45 214.996 164.149 216.836 163.329C218.676 162.51 220.257 161.204 221.41 159.551C222.562 157.899 223.24 155.963 223.373 153.953C224.018 146.223 220.954 133.943 212.21 131.593C210.332 131.033 208.339 130.977 206.432 131.431C204.525 131.884 202.771 132.832 201.346 134.177C199.921 135.523 198.875 137.22 198.313 139.098C197.751 140.976 197.693 142.968 198.144 144.875Z" fill="#B97964"/>
<path d="M188.456 136.639C184.412 138.424 186.705 143.954 189.458 147.468C193.271 152.352 197.303 154.633 200.045 152.387C202.51 151.154 204.134 143.885 201.992 139.404C205.782 136.904 213.65 139.991 216.104 135.948C218.557 131.904 220.308 132.238 224.628 134.911C228.948 137.583 232.404 127.02 221.172 125.05C227.393 127.849 225.965 133.298 221.414 127.711C218.2 123.771 210.493 119.416 205.137 125.292C201.185 129.577 187.304 122.953 188.456 136.639Z" fill="#263238"/>
<path d="M196.174 153.539C197.521 155.159 199.384 156.269 201.45 156.684C204.065 157.121 204.653 154.702 203.328 152.352C202.176 150.244 199.319 147.468 196.981 148.09C194.642 148.712 194.481 151.5 196.174 153.539Z" fill="#B97964"/>
<path d="M211.196 145.705C211.3 146.385 211.749 146.857 212.198 146.857C212.648 146.857 212.924 146.212 212.809 145.532C212.694 144.852 212.268 144.38 211.818 144.38C211.369 144.38 211.093 145.014 211.196 145.705Z" fill="#263238"/>
<path d="M218.88 144.783C218.984 145.463 219.433 145.935 219.882 145.935C220.332 145.935 220.608 145.279 220.504 144.599C220.401 143.919 219.951 143.447 219.502 143.447C219.053 143.447 218.88 144.104 218.88 144.783Z" fill="#263238"/>
<path d="M216.576 145.417C217.719 147.406 219.121 149.235 220.746 150.854C220.322 151.243 219.817 151.533 219.267 151.705C218.718 151.876 218.137 151.924 217.567 151.845L216.576 145.417Z" fill="#A24E3F"/>
<path d="M214.998 154.011C214.2 154.021 213.408 153.869 212.67 153.567C211.932 153.264 211.262 152.815 210.701 152.248C210.664 152.21 210.643 152.158 210.643 152.104C210.643 152.051 210.664 151.999 210.701 151.96C210.74 151.923 210.791 151.902 210.845 151.902C210.899 151.902 210.95 151.923 210.989 151.96C211.61 152.563 212.36 153.018 213.182 153.292C214.003 153.565 214.876 153.649 215.735 153.539C215.762 153.535 215.789 153.538 215.814 153.545C215.84 153.553 215.864 153.566 215.885 153.583C215.905 153.6 215.922 153.622 215.934 153.646C215.946 153.67 215.953 153.696 215.954 153.723C215.959 153.749 215.958 153.776 215.952 153.801C215.946 153.827 215.934 153.851 215.918 153.872C215.901 153.893 215.881 153.91 215.857 153.922C215.833 153.934 215.808 153.941 215.781 153.942C215.522 153.981 215.26 154.004 214.998 154.011Z" fill="#263238"/>
<path d="M208.42 143.493C208.356 143.51 208.288 143.51 208.224 143.493C208.131 143.44 208.062 143.352 208.032 143.249C208.002 143.146 208.013 143.035 208.063 142.94C208.366 142.38 208.799 141.901 209.327 141.544C209.854 141.187 210.46 140.963 211.092 140.89C211.189 140.906 211.277 140.956 211.34 141.031C211.404 141.106 211.438 141.2 211.438 141.299C211.438 141.397 211.404 141.491 211.34 141.566C211.277 141.641 211.189 141.691 211.092 141.708C210.596 141.764 210.121 141.942 209.709 142.225C209.297 142.508 208.961 142.888 208.731 143.332C208.694 143.38 208.647 143.419 208.593 143.447C208.539 143.475 208.48 143.491 208.42 143.493Z" fill="#263238"/>
<path d="M221.841 141.696C221.774 141.694 221.709 141.677 221.651 141.645C221.593 141.612 221.543 141.567 221.507 141.512C221.228 141.075 220.852 140.708 220.409 140.44C219.965 140.173 219.466 140.011 218.949 139.968C218.842 139.968 218.74 139.926 218.664 139.85C218.588 139.774 218.546 139.672 218.546 139.565C218.546 139.458 218.588 139.355 218.664 139.28C218.74 139.204 218.842 139.162 218.949 139.162C219.599 139.199 220.231 139.391 220.792 139.721C221.353 140.052 221.827 140.512 222.175 141.062C222.205 141.106 222.227 141.156 222.238 141.208C222.25 141.26 222.251 141.314 222.241 141.366C222.231 141.419 222.211 141.469 222.182 141.514C222.153 141.558 222.115 141.597 222.071 141.627C222.003 141.672 221.923 141.696 221.841 141.696Z" fill="#263238"/>
<g opacity="0.9">
<path opacity="0.9" d="M342.075 275.017C343.054 272.563 344.728 270.447 346.89 268.929C349.053 267.411 351.611 266.556 354.252 266.469H455.812C461.894 266.469 466.007 271.4 465.028 277.494L432.899 469.313C432.332 472.347 430.749 475.096 428.409 477.109C426.07 479.122 423.115 480.277 420.031 480.384H165.37C163.983 480.438 162.603 480.173 161.334 479.61C160.066 479.046 158.944 478.2 158.054 477.135C157.164 476.071 156.53 474.816 156.2 473.468C155.871 472.12 155.855 470.715 156.154 469.359L183.468 306.063C184.045 303.039 185.633 300.301 187.971 298.298C190.309 296.295 193.259 295.146 196.335 295.039H313.632C325.636 294.993 337.421 286.71 342.075 275.017Z" fill="#369577"/>
</g>
<path opacity="0.5" d="M342.075 275.017C343.054 272.563 344.728 270.447 346.89 268.929C349.053 267.411 351.611 266.556 354.252 266.469H455.812C461.894 266.469 466.007 271.4 465.028 277.494L432.899 469.313C432.332 472.347 430.749 475.096 428.409 477.109C426.07 479.122 423.115 480.277 420.031 480.384H165.37C163.983 480.438 162.603 480.173 161.334 479.61C160.066 479.046 158.944 478.2 158.054 477.135C157.164 476.071 156.53 474.816 156.2 473.468C155.871 472.12 155.855 470.715 156.154 469.359L183.468 306.063C184.045 303.039 185.633 300.301 187.971 298.298C190.309 296.295 193.259 295.146 196.335 295.039H313.632C325.636 294.993 337.421 286.71 342.075 275.017Z" fill="white"/>
<path opacity="0.9" d="M301.651 104.705L224.801 371.739L400.596 422.323L477.435 155.29L301.651 104.705Z" fill="#369577"/>
<path opacity="0.7" d="M301.651 104.705L224.801 371.739L400.596 422.323L477.435 155.29L301.651 104.705Z" fill="white"/>
<g style="mix-blend-mode:multiply" opacity="0.9">
<path d="M298.241 116.536L224.801 371.739L394.618 420.607L463.45 156.476L298.241 116.536Z" fill="#369577"/>
</g>
<path opacity="0.6" d="M298.241 116.536L224.801 371.739L394.618 420.607L463.45 156.476L298.241 116.536Z" fill="#369577"/>
<g opacity="0.9">
<g style="mix-blend-mode:multiply" opacity="0.9">
<path d="M298.241 116.536L224.801 371.739L394.618 420.607L463.45 156.476L298.241 116.536Z" fill="white"/>
</g>
<path opacity="0.6" d="M298.241 116.536L224.801 371.739L394.618 420.607L463.45 156.476L298.241 116.536Z" fill="white"/>
</g>
<path d="M360.488 188.834C372.01 175.659 370.67 155.638 357.494 144.116C344.319 132.594 324.298 133.934 312.776 147.11C301.254 160.285 302.594 180.306 315.77 191.828C328.945 203.35 348.966 202.01 360.488 188.834Z" fill="#369577"/>
<path d="M329.679 192.073C324.909 190.694 320.653 187.932 317.452 184.136C314.251 180.339 312.247 175.679 311.693 170.744C311.14 165.809 312.063 160.82 314.344 156.409C316.625 151.998 320.163 148.363 324.511 145.962C328.858 143.561 333.819 142.504 338.768 142.922C343.716 143.341 348.429 145.217 352.311 148.314C356.194 151.411 359.071 155.589 360.579 160.321C362.087 165.052 362.158 170.125 360.783 174.897C359.872 178.068 358.343 181.029 356.286 183.61C354.228 186.19 351.682 188.339 348.793 189.935C345.904 191.53 342.729 192.54 339.449 192.907C336.169 193.274 332.85 192.991 329.679 192.073Z" fill="white"/>
<path d="M348.855 218.518L292.902 202.421L289.284 214.998L345.236 231.095L348.855 218.518Z" fill="#369577"/>
<path d="M293.304 317.124L262.461 308.25L248.396 357.14L279.239 366.013L293.304 317.124Z" fill="#369577"/>
<path d="M402.445 348.528L371.602 339.655L357.537 388.544L388.38 397.418L402.445 348.528Z" fill="#369577"/>
<path d="M347.869 332.832L317.025 323.958L302.96 372.848L333.804 381.721L347.869 332.832Z" fill="#369577"/>
<path d="M394.067 231.516L356.215 220.626L352.597 233.203L390.449 244.092L394.067 231.516Z" fill="#369577"/>
<path d="M423.549 269.587L285.04 229.74L283.549 234.921L422.058 274.769L423.549 269.587Z" fill="white"/>
<path d="M350.746 260.563L281.874 240.749L280.383 245.93L349.255 265.744L350.746 260.563Z" fill="white"/>
<path d="M408.594 277.205L362.528 263.953L361.037 269.134L407.104 282.387L408.594 277.205Z" fill="white"/>
<path d="M389.426 283.602L278.705 251.749L277.215 256.93L387.935 288.784L389.426 283.602Z" fill="white"/>
<path d="M401.409 300.523L274.273 263.442L272.763 268.617L399.9 305.699L401.409 300.523Z" fill="white"/>
<path d="M287.068 278.004L272.366 273.774L270.875 278.955L285.578 283.185L287.068 278.004Z" fill="white"/>
<path d="M363.832 300.09L298.867 281.401L297.377 286.582L362.341 305.271L363.832 300.09Z" fill="white"/>
<path d="M407.712 324.637L269.203 284.789L267.713 289.97L406.222 329.818L407.712 324.637Z" fill="white"/>
<path d="M281.192 114.048L213.627 383.616L391.035 428.095L458.588 158.527L281.192 114.048Z" fill="#369577"/>
<path opacity="0.8" d="M281.192 114.048L213.627 383.616L391.035 428.095L458.588 158.527L281.192 114.048Z" fill="white"/>
<path d="M332.12 204.509C347.88 196.897 354.486 177.949 346.874 162.189C339.261 146.428 320.314 139.822 304.553 147.435C288.792 155.047 282.187 173.994 289.799 189.755C297.411 205.516 316.359 212.121 332.12 204.509Z" fill="#369577"/>
<path d="M343.018 180.517C345.515 166.874 336.479 153.79 322.835 151.293C309.192 148.796 296.108 157.833 293.611 171.476C291.115 185.119 300.151 198.203 313.794 200.7C327.438 203.196 340.522 194.16 343.018 180.517Z" fill="white"/>
<path d="M332.305 226.131L275.83 211.977L272.648 224.671L329.124 238.825L332.305 226.131Z" fill="#369577"/>
<path d="M280.193 326.602L249.061 318.8L236.694 368.146L267.826 375.948L280.193 326.602Z" fill="#369577"/>
<path d="M390.341 354.212L359.209 346.409L346.841 395.756L377.973 403.558L390.341 354.212Z" fill="#369577"/>
<path d="M335.271 340.407L304.139 332.604L291.772 381.95L322.904 389.753L335.271 340.407Z" fill="#369577"/>
<path d="M377.926 237.56L339.721 227.985L336.539 240.679L374.745 250.254L377.926 237.56Z" fill="#369577"/>
<path d="M408.712 274.586L268.909 239.547L267.599 244.777L407.401 279.815L408.712 274.586Z" fill="white"/>
<path d="M335.646 268.078L266.13 250.656L264.82 255.885L334.336 273.308L335.646 268.078Z" fill="white"/>
<path d="M394.031 282.707L347.534 271.054L346.224 276.284L392.72 287.937L394.031 282.707Z" fill="white"/>
<path d="M375.095 289.776L263.34 261.768L262.029 266.997L373.785 295.006L375.095 289.776Z" fill="white"/>
<path d="M389.025 305.085L260.565 272.889L259.254 278.119L387.715 310.314L389.025 305.085Z" fill="white"/>
<path d="M272.611 287.731L257.772 284.012L256.461 289.241L271.301 292.961L272.611 287.731Z" fill="white"/>
<path d="M350.092 307.136L284.521 290.702L283.21 295.931L348.781 312.365L350.092 307.136Z" fill="white"/>
<path d="M394.79 330.151L254.987 295.112L253.677 300.342L393.48 335.38L394.79 330.151Z" fill="white"/>
<path opacity="0.5" d="M274.245 315.06C274.464 310.74 278.243 307.688 283.381 307.688H384.952C391.035 307.688 396.899 311.939 398.051 317.192L428.544 470.822C429.696 476.076 425.687 480.338 419.604 480.338H164.909C158.815 480.338 152.951 476.076 151.799 470.822L126.72 341.81C125.568 336.557 129.577 332.294 135.671 332.294H252.922C264.96 332.294 273.761 325.152 274.245 315.06Z" fill="#369577"/>
<ellipse cx="411.365" cy="35.057" rx="17.3066" ry="17.3066" fill="#F3A712" fill-opacity="0.84"/>
<rect x="49.701" y="340.01" width="22.1346" height="23.7946" transform="rotate(-31.6909 49.701 340.01)" fill="#F3A712" fill-opacity="0.84"/>
<circle cx="280.793" cy="555.587" r="15.0878" fill="#F3A712"/>
</svg>
