<svg width="529" height="540" viewBox="0 0 529 540" fill="none" xmlns="http://www.w3.org/2000/svg">
<path fill-rule="evenodd" clip-rule="evenodd" d="M342.076 285.304C342.076 285.304 358.798 270.101 357.936 253.074L356.923 251.807C353.749 253.792 350.075 254.829 346.333 254.797L343.749 256.368C343.749 256.368 341.57 254.594 337.82 257.534C337.82 257.534 334.628 252.466 331.132 253.986L333.462 251.604C333.462 251.604 332.094 246.892 320.998 241.469C318.842 238.564 317.135 235.353 315.93 231.942L311.573 229.206C311.573 229.206 310.914 225.152 310.407 220.743C310.407 220.743 308.026 217.601 305.34 217.398C304.963 215.562 304.743 213.697 304.682 211.824C304.682 211.824 302.503 211.824 299.311 204.729C297.95 202.232 296.373 199.858 294.598 197.635L293.027 194.645L293.889 193.429C293.889 193.429 297.436 199.358 299.969 200.371C301.026 198.686 301.586 196.736 301.586 194.746C301.586 192.757 301.026 190.807 299.969 189.121C298.499 189.623 296.939 189.805 295.392 189.656C293.846 189.508 292.349 189.032 291.001 188.26C288.517 188.749 286.123 189.621 283.907 190.844C283.105 190.277 282.17 189.928 281.193 189.83C280.216 189.732 279.231 189.89 278.333 190.287C278.333 190.287 279.498 187.5 268.554 188.007L271.695 187.246L265.159 186.03C265.356 185.767 265.463 185.447 265.463 185.118C265.463 184.789 265.356 184.469 265.159 184.206C263.298 183.334 261.171 183.217 259.226 183.878C257.28 184.539 255.665 185.928 254.721 187.753C254.721 187.753 257.507 190.54 253.15 192.162C250.116 190.215 246.617 189.113 243.016 188.969C241.879 187.931 241.128 186.537 240.887 185.017C238.698 183.839 236.14 183.548 233.743 184.206C233.743 184.206 231.564 180.659 228.676 181.824C228.676 181.824 224.268 179.392 229.689 176.757C230.013 175.938 230.022 175.029 229.713 174.204C229.404 173.38 228.799 172.7 228.017 172.297C228.017 172.297 229.791 172.297 230.044 169.561C228.91 169.069 227.662 168.899 226.438 169.069C225.214 169.238 224.06 169.742 223.102 170.523C221.758 169.818 220.263 169.449 218.744 169.449C217.226 169.449 215.731 169.818 214.387 170.523C211.81 169.593 209.065 169.216 206.333 169.417C203.6 169.617 200.94 170.392 198.527 171.689H195.031C193.086 172.974 190.745 173.522 188.432 173.234C186.119 172.946 183.984 171.841 182.414 170.118C180.415 171.087 178.87 172.795 178.107 174.882C175.311 176.805 172.258 178.324 169.037 179.392C167.933 180.434 167.053 181.691 166.452 183.085C165.85 184.479 165.54 185.981 165.54 187.5C162.866 190.488 159.322 192.562 155.406 193.429C153.666 194.694 152.357 196.463 151.657 198.496C151.657 198.496 147.907 198.496 145.728 204.628C142.04 207.406 138.998 210.95 136.81 215.017C136.81 215.017 141.371 223.682 131.743 237.111L134.125 241.165L132.351 245.929C132.351 245.929 140.458 248.665 143.195 263.057C143.195 263.057 150.137 268.125 158.852 274.155C158.852 274.155 172.381 270.253 178.563 272.939C181.385 271.868 183.784 269.912 185.403 267.365C186.602 265.192 187.157 262.723 187.004 260.246C186.852 257.77 185.998 255.387 184.542 253.378C183.908 252.573 183.598 251.56 183.673 250.538C183.748 249.515 184.202 248.558 184.947 247.854C191.554 241.189 199.777 236.352 208.813 233.817C209.311 233.636 209.841 233.558 210.37 233.589C210.9 233.619 211.417 233.757 211.891 233.994C212.366 234.231 212.787 234.563 213.128 234.968C213.47 235.373 213.726 235.844 213.88 236.351C214.937 238.637 216.623 240.575 218.741 241.939C220.858 243.303 223.32 244.037 225.838 244.054C228.345 244.042 230.796 243.31 232.898 241.944C235 240.578 236.665 238.637 237.695 236.351C238.108 235.401 238.841 234.626 239.768 234.162C240.694 233.699 241.755 233.577 242.762 233.817C251.707 236.354 259.899 241.033 266.628 247.449C267.394 248.14 267.864 249.1 267.94 250.129C268.015 251.159 267.691 252.177 267.033 252.973C265.538 254.974 264.66 257.369 264.507 259.863C264.353 262.356 264.932 264.841 266.172 267.01C267.354 269.289 269.224 271.137 271.516 272.292C273.808 273.448 276.406 273.851 278.941 273.446C279.992 273.378 281.034 273.681 281.885 274.301C282.737 274.921 283.344 275.82 283.603 276.841L284.008 278.311C285.265 282.249 285.981 286.341 286.136 290.473C286.201 295.185 285.656 299.886 284.515 304.459C284.305 305.52 283.704 306.464 282.831 307.102C281.958 307.741 280.877 308.027 279.802 307.905C277.32 307.705 274.829 308.184 272.598 309.291C270.366 310.398 268.478 312.091 267.135 314.189C265.918 316.356 265.352 318.828 265.505 321.309C265.658 323.79 266.523 326.174 267.996 328.175C268.663 328.973 268.998 329.996 268.932 331.033C268.866 332.071 268.404 333.043 267.641 333.75C260.7 340.272 252.339 345.094 243.218 347.838H241.901C241.08 347.842 240.278 347.597 239.599 347.136C238.921 346.675 238.398 346.018 238.101 345.253C237.159 343.157 235.678 341.349 233.808 340.013C231.938 338.678 229.748 337.863 227.46 337.652C226.648 341.362 226.274 345.155 226.345 348.952C226.345 348.952 235.415 361.773 235.415 366.132C235.073 369.305 235.411 372.515 236.407 375.547C237.403 378.579 239.034 381.364 241.191 383.716C242.747 386.5 244.053 389.417 245.093 392.432C245.532 392.665 245.911 392.995 246.202 393.398C246.493 393.8 246.688 394.264 246.771 394.754C246.854 395.244 246.824 395.746 246.682 396.222C246.541 396.698 246.292 397.135 245.955 397.5C246.063 399.048 246.711 400.509 247.784 401.629C248.858 402.749 250.29 403.458 251.832 403.632C256.118 401.568 260.975 401.014 265.615 402.061C273.165 403.834 281.728 394.966 285.63 388.429L290.393 384.881C290.393 384.881 294.294 379.814 291.913 376.368C292.222 375.57 292.728 374.864 293.383 374.315C294.039 373.765 294.823 373.391 295.662 373.226C295.662 373.226 304.986 373.226 301.236 359.594C301.236 359.594 297.689 357.213 305.746 353.665C307.198 352.748 308.372 351.451 309.141 349.915C309.141 349.915 320.237 347.534 321.403 340.844C321.403 340.844 321.403 332.128 321.403 329.544C321.403 329.544 324.544 327.365 319.376 325.186C319.465 324.2 319.333 323.207 318.992 322.278C318.65 321.349 318.106 320.507 317.4 319.814C317.4 319.814 321.352 315.405 316.741 312.871C318.327 306.287 322.208 300.484 327.686 296.503C331.055 291.229 336.136 287.274 342.076 285.304ZM348.664 335.473C348.664 334.003 350.538 334.358 350.538 334.358C354.947 341.452 351.907 345.659 351.501 346.216L350.64 344.189C350.187 347.765 349.015 351.213 347.194 354.324C343.394 364.104 337.972 375.861 337.972 375.861C335.629 376.071 333.362 376.798 331.334 377.99C331.334 377.229 329.003 375.861 329.003 375.861C328.438 375.072 328.073 374.156 327.94 373.193C327.808 372.231 327.912 371.251 328.243 370.338C327.689 368.812 327.542 367.168 327.817 365.568C328.093 363.968 328.781 362.468 329.814 361.216C330.88 359.674 331.568 357.902 331.824 356.045C332.079 354.188 331.894 352.296 331.284 350.523C331.273 349.452 331.653 348.414 332.353 347.603C333.052 346.791 334.023 346.262 335.084 346.115C337.948 345.348 340.627 344.01 342.961 342.181C345.294 340.352 347.234 338.07 348.664 335.473Z" fill="#D9A528"/>
<path d="M277.066 277.247C276.817 276.373 276.282 275.609 275.547 275.076C274.812 274.543 273.92 274.273 273.013 274.307C270.806 274.653 268.546 274.301 266.548 273.302C264.55 272.303 262.913 270.706 261.865 268.733C260.796 266.831 260.304 264.658 260.448 262.481C260.592 260.303 261.366 258.215 262.676 256.47C262.988 256.113 263.225 255.697 263.374 255.248C263.523 254.798 263.58 254.323 263.543 253.85C263.505 253.378 263.373 252.918 263.154 252.497C262.936 252.077 262.635 251.704 262.27 251.402C256.405 245.855 249.3 241.789 241.546 239.544C240.659 239.316 239.719 239.416 238.9 239.825C238.081 240.235 237.437 240.927 237.087 241.774C236.202 243.778 234.754 245.481 232.919 246.677C231.084 247.873 228.941 248.51 226.75 248.51C224.56 248.51 222.417 247.873 220.582 246.677C218.746 245.481 217.298 243.778 216.414 241.774C216.282 241.33 216.062 240.918 215.765 240.563C215.469 240.207 215.103 239.916 214.69 239.707C214.278 239.499 213.827 239.376 213.365 239.348C212.903 239.32 212.44 239.387 212.005 239.544C204.158 241.783 197.021 246.006 191.281 251.807C190.607 252.403 190.189 253.237 190.113 254.133C190.038 255.03 190.311 255.921 190.876 256.622C192.168 258.375 192.931 260.461 193.075 262.635C193.218 264.808 192.737 266.977 191.686 268.885C190.32 271.179 188.237 272.96 185.758 273.953C184.147 274.582 182.416 274.842 180.691 274.713C179.76 274.579 178.813 274.81 178.048 275.358C177.284 275.906 176.76 276.727 176.587 277.652C175.542 281.533 175.065 285.544 175.168 289.561C175.092 293.677 175.569 297.785 176.587 301.774C176.793 302.661 177.337 303.433 178.103 303.925C178.87 304.417 179.798 304.591 180.691 304.409C182.887 304.039 185.144 304.374 187.137 305.367C189.131 306.359 190.759 307.957 191.788 309.932C192.846 311.829 193.332 313.992 193.188 316.159C193.045 318.326 192.277 320.405 190.977 322.145C190.36 322.871 190.056 323.813 190.132 324.763C190.208 325.713 190.657 326.594 191.382 327.213C197.351 332.933 204.593 337.154 212.512 339.527C213.392 339.764 214.329 339.668 215.143 339.256C215.956 338.845 216.589 338.147 216.92 337.297C217.803 335.337 219.224 333.668 221.018 332.483C222.812 331.299 224.905 330.649 227.054 330.608C227.407 330.553 227.766 330.553 228.118 330.608C230.101 330.792 231.999 331.498 233.62 332.656C235.24 333.813 236.524 335.38 237.341 337.196C237.61 337.85 238.065 338.411 238.651 338.807C239.237 339.204 239.927 339.419 240.634 339.426H241.749C249.648 337.059 256.884 332.877 262.878 327.213C263.589 326.58 264.02 325.692 264.077 324.742C264.133 323.792 263.812 322.859 263.182 322.145C261.916 320.387 261.177 318.305 261.051 316.142C260.926 313.979 261.419 311.825 262.473 309.932C263.644 308.079 265.305 306.586 267.273 305.62C269.241 304.653 271.438 304.252 273.621 304.459C274.562 304.565 275.509 304.31 276.27 303.746C277.032 303.182 277.552 302.351 277.725 301.419C278.724 297.426 279.201 293.321 279.144 289.206C278.947 285.149 278.249 281.132 277.066 277.247ZM210.891 303.193C210.576 303.567 210.179 303.862 209.73 304.056C209.282 304.249 208.794 304.335 208.306 304.307C207.813 304.318 207.324 304.224 206.87 304.032C206.416 303.84 206.007 303.554 205.671 303.193L194.625 292.044C193.957 291.37 193.582 290.459 193.582 289.51C193.582 288.561 193.957 287.65 194.625 286.976L205.722 275.828C206.106 275.438 206.578 275.147 207.099 274.98C207.619 274.812 208.173 274.773 208.712 274.865C209.537 274.947 210.316 275.284 210.941 275.828C211.138 276.025 211.308 276.246 211.448 276.486C211.928 277.18 212.14 278.024 212.047 278.862C211.954 279.7 211.561 280.476 210.941 281.047L202.682 289.51L211.195 298.024C211.529 298.376 211.787 298.792 211.953 299.248C212.12 299.704 212.191 300.189 212.163 300.674C212.134 301.158 212.007 301.632 211.788 302.065C211.569 302.498 211.264 302.882 210.891 303.193ZM237.493 276.132L225.078 300.963L222.697 306.03C222.433 306.689 221.979 307.253 221.392 307.65C220.805 308.048 220.112 308.26 219.403 308.26C218.643 308.26 218.288 308.26 217.984 307.905C217.54 307.722 217.141 307.443 216.815 307.088C216.49 306.733 216.246 306.312 216.101 305.853C215.956 305.394 215.914 304.909 215.977 304.432C216.039 303.955 216.206 303.497 216.464 303.091L220.214 295.541L231.311 273.395C231.482 272.909 231.767 272.47 232.142 272.115C232.517 271.761 232.971 271.501 233.466 271.357C233.962 271.214 234.485 271.19 234.991 271.289C235.497 271.388 235.973 271.606 236.378 271.926C237.011 272.398 237.467 273.07 237.669 273.834C237.871 274.598 237.809 275.408 237.493 276.132ZM258.926 292.044L247.829 303.193C247.502 303.565 247.095 303.858 246.639 304.051C246.183 304.244 245.689 304.332 245.194 304.307C244.702 304.315 244.213 304.219 243.76 304.027C243.306 303.836 242.897 303.551 242.56 303.193C241.903 302.512 241.536 301.604 241.536 300.659C241.536 299.714 241.903 298.805 242.56 298.125L251.123 289.611L242.56 281.047C242.083 280.345 241.867 279.499 241.947 278.654C242.027 277.81 242.4 277.019 242.999 276.42C243.599 275.82 244.389 275.448 245.234 275.367C246.078 275.287 246.925 275.504 247.627 275.98L258.723 287.128C259.076 287.427 259.363 287.796 259.566 288.211C259.769 288.627 259.883 289.08 259.902 289.542C259.921 290.004 259.844 290.464 259.676 290.895C259.508 291.326 259.253 291.717 258.926 292.044Z" fill="white"/>
</svg>
