<svg width="517" height="517" viewBox="0 0 517 517" fill="none" xmlns="http://www.w3.org/2000/svg">
<path d="M470.532 50.2627H194.992V325.803H470.532V50.2627Z" fill="#FAFAFA"/>
<path d="M470.532 325.803C470.532 323.818 470.439 215.486 470.304 50.2628L470.532 50.5006H195.023L195.292 50.2317C195.292 151.14 195.292 245.658 195.292 325.772L195.054 325.545L470.594 325.772L195.054 326.01H194.826V325.772C194.826 245.699 194.826 151.14 194.826 50.2317V49.9629H195.126H470.635H470.873V50.1904C470.625 215.486 470.542 323.818 470.532 325.803Z" fill="#29335C"/>
<path d="M276.761 85.2946H279.78V91.0953C278.096 92.2938 276.077 92.9307 274.01 92.9152C269.523 92.9152 266.214 89.8132 266.214 85.5221C266.214 81.231 269.523 78.129 274.072 78.129C275.193 78.0839 276.309 78.2866 277.342 78.7227C278.375 79.1588 279.299 79.8176 280.049 80.6519L277.981 82.6165C277.516 82.097 276.945 81.6839 276.306 81.4055C275.667 81.1271 274.976 80.9899 274.279 81.0035C273.067 81.0035 271.904 81.485 271.047 82.3421C270.19 83.1992 269.709 84.3617 269.709 85.5738C269.709 86.7859 270.19 87.9483 271.047 88.8054C271.904 89.6625 273.067 90.144 274.279 90.144C275.175 90.1614 276.061 89.9516 276.854 89.534L276.761 85.2946Z" fill="#1F84DE"/>
<path d="M293.315 88.076H285.043C285.214 88.7515 285.621 89.344 286.189 89.7475C286.757 90.1509 287.451 90.3392 288.145 90.2784C288.651 90.3025 289.157 90.2233 289.632 90.0455C290.106 89.8678 290.54 89.5952 290.906 89.2444L292.622 91.0539C292.044 91.6641 291.338 92.1396 290.555 92.4469C289.773 92.7542 288.932 92.8858 288.093 92.8324C284.288 92.8324 281.817 90.4439 281.817 87.1764C281.807 86.4134 281.954 85.6566 282.248 84.9525C282.542 84.2483 282.977 83.6118 283.526 83.082C284.076 82.5522 284.727 82.1404 285.442 81.8719C286.156 81.6033 286.917 81.4837 287.68 81.5204C288.439 81.4805 289.199 81.6003 289.909 81.8722C290.62 82.1441 291.265 82.5621 291.804 83.099C292.343 83.6359 292.763 84.2799 293.038 84.9894C293.312 85.6988 293.435 86.458 293.398 87.2178C293.377 87.466 293.336 87.8072 293.315 88.076ZM284.96 86.2148H290.378C290.267 85.5775 289.934 85 289.438 84.5838C288.943 84.1677 288.316 83.9396 287.669 83.9396C287.022 83.9396 286.396 84.1677 285.9 84.5838C285.405 85 285.072 85.5775 284.96 86.2148Z" fill="#1F84DE"/>
<path d="M302.58 92.1397C301.803 92.6248 300.899 92.8661 299.984 92.8325C297.399 92.8325 295.848 91.4986 295.848 88.893V84.3744H294.163V81.9238H295.848V79.2561H299.033V81.9238H301.773V84.3744H299.033V88.8516C299.008 89.0414 299.025 89.2345 299.084 89.4167C299.143 89.5989 299.242 89.7655 299.374 89.9044C299.506 90.0432 299.667 90.1508 299.846 90.2191C300.025 90.2874 300.217 90.3148 300.408 90.2992C300.87 90.3083 301.321 90.1627 301.69 89.8856L302.58 92.1397Z" fill="#1F84DE"/>
<path d="M309.766 78.3773C309.77 78.1282 309.826 77.8827 309.93 77.6561C310.033 77.4294 310.182 77.2264 310.367 77.0597C310.553 76.893 310.77 76.766 311.006 76.6867C311.242 76.6075 311.492 76.5775 311.741 76.5988C311.986 76.5716 312.233 76.5953 312.469 76.6684C312.704 76.7415 312.922 76.8624 313.108 77.0235C313.294 77.1847 313.446 77.3826 313.552 77.6049C313.658 77.8272 313.717 78.069 313.726 78.3153C313.698 78.8168 313.482 79.2893 313.12 79.6375C312.758 79.9857 312.277 80.1837 311.775 80.1916C311.272 80.1994 310.786 80.0166 310.413 79.6799C310.04 79.3433 309.809 78.8778 309.766 78.3773ZM310.2 81.6861H313.302V92.6672H310.2V81.6861Z" fill="#1F84DE"/>
<path d="M327.52 86.3805V92.6672H324.335V86.8561C324.335 85.088 323.518 84.2711 322.112 84.2711C320.705 84.2711 319.485 85.2017 319.485 87.2283V92.6568H316.301V81.6861H319.341V82.9683C319.81 82.4859 320.376 82.1077 321.001 81.8583C321.627 81.6089 322.297 81.4938 322.97 81.5207C325.565 81.5207 327.52 83.0303 327.52 86.3805Z" fill="#1F84DE"/>
<path d="M343.288 92.1397C342.515 92.6234 341.615 92.8647 340.703 92.8325C338.108 92.8325 336.567 91.4987 336.567 88.893V84.3744H334.871V81.9238H336.567V79.2561H339.752V81.9238H342.482V84.3744H339.752V88.8516C339.725 89.0409 339.741 89.2338 339.798 89.416C339.856 89.5983 339.954 89.7652 340.085 89.9043C340.217 90.0434 340.377 90.1511 340.556 90.2195C340.734 90.2879 340.926 90.3151 341.117 90.2992C341.578 90.3083 342.03 90.1627 342.399 89.8856L343.288 92.1397Z" fill="#1F84DE"/>
<path d="M343.888 87.1765C343.888 83.8677 346.442 81.5205 349.937 81.5205C353.432 81.5205 355.955 83.8677 355.955 87.1765C355.955 90.4853 353.432 92.8325 349.937 92.8325C346.442 92.8325 343.888 90.4853 343.888 87.1765ZM352.728 87.1765C352.684 86.6312 352.482 86.1107 352.146 85.6787C351.811 85.2467 351.356 84.9219 350.839 84.7441C350.322 84.5664 349.764 84.5434 349.234 84.6779C348.703 84.8124 348.224 85.0987 347.854 85.5016C347.484 85.9045 347.239 86.4066 347.15 86.9464C347.061 87.4861 347.132 88.0401 347.353 88.5405C347.574 89.0409 347.936 89.466 348.395 89.7636C348.854 90.0613 349.39 90.2187 349.937 90.2164C350.327 90.2228 350.713 90.1466 351.072 89.9926C351.43 89.8387 351.752 89.6106 352.015 89.3234C352.279 89.0362 352.479 88.6964 352.602 88.3264C352.725 87.9563 352.768 87.5644 352.728 87.1765Z" fill="#1F84DE"/>
<path d="M369.138 81.686V92.6671H366.109V91.3643C365.68 91.8387 365.154 92.2154 364.567 92.4687C363.98 92.7221 363.346 92.8461 362.707 92.8326C359.946 92.8326 358.002 91.2816 358.002 87.89V81.686H361.187V87.4247C361.187 89.2549 362.004 90.0718 363.42 90.0718C364.837 90.0718 365.953 89.1308 365.953 87.1145V81.686H369.138Z" fill="#1F84DE"/>
<path d="M371.289 87.1767C371.289 83.8679 373.832 81.5207 377.41 81.5207C378.415 81.4423 379.421 81.6662 380.298 82.1636C381.175 82.6611 381.883 83.4094 382.332 84.3125L379.861 85.6464C379.633 85.1914 379.283 84.8091 378.85 84.5423C378.417 84.2756 377.919 84.1351 377.41 84.1367C376.604 84.1367 375.831 84.457 375.26 85.0271C374.69 85.5972 374.37 86.3704 374.37 87.1767C374.37 87.9829 374.69 88.7561 375.26 89.3263C375.831 89.8964 376.604 90.2166 377.41 90.2166C377.923 90.2271 378.428 90.0905 378.866 89.823C379.304 89.5555 379.656 89.1682 379.881 88.707L382.353 90.0512C381.897 90.9522 381.184 91.6975 380.304 92.1927C379.424 92.6879 378.417 92.9106 377.41 92.8327C373.832 92.8327 371.289 90.4855 371.289 87.1767Z" fill="#1F84DE"/>
<path d="M395.309 86.3804V92.6671H392.124V86.856C392.124 85.0879 391.307 84.271 389.901 84.271C388.494 84.271 387.264 85.2016 387.264 87.2283V92.6568H384.079V77.55H387.264V82.8234C387.731 82.3859 388.281 82.0454 388.881 81.8218C389.481 81.5981 390.119 81.4958 390.759 81.5206C393.354 81.5206 395.309 83.0302 395.309 86.3804Z" fill="#1F84DE"/>
<path d="M405.897 103.824C405.897 103.969 372.188 104.093 330.622 104.093C289.055 104.093 255.357 103.969 255.357 103.824C255.357 103.679 289.044 103.555 330.622 103.555C372.199 103.555 405.897 103.679 405.897 103.824Z" fill="#29335C"/>
<path d="M430.216 151.305C430.216 151.305 430.216 150.954 430.216 150.271C430.216 149.589 430.216 148.596 430.216 147.293C430.216 144.656 430.216 140.779 430.216 135.702L430.31 135.805L230.892 135.971L231.161 135.702V151.295L230.892 151.026L372.375 151.14L414.769 151.222H426.267H429.265H430.299H429.265H426.308H414.872L372.478 151.305L230.82 151.419H230.551V135.454H230.83L430.247 135.619H430.351V135.723C430.351 140.82 430.351 144.729 430.299 147.366C430.299 148.668 430.299 149.651 430.299 150.333C430.299 151.016 430.216 151.305 430.216 151.305Z" fill="#29335C"/>
<path d="M235.473 124.721V129.25H234.615L232.361 126.5V129.25H231.327V124.721H232.185L234.439 127.472V124.721H235.473Z" fill="#29335C"/>
<path d="M239.557 127.265V129.25H238.606V128.816C238.491 128.98 238.335 129.111 238.154 129.197C237.972 129.282 237.772 129.318 237.572 129.302C236.755 129.302 236.269 128.847 236.269 128.268C236.269 127.689 236.703 127.234 237.768 127.234H238.565C238.565 126.799 238.306 126.551 237.768 126.551C237.398 126.542 237.034 126.654 236.734 126.872L236.372 126.169C236.819 125.881 237.341 125.734 237.872 125.745C238.937 125.714 239.557 126.21 239.557 127.265ZM238.523 128.144V127.792H237.82C237.355 127.792 237.2 127.968 237.2 128.195C237.2 128.423 237.417 128.619 237.768 128.619C237.932 128.639 238.098 128.602 238.239 128.516C238.379 128.43 238.487 128.299 238.544 128.144H238.523Z" fill="#29335C"/>
<path d="M246.34 127.254V129.25H245.306V127.409C245.306 126.851 245.048 126.593 244.644 126.593C244.241 126.593 243.879 126.882 243.879 127.503V129.25H242.845V127.409C242.845 126.851 242.607 126.593 242.183 126.593C241.76 126.593 241.418 126.882 241.418 127.503V129.25H240.384V125.765H241.346V126.148C241.485 125.997 241.655 125.879 241.844 125.8C242.033 125.722 242.237 125.685 242.442 125.693C242.665 125.68 242.887 125.725 243.087 125.825C243.286 125.925 243.456 126.075 243.579 126.262C243.733 126.078 243.927 125.932 244.145 125.833C244.364 125.735 244.601 125.687 244.841 125.693C245.05 125.666 245.262 125.688 245.461 125.758C245.66 125.827 245.839 125.943 245.985 126.095C246.131 126.247 246.239 126.431 246.301 126.632C246.363 126.834 246.376 127.047 246.34 127.254Z" fill="#29335C"/>
<path d="M250.673 127.792H248.046C248.101 128.017 248.236 128.213 248.428 128.343C248.619 128.473 248.851 128.527 249.08 128.495C249.241 128.502 249.401 128.475 249.55 128.416C249.7 128.357 249.836 128.268 249.949 128.154L250.487 128.733C250.209 128.981 249.869 129.15 249.503 129.221C249.138 129.292 248.759 129.263 248.409 129.137C248.058 129.011 247.748 128.793 247.511 128.505C247.275 128.217 247.12 127.871 247.064 127.503C247.062 127.261 247.11 127.022 247.204 126.799C247.298 126.577 247.436 126.376 247.61 126.208C247.784 126.041 247.991 125.911 248.217 125.826C248.443 125.741 248.684 125.703 248.925 125.714C249.166 125.7 249.408 125.738 249.633 125.824C249.859 125.91 250.064 126.043 250.235 126.214C250.405 126.385 250.538 126.59 250.624 126.815C250.711 127.041 250.748 127.282 250.735 127.523C250.719 127.614 250.698 127.704 250.673 127.792ZM248.026 127.203H249.742C249.71 126.998 249.606 126.811 249.449 126.677C249.291 126.542 249.091 126.468 248.884 126.468C248.677 126.468 248.476 126.542 248.319 126.677C248.162 126.811 248.057 126.998 248.026 127.203Z" fill="#29335C"/>
<path d="M430.216 190.256C430.216 190.256 430.216 189.905 430.216 189.222C430.216 188.54 430.216 187.547 430.216 186.244C430.216 183.607 430.216 179.73 430.216 174.653L430.31 174.756L230.892 174.922L231.161 174.653V190.256L230.892 189.987L372.375 190.101L414.769 190.184H426.267H429.265H430.299H429.265H426.308H414.872L372.478 190.266L230.82 190.38H230.551V174.25H230.83L430.247 174.426H430.351V174.519C430.351 179.616 430.351 183.525 430.299 186.161C430.299 187.464 430.299 188.447 430.299 189.129C430.299 189.811 430.216 190.256 430.216 190.256Z" fill="#29335C"/>
<path d="M430.216 268.437C430.216 268.437 430.216 268.075 430.216 267.403C430.216 266.731 430.216 265.655 430.216 264.301C430.216 261.55 430.216 257.507 430.216 252.265C430.216 241.77 430.165 226.415 430.123 207.193L430.289 207.369L230.872 207.462L231.14 207.193C231.14 228.411 231.14 249.029 231.14 268.478L230.882 268.22L373.47 268.333L415.203 268.416H426.411H429.317H430.351H429.389H426.515H415.368L373.698 268.488L230.923 268.602H230.654V206.883H230.934L430.351 206.986H430.527V207.152C430.527 226.467 430.454 241.801 430.434 252.327C430.434 257.559 430.434 261.633 430.434 264.321C430.434 265.676 430.434 266.7 430.434 267.423C430.434 268.147 430.216 268.437 430.216 268.437Z" fill="#29335C"/>
<path d="M234.832 167.322V168.17H231.327V163.641H234.718V164.478H232.33V165.512H234.398V166.329H232.33V167.363L234.832 167.322Z" fill="#29335C"/>
<path d="M241.47 166.174V168.17H240.436V166.329C240.436 165.771 240.188 165.512 239.785 165.512C239.381 165.512 239.009 165.802 239.009 166.422V168.17H237.975V166.329C237.975 165.771 237.727 165.512 237.313 165.512C236.9 165.512 236.548 165.802 236.548 166.422V168.17H235.514V164.685H236.486V165.088C236.623 164.937 236.791 164.818 236.978 164.74C237.166 164.661 237.369 164.625 237.572 164.633C237.796 164.621 238.019 164.667 238.22 164.767C238.422 164.867 238.594 165.016 238.72 165.202C238.872 165.019 239.064 164.873 239.28 164.775C239.497 164.676 239.733 164.628 239.971 164.633C240.177 164.609 240.386 164.632 240.582 164.702C240.778 164.771 240.956 164.885 241.101 165.034C241.245 165.183 241.354 165.363 241.418 165.561C241.482 165.759 241.5 165.968 241.47 166.174Z" fill="#29335C"/>
<path d="M245.451 166.184V168.17H244.51V167.735C244.394 167.899 244.238 168.03 244.057 168.115C243.876 168.2 243.676 168.237 243.476 168.221C242.659 168.221 242.173 167.766 242.173 167.187C242.173 166.608 242.607 166.153 243.672 166.153H244.469C244.469 165.719 244.21 165.471 243.672 165.471C243.302 165.461 242.939 165.574 242.638 165.792L242.277 165.088C242.724 164.802 243.245 164.655 243.776 164.664C244.841 164.633 245.451 165.13 245.451 166.184ZM244.417 167.063V166.712H243.735C243.259 166.712 243.104 166.888 243.104 167.115C243.104 167.343 243.321 167.539 243.683 167.539C243.843 167.554 244.004 167.515 244.141 167.429C244.277 167.343 244.382 167.215 244.438 167.063H244.417Z" fill="#29335C"/>
<path d="M246.237 163.641C246.238 163.561 246.255 163.483 246.288 163.41C246.321 163.337 246.369 163.272 246.428 163.219C246.487 163.165 246.557 163.125 246.632 163.1C246.708 163.074 246.788 163.065 246.868 163.072C246.945 163.065 247.024 163.074 247.098 163.098C247.172 163.122 247.241 163.161 247.3 163.212C247.359 163.263 247.407 163.326 247.441 163.396C247.475 163.466 247.494 163.542 247.498 163.62C247.498 163.788 247.432 163.948 247.314 164.066C247.195 164.185 247.035 164.251 246.868 164.251C246.7 164.251 246.54 164.185 246.422 164.066C246.303 163.948 246.237 163.788 246.237 163.62V163.641ZM246.361 164.675H247.395V168.16H246.361V164.675Z" fill="#29335C"/>
<path d="M248.305 163.372H249.339V168.17H248.305V163.372Z" fill="#29335C"/>
<path d="M255.16 166.184V168.17H254.219V167.735C254.104 167.899 253.948 168.03 253.766 168.115C253.585 168.2 253.385 168.237 253.185 168.221C252.368 168.221 251.893 167.766 251.893 167.187C251.893 166.608 252.317 166.153 253.382 166.153H254.188C254.188 165.719 253.93 165.471 253.382 165.471C253.011 165.463 252.649 165.575 252.348 165.792L251.986 165.088C252.433 164.802 252.955 164.655 253.485 164.664C254.55 164.633 255.16 165.13 255.16 166.184ZM254.126 167.063V166.712H253.433C252.958 166.712 252.813 166.888 252.813 167.115C252.813 167.343 253.02 167.539 253.382 167.539C253.545 167.555 253.709 167.517 253.849 167.431C253.989 167.345 254.097 167.216 254.157 167.063H254.126Z" fill="#29335C"/>
<path d="M259.658 163.372V168.17H258.697V167.767C258.56 167.92 258.39 168.041 258.201 168.119C258.011 168.198 257.806 168.233 257.601 168.222C257.148 168.187 256.726 167.983 256.417 167.651C256.109 167.318 255.938 166.881 255.938 166.428C255.938 165.974 256.109 165.537 256.417 165.204C256.726 164.872 257.148 164.668 257.601 164.634C257.793 164.624 257.986 164.657 258.165 164.73C258.344 164.803 258.504 164.915 258.635 165.057V163.372H259.658ZM258.624 166.422C258.608 166.251 258.543 166.088 258.436 165.953C258.329 165.818 258.185 165.717 258.022 165.662C257.859 165.607 257.683 165.601 257.516 165.644C257.35 165.687 257.199 165.778 257.083 165.905C256.966 166.032 256.89 166.19 256.861 166.36C256.833 166.53 256.855 166.704 256.924 166.862C256.993 167.02 257.107 167.154 257.251 167.248C257.394 167.343 257.563 167.394 257.735 167.394C257.858 167.402 257.982 167.383 258.097 167.34C258.213 167.296 258.318 167.229 258.406 167.142C258.493 167.055 258.562 166.951 258.607 166.836C258.652 166.721 258.672 166.597 258.666 166.474L258.624 166.422Z" fill="#29335C"/>
<path d="M264.135 163.372V168.17H263.163V167.767C263.034 167.913 262.875 168.029 262.697 168.108C262.518 168.187 262.324 168.225 262.129 168.222C261.677 168.187 261.255 167.983 260.946 167.651C260.638 167.318 260.467 166.881 260.467 166.428C260.467 165.974 260.638 165.537 260.946 165.204C261.255 164.872 261.677 164.668 262.129 164.634C262.322 164.624 262.515 164.657 262.694 164.73C262.872 164.803 263.033 164.915 263.163 165.058V163.372H264.135ZM263.101 166.422C263.085 166.251 263.02 166.088 262.913 165.953C262.806 165.818 262.662 165.717 262.499 165.662C262.336 165.607 262.16 165.601 261.993 165.644C261.827 165.687 261.676 165.778 261.56 165.905C261.444 166.032 261.367 166.19 261.339 166.36C261.311 166.53 261.332 166.704 261.401 166.862C261.47 167.02 261.584 167.154 261.728 167.248C261.872 167.343 262.04 167.394 262.212 167.394C262.335 167.402 262.459 167.383 262.574 167.34C262.69 167.296 262.795 167.229 262.883 167.142C262.971 167.055 263.039 166.951 263.084 166.836C263.129 166.721 263.149 166.597 263.143 166.474L263.101 166.422Z" fill="#29335C"/>
<path d="M267.217 164.633V165.564H266.989C266.861 165.554 266.732 165.572 266.612 165.618C266.492 165.664 266.384 165.736 266.296 165.829C266.208 165.923 266.141 166.035 266.102 166.157C266.063 166.279 266.051 166.409 266.069 166.536V168.18H265.035V164.695H266.007V165.161C266.147 164.978 266.332 164.833 266.544 164.741C266.755 164.649 266.987 164.612 267.217 164.633Z" fill="#29335C"/>
<path d="M271.177 166.712H268.551C268.605 166.936 268.741 167.133 268.932 167.263C269.123 167.393 269.356 167.447 269.585 167.415C269.745 167.42 269.905 167.393 270.054 167.334C270.203 167.275 270.339 167.187 270.453 167.074L270.991 167.653C270.713 167.901 270.373 168.07 270.008 168.141C269.642 168.212 269.264 168.183 268.913 168.057C268.562 167.931 268.252 167.712 268.016 167.425C267.779 167.137 267.624 166.791 267.568 166.422C267.567 166.181 267.614 165.941 267.708 165.719C267.802 165.496 267.94 165.295 268.114 165.128C268.288 164.96 268.495 164.83 268.721 164.745C268.947 164.66 269.188 164.622 269.429 164.633C269.67 164.622 269.911 164.66 270.136 164.747C270.361 164.834 270.565 164.967 270.735 165.137C270.906 165.308 271.039 165.512 271.125 165.737C271.212 165.962 271.251 166.202 271.239 166.443C271.223 166.534 271.202 166.623 271.177 166.712ZM268.53 166.122H270.246C270.214 165.918 270.11 165.731 269.953 165.596C269.796 165.462 269.595 165.387 269.388 165.387C269.181 165.387 268.981 165.462 268.823 165.596C268.666 165.731 268.562 165.918 268.53 166.122Z" fill="#29335C"/>
<path d="M271.528 167.839L271.87 167.115C272.234 167.338 272.653 167.456 273.079 167.456C273.545 167.456 273.721 167.332 273.721 167.136C273.721 166.567 271.653 167.136 271.653 165.761C271.653 165.099 272.242 164.634 273.255 164.634C273.722 164.625 274.184 164.731 274.599 164.944L274.258 165.657C273.944 165.477 273.586 165.388 273.224 165.399C272.78 165.399 272.583 165.543 272.583 165.719C272.583 166.319 274.651 165.719 274.651 167.115C274.651 167.756 274.051 168.222 273.007 168.222C272.489 168.225 271.98 168.093 271.528 167.839Z" fill="#29335C"/>
<path d="M274.961 167.839L275.303 167.115C275.667 167.338 276.085 167.456 276.512 167.456C276.978 167.456 277.153 167.332 277.153 167.136C277.153 166.567 275.085 167.136 275.085 165.761C275.085 165.099 275.675 164.634 276.688 164.634C277.155 164.625 277.617 164.731 278.032 164.944L277.691 165.657C277.377 165.477 277.019 165.388 276.657 165.399C276.212 165.399 276.016 165.543 276.016 165.719C276.016 166.319 278.084 165.719 278.084 167.115C278.084 167.756 277.484 168.222 276.44 168.222C275.922 168.225 275.413 168.093 274.961 167.839Z" fill="#29335C"/>
<path d="M235.442 202.013V199.293L234.118 201.537H233.684L232.361 199.355V202.013H231.378V197.494H232.236L233.932 200.306L235.607 197.494H236.466V202.023L235.442 202.013Z" fill="#29335C"/>
<path d="M240.819 200.596H238.182C238.236 200.821 238.372 201.017 238.563 201.147C238.754 201.277 238.987 201.331 239.216 201.299C239.378 201.305 239.539 201.278 239.691 201.219C239.842 201.161 239.979 201.072 240.095 200.958L240.632 201.547C240.448 201.739 240.223 201.888 239.975 201.984C239.727 202.081 239.461 202.122 239.195 202.106C238.945 202.13 238.692 202.102 238.454 202.023C238.215 201.945 237.995 201.817 237.808 201.649C237.621 201.481 237.472 201.275 237.369 201.046C237.266 200.817 237.212 200.568 237.21 200.317C237.207 200.075 237.253 199.836 237.346 199.613C237.438 199.39 237.575 199.188 237.749 199.019C237.922 198.851 238.128 198.72 238.353 198.633C238.579 198.547 238.819 198.508 239.061 198.518C239.302 198.506 239.543 198.545 239.768 198.631C239.994 198.718 240.199 198.851 240.37 199.021C240.541 199.191 240.675 199.395 240.763 199.62C240.851 199.845 240.891 200.086 240.881 200.327C240.839 200.369 240.819 200.472 240.819 200.596ZM238.172 200.007H239.888C239.856 199.802 239.752 199.615 239.595 199.481C239.437 199.346 239.237 199.272 239.03 199.272C238.823 199.272 238.622 199.346 238.465 199.481C238.307 199.615 238.203 199.802 238.172 200.007Z" fill="#29335C"/>
<path d="M241.17 201.692L241.501 200.968C241.869 201.181 242.286 201.295 242.711 201.299C243.186 201.299 243.352 201.175 243.352 200.989C243.352 200.42 241.284 200.989 241.284 199.603C241.284 198.952 241.884 198.476 242.897 198.476C243.36 198.469 243.818 198.575 244.231 198.786L243.9 199.5C243.584 199.325 243.227 199.236 242.866 199.241C242.411 199.241 242.214 199.386 242.214 199.572C242.214 200.162 244.282 199.572 244.282 200.958C244.282 201.609 243.672 202.064 242.638 202.064C242.126 202.063 241.621 201.935 241.17 201.692Z" fill="#29335C"/>
<path d="M244.603 201.692L244.934 200.968C245.302 201.181 245.719 201.295 246.144 201.299C246.619 201.299 246.785 201.175 246.785 200.989C246.785 200.42 244.717 200.989 244.717 199.603C244.717 198.952 245.317 198.476 246.33 198.476C246.793 198.469 247.251 198.575 247.664 198.786L247.333 199.5C247.017 199.325 246.66 199.236 246.299 199.241C245.844 199.241 245.647 199.386 245.647 199.572C245.647 200.162 247.715 199.572 247.715 200.958C247.715 201.609 247.105 202.064 246.071 202.064C245.559 202.063 245.054 201.935 244.603 201.692Z" fill="#29335C"/>
<path d="M251.448 200.027V202.012H250.507V201.63C250.393 201.795 250.237 201.927 250.056 202.012C249.874 202.097 249.673 202.133 249.473 202.116C248.667 202.116 248.181 201.661 248.181 201.082C248.181 200.503 248.615 200.048 249.67 200.048H250.476C250.476 199.614 250.218 199.365 249.67 199.365C249.299 199.357 248.936 199.47 248.636 199.686L248.274 198.983C248.721 198.697 249.242 198.549 249.773 198.559C250.838 198.528 251.448 198.972 251.448 200.027ZM250.414 200.916V200.596H249.721C249.246 200.596 249.101 200.772 249.101 201.009C249.101 201.247 249.308 201.423 249.67 201.423C249.837 201.437 250.004 201.394 250.144 201.303C250.285 201.211 250.391 201.075 250.445 200.916H250.414Z" fill="#29335C"/>
<path d="M255.987 198.528V201.423C255.987 202.716 255.295 203.305 254.033 203.305C253.429 203.331 252.831 203.164 252.327 202.829L252.73 202.106C253.088 202.365 253.519 202.502 253.961 202.498C254.674 202.498 254.995 202.178 254.995 201.547V201.402C254.851 201.548 254.679 201.663 254.488 201.737C254.297 201.812 254.093 201.846 253.888 201.837C253.441 201.837 253.013 201.659 252.697 201.343C252.381 201.027 252.203 200.598 252.203 200.151C252.203 199.704 252.381 199.276 252.697 198.96C253.013 198.643 253.441 198.466 253.888 198.466C254.108 198.454 254.327 198.494 254.528 198.582C254.729 198.67 254.906 198.804 255.047 198.973V198.528H255.987ZM254.953 200.151C254.966 199.967 254.922 199.783 254.829 199.623C254.735 199.464 254.595 199.336 254.428 199.257C254.261 199.178 254.074 199.151 253.891 199.18C253.708 199.209 253.538 199.293 253.404 199.42C253.269 199.547 253.176 199.711 253.136 199.892C253.097 200.073 253.112 200.261 253.182 200.433C253.251 200.604 253.37 200.751 253.524 200.854C253.677 200.957 253.859 201.011 254.044 201.01C254.163 201.024 254.285 201.013 254.4 200.977C254.515 200.941 254.621 200.881 254.711 200.801C254.801 200.721 254.873 200.622 254.922 200.512C254.971 200.402 254.996 200.282 254.995 200.162L254.953 200.151Z" fill="#29335C"/>
<path d="M260.32 200.596H257.683C257.737 200.821 257.873 201.017 258.064 201.147C258.256 201.277 258.488 201.331 258.717 201.299C258.879 201.305 259.041 201.278 259.192 201.219C259.343 201.161 259.481 201.072 259.596 200.958L260.134 201.547C259.948 201.738 259.724 201.887 259.476 201.983C259.228 202.08 258.962 202.121 258.696 202.106C258.446 202.132 258.193 202.105 257.953 202.027C257.714 201.949 257.493 201.821 257.306 201.653C257.119 201.484 256.969 201.278 256.867 201.048C256.764 200.818 256.711 200.569 256.711 200.317C256.71 200.081 256.755 199.848 256.845 199.631C256.934 199.413 257.066 199.215 257.232 199.049C257.398 198.882 257.596 198.751 257.814 198.661C258.031 198.572 258.265 198.527 258.5 198.528C258.741 198.516 258.982 198.555 259.208 198.642C259.433 198.728 259.638 198.861 259.809 199.031C259.98 199.201 260.114 199.406 260.202 199.63C260.29 199.855 260.33 200.096 260.32 200.337C260.34 200.368 260.32 200.472 260.32 200.596ZM257.673 200.007H259.389C259.357 199.802 259.253 199.615 259.096 199.48C258.939 199.346 258.738 199.272 258.531 199.272C258.324 199.272 258.123 199.346 257.966 199.48C257.809 199.615 257.705 199.802 257.673 200.007Z" fill="#29335C"/>
<path d="M418.915 306.064H366.987C365.333 306.065 363.694 305.741 362.165 305.108C360.635 304.476 359.246 303.548 358.075 302.379C356.905 301.209 355.976 299.82 355.343 298.292C354.709 296.763 354.383 295.125 354.383 293.47C354.383 291.815 354.709 290.177 355.343 288.648C355.976 287.119 356.905 285.73 358.075 284.561C359.246 283.391 360.635 282.464 362.165 281.831C363.694 281.199 365.333 280.874 366.987 280.876H418.915C422.255 280.876 425.458 282.203 427.82 284.564C430.182 286.926 431.509 290.13 431.509 293.47C431.509 296.81 430.182 300.013 427.82 302.375C425.458 304.737 422.255 306.064 418.915 306.064Z" fill="#1F84DE"/>
<path d="M381.546 295.424L382.032 294.39C382.626 294.798 383.328 295.018 384.048 295.021C384.886 295.021 385.227 294.742 385.227 294.369C385.227 293.222 381.67 294.008 381.67 291.733C381.67 290.699 382.508 289.82 384.255 289.82C384.998 289.806 385.731 289.995 386.375 290.368L385.941 291.402C385.426 291.098 384.842 290.931 384.245 290.916C383.397 290.916 383.076 291.236 383.076 291.619C383.076 292.746 386.644 291.971 386.644 294.225C386.644 295.259 385.796 296.117 384.038 296.117C383.156 296.146 382.286 295.905 381.546 295.424Z" fill="white"/>
<path d="M392.113 294.059H388.556C388.628 294.353 388.803 294.61 389.051 294.784C389.298 294.957 389.6 295.034 389.901 295C390.118 295.01 390.335 294.975 390.538 294.896C390.741 294.818 390.925 294.698 391.079 294.545L391.814 295.331C391.443 295.684 390.982 295.926 390.481 296.032C389.981 296.137 389.461 296.102 388.979 295.929C388.498 295.756 388.074 295.453 387.755 295.054C387.435 294.654 387.233 294.174 387.171 293.666C387.168 293.339 387.232 293.014 387.358 292.712C387.485 292.41 387.673 292.138 387.909 291.911C388.146 291.684 388.426 291.509 388.733 291.394C389.04 291.28 389.367 291.23 389.694 291.247C390.019 291.231 390.344 291.283 390.648 291.399C390.952 291.516 391.228 291.695 391.459 291.925C391.69 292.155 391.87 292.43 391.988 292.734C392.106 293.037 392.159 293.362 392.144 293.687C392.144 293.79 392.124 293.946 392.113 294.059ZM388.536 293.263H390.852C390.801 292.993 390.657 292.75 390.446 292.575C390.234 292.4 389.968 292.304 389.694 292.304C389.419 292.304 389.154 292.4 388.942 292.575C388.731 292.75 388.587 292.993 388.536 293.263Z" fill="white"/>
<path d="M397.873 293.325V296.024H396.498V293.542C396.498 292.777 396.157 292.426 395.546 292.426C394.936 292.426 394.419 292.829 394.419 293.697V296.024H393.055V291.319H394.357V291.867C394.56 291.66 394.803 291.498 395.072 291.391C395.341 291.285 395.63 291.235 395.919 291.247C396.191 291.23 396.463 291.272 396.717 291.373C396.97 291.473 397.198 291.628 397.385 291.826C397.572 292.025 397.712 292.262 397.797 292.521C397.881 292.78 397.907 293.055 397.873 293.325Z" fill="white"/>
<path d="M403.953 289.52V296.013H402.65V295.476C402.468 295.683 402.241 295.846 401.987 295.952C401.732 296.058 401.457 296.103 401.182 296.086C400.566 296.046 399.989 295.773 399.567 295.322C399.145 294.872 398.91 294.278 398.91 293.661C398.91 293.044 399.145 292.45 399.567 292C399.989 291.55 400.566 291.277 401.182 291.236C401.443 291.224 401.704 291.268 401.947 291.366C402.19 291.465 402.409 291.614 402.588 291.805V289.52H403.953ZM402.619 293.656C402.599 293.422 402.511 293.198 402.366 293.013C402.221 292.828 402.025 292.689 401.802 292.614C401.58 292.538 401.34 292.529 401.112 292.588C400.885 292.646 400.679 292.77 400.52 292.943C400.362 293.117 400.257 293.333 400.219 293.565C400.182 293.797 400.212 294.035 400.308 294.25C400.403 294.465 400.559 294.648 400.757 294.775C400.954 294.903 401.184 294.97 401.419 294.969C401.587 294.97 401.753 294.936 401.906 294.868C402.06 294.801 402.197 294.702 402.31 294.579C402.423 294.455 402.509 294.309 402.562 294.15C402.616 293.991 402.635 293.823 402.619 293.656Z" fill="white"/>
<path d="M229.372 71.956C228.582 71.8788 227.788 71.8443 226.994 71.8526C224.833 71.9591 222.769 72.7853 221.131 74.1998C219.931 75.2375 219.01 76.5584 218.45 78.0427C217.89 79.527 217.71 81.1277 217.926 82.6993C218.047 83.6039 218.301 84.4855 218.681 85.3153C219.072 86.1809 219.591 86.9826 220.221 87.6935C221.551 89.2006 223.327 90.244 225.291 90.6718C227.255 91.0995 229.304 90.8893 231.14 90.0717C232.012 89.6937 232.818 89.1807 233.529 88.5517C234.225 87.9583 234.825 87.2607 235.308 86.4837C236.159 85.1456 236.661 83.6158 236.769 82.0337C236.878 80.4516 236.589 78.8675 235.928 77.4259C235.036 75.465 233.519 73.8545 231.616 72.8453C230.899 72.5092 230.163 72.2124 229.414 71.956C230.213 72.061 230.988 72.2986 231.709 72.6591C233.73 73.6137 235.356 75.2401 236.31 77.2604C236.979 78.6527 237.308 80.1834 237.272 81.7273C237.226 83.5085 236.701 85.2445 235.752 86.7526C234.708 88.4237 233.189 89.7451 231.389 90.5473C229.452 91.4237 227.285 91.6526 225.208 91.2C223.131 90.7473 221.256 89.6374 219.86 88.0347C219.164 87.2947 218.595 86.446 218.174 85.5221C217.773 84.6517 217.511 83.7235 217.399 82.7717C217.177 81.124 217.376 79.4469 217.978 77.8972C218.58 76.3475 219.566 74.9758 220.842 73.9103C222.554 72.4747 224.708 71.6715 226.942 71.6355C227.764 71.61 228.585 71.7182 229.372 71.956Z" fill="#1F84DE"/>
<path d="M223.923 72.3801C225.637 75.0786 227.197 77.8714 228.597 80.7452C230.141 83.5337 231.522 86.4097 232.733 89.3584C231.033 86.6538 229.476 83.8616 228.069 80.9933C226.524 78.2036 225.14 75.3278 223.923 72.3801Z" fill="#1F84DE"/>
<path d="M225.898 71.832C227.565 74.4395 229.078 77.1429 230.427 79.9283C231.937 82.6311 233.294 85.417 234.491 88.2726C232.822 85.6641 231.306 82.9608 229.951 80.1764C228.441 77.4749 227.088 74.6888 225.898 71.832Z" fill="#1F84DE"/>
<path d="M228.183 71.863C229.67 74.1376 231.007 76.5071 232.185 78.9563C233.529 81.3204 234.71 83.7732 235.721 86.2977C234.233 84.0215 232.893 81.6522 231.709 79.2044C230.375 76.8366 229.198 74.3843 228.183 71.863Z" fill="#1F84DE"/>
<path d="M230.644 72.2249C231.882 74.0366 232.978 75.9414 233.922 77.9222C235.016 79.8233 235.949 81.812 236.714 83.8677C235.476 82.0559 234.38 80.1511 233.436 78.1704C232.342 76.2692 231.409 74.2806 230.644 72.2249Z" fill="#1F84DE"/>
<path d="M222.145 73.5278C223.86 76.2252 225.42 79.0181 226.818 81.8929C228.381 84.6815 229.782 87.5573 231.016 90.5061C229.3 87.8092 227.74 85.0163 226.343 82.1411C224.785 79.3498 223.384 76.4743 222.145 73.5278Z" fill="#1F84DE"/>
<path d="M220.376 74.6755C222.091 77.3696 223.652 80.159 225.05 83.0303C226.587 85.8226 227.968 88.6981 229.186 91.6435C227.47 88.9466 225.909 86.1537 224.512 83.2784C222.977 80.489 221.596 77.617 220.376 74.6755Z" fill="#1F84DE"/>
<path d="M218.949 76.5161C220.464 78.8357 221.821 81.2537 223.013 83.7541C224.371 86.1581 225.569 88.6485 226.601 91.2093C225.089 88.8886 223.731 86.4707 222.537 83.9713C221.183 81.5656 219.985 79.0754 218.949 76.5161Z" fill="#1F84DE"/>
<path d="M217.895 78.9976C219.138 80.788 220.227 82.68 221.152 84.6535C222.236 86.5436 223.167 88.518 223.933 90.5577C222.693 88.7655 221.604 86.8737 220.676 84.9017C219.584 83.0158 218.653 81.0407 217.895 78.9976Z" fill="#1F84DE"/>
<path d="M305.495 293.418C305.433 293.418 305.082 292.664 304.058 291.516C302.606 289.915 300.657 288.848 298.526 288.486C296.963 288.21 295.355 288.332 293.851 288.841C292.347 289.351 290.996 290.232 289.923 291.402C288.653 292.777 287.819 294.496 287.524 296.345C287.201 298.327 287.52 300.361 288.435 302.149C289.351 303.937 290.814 305.385 292.612 306.281C293.458 306.72 294.369 307.021 295.31 307.171C296.205 307.325 297.118 307.346 298.019 307.233C299.336 307.066 300.603 306.627 301.741 305.946C302.88 305.264 303.864 304.354 304.633 303.272C305.401 302.191 305.937 300.961 306.207 299.662C306.476 298.363 306.473 297.022 306.198 295.724C305.868 294.235 305.433 293.48 305.495 293.449C305.917 294.14 306.225 294.894 306.405 295.683C306.948 297.85 306.722 300.138 305.764 302.156C305.112 303.556 304.138 304.782 302.921 305.733C301.523 306.846 299.851 307.56 298.082 307.801C297.132 307.946 296.167 307.946 295.217 307.801C294.227 307.644 293.268 307.334 292.374 306.881C290.471 305.937 288.923 304.406 287.956 302.514C286.99 300.623 286.657 298.471 287.007 296.376C287.159 295.384 287.47 294.424 287.928 293.532C288.35 292.671 288.901 291.88 289.561 291.185C290.695 289.971 292.117 289.064 293.695 288.547C295.273 288.03 296.956 287.92 298.588 288.228C300.789 288.636 302.781 289.794 304.223 291.505C304.745 292.073 305.174 292.718 305.495 293.418Z" fill="#1F84DE"/>
<path d="M301.701 289.52C300.697 292.557 299.527 295.536 298.195 298.443C297.028 301.414 295.696 304.317 294.204 307.139C295.204 304.106 296.371 301.131 297.699 298.226C298.871 295.252 300.207 292.346 301.701 289.52Z" fill="#1F84DE"/>
<path d="M303.386 290.657C302.427 293.602 301.298 296.488 300.005 299.302C298.876 302.183 297.581 304.997 296.127 307.729C297.083 304.787 298.212 301.904 299.508 299.095C300.641 296.212 301.936 293.395 303.386 290.657Z" fill="#1F84DE"/>
<path d="M304.813 292.446C303.997 295.041 303.012 297.58 301.866 300.046C300.891 302.582 299.744 305.049 298.433 307.429C299.245 304.833 300.23 302.294 301.38 299.829C302.355 297.293 303.502 294.826 304.813 292.446Z" fill="#1F84DE"/>
<path d="M306.064 294.576C305.461 296.687 304.686 298.744 303.748 300.729C302.967 302.776 302.023 304.757 300.925 306.654C301.533 304.546 302.311 302.492 303.252 300.512C304.03 298.462 304.971 296.477 306.064 294.576Z" fill="#1F84DE"/>
<path d="M299.695 288.848C298.688 291.88 297.518 294.855 296.189 297.761C295.018 300.734 293.686 303.64 292.198 306.467C293.195 303.43 294.362 300.451 295.693 297.544C296.856 294.569 298.192 291.666 299.695 288.848Z" fill="#1F84DE"/>
<path d="M297.678 288.197C296.686 291.232 295.519 294.208 294.183 297.11C293.017 300.084 291.685 302.991 290.192 305.816C291.188 302.781 292.355 299.806 293.687 296.903C294.853 293.928 296.186 291.021 297.678 288.197Z" fill="#1F84DE"/>
<path d="M295.383 288.238C294.556 290.871 293.558 293.448 292.395 295.951C291.396 298.523 290.232 301.027 288.91 303.448C289.739 300.812 290.737 298.232 291.898 295.724C292.897 293.156 294.061 290.655 295.383 288.238Z" fill="#1F84DE"/>
<path d="M292.767 289.024C292.163 291.116 291.392 293.156 290.461 295.124C289.699 297.166 288.761 299.138 287.659 301.018C288.263 298.926 289.034 296.886 289.965 294.917C290.732 292.878 291.669 290.906 292.767 289.024Z" fill="#1F84DE"/>
<path d="M448.839 96.5549C448.733 95.103 448.516 93.6614 448.187 92.2431C447.763 90.5914 447.094 89.0125 446.202 87.5591C444.099 84.0605 440.843 81.4029 436.994 80.0426C433.145 78.6823 428.943 78.704 425.108 80.104C423.519 80.6664 422.026 81.4721 420.683 82.4925C419.983 83.0083 419.32 83.5715 418.698 84.1779C418.078 84.8264 417.504 85.5174 416.981 86.2459C414.771 89.2404 413.579 92.8642 413.579 96.5859C413.579 100.308 414.771 103.931 416.981 106.926C417.504 107.654 418.078 108.346 418.698 108.994C419.32 109.6 419.983 110.164 420.683 110.679C422.026 111.7 423.519 112.505 425.108 113.068C428.943 114.468 433.145 114.49 436.994 113.129C440.843 111.769 444.099 109.111 446.202 105.613C447.094 104.159 447.763 102.581 448.187 100.929C448.516 99.5105 448.733 98.0689 448.839 96.617C448.85 96.7131 448.85 96.8103 448.839 96.9065C448.839 97.1236 448.839 97.4028 448.839 97.7544C448.841 98.2152 448.803 98.6753 448.725 99.1296C448.659 99.7543 448.545 100.373 448.384 100.98C447.991 102.665 447.343 104.28 446.461 105.768C445.169 107.963 443.425 109.858 441.344 111.327C439.264 112.796 436.894 113.805 434.394 114.288C431.233 114.885 427.969 114.624 424.943 113.533C423.304 112.958 421.762 112.135 420.373 111.093C419.645 110.561 418.955 109.98 418.305 109.356C417.667 108.709 417.076 108.018 416.537 107.288C414.254 104.204 413.022 100.469 413.022 96.6325C413.022 92.7959 414.254 89.0607 416.537 85.9771C417.082 85.2512 417.672 84.5604 418.305 83.9091C418.955 83.2846 419.645 82.7043 420.373 82.172C421.765 81.0868 423.317 80.2252 424.974 79.618C427.801 78.5901 430.842 78.2938 433.814 78.7566C436.786 79.2194 439.593 80.4263 441.973 82.265C443.802 83.6771 445.337 85.4335 446.492 87.435C447.374 88.9232 448.022 90.5378 448.415 92.2225C448.577 92.8366 448.691 93.4623 448.756 94.094C448.834 94.5483 448.872 95.0084 448.87 95.4692C448.87 95.8208 448.87 96.1 448.87 96.3171C448.867 96.3972 448.857 96.4769 448.839 96.5549Z" fill="#1F84DE"/>
<path d="M445.933 87.0009C446.026 87.1146 440.091 92.2329 432.667 98.3749C425.243 104.517 419.153 109.604 419.06 109.439C418.967 109.273 424.902 104.269 432.326 98.0647C439.75 91.8607 445.84 86.8561 445.933 87.0009Z" fill="#1F84DE"/>
<path d="M447.722 90.3096C447.815 90.4234 442.056 95.3762 434.869 101.384C427.683 107.391 421.769 112.168 421.676 112.055C421.583 111.941 427.332 106.978 434.528 100.97C441.725 94.9626 447.608 90.1959 447.722 90.3096Z" fill="#1F84DE"/>
<path d="M448.539 94.3939C448.642 94.5076 443.596 98.8711 437.289 104.145C430.981 109.418 425.78 113.595 425.687 113.451C425.594 113.306 430.63 108.973 436.937 103.7C443.245 98.4265 448.446 94.2801 448.539 94.3939Z" fill="#1F84DE"/>
<path d="M448.839 98.933C448.932 99.0467 444.889 102.583 439.802 106.833C434.714 111.082 430.496 114.433 430.413 114.319C430.33 114.205 434.363 110.669 439.46 106.419C444.558 102.169 448.756 98.8192 448.839 98.933Z" fill="#1F84DE"/>
<path d="M443.203 84.271C443.307 84.3847 437.361 89.503 429.948 95.645C422.534 101.787 416.423 106.781 416.33 106.667C416.237 106.554 422.172 101.435 429.596 95.2314C437.02 89.0274 443.11 84.1573 443.203 84.271Z" fill="#1F84DE"/>
<path d="M440.484 81.5412C440.577 81.655 434.632 86.7733 427.218 92.9152C419.804 99.0572 413.703 104.103 413.6 103.989C413.497 103.876 419.442 98.7573 426.866 92.5533C434.29 86.3493 440.381 81.4275 440.484 81.5412Z" fill="#1F84DE"/>
<path d="M436.689 79.7007C436.782 79.8144 431.674 84.2399 425.264 89.596C418.853 94.9521 413.6 99.1915 413.497 99.0778C413.393 98.9641 418.512 94.5282 424.922 89.1824C431.333 83.8367 436.596 79.6179 436.689 79.7007Z" fill="#1F84DE"/>
<path d="M431.788 78.7907C431.881 78.9044 427.859 82.42 422.813 86.6387C417.767 90.8575 413.579 94.1869 413.507 94.0732C413.435 93.9595 417.426 90.4439 422.482 86.2251C427.538 82.0064 431.695 78.6769 431.788 78.7907Z" fill="#1F84DE"/>
<path d="M412.111 73.3932C413.938 73.3932 415.42 71.9118 415.42 70.0844C415.42 68.257 413.938 66.7756 412.111 66.7756C410.284 66.7756 408.802 68.257 408.802 70.0844C408.802 71.9118 410.284 73.3932 412.111 73.3932Z" fill="#1F84DE"/>
<path d="M320.023 287.69C320.025 288.345 319.833 288.985 319.47 289.531C319.108 290.076 318.592 290.502 317.988 290.754C317.383 291.006 316.718 291.073 316.075 290.947C315.432 290.82 314.842 290.506 314.378 290.044C313.914 289.581 313.598 288.992 313.47 288.349C313.341 287.707 313.406 287.042 313.656 286.436C313.906 285.831 314.33 285.314 314.875 284.95C315.419 284.586 316.059 284.391 316.714 284.391C317.59 284.391 318.43 284.739 319.05 285.357C319.67 285.975 320.02 286.814 320.023 287.69Z" fill="#1F84DE"/>
<path d="M163.538 112.706C163.123 110.095 161.861 107.693 159.946 105.87C158.03 104.048 155.568 102.908 152.939 102.624C151.546 102.655 150.156 102.502 148.803 102.17C147.782 101.679 146.797 101.115 145.856 100.484C144.228 99.6649 142.371 99.4234 140.588 99.7992C138.804 100.175 137.202 101.146 136.043 102.552C133.975 105.251 133.076 101.518 128.102 104.455C123.966 106.905 126.138 110.307 126.138 110.307C124.004 110.279 121.926 110.991 120.258 112.322C118.589 113.653 117.434 115.52 116.987 117.607C116.501 120.265 116.987 123.491 114.919 125.228C113.885 126.065 112.52 126.262 111.476 127.099C109.552 128.588 109.49 131.463 109.925 133.851C110.359 136.24 111.103 138.773 110.214 141.089C108.756 144.801 103.472 146.259 102.821 150.209C102.511 152.07 103.286 154.345 101.994 155.669C101.42 156.162 100.761 156.547 100.05 156.806C98.6634 157.485 97.4905 158.532 96.6599 159.833C95.8292 161.134 95.3728 162.639 95.3408 164.182C95.3088 165.725 95.7023 167.248 96.4782 168.582C97.2542 169.917 98.3826 171.012 99.7397 171.747C100.484 172.151 101.384 172.533 101.663 173.34C101.942 174.146 101.394 175.17 100.97 176.018C100.183 177.593 99.9312 179.381 100.253 181.112C100.575 182.843 101.454 184.422 102.755 185.608C104.055 186.794 105.708 187.524 107.461 187.685C109.215 187.847 110.973 187.431 112.468 186.503C114.11 189.34 116.791 191.428 119.944 192.324C121.373 192.795 122.908 192.835 124.359 192.438C125.492 192.037 126.528 191.403 127.399 190.576C131.701 186.823 137.739 181.095 138.132 175.397" fill="#263238"/>
<path d="M123.977 133.469C123.318 133.601 122.64 133.601 121.981 133.469C120.376 133.203 118.844 132.606 117.482 131.716C116.12 130.826 114.959 129.662 114.071 128.299C113.671 127.763 113.386 127.15 113.233 126.5C113.648 127.003 114.032 127.531 114.381 128.082C115.333 129.299 116.483 130.347 117.783 131.184C119.096 132.02 120.539 132.632 122.053 132.993C122.704 133.109 123.347 133.268 123.977 133.469Z" fill="#455A64"/>
<path d="M126.862 120.389C126.527 120.906 126.087 121.347 125.569 121.681C123.161 123.464 120.151 124.232 117.183 123.822C116.567 123.776 115.968 123.6 115.425 123.305C117.435 123.55 119.471 123.466 121.454 123.056C123.392 122.474 125.22 121.572 126.862 120.389Z" fill="#455A64"/>
<path d="M105.727 185.086C105.727 185.086 105.664 185.086 105.551 185.086C105.376 185.044 105.203 184.992 105.034 184.931C104.388 184.686 103.788 184.336 103.255 183.897C102.374 183.237 101.665 182.376 101.187 181.384C100.566 180.063 100.391 178.574 100.691 177.145C100.854 176.317 101.166 175.525 101.611 174.808C102.109 174.03 102.723 173.333 103.431 172.74C104.156 172.146 104.79 171.45 105.313 170.672C105.55 170.268 105.682 169.811 105.697 169.344C105.711 168.876 105.608 168.411 105.396 167.994C104.878 167.088 104.257 166.244 103.545 165.481C103.182 165.05 102.86 164.586 102.583 164.096C102.305 163.576 102.117 163.013 102.025 162.431C101.858 161.211 102.078 159.97 102.653 158.881C103.228 157.793 104.129 156.912 105.23 156.361C106.367 155.981 107.537 155.708 108.725 155.545C109.259 155.438 109.766 155.223 110.214 154.914C110.628 154.605 110.929 154.169 111.072 153.673C111.297 152.629 111.178 151.541 110.731 150.571C110.328 149.589 109.769 148.658 109.408 147.665C108.982 146.687 108.905 145.592 109.19 144.563C109.529 143.615 110.145 142.789 110.959 142.196C112.408 141.228 114.03 140.547 115.736 140.19C117.09 139.869 118.369 139.286 119.499 138.473C120.298 137.799 120.85 136.879 121.071 135.857C121.227 135.213 121.161 134.536 120.885 133.934C120.689 133.52 120.502 133.355 120.533 133.334C120.725 133.48 120.88 133.668 120.988 133.882C121.314 134.497 121.416 135.206 121.278 135.888C121.089 136.98 120.531 137.973 119.696 138.701C118.55 139.574 117.238 140.204 115.839 140.552C114.194 140.922 112.633 141.599 111.238 142.547C110.497 143.087 109.941 143.841 109.645 144.708C109.392 145.64 109.472 146.632 109.873 147.51C110.224 148.462 110.772 149.361 111.207 150.395C111.695 151.463 111.826 152.66 111.579 153.807C111.406 154.412 111.043 154.944 110.545 155.327C110.039 155.685 109.466 155.935 108.86 156.062C107.708 156.216 106.573 156.476 105.468 156.837C104.472 157.339 103.658 158.138 103.137 159.124C102.616 160.109 102.415 161.233 102.563 162.338C102.643 162.861 102.807 163.367 103.048 163.837C103.311 164.302 103.616 164.741 103.958 165.15C104.694 165.945 105.33 166.827 105.851 167.777C106.088 168.264 106.201 168.802 106.179 169.343C106.157 169.885 106.002 170.412 105.727 170.879C105.18 171.691 104.51 172.413 103.741 173.019C103.06 173.565 102.464 174.21 101.973 174.932C101.542 175.606 101.238 176.352 101.074 177.134C100.766 178.486 100.904 179.901 101.466 181.167C101.898 182.126 102.546 182.972 103.359 183.638C104.064 184.246 104.864 184.735 105.727 185.086Z" fill="#455A64"/>
<path d="M213.035 443.896H101.663V449.811H213.035V443.896Z" fill="#E0E0E0"/>
<path d="M213.004 449.79C213.004 449.79 213.004 449.656 213.004 449.418C213.004 449.18 213.004 448.797 213.004 448.322C213.004 447.288 213.004 445.861 212.952 443.875L213.035 443.958C198.559 444.062 154.149 444.144 101.663 444.144L101.932 443.875V449.79L101.663 449.521L180.536 449.635L204.318 449.718H210.781H212.466H213.056H212.508H210.853H204.453L180.754 449.8L101.684 449.914H101.415V443.586H101.684C154.169 443.586 198.611 443.658 213.056 443.772H213.138V443.855C213.138 445.861 213.138 447.339 213.087 448.342C213.087 448.818 213.087 449.17 213.087 449.428C213.07 449.551 213.042 449.672 213.004 449.79Z" fill="#263238"/>
<path d="M113.326 341.385L89.8133 500.228H97.651L118.931 343.453V341.385H113.326Z" fill="#E0E0E0"/>
<path d="M113.326 341.385C113.326 341.385 113.75 341.385 114.671 341.385H118.931H119.003V341.458C119.003 342.078 119.003 342.771 119.003 343.526C116.459 363.079 108.022 425.863 97.9095 500.321V500.559H89.5031V500.249C96.1621 455.994 102.056 416.237 106.326 387.543C108.477 373.233 110.214 361.693 111.424 353.7C112.024 349.73 112.458 346.648 112.82 344.539L113.182 342.171C113.275 341.644 113.326 341.385 113.326 341.385C113.326 341.385 113.326 341.665 113.223 342.213C113.12 342.761 113.037 343.577 112.882 344.622C112.582 346.69 112.137 349.792 111.558 353.845C110.4 361.848 108.715 373.429 106.626 387.771C102.407 416.423 96.5757 456.097 90.0822 500.27L89.8133 499.959H97.6614L97.3925 500.187C107.536 425.729 116.098 362.934 118.91 343.443C118.91 342.688 118.91 341.995 118.91 341.375L118.972 341.437H114.753L113.326 341.385Z" fill="#263238"/>
<path d="M201.341 341.385L225.35 500.228H217.502L195.736 343.453V341.385H201.341Z" fill="#E0E0E0"/>
<path d="M201.341 341.385H199.955H195.736L195.798 341.323C195.798 341.944 195.798 342.637 195.798 343.391C198.621 362.913 207.42 425.667 217.76 500.136L217.502 499.908H225.34L225.071 500.218C218.443 456.056 212.477 416.371 208.175 387.719C206.045 373.377 204.329 361.807 203.129 353.793C202.55 349.792 202.095 346.69 201.775 344.57C201.63 343.536 201.516 342.719 201.434 342.161C201.351 341.603 201.33 341.334 201.33 341.334C201.33 341.334 201.382 341.592 201.475 342.12C201.568 342.647 201.682 343.464 201.847 344.487C202.178 346.555 202.654 349.657 203.274 353.649C204.505 361.631 206.273 373.181 208.444 387.492C212.808 416.185 218.846 455.911 225.577 500.136V500.446H217.192V500.208C206.852 425.76 198.207 362.965 195.602 343.412C195.602 342.657 195.602 341.965 195.602 341.344V341.272H195.674H199.924C200.917 341.365 201.341 341.385 201.341 341.385Z" fill="#263238"/>
<path d="M158.14 341.385H151.44V500.228H158.14V341.385Z" fill="#E0E0E0"/>
<path d="M158.14 500.229C158.14 500.229 158.14 499.939 158.14 499.391C158.14 498.843 158.14 498.036 158.14 496.992C158.14 494.924 158.14 491.76 158.14 487.769C158.14 479.755 158.088 468.185 158.057 453.854C158.057 425.202 157.985 385.527 157.944 341.386L158.212 341.654H151.512L151.781 341.386C151.781 417.436 151.698 481.493 151.584 500.229L151.512 500.156H156.568H157.799H158.212H157.83H156.61H151.512H151.44V500.084C151.326 481.348 151.243 417.291 151.243 341.241V340.972H158.481V341.241C158.481 385.465 158.398 425.202 158.378 453.947C158.378 468.257 158.305 479.797 158.295 487.8C158.295 491.77 158.295 494.852 158.295 496.961C158.295 497.995 158.295 498.781 158.295 499.329C158.295 499.877 158.14 500.229 158.14 500.229Z" fill="#263238"/>
<path d="M202.674 330.766H110.742V342.709H202.674V330.766Z" fill="#455A64"/>
<path d="M138.815 331.107C137.772 332.153 136.648 333.114 135.454 333.982C134.166 334.913 132.819 335.759 131.421 336.515C127.992 338.36 124.288 339.638 120.451 340.3C118.885 340.569 117.303 340.731 115.715 340.786C114.255 340.848 112.793 340.796 111.341 340.631H111.672H112.551C113.295 340.631 114.391 340.631 115.736 340.631C117.314 340.556 118.885 340.38 120.44 340.103C122.344 339.749 124.22 339.262 126.055 338.645C127.874 337.999 129.646 337.228 131.359 336.339C132.754 335.597 134.101 334.768 135.392 333.858C136.488 333.072 137.357 332.4 137.925 331.904L138.587 331.345L138.815 331.107Z" fill="#263238"/>
<path d="M151.998 338.956L151.771 338.873C151.626 338.811 151.409 338.697 151.119 338.583C150.265 338.259 149.377 338.03 148.472 337.901C147.047 337.701 145.598 337.753 144.191 338.056C142.343 338.45 140.619 339.288 139.166 340.496V340.351C142.491 341.163 145.908 341.535 149.33 341.458C151.283 341.41 153.229 341.213 155.152 340.868C156.159 340.756 157.138 340.469 158.047 340.021C158.484 339.768 158.817 339.368 158.988 338.894C159.136 338.409 159.118 337.888 158.936 337.415C158.701 336.862 158.334 336.375 157.867 335.996C157.4 335.618 156.848 335.359 156.258 335.244C155.099 334.98 153.919 334.817 152.732 334.758C150.486 334.599 148.229 334.644 145.991 334.892C139.606 335.591 133.494 337.865 128.206 341.51C127.451 342.016 126.893 342.461 126.51 342.75L125.921 343.185C125.921 343.185 126.107 343.019 126.489 342.719C126.872 342.419 127.399 341.964 128.154 341.447C130.26 339.947 132.52 338.675 134.896 337.653C138.414 336.115 142.144 335.118 145.959 334.695C148.215 334.445 150.488 334.393 152.753 334.54C153.954 334.606 155.147 334.772 156.32 335.037C156.924 335.198 157.494 335.464 158.006 335.823C158.521 336.209 158.913 336.737 159.133 337.343C159.324 337.867 159.324 338.442 159.133 338.966C158.953 339.49 158.584 339.929 158.099 340.196C157.168 340.661 156.164 340.958 155.131 341.075C153.195 341.421 151.235 341.615 149.268 341.654C145.831 341.733 142.398 341.35 139.063 340.517H138.908L139.032 340.413C140.527 339.184 142.303 338.342 144.202 337.963C145.62 337.666 147.081 337.628 148.513 337.849C149.426 337.985 150.318 338.231 151.171 338.583C151.677 338.8 151.998 338.956 151.998 338.956Z" fill="#263238"/>
<path d="M163.879 331.076C164.093 331.1 164.302 331.156 164.499 331.242C165.047 331.484 165.54 331.836 165.947 332.276C166.55 332.921 166.974 333.712 167.177 334.571C167.397 335.636 167.307 336.741 166.919 337.756C166.17 339.578 164.748 341.041 162.948 341.84C162.418 342.087 161.868 342.288 161.304 342.44L160.839 342.554C160.725 342.554 160.673 342.554 160.673 342.554C160.867 342.465 161.068 342.393 161.273 342.337C161.824 342.16 162.36 341.939 162.876 341.675C164.618 340.868 165.989 339.431 166.712 337.653C167.103 336.667 167.197 335.589 166.981 334.551C166.798 333.716 166.403 332.943 165.833 332.307C165.289 331.746 164.619 331.324 163.879 331.076Z" fill="#263238"/>
<path d="M178.272 331.025C177.575 331.318 176.901 331.663 176.256 332.059C174.732 333.052 173.421 334.338 172.399 335.843C171.387 337.357 170.515 338.959 169.793 340.63L169.111 342.14C168.945 342.492 168.852 342.688 168.842 342.688C168.879 342.488 168.942 342.293 169.028 342.109C169.173 341.737 169.38 341.209 169.648 340.568C170.335 338.866 171.198 337.241 172.223 335.719C173.259 334.191 174.605 332.898 176.173 331.924C176.652 331.639 177.158 331.4 177.683 331.211C177.825 331.159 177.97 331.114 178.117 331.076C178.21 331.025 178.272 331.014 178.272 331.025Z" fill="#263238"/>
<path d="M194.154 338.118L193.617 337.88C193.106 337.664 192.576 337.495 192.035 337.373C190.035 336.913 187.938 337.146 186.089 338.035C185.79 338.152 185.532 338.354 185.345 338.614C185.261 338.747 185.224 338.904 185.241 339.06C185.258 339.216 185.327 339.361 185.438 339.473C186.014 339.908 186.671 340.225 187.371 340.403C188.9 340.947 190.491 341.295 192.107 341.437C193.886 341.591 195.677 341.504 197.432 341.179C198.355 341.059 199.231 340.702 199.976 340.145C200.329 339.834 200.575 339.42 200.679 338.961C200.783 338.503 200.739 338.023 200.555 337.591C200.183 336.705 199.482 335.997 198.6 335.616C197.744 335.221 196.845 334.923 195.922 334.726C194.18 334.33 192.391 334.184 190.608 334.292C187.573 334.476 184.631 335.411 182.046 337.012C180.309 338.088 178.756 339.435 177.445 341.003C176.98 341.572 176.649 342.037 176.411 342.337L176.07 342.812C176.448 342.16 176.877 341.537 177.352 340.951C178.659 339.317 180.224 337.906 181.984 336.774C184.586 335.143 187.553 334.187 190.618 333.992C192.421 333.876 194.232 334.018 195.995 334.416C196.932 334.613 197.845 334.914 198.714 335.316C199.64 335.72 200.378 336.458 200.782 337.384C200.97 337.864 201.017 338.388 200.917 338.893C200.798 339.391 200.527 339.839 200.141 340.176C199.372 340.774 198.459 341.159 197.494 341.292C195.718 341.623 193.906 341.71 192.107 341.551C190.479 341.398 188.875 341.051 187.33 340.517C186.968 340.393 186.616 340.248 186.296 340.114C185.941 339.986 185.62 339.782 185.355 339.514C185.227 339.377 185.148 339.201 185.129 339.014C185.11 338.828 185.153 338.64 185.252 338.48C185.46 338.202 185.738 337.984 186.058 337.849C187.943 336.964 190.074 336.752 192.097 337.249C192.823 337.431 193.517 337.724 194.154 338.118Z" fill="#263238"/>
<path d="M134.555 178.882C131.152 180.193 128.316 182.655 126.541 185.841C123.532 191.166 124.339 193.792 125.124 196.946C125.91 200.1 127.296 206.335 127.368 205.931C127.441 205.528 134.555 178.882 134.555 178.882Z" fill="#A36957"/>
<path d="M134.885 178.913L141.213 175.16L170.631 164.147L164.851 213.593L143.137 227.263L130.274 220.831L128.992 206.521L134.885 178.913Z" fill="#A36957"/>
<path d="M134.12 254.157L122.622 269.067L108.374 265.717L96.9789 272.087L99.9982 277.453L130.232 279.48L140.893 257.507L134.12 254.157Z" fill="#7C3B29"/>
<path d="M99.233 397.283L110.835 422.43L129.55 413.776L117.556 382.663L99.233 397.283Z" fill="#A36957"/>
<path d="M108.642 420.745L115.415 433.67C115.415 433.67 98.0647 451.61 99.6984 455.622L140.479 436.069L129.25 410.146L108.642 420.745Z" fill="#369577"/>
<path d="M127.182 425.853C127.633 425.784 128.094 425.884 128.475 426.134C128.857 426.384 129.133 426.766 129.25 427.207C129.338 427.655 129.251 428.119 129.006 428.503C128.762 428.888 128.379 429.165 127.937 429.275C127.46 429.347 126.973 429.24 126.571 428.975C126.168 428.71 125.877 428.305 125.755 427.838C125.714 427.361 125.859 426.887 126.16 426.515C126.46 426.143 126.894 425.902 127.368 425.842" fill="#E0E0E0"/>
<g opacity="0.6">
<path opacity="0.6" d="M140.479 436.069L138.784 432.812L100.298 452.778C100.298 452.778 98.8608 454.433 99.6777 455.622L140.479 436.069Z" fill="white"/>
</g>
<path d="M114.66 433.784C114.753 433.98 115.798 433.587 117.08 433.784C118.362 433.98 119.293 434.538 119.437 434.373C119.582 434.208 118.734 433.194 117.173 433.018C115.612 432.843 114.526 433.618 114.66 433.784Z" fill="#263238"/>
<path d="M111.227 437.599C111.227 437.816 112.261 437.744 113.378 438.261C114.495 438.778 115.084 439.574 115.27 439.471C115.456 439.367 115.053 438.178 113.699 437.558C112.344 436.937 111.134 437.382 111.227 437.599Z" fill="#263238"/>
<path d="M111.248 443.886C111.455 443.886 111.248 442.707 110.214 441.818C109.18 440.929 108.043 440.98 108.043 441.187C108.043 441.394 108.891 441.704 109.728 442.407C110.566 443.11 111.041 443.958 111.248 443.886Z" fill="#263238"/>
<path d="M112.706 428.8C112.882 428.945 113.657 428.231 114.774 427.766C115.891 427.301 116.987 427.238 117.007 427.021C117.028 426.804 115.839 426.494 114.484 427.021C113.13 427.549 112.541 428.696 112.706 428.8Z" fill="#263238"/>
<path d="M111.517 426.215C111.517 426.215 111.31 425.956 111.134 425.398C110.902 424.6 110.838 423.761 110.948 422.937C110.97 422.654 111.033 422.375 111.134 422.11C111.199 421.937 111.309 421.784 111.452 421.667C111.596 421.551 111.768 421.475 111.951 421.448C112.062 421.434 112.174 421.445 112.28 421.481C112.386 421.517 112.482 421.576 112.561 421.655C112.698 421.812 112.785 422.006 112.809 422.213C112.836 422.557 112.836 422.903 112.809 423.247C112.809 423.94 112.809 424.602 112.644 425.398C112.61 425.631 112.514 425.851 112.364 426.033C112.215 426.215 112.018 426.353 111.796 426.432C111.383 426.557 110.946 426.575 110.524 426.484C109.389 426.286 108.294 425.898 107.288 425.336C106.942 425.166 106.633 424.931 106.378 424.643C106.239 424.472 106.164 424.258 106.164 424.038C106.164 423.818 106.239 423.605 106.378 423.433C106.517 423.31 106.683 423.222 106.863 423.177C107.043 423.132 107.232 423.131 107.412 423.175C107.971 423.325 108.509 423.544 109.015 423.826C109.739 424.22 110.404 424.714 110.99 425.295C111.393 425.708 111.579 425.967 111.548 425.998C110.708 425.299 109.801 424.686 108.839 424.168C108.363 423.923 107.86 423.736 107.34 423.609C107.226 423.579 107.108 423.575 106.993 423.598C106.878 423.622 106.77 423.671 106.678 423.744C106.621 423.836 106.596 423.946 106.607 424.054C106.619 424.162 106.665 424.264 106.74 424.343C106.961 424.567 107.22 424.749 107.505 424.881C107.813 425.051 108.131 425.203 108.456 425.336C109.121 425.616 109.815 425.824 110.524 425.956C110.863 426.044 111.219 426.044 111.558 425.956C111.693 425.912 111.812 425.83 111.902 425.72C111.992 425.61 112.048 425.477 112.065 425.336C112.158 424.674 112.189 423.909 112.251 423.268C112.275 422.955 112.275 422.64 112.251 422.327C112.251 422.058 112.106 421.934 111.91 421.944C111.465 421.944 111.31 422.575 111.238 423.051C111.131 424.114 111.225 425.187 111.517 426.215Z" fill="#263238"/>
<path d="M98.9642 405.917L69.4228 332.39C69.4228 332.39 70.1052 319.34 72.5248 315.215C74.9444 311.089 147.759 287.038 147.759 287.038C147.759 287.038 166.309 282.582 178.675 287.038C191.042 291.495 200.317 306.974 198.6 315.556C196.884 324.138 189.636 330.456 189.636 330.456L136.074 332.048L106.885 342.699L126.531 399.051C126.531 399.051 116.49 410.043 98.9642 405.917Z" fill="#263238"/>
<path d="M72.804 356.627L72.1112 384.307L92.7292 384.803L95.6968 351.591L72.804 356.627Z" fill="#A36957"/>
<path d="M70.8807 381.825L71.2633 396.415C71.2633 396.415 47.7812 404.852 47.4813 409.174L92.6981 409.629L94.094 381.422L70.8807 381.825Z" fill="#369577"/>
<path d="M85.2637 394.595C85.6986 394.734 86.0673 395.027 86.2999 395.42C86.5325 395.813 86.6127 396.277 86.5252 396.725C86.4015 397.156 86.1202 397.525 85.7372 397.759C85.3541 397.993 84.8973 398.074 84.4572 397.987C83.9991 397.839 83.6117 397.527 83.3694 397.111C83.1271 396.695 83.0468 396.204 83.144 395.732C83.3238 395.296 83.6644 394.945 84.0955 394.753C84.5266 394.56 85.0151 394.541 85.4602 394.698" fill="#E0E0E0"/>
<g opacity="0.6">
<path opacity="0.6" d="M92.6878 409.629L92.605 405.958L49.2805 406.899C49.2805 406.899 47.2125 407.747 47.471 409.174L92.6878 409.629Z" fill="white"/>
</g>
<path d="M70.5293 396.177C70.5293 396.405 71.6356 396.508 72.7213 397.211C73.807 397.914 74.3654 398.865 74.5722 398.783C74.779 398.7 74.4585 397.418 73.1349 396.57C71.8114 395.722 70.4879 396.022 70.5293 396.177Z" fill="#263238"/>
<path d="M65.7728 398.09C65.7108 398.307 66.6724 398.69 67.4065 399.631C68.1407 400.572 68.3578 401.564 68.5749 401.554C68.7921 401.544 68.9472 400.303 68.0062 399.155C67.0653 398.007 65.7728 397.883 65.7728 398.09Z" fill="#263238"/>
<path d="M63.012 403.746C63.2188 403.746 63.5393 402.712 63.012 401.482C62.4847 400.251 61.43 399.776 61.3369 399.951C61.2439 400.127 61.8746 400.789 62.3089 401.792C62.7432 402.795 62.7949 403.715 63.012 403.746Z" fill="#263238"/>
<path d="M70.9842 390.852C71.0772 391.059 72.0905 390.759 73.3417 390.852C74.5928 390.945 75.5545 391.348 75.6682 391.162C75.7819 390.976 74.8617 390.18 73.3934 390.128C71.9251 390.076 70.8808 390.676 70.9842 390.852Z" fill="#263238"/>
<path d="M71.0462 388.009C70.9802 387.712 70.9802 387.405 71.0462 387.109C71.1879 386.289 71.4977 385.508 71.9562 384.814C72.1066 384.571 72.2873 384.349 72.4939 384.152C72.6297 384.024 72.7975 383.936 72.9795 383.896C73.1615 383.856 73.351 383.865 73.5279 383.924C73.6333 383.961 73.729 384.02 73.8078 384.099C73.8867 384.178 73.9465 384.274 73.9828 384.379C74.0442 384.578 74.0442 384.791 73.9828 384.989C73.8453 385.306 73.6864 385.614 73.5072 385.91C73.1556 386.499 72.8558 387.099 72.4111 387.76C72.2787 387.954 72.096 388.107 71.8827 388.203C71.6695 388.3 71.4338 388.336 71.2014 388.308C70.7732 388.242 70.3701 388.064 70.0329 387.791C69.4006 387.33 68.8214 386.799 68.3061 386.209C68.0683 385.92 67.8409 385.63 67.6341 385.331C67.3962 385.024 67.2237 384.672 67.1274 384.297C67.07 384.081 67.0904 383.852 67.1849 383.649C67.2794 383.447 67.4421 383.285 67.6444 383.19C67.8239 383.144 68.012 383.143 68.1922 383.186C68.3724 383.229 68.5393 383.316 68.6784 383.438C69.1149 383.822 69.5006 384.26 69.8261 384.741C70.304 385.411 70.6835 386.146 70.9532 386.923C71.0713 387.202 71.1379 387.499 71.1496 387.802C70.6987 386.806 70.1516 385.857 69.5159 384.969C69.1976 384.538 68.8297 384.145 68.4199 383.8C68.332 383.723 68.2275 383.667 68.1146 383.637C68.0017 383.606 67.8833 383.602 67.7685 383.624C67.6748 383.682 67.6033 383.769 67.5658 383.873C67.5282 383.976 67.5268 384.089 67.5617 384.193C67.6568 384.491 67.8077 384.768 68.0063 385.01C68.2079 385.301 68.4253 385.581 68.6577 385.848C69.1524 386.41 69.7071 386.916 70.3121 387.357C70.5835 387.565 70.8979 387.71 71.2324 387.781C71.3743 387.797 71.518 387.774 71.6475 387.714C71.777 387.654 71.8874 387.559 71.9665 387.44C72.3387 386.892 72.7007 386.22 73.0005 385.661C73.173 385.398 73.325 385.121 73.4555 384.834C73.5485 384.576 73.4555 384.41 73.3211 384.338C72.9075 384.172 72.5042 384.638 72.225 385.031C71.6498 385.941 71.25 386.951 71.0462 388.009Z" fill="#263238"/>
<path d="M84.8398 279.78C84.8398 279.78 72.4318 278.797 71.1186 292.188C69.8054 305.578 68.3889 368.104 68.3889 368.104L97.2478 370.513L101.715 306.602L147.759 287.038C147.759 287.038 93.0601 278.063 84.8398 279.78Z" fill="#263238"/>
<path d="M135.744 261.706C135.744 261.706 128.247 282.716 129.674 285.064C131.101 287.411 150.354 297.037 150.354 297.037L198.58 315.556C201.927 309.436 203.634 302.554 203.533 295.579C203.533 283.471 186.761 261.706 186.761 261.706H135.744Z" fill="#263238"/>
<path d="M150.034 285.973C150.034 285.973 149.961 285.973 149.806 286.097L149.124 286.408L146.456 287.597L136.426 291.971L101.818 306.86L101.973 306.643C101.539 312.961 101.063 319.775 100.577 326.827C99.3985 343.319 98.3232 358.519 97.4753 370.544V370.761H97.2685L76.2059 368.9L70.4155 368.362L68.9059 368.197C68.7315 368.19 68.5583 368.166 68.3889 368.125C68.5643 368.109 68.7408 368.109 68.9162 368.125L70.4258 368.218L76.2266 368.642L97.2685 370.306L97.041 370.503C97.8579 358.477 98.9022 343.267 100.04 326.775C100.536 319.723 101.012 312.909 101.456 306.602V306.436L101.601 306.374L136.292 291.66L146.373 287.431L149.082 286.315L149.785 286.046L150.034 285.973Z" fill="#455A64"/>
<path d="M188.395 288.073C187.93 288.003 187.475 287.878 187.04 287.7L183.411 286.532C179.446 285.179 175.38 284.142 171.251 283.43C167.137 282.756 162.937 282.812 158.843 283.595C157.158 283.986 155.494 284.466 153.859 285.033C154.254 284.781 154.673 284.569 155.11 284.402C156.29 283.903 157.512 283.509 158.76 283.223C162.903 282.312 167.181 282.203 171.365 282.902C175.52 283.599 179.602 284.683 183.556 286.139C185.076 286.677 186.296 287.173 187.144 287.473C187.579 287.632 187.998 287.833 188.395 288.073Z" fill="#455A64"/>
<path d="M181.571 276.998C180.169 276.911 178.764 276.911 177.362 276.998C176.059 277.081 174.519 277.288 172.792 277.484C171.065 277.681 169.194 277.918 167.239 278.291C163.888 278.823 160.676 280.014 157.789 281.796C156.633 282.594 155.538 283.475 154.511 284.433C154.695 284.094 154.932 283.786 155.214 283.523C155.922 282.749 156.712 282.056 157.571 281.455C160.458 279.549 163.719 278.284 167.136 277.743C169.111 277.36 171.013 277.143 172.74 276.967C174.467 276.791 176.018 276.636 177.341 276.595C178.377 276.544 179.416 276.589 180.443 276.729C180.831 276.757 181.212 276.848 181.571 276.998Z" fill="#455A64"/>
<path d="M134.555 178.882C134.555 178.882 126.355 205.177 126.541 212.704C126.727 220.232 129.85 241.656 129.488 245.792C129.126 249.928 130.605 261.633 135.692 261.633H186.73C186.73 261.633 198.259 258.438 198.756 251.52C199.252 244.603 183.246 177.424 183.246 177.424C183.246 177.424 180.226 165.078 176.008 164.178C171.789 163.279 167.074 164.178 164.251 172.895C161.428 181.612 160.487 193.916 154.459 199.945C148.431 205.973 139.859 212.735 139.859 212.735C139.859 212.735 132.941 206.945 132.621 199.107C132.3 191.269 135.247 178.582 135.247 178.582L134.555 178.882Z" fill="#369577"/>
<path d="M188.281 183.494C186.937 181.475 184.963 179.959 182.666 179.182C180.388 178.415 178.016 177.959 175.615 177.827C173.477 177.535 171.305 177.612 169.193 178.055C167.125 178.592 166.257 181.157 165.388 183.142C163.996 191.975 164.465 201.002 166.764 209.643C166.964 210.959 167.475 212.207 168.253 213.286C169.032 214.365 170.056 215.243 171.241 215.847C172.983 217.119 175.01 217.942 177.145 218.246C180.971 218.536 184.497 215.765 186.285 212.373C188.074 208.982 188.478 205.052 188.839 201.237C189.081 198.845 189.312 196.456 189.532 194.071C189.884 190.452 190.173 186.565 188.281 183.494Z" fill="#A36957"/>
<path d="M142.113 262.274C141.369 262.094 140.678 261.739 140.097 261.24C138.642 260.081 137.474 258.602 136.685 256.918C135.902 255.27 135.319 253.534 134.947 251.748C134.731 251.019 134.613 250.264 134.596 249.504C134.91 250.193 135.149 250.914 135.309 251.655C135.784 253.394 136.406 255.089 137.171 256.721C137.932 258.34 139.007 259.792 140.335 260.992C141.369 261.819 142.154 262.191 142.113 262.274Z" fill="#263238"/>
<path d="M169.121 229.682C168.866 229.958 168.578 230.201 168.263 230.406C167.432 230.998 166.55 231.514 165.626 231.947C164.241 232.585 162.771 233.024 161.263 233.25C159.41 233.517 157.523 233.437 155.7 233.012C152.4 232.171 149.399 230.427 147.035 227.976C146.318 227.254 145.651 226.484 145.039 225.67C144.805 225.376 144.604 225.057 144.44 224.719C144.522 224.657 145.474 225.96 147.293 227.707C149.674 230.013 152.614 231.659 155.824 232.484C159.041 233.215 162.406 232.911 165.44 231.616C167.808 230.582 169.059 229.548 169.121 229.682Z" fill="#263238"/>
<path d="M141.482 261.323C141.369 261.416 140.665 260.609 140.448 259.358C140.332 258.992 140.293 258.605 140.332 258.223C140.371 257.841 140.488 257.47 140.676 257.135C140.831 257.135 140.748 258.117 140.976 259.203C141.203 260.289 141.658 261.24 141.482 261.323Z" fill="#263238"/>
<path d="M162.627 183.369C162.163 183.468 161.732 183.686 161.376 184C160.978 184.392 160.701 184.891 160.58 185.437C160.482 185.794 160.473 186.169 160.555 186.529C160.636 186.89 160.804 187.225 161.045 187.505L161.232 187.691L160.973 187.774C160.339 187.981 159.755 188.318 159.259 188.763C158.762 189.208 158.364 189.752 158.088 190.359C157.72 191.085 157.537 191.89 157.555 192.704C157.573 193.517 157.792 194.314 158.192 195.022L158.502 195.529L157.923 195.374C157.257 195.204 156.555 195.239 155.91 195.475C155.264 195.71 154.705 196.135 154.305 196.694C153.905 197.253 153.683 197.919 153.668 198.606C153.653 199.293 153.846 199.968 154.221 200.544L153.745 200.782C153.534 200.366 153.176 200.044 152.741 199.876C152.306 199.708 151.824 199.706 151.388 199.872C150.901 200.011 150.458 200.275 150.105 200.638C149.751 201 149.498 201.449 149.372 201.94C149.079 202.948 148.933 203.992 148.937 205.042L148.896 206.49L148.451 205.063C148.297 204.696 148.023 204.394 147.673 204.206C147.323 204.018 146.919 203.955 146.528 204.029C146.145 204.113 145.788 204.289 145.488 204.541C145.187 204.793 144.952 205.114 144.801 205.476C144.119 206.934 144.533 208.578 144.801 209.912H144.388C144.384 209.569 144.302 209.231 144.15 208.923C143.998 208.615 143.779 208.345 143.509 208.134C143.029 207.726 142.422 207.499 141.792 207.493C141.287 207.525 140.808 207.728 140.432 208.068C140.057 208.408 139.807 208.865 139.724 209.364C139.568 210.014 139.656 210.699 139.973 211.287C140.2 211.68 140.407 211.835 140.386 211.866C140.173 211.741 139.995 211.563 139.869 211.349C139.553 210.823 139.41 210.21 139.46 209.598C139.51 208.986 139.751 208.405 140.148 207.937C140.355 207.7 140.609 207.507 140.894 207.372C141.178 207.237 141.488 207.162 141.803 207.151C142.521 207.138 143.221 207.38 143.778 207.834C144.089 208.083 144.343 208.397 144.522 208.754C144.7 209.111 144.799 209.503 144.812 209.902V211.608L144.408 209.953C144.204 209.218 144.059 208.468 143.974 207.71C143.865 206.862 143.99 206 144.336 205.218C144.512 204.78 144.793 204.392 145.153 204.087C145.514 203.783 145.943 203.571 146.404 203.47C146.914 203.37 147.442 203.45 147.899 203.698C148.356 203.945 148.712 204.343 148.906 204.825L148.4 204.897C148.397 203.809 148.55 202.726 148.855 201.681C149.032 201.128 149.317 200.615 149.692 200.172C150.105 199.714 150.645 199.39 151.243 199.241C151.814 199.074 152.42 199.074 152.991 199.241C153.277 199.335 153.538 199.493 153.755 199.703C153.972 199.912 154.138 200.168 154.242 200.451L154.986 202.519L153.766 200.647C153.327 199.986 153.1 199.206 153.116 198.413C153.131 197.619 153.387 196.849 153.851 196.204C154.314 195.56 154.963 195.072 155.711 194.806C156.459 194.539 157.27 194.507 158.037 194.712L157.768 195.074C157.336 194.298 157.104 193.427 157.093 192.538C157.082 191.65 157.293 190.773 157.706 189.987C158.01 189.334 158.449 188.753 158.994 188.282C159.54 187.812 160.179 187.462 160.87 187.257L160.797 187.526C160.531 187.208 160.348 186.829 160.265 186.423C160.182 186.017 160.201 185.596 160.322 185.199C160.473 184.617 160.797 184.094 161.252 183.7C161.536 183.459 161.872 183.289 162.235 183.204C162.373 183.24 162.505 183.296 162.627 183.369Z" fill="#369577"/>
<path d="M134.803 179.068C134.803 179.068 134.865 179.068 134.947 179.265C135.056 179.48 135.119 179.716 135.133 179.957C135.154 180.351 135.072 180.743 134.896 181.095C134.651 181.583 134.224 181.955 133.707 182.129V181.891C134.163 182.269 134.53 182.743 134.782 183.279C135.035 183.815 135.165 184.4 135.165 184.993C135.196 185.76 135.02 186.522 134.656 187.199C134.293 187.876 133.754 188.442 133.097 188.839V188.457C133.725 188.966 134.193 189.645 134.446 190.414C134.699 191.182 134.726 192.006 134.523 192.789C134.035 194.455 133.172 195.986 132 197.267L131.577 196.936C131.779 196.714 132.029 196.542 132.308 196.432C132.586 196.321 132.887 196.276 133.185 196.299C133.484 196.322 133.774 196.412 134.033 196.564C134.292 196.715 134.512 196.924 134.679 197.173C134.946 197.622 135.096 198.132 135.114 198.654C135.132 199.177 135.018 199.695 134.782 200.162C134.34 201.006 133.735 201.754 133.003 202.364L132.735 201.92C133.107 201.773 133.506 201.704 133.906 201.717C134.306 201.73 134.699 201.825 135.061 201.996C135.423 202.166 135.746 202.409 136.011 202.709C136.276 203.009 136.477 203.36 136.601 203.741C136.725 204.121 136.77 204.523 136.734 204.922C136.697 205.32 136.579 205.707 136.388 206.058C136.196 206.41 135.934 206.718 135.619 206.965C135.304 207.212 134.942 207.391 134.554 207.493L133.965 207.658L134.317 207.152C134.563 206.838 134.891 206.597 135.265 206.457C135.639 206.317 136.044 206.281 136.436 206.355C137.12 206.444 137.758 206.748 138.256 207.224C138.627 207.622 138.915 208.088 139.105 208.598C139.295 209.107 139.382 209.648 139.363 210.192C139.373 210.864 139.317 211.536 139.197 212.197C139.173 212.43 139.121 212.66 139.042 212.88C138.959 212.88 139.176 211.908 139.114 210.202C139.109 209.189 138.717 208.216 138.018 207.482C137.583 207.116 137.052 206.879 136.488 206.8C136.169 206.748 135.843 206.782 135.542 206.901C135.242 207.019 134.979 207.217 134.782 207.472L134.544 207.131C135.128 206.924 135.619 206.516 135.928 205.979C136.237 205.443 136.344 204.813 136.23 204.205C136.137 203.878 135.98 203.573 135.768 203.308C135.555 203.043 135.292 202.823 134.993 202.662C134.694 202.501 134.365 202.402 134.027 202.37C133.689 202.338 133.348 202.375 133.024 202.478L131.825 202.902L132.755 202.033C133.434 201.459 133.992 200.756 134.399 199.965C134.599 199.585 134.698 199.161 134.687 198.732C134.677 198.303 134.556 197.884 134.337 197.515C134.218 197.337 134.061 197.187 133.877 197.077C133.693 196.966 133.487 196.898 133.274 196.876C133.061 196.854 132.845 196.88 132.643 196.951C132.441 197.022 132.257 197.137 132.104 197.287L131.68 196.967C132.805 195.752 133.643 194.299 134.131 192.717C134.322 192.028 134.311 191.298 134.1 190.615C133.89 189.931 133.487 189.322 132.941 188.86L132.642 188.653L132.962 188.467C133.554 188.115 134.041 187.611 134.374 187.007C134.707 186.404 134.872 185.723 134.854 185.034C134.868 184.488 134.764 183.946 134.548 183.444C134.332 182.942 134.01 182.494 133.603 182.129L133.386 181.984L133.645 181.912C134.089 181.762 134.459 181.447 134.679 181.033C134.857 180.717 134.953 180.361 134.958 179.999C134.965 179.682 134.912 179.366 134.803 179.068Z" fill="#369577"/>
<g opacity="0.3">
<path opacity="0.3" d="M145.298 225.898C145.657 229.801 147.541 233.405 150.54 235.928C152.044 237.156 153.817 238.011 155.715 238.424C157.612 238.837 159.58 238.797 161.459 238.306C163.327 237.769 165.012 236.729 166.328 235.299C167.645 233.87 168.543 232.105 168.925 230.199C166.354 231.52 163.612 232.474 160.777 233.033C157.718 233.445 154.606 232.964 151.815 231.646C149.024 230.329 146.675 228.232 145.049 225.608C145.184 225.763 145.329 225.908 145.463 226.053" fill="black"/>
</g>
<g opacity="0.3">
<path opacity="0.3" d="M134.575 250.228C134.212 252.166 134.356 254.166 134.994 256.032C135.632 257.898 136.741 259.567 138.215 260.878C138.495 261.195 138.853 261.434 139.254 261.57C139.655 261.706 140.085 261.735 140.5 261.654C137.63 258.298 135.619 254.295 134.637 249.99" fill="black"/>
</g>
<path d="M174.581 174.818C174.581 174.818 163.031 176.628 165.823 193.048C168.614 209.468 188.571 237.272 188.571 237.272L144.946 263.877L150.033 275.695L206.686 252.379C206.686 252.379 212.27 246.63 210.305 240.229C208.341 233.829 193.761 193.513 193.761 193.513C193.761 193.513 188.374 172.027 174.581 174.818Z" fill="#A36957"/>
<path d="M106.885 274.01L122.498 264.146L143.178 265.118L144.915 263.918L150.002 275.737C150.002 275.737 144.429 278.405 141.513 278.642L123.449 277.267L104.258 275.83L106.885 274.01Z" fill="#A36957"/>
<path d="M188.519 237.592C188.136 237.179 187.79 236.733 187.485 236.259C186.865 235.38 185.986 234.087 184.921 232.484C182.801 229.258 179.978 224.74 177.073 219.622C174.167 214.503 171.747 209.757 170.072 206.283C169.235 204.546 168.583 203.129 168.149 202.147C167.886 201.652 167.671 201.132 167.508 200.596C167.816 201.063 168.086 201.554 168.315 202.064L170.383 206.128C172.14 209.55 174.622 214.255 177.517 219.363C180.412 224.471 183.173 229.021 185.21 232.288L187.63 236.155C187.967 236.608 188.265 237.089 188.519 237.592Z" fill="#7C3B29"/>
<path d="M199.252 241.336C197.602 240.297 195.873 239.387 194.082 238.616C192.207 238.018 190.288 237.568 188.343 237.272C190.354 237.128 192.373 237.417 194.263 238.118C196.154 238.819 197.872 239.916 199.304 241.336H199.252Z" fill="#7C3B29"/>
<path d="M43.9968 224.719C44.3897 225.919 60.0651 278.601 60.0651 278.601L150.023 285.063L153.332 279.48L103.1 275.695L89.0068 221.638C88.7208 220.553 88.042 219.612 87.1021 218.999C86.1622 218.386 85.028 218.143 83.9195 218.319L43.9968 224.719Z" fill="#455A64"/>
<path d="M72.3801 246.826C73.1349 248.398 72.8247 250.114 71.6666 250.673C70.5085 251.231 68.9679 250.414 68.2131 248.853C67.4582 247.291 67.7684 245.565 68.9162 245.006C70.0639 244.448 71.6253 245.265 72.3801 246.826Z" fill="#FAFAFA"/>
<path d="M151.605 282.416H151.336H150.581L147.635 282.251L136.736 281.527L100.236 278.901H100.05L99.9982 278.725C99.5122 277.029 98.9642 275.23 98.4679 273.41L87.4351 234.573L84.1573 222.806C83.7851 221.441 83.4955 220.366 83.2887 219.59C83.206 219.249 83.1336 218.98 83.0819 218.753C83.0464 218.66 83.0255 218.563 83.0199 218.463C83.0712 218.55 83.1096 218.644 83.1336 218.743C83.1957 218.96 83.2887 219.229 83.3921 219.57C83.63 220.335 83.9505 221.39 84.3538 222.744L87.8073 234.47L98.9952 273.214C99.5122 275.034 100.029 276.833 100.515 278.528L100.277 278.332L136.767 281.134L147.645 282.023L150.581 282.282L151.347 282.365C151.435 282.368 151.522 282.385 151.605 282.416Z" fill="#263238"/>
<path d="M164.272 121.433L164.189 117.38L139.704 113.74C132.176 113.254 124.39 121.081 124.194 128.619C124.008 136.995 124.111 147.231 125.352 153.435C127.854 165.843 137.522 167.094 137.522 167.094L138.08 179.502L165.802 178.727L164.272 121.433Z" fill="#A36957"/>
<path d="M129.405 137.398C129.416 137.817 129.591 138.214 129.893 138.505C130.195 138.795 130.599 138.954 131.018 138.949C131.223 138.957 131.428 138.925 131.62 138.853C131.812 138.781 131.988 138.672 132.137 138.531C132.286 138.39 132.406 138.221 132.489 138.034C132.572 137.846 132.617 137.644 132.621 137.439C132.607 137.021 132.432 136.623 132.131 136.332C131.83 136.041 131.427 135.878 131.008 135.878C130.802 135.87 130.597 135.903 130.404 135.975C130.211 136.047 130.035 136.158 129.886 136.299C129.736 136.441 129.617 136.611 129.534 136.8C129.452 136.989 129.408 137.192 129.405 137.398Z" fill="#263238"/>
<path d="M127.079 133.851C127.285 134.048 128.474 133.097 130.181 133.035C131.887 132.973 133.21 133.779 133.386 133.562C133.562 133.345 133.262 133.097 132.693 132.714C131.922 132.227 131.02 131.988 130.108 132.032C129.209 132.068 128.345 132.386 127.637 132.942C127.182 133.386 126.986 133.758 127.079 133.851Z" fill="#263238"/>
<path d="M145.567 137.046C145.583 137.464 145.759 137.86 146.06 138.151C146.36 138.442 146.761 138.605 147.18 138.608C147.385 138.615 147.59 138.581 147.782 138.508C147.974 138.435 148.15 138.324 148.299 138.183C148.448 138.041 148.568 137.872 148.651 137.684C148.734 137.496 148.778 137.293 148.782 137.088C148.771 136.668 148.596 136.269 148.295 135.977C147.993 135.685 147.589 135.523 147.169 135.526C146.964 135.519 146.759 135.553 146.567 135.626C146.375 135.699 146.199 135.81 146.05 135.951C145.901 136.092 145.781 136.262 145.698 136.45C145.615 136.638 145.571 136.841 145.567 137.046Z" fill="#263238"/>
<path d="M144.098 133.479C144.305 133.686 145.484 132.735 147.2 132.672C148.917 132.61 150.23 133.417 150.416 133.2C150.602 132.983 150.282 132.724 149.713 132.352C148.948 131.86 148.047 131.621 147.138 131.669C146.237 131.695 145.37 132.015 144.667 132.579C144.16 133.003 143.995 133.386 144.098 133.479Z" fill="#263238"/>
<path d="M138.339 146.559C137.413 146.316 136.462 146.184 135.506 146.166C135.061 146.166 134.647 146.073 134.554 145.773C134.502 145.317 134.588 144.856 134.803 144.45C135.175 143.416 135.557 142.227 135.971 141.038C137.584 136.178 138.742 132.187 138.546 132.125C138.349 132.062 136.881 135.95 135.258 140.81C134.865 142.01 134.492 143.147 134.141 144.243C133.889 144.786 133.834 145.401 133.986 145.98C134.055 146.135 134.159 146.271 134.29 146.379C134.421 146.487 134.575 146.563 134.741 146.601C134.988 146.658 135.242 146.682 135.495 146.673C136.444 146.758 137.4 146.72 138.339 146.559Z" fill="#263238"/>
<path d="M137.522 167.115C143.563 166.971 149.451 165.184 154.552 161.945C154.552 161.945 150.675 170.889 137.657 170.217L137.522 167.115Z" fill="#7C3B29"/>
<path d="M139.238 150.695C139.55 150.266 139.966 149.923 140.448 149.701C140.929 149.478 141.46 149.382 141.989 149.423C142.376 149.45 142.754 149.555 143.099 149.733C143.444 149.911 143.749 150.157 143.995 150.457C144.239 150.738 144.391 151.087 144.43 151.457C144.469 151.827 144.393 152.2 144.212 152.525C143.949 152.849 143.593 153.086 143.193 153.204C142.792 153.322 142.365 153.316 141.968 153.187C141.14 152.929 140.371 152.511 139.704 151.957C139.505 151.821 139.33 151.654 139.187 151.46C139.124 151.365 139.09 151.254 139.09 151.14C139.09 151.026 139.124 150.914 139.187 150.819" fill="#7C3B29"/>
<path d="M143.478 147.552C143.199 147.552 143.271 149.423 141.71 150.819C140.148 152.215 138.153 152.091 138.153 152.36C138.153 152.629 138.608 152.701 139.456 152.691C140.556 152.658 141.609 152.241 142.434 151.512C143.224 150.814 143.71 149.834 143.788 148.782C143.829 147.996 143.602 147.531 143.478 147.552Z" fill="#263238"/>
<path d="M143.375 126.727C143.561 127.182 145.277 126.893 147.314 127.058C149.351 127.223 151.016 127.709 151.274 127.275C151.388 127.068 151.078 126.634 150.406 126.241C149.501 125.716 148.489 125.405 147.446 125.332C146.403 125.258 145.357 125.424 144.388 125.817C143.654 126.148 143.292 126.5 143.375 126.727Z" fill="#263238"/>
<path d="M127.513 128.816C127.834 129.198 129.012 128.743 130.439 128.661C131.866 128.578 133.097 128.826 133.365 128.402C133.479 128.195 133.272 127.813 132.724 127.461C131.998 127.031 131.156 126.839 130.315 126.913C129.475 126.965 128.671 127.271 128.009 127.792C127.523 128.216 127.368 128.63 127.513 128.816Z" fill="#263238"/>
<path d="M120.978 113.45C123.046 117.835 127.513 124.359 132.352 124.824C134.764 125.031 137.188 124.617 139.395 123.622C141.601 122.626 143.516 121.083 144.957 119.137C145.763 122.694 149.775 124.504 153.384 125.01C155.933 125.474 158.56 125.235 160.984 124.318C162.188 123.848 163.253 123.077 164.076 122.08C164.899 121.083 165.454 119.892 165.688 118.62C166.019 116.066 162.245 109.893 159.701 109.469" fill="#263238"/>
<path d="M160.094 177.496C160.255 179.524 161.035 181.454 162.33 183.022C163.625 184.591 165.372 185.723 167.332 186.265C167.273 187.924 167.806 189.55 168.835 190.852C169.864 192.155 171.323 193.05 172.95 193.377C174.578 193.703 176.269 193.441 177.721 192.636C179.173 191.832 180.292 190.537 180.878 188.984C181.095 188.145 181.444 187.346 181.912 186.616C183.132 185.055 185.531 185.365 187.413 184.755C190.804 183.659 192.272 179.502 191.89 175.956C191.775 175.273 191.743 174.578 191.797 173.888C192.004 172.471 193.12 171.385 193.947 170.207C197.36 165.368 195.933 158.347 192.148 153.787C190.887 152.267 189.294 150.685 189.419 148.71C189.598 147.628 189.947 146.581 190.453 145.608C191.075 143.925 191.178 142.094 190.748 140.352C190.319 138.61 189.377 137.037 188.043 135.836C187.583 135.534 187.224 135.102 187.009 134.596C186.942 134.254 186.942 133.903 187.009 133.562C187.218 130.925 186.421 128.308 184.779 126.235C183.137 124.161 180.772 122.786 178.158 122.384C177.841 122.373 177.529 122.303 177.238 122.177C176.432 121.753 176.4 120.647 176.297 119.747C176.018 117.359 174.229 112.913 172.358 111.351C167.291 107.029 162.39 110.545 160.642 112.189C160.642 112.189 157.178 129.353 157.851 132.559C158.523 135.764 160.87 143.726 159.919 147.345C158.967 150.964 157.468 158.378 158.885 161.645C160.301 164.913 160.094 177.496 160.094 177.496Z" fill="#263238"/>
<path d="M179.016 122.271C179.016 122.271 178.799 122.498 178.355 122.819C177.714 123.263 177.043 123.663 176.349 124.018C171.723 126.416 166.454 127.281 161.304 126.489C160.527 126.38 159.76 126.21 159.009 125.983C158.728 125.924 158.456 125.826 158.202 125.693C158.202 125.6 159.412 125.9 161.304 126.117C163.828 126.388 166.377 126.322 168.883 125.921C171.387 125.507 173.822 124.752 176.121 123.677C177.941 122.86 178.965 122.198 179.016 122.271Z" fill="#455A64"/>
<path d="M180.671 123.491C180.587 123.848 180.462 124.195 180.299 124.525C180.145 124.92 179.962 125.304 179.751 125.672C179.501 126.175 179.221 126.661 178.913 127.13C178.125 128.371 177.218 129.531 176.204 130.594C174.951 131.888 173.565 133.046 172.068 134.048C170.558 135.025 168.95 135.843 167.27 136.488C165.894 137 164.47 137.374 163.021 137.605C162.467 137.708 161.907 137.777 161.345 137.812C160.922 137.84 160.497 137.84 160.074 137.812C159.711 137.844 159.345 137.823 158.988 137.749C158.988 137.646 160.539 137.667 162.948 137.191C164.359 136.909 165.743 136.504 167.084 135.981C170.373 134.689 173.356 132.724 175.842 130.212C176.851 129.184 177.768 128.07 178.582 126.882C179.988 124.876 180.568 123.449 180.671 123.491Z" fill="#455A64"/>
<path d="M171.696 187.257C171.696 187.257 171.913 187.257 172.295 187.195C172.854 187.065 173.358 186.761 173.733 186.327C174.343 185.653 174.678 184.775 174.674 183.866C174.641 182.654 174.421 181.454 174.022 180.309C173.468 178.864 173.36 177.286 173.712 175.78C174.25 174.146 175.553 172.895 176.721 171.551C177.335 170.898 177.841 170.151 178.22 169.338C178.391 168.924 178.472 168.479 178.457 168.031C178.443 167.584 178.334 167.145 178.138 166.743C177.666 165.906 176.999 165.197 176.194 164.675C175.387 164.085 174.498 163.568 173.64 162.938C172.726 162.34 172.008 161.488 171.572 160.487C171.406 159.976 171.348 159.436 171.403 158.902C171.459 158.368 171.625 157.851 171.892 157.385C172.864 155.596 174.384 154.283 174.736 152.598C174.866 151.784 174.819 150.952 174.6 150.159C174.381 149.365 173.993 148.627 173.464 147.996C172.578 146.814 171.566 145.732 170.445 144.77C169.523 143.941 168.679 143.031 167.922 142.051C167.345 141.301 166.901 140.458 166.608 139.559C166.44 138.985 166.37 138.387 166.402 137.791C166.415 137.587 166.453 137.386 166.515 137.191C166.483 137.97 166.581 138.75 166.805 139.497C167.666 141.461 169.006 143.179 170.703 144.491C171.856 145.45 172.896 146.535 173.805 147.727C174.321 148.413 174.729 149.173 175.015 149.982C175.337 150.851 175.401 151.795 175.201 152.701C174.798 154.624 173.216 155.968 172.347 157.633C172.11 158.033 171.962 158.479 171.912 158.941C171.862 159.403 171.911 159.87 172.058 160.311C172.456 161.208 173.106 161.97 173.929 162.503C174.746 163.113 175.646 163.63 176.473 164.24C177.335 164.817 178.044 165.594 178.541 166.505C178.768 166.971 178.894 167.481 178.908 168C178.922 168.519 178.825 169.035 178.624 169.514C178.225 170.384 177.683 171.181 177.021 171.871C175.821 173.226 174.56 174.436 174.064 175.904C173.717 177.318 173.793 178.803 174.281 180.174C174.666 181.363 174.861 182.606 174.86 183.855C174.836 184.823 174.448 185.746 173.774 186.44C173.36 186.887 172.805 187.179 172.202 187.268C172.034 187.294 171.863 187.291 171.696 187.257Z" fill="#455A64"/>
<path d="M473.975 500.229C473.975 500.373 377.493 500.497 258.51 500.497C139.528 500.497 43.0247 500.373 43.0247 500.229C43.0247 500.084 139.487 499.96 258.51 499.96C377.534 499.96 473.975 500.073 473.975 500.229Z" fill="#263238"/>
<circle cx="59" cy="38" r="17" fill="#F3A712" fill-opacity="0.84"/>
</svg>
