<svg width="573" height="573" viewBox="0 0 573 573" fill="none" xmlns="http://www.w3.org/2000/svg">
<path d="M394.339 413.844H173.413L190.855 397.009H376.896L394.339 413.844Z" fill="white" stroke="#263238" stroke-linecap="round" stroke-linejoin="round"/>
<path d="M369.791 403.507C369.791 406.945 329.784 409.775 280.403 409.775C231.022 409.775 191.015 406.968 191.015 403.507C191.015 400.046 231.022 397.227 280.403 397.227C329.784 397.227 369.791 400.034 369.791 403.507Z" fill="#369577"/>
<path opacity="0.5" d="M369.791 403.507C369.791 406.945 329.784 409.775 280.403 409.775C231.022 409.775 191.015 406.968 191.015 403.507C191.015 400.046 231.022 397.227 280.403 397.227C329.784 397.227 369.791 400.034 369.791 403.507Z" fill="white"/>
<path d="M394.339 413.844H173.413V429.441H394.339V413.844Z" fill="#263238" stroke="#263238" stroke-linecap="round" stroke-linejoin="round"/>
<path d="M409.97 446.264H157.781L173.413 429.441H394.339L409.97 446.264Z" fill="white" stroke="#263238" stroke-linecap="round" stroke-linejoin="round"/>
<path d="M409.924 446.264H157.827V462.675H409.924V446.264Z" fill="#263238" stroke="#263238" stroke-linecap="round" stroke-linejoin="round"/>
<path d="M281.435 247.456V142.562H321.35V98.4299" stroke="#263238" stroke-miterlimit="10"/>
<path d="M297.032 142.07V98.4299" stroke="#263238" stroke-miterlimit="10"/>
<path d="M284.414 264.176H468.187V238.047H503.312" stroke="#263238" stroke-miterlimit="10"/>
<path d="M275.407 263.271H100.653V235.354H62.8237" stroke="#263238" stroke-miterlimit="10"/>
<path d="M245.68 70.502V110.142H223.161V135.354H251.089V220.032" stroke="#263238" stroke-miterlimit="10"/>
<path d="M369.092 187.6V130.85H384.403V106.532H397.02" stroke="#263238" stroke-miterlimit="10"/>
<path d="M183.532 182.202V138.964L170.914 126.346V94.8199" stroke="#263238" stroke-miterlimit="10"/>
<path d="M403.323 207.426H434.85V186.706H455.569V174.994H473.584" stroke="#263238" stroke-miterlimit="10"/>
<path d="M151.994 214.634H118.668V188.505H71.8313" stroke="#263238" stroke-miterlimit="10"/>
<path d="M182.627 356.051V379.475H167.316V405.604H123.172" stroke="#263238" stroke-miterlimit="10"/>
<path d="M351.077 359.661V383.979H386.202V374.077H396.115V394.786H426.748" stroke="#263238" stroke-miterlimit="10"/>
<path d="M323.917 98.4299C323.915 98.9372 323.762 99.4323 323.479 99.853C323.195 100.274 322.793 100.601 322.324 100.793C321.855 100.986 321.339 101.035 320.842 100.935C320.345 100.834 319.888 100.589 319.531 100.23C319.173 99.8702 318.929 99.4127 318.831 98.9151C318.733 98.4174 318.785 97.9019 318.979 97.4335C319.174 96.9651 319.503 96.5648 319.925 96.2833C320.347 96.0017 320.843 95.8514 321.35 95.8514C321.688 95.8514 322.023 95.9182 322.335 96.0479C322.647 96.1777 322.93 96.3678 323.169 96.6074C323.408 96.8469 323.596 97.1313 323.725 97.4441C323.853 97.7568 323.918 98.0919 323.917 98.4299Z" fill="#263238" stroke="#263238" stroke-linecap="round" stroke-linejoin="round"/>
<path d="M299.691 98.4299C299.688 98.9372 299.536 99.4323 299.252 99.853C298.969 100.274 298.567 100.601 298.098 100.793C297.629 100.986 297.113 101.035 296.616 100.935C296.118 100.834 295.662 100.589 295.304 100.23C294.946 99.8702 294.703 99.4127 294.605 98.9151C294.507 98.4174 294.558 97.9019 294.753 97.4335C294.948 96.9651 295.277 96.5648 295.698 96.2833C296.12 96.0017 296.616 95.8514 297.123 95.8514C297.462 95.8514 297.796 95.9182 298.108 96.0479C298.421 96.1777 298.704 96.3678 298.943 96.6074C299.181 96.8469 299.37 97.1313 299.498 97.4441C299.627 97.7568 299.692 98.0919 299.691 98.4299Z" fill="#263238" stroke="#263238" stroke-linecap="round" stroke-linejoin="round"/>
<path d="M248.269 69.757C248.269 70.2675 248.118 70.7664 247.834 71.1907C247.55 71.615 247.147 71.9455 246.675 72.1403C246.203 72.3351 245.684 72.3855 245.184 72.2851C244.683 72.1847 244.224 71.9379 243.864 71.5762C243.503 71.2144 243.259 70.7539 243.161 70.253C243.062 69.752 243.115 69.2332 243.312 68.7623C243.509 68.2913 243.841 67.8894 244.267 67.6075C244.692 67.3255 245.192 67.1762 245.702 67.1785C246.04 67.1785 246.375 67.2453 246.687 67.375C247 67.5047 247.283 67.6948 247.522 67.9344C247.76 68.174 247.949 68.4583 248.077 68.7711C248.206 69.0839 248.271 69.4189 248.269 69.757Z" fill="#263238" stroke="#263238" stroke-linecap="round" stroke-linejoin="round"/>
<path d="M173.504 93.525C173.502 94.0322 173.35 94.5274 173.066 94.9481C172.783 95.3687 172.381 95.6959 171.912 95.8885C171.443 96.081 170.927 96.1302 170.43 96.0299C169.932 95.9295 169.476 95.6842 169.118 95.3247C168.76 94.9652 168.517 94.5078 168.419 94.0102C168.321 93.5125 168.372 92.997 168.567 92.5286C168.761 92.0602 169.091 91.6599 169.512 91.3784C169.934 91.0968 170.43 90.9465 170.937 90.9465C171.275 90.9465 171.61 91.0133 171.922 91.143C172.235 91.2728 172.518 91.4629 172.757 91.7025C172.995 91.942 173.184 92.2264 173.312 92.5391C173.441 92.8519 173.506 93.187 173.504 93.525Z" fill="#263238" stroke="#263238" stroke-linecap="round" stroke-linejoin="round"/>
<path d="M74.3983 188.506C74.4006 189.016 74.251 189.517 73.9685 189.942C73.6861 190.368 73.2835 190.7 72.8119 190.897C72.3402 191.094 71.8208 191.146 71.3196 191.046C70.8184 190.947 70.3579 190.702 69.9966 190.34C69.6353 189.979 69.3894 189.518 69.2903 189.017C69.1912 188.516 69.2432 187.997 69.4398 187.525C69.6364 187.053 69.9687 186.651 70.3944 186.368C70.8202 186.086 71.3203 185.936 71.8313 185.939C72.5121 185.939 73.165 186.209 73.6464 186.69C74.1278 187.172 74.3983 187.825 74.3983 188.506Z" fill="#263238" stroke="#263238" stroke-linecap="round" stroke-linejoin="round"/>
<path d="M65.471 235.274C65.471 235.784 65.3197 236.282 65.0364 236.706C64.7531 237.13 64.3504 237.461 63.8792 237.656C63.4081 237.851 62.8896 237.902 62.3894 237.803C61.8892 237.703 61.4298 237.458 61.0692 237.097C60.7086 236.736 60.463 236.277 60.3635 235.777C60.264 235.277 60.3151 234.758 60.5102 234.287C60.7054 233.816 61.0359 233.413 61.4599 233.13C61.884 232.847 62.3825 232.695 62.8925 232.695C63.5763 232.695 64.2322 232.967 64.7157 233.451C65.1993 233.934 65.471 234.59 65.471 235.274Z" fill="#263238" stroke="#263238" stroke-linecap="round" stroke-linejoin="round"/>
<path d="M125.968 405.111C125.968 405.621 125.817 406.12 125.533 406.545C125.249 406.969 124.846 407.299 124.374 407.494C123.902 407.689 123.383 407.739 122.883 407.639C122.382 407.539 121.923 407.292 121.562 406.93C121.202 406.568 120.958 406.108 120.859 405.607C120.761 405.106 120.814 404.587 121.011 404.116C121.208 403.645 121.54 403.243 121.966 402.961C122.391 402.68 122.891 402.53 123.401 402.532C123.739 402.532 124.074 402.599 124.386 402.729C124.698 402.859 124.982 403.049 125.22 403.288C125.459 403.528 125.648 403.812 125.776 404.125C125.905 404.438 125.97 404.773 125.968 405.111Z" fill="#263238" stroke="#263238" stroke-linecap="round" stroke-linejoin="round"/>
<path d="M430.621 394.281C430.623 394.792 430.474 395.291 430.192 395.717C429.91 396.142 429.508 396.475 429.037 396.672C428.566 396.869 428.047 396.921 427.546 396.823C427.046 396.725 426.585 396.48 426.223 396.12C425.862 395.76 425.615 395.301 425.514 394.8C425.414 394.3 425.464 393.781 425.659 393.309C425.854 392.837 426.184 392.433 426.609 392.15C427.033 391.866 427.532 391.714 428.042 391.714C428.381 391.713 428.716 391.778 429.028 391.906C429.341 392.035 429.625 392.224 429.865 392.462C430.105 392.701 430.295 392.984 430.424 393.296C430.554 393.608 430.621 393.943 430.621 394.281Z" fill="#263238" stroke="#263238" stroke-linecap="round" stroke-linejoin="round"/>
<path d="M507.185 237.543C507.185 238.051 507.035 238.547 506.753 238.969C506.47 239.391 506.07 239.72 505.6 239.915C505.131 240.109 504.615 240.16 504.117 240.061C503.619 239.962 503.162 239.717 502.803 239.358C502.444 238.999 502.199 238.542 502.1 238.044C502.001 237.546 502.052 237.03 502.246 236.561C502.441 236.091 502.77 235.691 503.192 235.408C503.614 235.126 504.11 234.976 504.618 234.976C505.299 234.976 505.952 235.246 506.433 235.728C506.915 236.209 507.185 236.862 507.185 237.543Z" fill="#263238" stroke="#263238" stroke-linecap="round" stroke-linejoin="round"/>
<path d="M477.366 174.444C477.366 174.952 477.216 175.448 476.934 175.87C476.652 176.292 476.251 176.621 475.782 176.816C475.313 177.01 474.796 177.061 474.298 176.962C473.8 176.863 473.343 176.618 472.984 176.259C472.625 175.9 472.381 175.443 472.282 174.945C472.182 174.447 472.233 173.931 472.428 173.462C472.622 172.993 472.951 172.592 473.373 172.31C473.795 172.028 474.292 171.877 474.799 171.877C475.48 171.877 476.133 172.147 476.614 172.629C477.096 173.11 477.366 173.763 477.366 174.444Z" fill="#263238" stroke="#263238" stroke-linecap="round" stroke-linejoin="round"/>
<path d="M401.249 106.463C401.249 106.971 401.098 107.467 400.816 107.89C400.534 108.312 400.133 108.641 399.664 108.835C399.195 109.029 398.679 109.08 398.181 108.981C397.683 108.882 397.226 108.638 396.867 108.279C396.508 107.92 396.263 107.462 396.164 106.964C396.065 106.466 396.116 105.95 396.31 105.481C396.504 105.012 396.833 104.611 397.256 104.329C397.678 104.047 398.174 103.896 398.682 103.896C399.363 103.896 400.016 104.167 400.497 104.648C400.978 105.13 401.249 105.783 401.249 106.463Z" fill="#263238" stroke="#263238" stroke-linecap="round" stroke-linejoin="round"/>
<path d="M315.058 378.753V356.406H247.811V378.753C247.79 386.059 245.267 393.137 240.66 398.808L237.715 402.452H325.132L322.198 398.808C317.591 393.138 315.071 386.058 315.058 378.753Z" fill="white"/>
<path d="M243.685 394.407H319.184C316.482 389.632 315.061 384.24 315.058 378.753V356.406H247.811V378.753C247.808 384.24 246.387 389.632 243.685 394.407Z" fill="#369577"/>
<path opacity="0.3" d="M243.685 394.407H319.184C316.482 389.632 315.061 384.24 315.058 378.753V356.406H247.811V378.753C247.808 384.24 246.387 389.632 243.685 394.407Z" fill="white"/>
<path d="M243.685 370.846H319.184C316.482 366.07 315.061 360.678 315.058 355.191V332.844H247.811V355.191C247.808 360.678 246.387 366.07 243.685 370.846Z" fill="#263238"/>
<path d="M315.058 378.753V356.406H247.811V378.753C247.79 386.059 245.267 393.137 240.66 398.808L237.715 402.452H325.132L322.198 398.808C317.591 393.138 315.071 386.058 315.058 378.753V378.753Z" stroke="#263238" stroke-linecap="round" stroke-linejoin="round"/>
<path d="M406.841 165.012H156.028C150.661 165.012 146.31 169.363 146.31 174.731V353.724C146.31 359.091 150.661 363.442 156.028 363.442H406.841C412.209 363.442 416.559 359.091 416.559 353.724V174.731C416.559 169.363 412.209 165.012 406.841 165.012Z" fill="#263238" stroke="#263238" stroke-linecap="round" stroke-linejoin="round"/>
<path d="M146.31 332.604H416.559V353.724C416.559 356.302 415.536 358.774 413.713 360.596C411.891 362.419 409.419 363.442 406.841 363.442H156.028C153.45 363.442 150.979 362.419 149.156 360.596C147.334 358.774 146.31 356.302 146.31 353.724V332.604Z" fill="white" stroke="#263238" stroke-linecap="round" stroke-linejoin="round"/>
<path d="M402.957 177.366H159.901V317.557H402.957V177.366Z" fill="white" stroke="#263238" stroke-linecap="round" stroke-linejoin="round"/>
<path d="M286.42 352.968C286.44 351.978 286.165 351.004 285.63 350.171C285.095 349.338 284.324 348.683 283.415 348.289C282.506 347.896 281.501 347.783 280.527 347.963C279.553 348.144 278.655 348.61 277.948 349.303C277.24 349.996 276.755 350.884 276.554 351.854C276.353 352.823 276.446 353.831 276.82 354.748C277.194 355.665 277.833 356.45 278.655 357.002C279.477 357.554 280.444 357.85 281.435 357.85C282.743 357.862 284.002 357.355 284.937 356.44C285.871 355.524 286.405 354.276 286.42 352.968Z" fill="#263238" stroke="#263238" stroke-linecap="round" stroke-linejoin="round"/>
<path d="M325.155 402.487H237.726V406.475H325.155V402.487Z" fill="white" stroke="#263238" stroke-linecap="round" stroke-linejoin="round"/>
<path d="M281.801 170.089C269.585 181.549 238.253 193.009 201.799 217.408C201.799 217.408 204.091 299.92 281.801 344.969V170.089Z" fill="#369577" stroke="#263238" stroke-linecap="round" stroke-linejoin="round"/>
<path d="M281.801 170.089C294.029 181.549 325.349 193.009 361.815 217.408C361.815 217.408 359.523 299.92 281.801 344.969V170.089Z" fill="#263238" stroke="#263238" stroke-linecap="round" stroke-linejoin="round"/>
<path d="M281.801 177.114C267.018 187.359 241.474 197.112 207.667 219.734C207.667 219.734 209.787 296.172 281.801 337.955C353.827 296.172 355.948 219.734 355.948 219.734C322.141 197.112 296.676 187.359 281.801 177.114Z" fill="#263238" stroke="#263238" stroke-linecap="round" stroke-linejoin="round"/>
<path d="M355.948 219.734C322.141 197.123 296.676 187.359 281.801 177.114V337.955C353.827 296.172 355.948 219.734 355.948 219.734Z" fill="#369577" stroke="#263238" stroke-linecap="round" stroke-linejoin="round"/>
<path d="M417.396 260.199H145.473V277.802H417.396V260.199Z" fill="#263238" stroke="#263238" stroke-linecap="round" stroke-linejoin="round"/>
<path d="M150.825 262.995C150.832 263.357 150.731 263.713 150.535 264.017C150.339 264.321 150.057 264.56 149.724 264.703C149.392 264.846 149.025 264.887 148.669 264.821C148.313 264.755 147.985 264.584 147.727 264.33C147.469 264.077 147.292 263.753 147.219 263.398C147.146 263.044 147.18 262.676 147.316 262.341C147.453 262.006 147.687 261.719 147.987 261.517C148.287 261.316 148.641 261.208 149.003 261.208C149.24 261.205 149.476 261.249 149.696 261.337C149.916 261.425 150.117 261.556 150.286 261.722C150.455 261.889 150.59 262.087 150.683 262.305C150.775 262.524 150.823 262.758 150.825 262.995Z" fill="white"/>
<path d="M147.96 263.981C148.16 264.191 148.417 264.336 148.7 264.399C148.982 264.461 149.277 264.438 149.546 264.333C149.816 264.227 150.048 264.043 150.212 263.805C150.377 263.567 150.466 263.285 150.47 262.996C150.466 262.652 150.335 262.321 150.103 262.067C149.346 262.656 148.63 263.295 147.96 263.981Z" fill="#263238"/>
<path d="M157.976 262.995C157.985 263.36 157.885 263.719 157.69 264.026C157.494 264.334 157.211 264.576 156.877 264.722C156.542 264.868 156.172 264.911 155.814 264.845C155.455 264.78 155.124 264.609 154.863 264.354C154.602 264.1 154.423 263.773 154.348 263.416C154.274 263.059 154.307 262.688 154.445 262.351C154.582 262.013 154.817 261.724 155.119 261.52C155.422 261.317 155.778 261.208 156.142 261.208C156.38 261.205 156.616 261.248 156.837 261.337C157.058 261.425 157.259 261.556 157.43 261.722C157.6 261.888 157.736 262.086 157.83 262.304C157.923 262.523 157.973 262.758 157.976 262.995Z" fill="white"/>
<path d="M155.1 263.981C155.299 264.191 155.557 264.336 155.839 264.399C156.122 264.461 156.417 264.438 156.686 264.333C156.955 264.227 157.187 264.043 157.352 263.805C157.516 263.567 157.606 263.285 157.609 262.996C157.605 262.652 157.475 262.321 157.243 262.067C156.488 262.659 155.772 263.298 155.1 263.981Z" fill="#263238"/>
<path d="M165.116 262.996C165.079 263.455 164.871 263.884 164.532 264.197C164.193 264.51 163.749 264.684 163.288 264.684C162.827 264.684 162.382 264.51 162.044 264.197C161.705 263.884 161.496 263.455 161.46 262.996C161.496 262.536 161.705 262.107 162.044 261.794C162.382 261.481 162.827 261.307 163.288 261.307C163.749 261.307 164.193 261.481 164.532 261.794C164.871 262.107 165.079 262.536 165.116 262.996Z" fill="white"/>
<path d="M162.239 263.981C162.376 264.122 162.54 264.235 162.721 264.312C162.902 264.388 163.097 264.428 163.294 264.428C163.483 264.43 163.671 264.394 163.847 264.322C164.023 264.251 164.183 264.146 164.318 264.013C164.453 263.88 164.561 263.722 164.635 263.547C164.709 263.373 164.748 263.185 164.749 262.996C164.75 262.651 164.618 262.319 164.382 262.067C163.628 262.659 162.912 263.298 162.239 263.981Z" fill="#263238"/>
<path d="M172.255 262.995C172.262 263.357 172.161 263.713 171.965 264.017C171.769 264.321 171.487 264.56 171.155 264.703C170.822 264.846 170.455 264.887 170.099 264.821C169.743 264.755 169.416 264.584 169.157 264.33C168.899 264.077 168.722 263.753 168.649 263.398C168.576 263.044 168.61 262.676 168.747 262.341C168.884 262.006 169.117 261.719 169.417 261.517C169.718 261.316 170.071 261.208 170.433 261.208C170.67 261.205 170.906 261.249 171.126 261.337C171.346 261.425 171.547 261.556 171.716 261.722C171.885 261.889 172.02 262.087 172.113 262.305C172.205 262.524 172.254 262.758 172.255 262.995Z" fill="white"/>
<path d="M169.379 263.981C169.58 264.189 169.838 264.333 170.121 264.395C170.403 264.456 170.698 264.433 170.968 264.328C171.237 264.222 171.469 264.04 171.635 263.803C171.801 263.566 171.893 263.285 171.9 262.996C171.896 262.652 171.766 262.321 171.533 262.067C170.773 262.656 170.053 263.295 169.379 263.981Z" fill="#263238"/>
<path d="M179.395 262.995C179.402 263.357 179.301 263.713 179.105 264.017C178.909 264.321 178.626 264.56 178.294 264.703C177.962 264.846 177.594 264.887 177.239 264.821C176.883 264.755 176.555 264.584 176.297 264.33C176.039 264.077 175.862 263.753 175.788 263.398C175.715 263.044 175.749 262.676 175.886 262.341C176.023 262.006 176.257 261.719 176.557 261.517C176.857 261.316 177.211 261.208 177.573 261.208C177.81 261.205 178.045 261.249 178.266 261.337C178.486 261.425 178.686 261.556 178.856 261.722C179.025 261.889 179.16 262.087 179.252 262.305C179.345 262.524 179.393 262.758 179.395 262.995Z" fill="white"/>
<path d="M176.484 263.981C176.621 264.122 176.785 264.234 176.966 264.311C177.147 264.388 177.342 264.427 177.538 264.428C177.729 264.431 177.918 264.396 178.095 264.326C178.272 264.255 178.434 264.15 178.57 264.017C178.707 263.884 178.815 263.725 178.89 263.55C178.964 263.375 179.004 263.186 179.005 262.996C179.001 262.652 178.871 262.321 178.638 262.067C177.88 262.659 177.161 263.298 176.484 263.981Z" fill="#263238"/>
<path d="M186.534 262.995C186.541 263.357 186.44 263.713 186.244 264.017C186.048 264.321 185.766 264.56 185.434 264.703C185.101 264.846 184.734 264.887 184.378 264.821C184.023 264.755 183.695 264.584 183.437 264.33C183.178 264.077 183.001 263.753 182.928 263.398C182.855 263.044 182.889 262.676 183.026 262.341C183.163 262.006 183.396 261.719 183.697 261.517C183.997 261.316 184.35 261.208 184.712 261.208C184.95 261.205 185.185 261.249 185.405 261.337C185.625 261.425 185.826 261.556 185.995 261.722C186.165 261.889 186.3 262.087 186.392 262.305C186.485 262.524 186.533 262.758 186.534 262.995Z" fill="white"/>
<path d="M183.669 263.981C183.869 264.191 184.126 264.336 184.409 264.399C184.692 264.461 184.986 264.438 185.256 264.333C185.525 264.227 185.757 264.043 185.921 263.805C186.086 263.567 186.176 263.285 186.179 262.996C186.175 262.652 186.045 262.321 185.812 262.067C185.055 262.656 184.339 263.295 183.669 263.981Z" fill="#263238"/>
<path d="M193.674 262.995C193.683 263.36 193.583 263.719 193.387 264.026C193.192 264.334 192.909 264.576 192.574 264.722C192.24 264.868 191.87 264.911 191.512 264.845C191.153 264.78 190.822 264.609 190.561 264.354C190.3 264.1 190.121 263.773 190.046 263.416C189.972 263.059 190.005 262.688 190.142 262.351C190.28 262.013 190.515 261.724 190.817 261.52C191.119 261.317 191.476 261.208 191.84 261.208C192.078 261.205 192.314 261.248 192.535 261.337C192.756 261.425 192.957 261.556 193.127 261.722C193.298 261.888 193.434 262.086 193.527 262.304C193.621 262.523 193.671 262.758 193.674 262.995Z" fill="white"/>
<path d="M190.809 263.981C191.008 264.191 191.266 264.336 191.549 264.399C191.831 264.461 192.126 264.438 192.395 264.333C192.665 264.227 192.897 264.043 193.061 263.805C193.225 263.567 193.315 263.285 193.319 262.996C193.315 262.652 193.184 262.321 192.952 262.067C192.197 262.659 191.482 263.298 190.809 263.981Z" fill="#263238"/>
<path d="M200.825 262.995C200.832 263.357 200.731 263.713 200.535 264.017C200.339 264.321 200.057 264.56 199.724 264.703C199.392 264.846 199.025 264.887 198.669 264.821C198.313 264.755 197.985 264.584 197.727 264.33C197.469 264.077 197.292 263.753 197.219 263.398C197.146 263.044 197.18 262.676 197.316 262.341C197.453 262.006 197.687 261.719 197.987 261.517C198.287 261.316 198.641 261.208 199.003 261.208C199.24 261.205 199.476 261.249 199.696 261.337C199.916 261.425 200.117 261.556 200.286 261.722C200.455 261.889 200.59 262.087 200.683 262.305C200.775 262.524 200.824 262.758 200.825 262.995Z" fill="white"/>
<path d="M197.949 263.981C198.085 264.122 198.249 264.235 198.43 264.312C198.611 264.388 198.806 264.428 199.003 264.428C199.193 264.43 199.381 264.394 199.556 264.322C199.732 264.251 199.892 264.146 200.027 264.013C200.162 263.88 200.27 263.722 200.344 263.547C200.418 263.373 200.457 263.185 200.458 262.996C200.459 262.651 200.328 262.319 200.092 262.067C199.337 262.659 198.621 263.298 197.949 263.981Z" fill="#263238"/>
<path d="M207.965 262.995C207.971 263.357 207.87 263.713 207.674 264.017C207.478 264.321 207.196 264.56 206.864 264.703C206.532 264.846 206.164 264.887 205.809 264.821C205.453 264.755 205.125 264.584 204.867 264.33C204.608 264.077 204.431 263.753 204.358 263.398C204.285 263.044 204.319 262.676 204.456 262.341C204.593 262.006 204.826 261.719 205.127 261.517C205.427 261.316 205.781 261.208 206.142 261.208C206.38 261.205 206.615 261.249 206.835 261.337C207.056 261.425 207.256 261.556 207.426 261.722C207.595 261.889 207.73 262.087 207.822 262.305C207.915 262.524 207.963 262.758 207.965 262.995Z" fill="white"/>
<path d="M205.134 263.981C205.335 264.189 205.593 264.333 205.876 264.395C206.159 264.456 206.453 264.433 206.723 264.328C206.992 264.222 207.225 264.04 207.391 263.803C207.556 263.566 207.649 263.285 207.655 262.996C207.651 262.652 207.521 262.321 207.289 262.067C206.53 262.659 205.811 263.298 205.134 263.981Z" fill="#263238"/>
<path d="M215.104 262.995C215.111 263.357 215.01 263.713 214.814 264.017C214.618 264.321 214.336 264.56 214.004 264.703C213.671 264.846 213.304 264.887 212.948 264.821C212.592 264.755 212.265 264.584 212.006 264.33C211.748 264.077 211.571 263.753 211.498 263.398C211.425 263.044 211.459 262.676 211.596 262.341C211.732 262.006 211.966 261.719 212.266 261.517C212.567 261.316 212.92 261.208 213.282 261.208C213.519 261.205 213.755 261.249 213.975 261.337C214.195 261.425 214.396 261.556 214.565 261.722C214.734 261.889 214.869 262.087 214.962 262.305C215.054 262.524 215.103 262.758 215.104 262.995Z" fill="white"/>
<path d="M212.228 263.981C212.365 264.122 212.529 264.234 212.71 264.311C212.891 264.388 213.085 264.427 213.282 264.428C213.473 264.431 213.662 264.396 213.839 264.326C214.016 264.255 214.177 264.15 214.314 264.017C214.45 263.884 214.559 263.725 214.634 263.55C214.708 263.375 214.747 263.186 214.749 262.996C214.745 262.652 214.614 262.321 214.382 262.067C213.624 262.659 212.904 263.298 212.228 263.981Z" fill="#263238"/>
<path d="M222.244 262.995C222.251 263.357 222.15 263.713 221.954 264.017C221.757 264.321 221.475 264.56 221.143 264.703C220.811 264.846 220.443 264.887 220.088 264.821C219.732 264.755 219.404 264.584 219.146 264.33C218.888 264.077 218.711 263.753 218.637 263.398C218.564 263.044 218.598 262.676 218.735 262.341C218.872 262.006 219.105 261.719 219.406 261.517C219.706 261.316 220.06 261.208 220.422 261.208C220.659 261.205 220.894 261.249 221.115 261.337C221.335 261.425 221.535 261.556 221.705 261.722C221.874 261.889 222.009 262.087 222.101 262.305C222.194 262.524 222.242 262.758 222.244 262.995Z" fill="white"/>
<path d="M219.379 263.981C219.578 264.191 219.836 264.336 220.118 264.399C220.401 264.461 220.696 264.438 220.965 264.333C221.234 264.227 221.466 264.043 221.631 263.805C221.795 263.567 221.885 263.285 221.888 262.996C221.885 262.652 221.754 262.321 221.522 262.067C220.767 262.659 220.051 263.298 219.379 263.981Z" fill="#263238"/>
<path d="M229.395 262.995C229.404 263.36 229.304 263.72 229.108 264.028C228.911 264.335 228.627 264.577 228.293 264.723C227.958 264.868 227.587 264.911 227.228 264.844C226.869 264.778 226.538 264.606 226.278 264.35C226.017 264.094 225.839 263.767 225.766 263.409C225.692 263.052 225.727 262.68 225.867 262.343C226.006 262.005 226.242 261.717 226.546 261.515C226.85 261.312 227.208 261.205 227.573 261.208C227.81 261.205 228.045 261.249 228.266 261.337C228.486 261.425 228.686 261.556 228.856 261.722C229.025 261.889 229.16 262.087 229.252 262.305C229.345 262.524 229.393 262.758 229.395 262.995Z" fill="white"/>
<path d="M226.518 263.981C226.718 264.191 226.975 264.336 227.258 264.399C227.54 264.461 227.835 264.438 228.105 264.333C228.374 264.227 228.606 264.043 228.77 263.805C228.935 263.567 229.025 263.285 229.028 262.996C229.029 262.651 228.897 262.319 228.661 262.067C227.907 262.659 227.191 263.298 226.518 263.981Z" fill="#263238"/>
<path d="M236.534 262.995C236.541 263.357 236.44 263.713 236.244 264.017C236.048 264.321 235.766 264.56 235.434 264.703C235.101 264.846 234.734 264.887 234.378 264.821C234.023 264.755 233.695 264.584 233.436 264.33C233.178 264.077 233.001 263.753 232.928 263.398C232.855 263.044 232.889 262.676 233.026 262.341C233.163 262.006 233.396 261.719 233.696 261.517C233.997 261.316 234.35 261.208 234.712 261.208C234.949 261.205 235.185 261.249 235.405 261.337C235.625 261.425 235.826 261.556 235.995 261.722C236.165 261.889 236.299 262.087 236.392 262.305C236.484 262.524 236.533 262.758 236.534 262.995Z" fill="white"/>
<path d="M233.658 263.981C233.859 264.189 234.117 264.333 234.4 264.395C234.683 264.456 234.977 264.433 235.247 264.328C235.516 264.222 235.749 264.04 235.914 263.803C236.08 263.566 236.172 263.285 236.179 262.996C236.175 262.652 236.045 262.321 235.812 262.067C235.052 262.656 234.332 263.295 233.658 263.981Z" fill="#263238"/>
<path d="M243.674 262.995C243.681 263.357 243.58 263.713 243.384 264.017C243.188 264.321 242.906 264.56 242.573 264.703C242.241 264.846 241.874 264.887 241.518 264.821C241.162 264.755 240.834 264.584 240.576 264.33C240.318 264.077 240.141 263.753 240.068 263.398C239.995 263.044 240.029 262.676 240.165 262.341C240.302 262.006 240.536 261.719 240.836 261.517C241.136 261.316 241.49 261.208 241.852 261.208C242.089 261.205 242.325 261.249 242.545 261.337C242.765 261.425 242.966 261.556 243.135 261.722C243.304 261.889 243.439 262.087 243.532 262.305C243.624 262.524 243.673 262.758 243.674 262.995Z" fill="white"/>
<path d="M240.797 263.981C240.935 264.122 241.099 264.234 241.28 264.311C241.461 264.388 241.655 264.427 241.852 264.428C242.042 264.431 242.232 264.396 242.409 264.326C242.586 264.255 242.747 264.15 242.884 264.017C243.02 263.884 243.129 263.725 243.203 263.55C243.278 263.375 243.317 263.186 243.319 262.996C243.315 262.652 243.184 262.321 242.952 262.067C242.194 262.659 241.474 263.298 240.797 263.981Z" fill="#263238"/>
<path d="M150.825 274.352C150.834 274.715 150.735 275.071 150.54 275.377C150.346 275.683 150.065 275.923 149.732 276.068C149.4 276.213 149.033 276.256 148.676 276.191C148.32 276.126 147.991 275.956 147.731 275.703C147.472 275.45 147.294 275.126 147.22 274.771C147.146 274.416 147.179 274.048 147.315 273.712C147.452 273.376 147.685 273.089 147.986 272.887C148.286 272.684 148.641 272.576 149.003 272.576C149.239 272.573 149.474 272.617 149.693 272.704C149.913 272.792 150.113 272.922 150.282 273.087C150.451 273.252 150.586 273.448 150.679 273.666C150.772 273.883 150.822 274.116 150.825 274.352Z" fill="white"/>
<path d="M147.96 275.349C148.094 275.491 148.256 275.604 148.435 275.68C148.615 275.757 148.808 275.797 149.003 275.796C149.194 275.798 149.384 275.762 149.561 275.69C149.738 275.618 149.899 275.512 150.035 275.378C150.172 275.244 150.28 275.084 150.355 274.908C150.429 274.732 150.468 274.543 150.47 274.352C150.463 274.012 150.333 273.686 150.103 273.436C149.346 274.024 148.63 274.663 147.96 275.349Z" fill="#263238"/>
<path d="M157.976 274.352C157.988 274.717 157.89 275.077 157.695 275.386C157.501 275.695 157.219 275.939 156.885 276.087C156.551 276.234 156.181 276.279 155.821 276.215C155.462 276.151 155.13 275.981 154.868 275.727C154.605 275.473 154.425 275.146 154.349 274.789C154.274 274.432 154.307 274.06 154.444 273.722C154.581 273.383 154.815 273.094 155.118 272.889C155.421 272.685 155.777 272.576 156.143 272.576C156.621 272.57 157.082 272.753 157.426 273.086C157.769 273.419 157.967 273.874 157.976 274.352Z" fill="white"/>
<path d="M155.1 275.349C155.234 275.491 155.396 275.604 155.575 275.68C155.754 275.757 155.947 275.797 156.142 275.796C156.334 275.798 156.523 275.762 156.7 275.69C156.877 275.618 157.039 275.512 157.175 275.378C157.311 275.244 157.42 275.084 157.494 274.908C157.569 274.732 157.608 274.543 157.609 274.352C157.603 274.012 157.472 273.686 157.243 273.436C156.488 274.027 155.772 274.666 155.1 275.349Z" fill="#263238"/>
<path d="M165.116 274.352C165.127 274.718 165.029 275.078 164.834 275.387C164.639 275.697 164.356 275.941 164.022 276.088C163.687 276.235 163.316 276.279 162.956 276.214C162.597 276.149 162.265 275.978 162.003 275.723C161.741 275.467 161.562 275.14 161.488 274.782C161.413 274.424 161.448 274.052 161.586 273.714C161.725 273.376 161.962 273.087 162.266 272.884C162.57 272.681 162.928 272.574 163.294 272.576C163.53 272.573 163.764 272.617 163.984 272.704C164.203 272.792 164.403 272.922 164.573 273.087C164.742 273.252 164.877 273.448 164.97 273.666C165.063 273.883 165.113 274.116 165.116 274.352Z" fill="white"/>
<path d="M162.239 275.349C162.439 275.56 162.698 275.705 162.982 275.768C163.265 275.83 163.561 275.806 163.831 275.699C164.101 275.591 164.332 275.406 164.496 275.166C164.66 274.926 164.748 274.643 164.749 274.352C164.748 274.011 164.617 273.683 164.382 273.436C163.628 274.027 162.912 274.666 162.239 275.349Z" fill="#263238"/>
<path d="M172.255 274.352C172.264 274.715 172.165 275.071 171.971 275.377C171.776 275.683 171.495 275.923 171.163 276.068C170.831 276.213 170.463 276.256 170.107 276.191C169.75 276.126 169.421 275.956 169.162 275.703C168.902 275.45 168.724 275.126 168.65 274.771C168.576 274.416 168.609 274.048 168.746 273.712C168.882 273.376 169.116 273.089 169.416 272.887C169.717 272.684 170.071 272.576 170.433 272.576C170.669 272.573 170.904 272.617 171.123 272.704C171.343 272.792 171.543 272.922 171.712 273.087C171.881 273.252 172.016 273.448 172.11 273.666C172.203 273.883 172.252 274.116 172.255 274.352Z" fill="white"/>
<path d="M169.379 275.349C169.581 275.558 169.84 275.702 170.123 275.763C170.407 275.825 170.703 275.801 170.973 275.694C171.243 275.587 171.475 275.403 171.64 275.164C171.805 274.925 171.895 274.643 171.9 274.352C171.893 274.012 171.763 273.686 171.533 273.436C170.773 274.024 170.053 274.663 169.379 275.349Z" fill="#263238"/>
<path d="M179.395 274.352C179.404 274.715 179.305 275.071 179.11 275.377C178.916 275.683 178.634 275.923 178.302 276.068C177.97 276.213 177.603 276.256 177.246 276.191C176.89 276.126 176.561 275.956 176.301 275.703C176.042 275.45 175.864 275.126 175.79 274.771C175.716 274.416 175.749 274.048 175.885 273.712C176.022 273.376 176.255 273.089 176.556 272.887C176.856 272.684 177.21 272.576 177.573 272.576C177.809 272.573 178.044 272.617 178.263 272.704C178.482 272.792 178.682 272.922 178.852 273.087C179.021 273.252 179.156 273.448 179.249 273.666C179.342 273.883 179.392 274.116 179.395 274.352Z" fill="white"/>
<path d="M176.484 275.349C176.621 275.49 176.785 275.602 176.966 275.679C177.147 275.756 177.342 275.796 177.538 275.796C177.729 275.798 177.919 275.762 178.096 275.69C178.273 275.618 178.435 275.512 178.571 275.378C178.707 275.244 178.816 275.084 178.89 274.908C178.965 274.732 179.004 274.543 179.005 274.352C178.999 274.012 178.868 273.686 178.638 273.436C177.88 274.027 177.161 274.666 176.484 275.349Z" fill="#263238"/>
<path d="M186.534 274.352C186.544 274.715 186.444 275.071 186.25 275.377C186.055 275.683 185.774 275.923 185.442 276.068C185.11 276.213 184.742 276.256 184.386 276.191C184.029 276.126 183.7 275.956 183.441 275.703C183.182 275.45 183.003 275.126 182.929 274.771C182.855 274.416 182.888 274.048 183.025 273.712C183.161 273.376 183.395 273.089 183.695 272.887C183.996 272.684 184.35 272.576 184.712 272.576C184.949 272.573 185.183 272.617 185.403 272.704C185.622 272.792 185.822 272.922 185.991 273.087C186.161 273.252 186.296 273.448 186.389 273.666C186.482 273.883 186.531 274.116 186.534 274.352Z" fill="white"/>
<path d="M183.669 275.349C183.804 275.491 183.965 275.604 184.145 275.68C184.324 275.757 184.517 275.797 184.712 275.796C184.903 275.798 185.093 275.762 185.27 275.69C185.447 275.618 185.609 275.512 185.745 275.378C185.881 275.244 185.99 275.084 186.064 274.908C186.139 274.732 186.178 274.543 186.179 274.352C186.173 274.012 186.042 273.686 185.812 273.436C185.055 274.024 184.339 274.663 183.669 275.349Z" fill="#263238"/>
<path d="M193.674 274.352C193.685 274.717 193.588 275.077 193.393 275.386C193.199 275.695 192.917 275.939 192.583 276.087C192.249 276.234 191.878 276.279 191.519 276.215C191.16 276.151 190.828 275.981 190.565 275.727C190.303 275.473 190.123 275.146 190.047 274.789C189.972 274.432 190.005 274.06 190.142 273.722C190.279 273.383 190.513 273.094 190.816 272.889C191.119 272.685 191.475 272.576 191.84 272.576C192.319 272.57 192.78 272.753 193.123 273.086C193.467 273.419 193.665 273.874 193.674 274.352Z" fill="white"/>
<path d="M190.809 275.349C190.943 275.491 191.105 275.604 191.284 275.68C191.464 275.757 191.657 275.797 191.852 275.796C192.043 275.798 192.233 275.762 192.41 275.69C192.587 275.618 192.748 275.512 192.884 275.378C193.021 275.244 193.129 275.084 193.204 274.908C193.278 274.732 193.317 274.543 193.319 274.352C193.312 274.012 193.182 273.686 192.952 273.436C192.197 274.027 191.482 274.666 190.809 275.349Z" fill="#263238"/>
<path d="M200.825 274.352C200.834 274.715 200.735 275.071 200.541 275.377C200.346 275.683 200.065 275.923 199.733 276.068C199.401 276.213 199.033 276.256 198.676 276.191C198.32 276.126 197.991 275.956 197.732 275.703C197.472 275.45 197.294 275.126 197.22 274.771C197.146 274.416 197.179 274.048 197.316 273.712C197.452 273.376 197.685 273.089 197.986 272.887C198.287 272.684 198.641 272.576 199.003 272.576C199.239 272.573 199.474 272.617 199.693 272.704C199.913 272.792 200.113 272.922 200.282 273.087C200.451 273.252 200.586 273.448 200.679 273.666C200.773 273.883 200.822 274.116 200.825 274.352Z" fill="white"/>
<path d="M197.949 275.349C198.149 275.56 198.407 275.705 198.691 275.768C198.975 275.83 199.27 275.806 199.54 275.699C199.81 275.591 200.042 275.406 200.205 275.166C200.369 274.926 200.457 274.643 200.458 274.352C200.457 274.011 200.326 273.683 200.092 273.436C199.337 274.027 198.621 274.666 197.949 275.349Z" fill="#263238"/>
<path d="M207.965 274.352C207.974 274.715 207.875 275.071 207.68 275.377C207.485 275.683 207.204 275.923 206.872 276.068C206.54 276.213 206.172 276.256 205.816 276.191C205.46 276.126 205.131 275.956 204.871 275.703C204.612 275.45 204.434 275.126 204.359 274.771C204.285 274.416 204.319 274.048 204.455 273.712C204.592 273.376 204.825 273.089 205.126 272.887C205.426 272.684 205.78 272.576 206.143 272.576C206.379 272.573 206.613 272.617 206.833 272.704C207.052 272.792 207.252 272.922 207.421 273.087C207.591 273.252 207.726 273.448 207.819 273.666C207.912 273.883 207.962 274.116 207.965 274.352Z" fill="white"/>
<path d="M205.134 275.349C205.336 275.558 205.595 275.702 205.879 275.763C206.162 275.825 206.458 275.801 206.728 275.694C206.998 275.587 207.23 275.403 207.395 275.164C207.56 274.925 207.651 274.643 207.655 274.352C207.649 274.012 207.518 273.686 207.289 273.436C206.53 274.027 205.811 274.666 205.134 275.349Z" fill="#263238"/>
<path d="M215.104 274.352C215.113 274.715 215.014 275.071 214.82 275.377C214.625 275.683 214.344 275.923 214.012 276.068C213.68 276.213 213.312 276.256 212.955 276.191C212.599 276.126 212.27 275.956 212.011 275.703C211.751 275.45 211.573 275.126 211.499 274.771C211.425 274.416 211.458 274.048 211.595 273.712C211.731 273.376 211.965 273.089 212.265 272.887C212.566 272.684 212.92 272.576 213.282 272.576C213.518 272.573 213.753 272.617 213.972 272.704C214.192 272.792 214.392 272.922 214.561 273.087C214.73 273.252 214.865 273.448 214.958 273.666C215.052 273.883 215.101 274.116 215.104 274.352Z" fill="white"/>
<path d="M212.228 275.349C212.365 275.49 212.529 275.602 212.71 275.679C212.891 275.756 213.085 275.796 213.282 275.796C213.473 275.798 213.663 275.762 213.84 275.69C214.017 275.618 214.178 275.512 214.315 275.378C214.451 275.244 214.559 275.084 214.634 274.908C214.708 274.732 214.747 274.543 214.749 274.352C214.742 274.012 214.612 273.686 214.382 273.436C213.624 274.027 212.904 274.666 212.228 275.349Z" fill="#263238"/>
<path d="M222.244 274.352C222.253 274.715 222.154 275.071 221.959 275.377C221.765 275.683 221.483 275.923 221.151 276.068C220.819 276.213 220.452 276.256 220.095 276.191C219.739 276.126 219.41 275.956 219.15 275.703C218.891 275.45 218.713 275.126 218.639 274.771C218.565 274.416 218.598 274.048 218.734 273.712C218.871 273.376 219.104 273.089 219.405 272.887C219.705 272.684 220.059 272.576 220.422 272.576C220.658 272.573 220.892 272.617 221.112 272.704C221.331 272.792 221.531 272.922 221.701 273.087C221.87 273.252 222.005 273.448 222.098 273.666C222.191 273.883 222.241 274.116 222.244 274.352Z" fill="white"/>
<path d="M219.379 275.349C219.513 275.491 219.675 275.604 219.854 275.68C220.033 275.757 220.226 275.797 220.422 275.796C220.613 275.798 220.802 275.762 220.979 275.69C221.157 275.618 221.318 275.512 221.454 275.378C221.59 275.244 221.699 275.084 221.773 274.908C221.848 274.732 221.887 274.543 221.888 274.352C221.882 274.012 221.751 273.686 221.522 273.436C220.767 274.027 220.051 274.666 219.379 275.349Z" fill="#263238"/>
<path d="M229.395 274.352C229.406 274.718 229.308 275.078 229.113 275.387C228.918 275.697 228.635 275.941 228.301 276.088C227.966 276.235 227.595 276.279 227.236 276.214C226.876 276.149 226.544 275.978 226.282 275.723C226.02 275.467 225.841 275.14 225.767 274.782C225.692 274.424 225.727 274.052 225.866 273.714C226.004 273.376 226.241 273.087 226.545 272.884C226.849 272.681 227.207 272.574 227.573 272.576C227.809 272.573 228.044 272.617 228.263 272.704C228.482 272.792 228.682 272.922 228.852 273.087C229.021 273.252 229.156 273.448 229.249 273.666C229.342 273.883 229.392 274.116 229.395 274.352Z" fill="white"/>
<path d="M226.518 275.349C226.718 275.56 226.977 275.705 227.261 275.768C227.544 275.83 227.84 275.806 228.11 275.699C228.38 275.591 228.612 275.406 228.775 275.166C228.939 274.926 229.027 274.643 229.028 274.352C229.027 274.011 228.896 273.683 228.661 273.436C227.907 274.027 227.191 274.666 226.518 275.349Z" fill="#263238"/>
<path d="M236.534 274.352C236.544 274.715 236.444 275.071 236.25 275.377C236.055 275.683 235.774 275.923 235.442 276.068C235.11 276.213 234.742 276.256 234.386 276.191C234.029 276.126 233.7 275.956 233.441 275.703C233.182 275.45 233.003 275.126 232.929 274.771C232.855 274.416 232.888 274.048 233.025 273.712C233.161 273.376 233.395 273.089 233.695 272.887C233.996 272.684 234.35 272.576 234.712 272.576C234.949 272.573 235.183 272.617 235.403 272.704C235.622 272.792 235.822 272.922 235.991 273.087C236.16 273.252 236.296 273.448 236.389 273.666C236.482 273.883 236.531 274.116 236.534 274.352Z" fill="white"/>
<path d="M233.658 275.349C233.86 275.558 234.119 275.702 234.403 275.763C234.686 275.825 234.982 275.801 235.252 275.694C235.522 275.587 235.754 275.403 235.919 275.164C236.084 274.925 236.175 274.643 236.179 274.352C236.172 274.012 236.042 273.686 235.812 273.436C235.052 274.024 234.332 274.663 233.658 275.349Z" fill="#263238"/>
<path d="M243.674 274.352C243.683 274.715 243.584 275.071 243.389 275.377C243.195 275.683 242.914 275.923 242.581 276.068C242.249 276.213 241.882 276.256 241.525 276.191C241.169 276.126 240.84 275.956 240.58 275.703C240.321 275.45 240.143 275.126 240.069 274.771C239.995 274.416 240.028 274.048 240.164 273.712C240.301 273.376 240.534 273.089 240.835 272.887C241.135 272.684 241.49 272.576 241.852 272.576C242.088 272.573 242.323 272.617 242.542 272.704C242.762 272.792 242.962 272.922 243.131 273.087C243.3 273.252 243.435 273.448 243.528 273.666C243.621 273.883 243.671 274.116 243.674 274.352Z" fill="white"/>
<path d="M240.797 275.349C240.935 275.49 241.099 275.602 241.28 275.679C241.461 275.756 241.655 275.796 241.852 275.796C242.043 275.798 242.233 275.762 242.41 275.69C242.587 275.618 242.748 275.512 242.884 275.378C243.021 275.244 243.129 275.084 243.204 274.908C243.278 274.732 243.317 274.543 243.319 274.352C243.312 274.012 243.182 273.686 242.952 273.436C242.194 274.027 241.474 274.666 240.797 275.349Z" fill="#263238"/>
<path d="M322.805 262.995C322.812 263.357 322.711 263.713 322.515 264.017C322.319 264.321 322.037 264.56 321.705 264.703C321.372 264.846 321.005 264.887 320.649 264.821C320.293 264.755 319.966 264.584 319.707 264.33C319.449 264.077 319.272 263.753 319.199 263.398C319.126 263.044 319.16 262.676 319.297 262.341C319.433 262.006 319.667 261.719 319.967 261.517C320.268 261.316 320.621 261.208 320.983 261.208C321.22 261.205 321.456 261.249 321.676 261.337C321.896 261.425 322.097 261.556 322.266 261.722C322.435 261.889 322.57 262.087 322.663 262.305C322.755 262.524 322.804 262.758 322.805 262.995Z" fill="white"/>
<path d="M319.94 263.981C320.14 264.191 320.397 264.336 320.68 264.399C320.962 264.461 321.257 264.438 321.527 264.333C321.796 264.227 322.028 264.043 322.192 263.805C322.357 263.567 322.446 263.285 322.45 262.996C322.446 262.652 322.315 262.321 322.083 262.067C321.329 262.659 320.613 263.298 319.94 263.981Z" fill="#263238"/>
<path d="M329.956 262.995C329.965 263.36 329.865 263.72 329.669 264.028C329.473 264.335 329.189 264.577 328.854 264.723C328.519 264.868 328.149 264.911 327.79 264.844C327.431 264.778 327.1 264.606 326.839 264.35C326.579 264.094 326.4 263.767 326.327 263.409C326.254 263.052 326.289 262.68 326.428 262.343C326.567 262.005 326.804 261.717 327.108 261.515C327.412 261.312 327.769 261.205 328.134 261.208C328.371 261.205 328.607 261.249 328.827 261.337C329.047 261.425 329.248 261.556 329.417 261.722C329.587 261.889 329.721 262.087 329.814 262.305C329.906 262.524 329.955 262.758 329.956 262.995Z" fill="white"/>
<path d="M327.08 263.981C327.279 264.191 327.537 264.336 327.819 264.399C328.102 264.461 328.397 264.438 328.666 264.333C328.936 264.227 329.167 264.043 329.332 263.805C329.496 263.567 329.586 263.285 329.59 262.996C329.59 262.651 329.459 262.319 329.223 262.067C328.468 262.659 327.752 263.298 327.08 263.981Z" fill="#263238"/>
<path d="M337.096 262.995C337.103 263.357 337.002 263.713 336.806 264.017C336.61 264.321 336.327 264.56 335.995 264.703C335.663 264.846 335.295 264.887 334.94 264.821C334.584 264.755 334.256 264.584 333.998 264.33C333.74 264.077 333.563 263.753 333.49 263.398C333.416 263.044 333.45 262.676 333.587 262.341C333.724 262.006 333.958 261.719 334.258 261.517C334.558 261.316 334.912 261.208 335.274 261.208C335.511 261.205 335.746 261.249 335.967 261.337C336.187 261.425 336.387 261.556 336.557 261.722C336.726 261.889 336.861 262.087 336.953 262.305C337.046 262.524 337.094 262.758 337.096 262.995Z" fill="white"/>
<path d="M334.219 263.981C334.421 264.189 334.679 264.333 334.961 264.395C335.244 264.456 335.539 264.433 335.808 264.328C336.078 264.222 336.31 264.04 336.476 263.803C336.642 263.566 336.734 263.285 336.741 262.996C336.737 262.652 336.606 262.321 336.374 262.067C335.613 262.656 334.893 263.295 334.219 263.981Z" fill="#263238"/>
<path d="M344.236 262.995C344.242 263.357 344.141 263.713 343.945 264.017C343.749 264.321 343.467 264.56 343.135 264.703C342.803 264.846 342.435 264.887 342.079 264.821C341.724 264.755 341.396 264.584 341.138 264.33C340.879 264.077 340.702 263.753 340.629 263.398C340.556 263.044 340.59 262.676 340.727 262.341C340.864 262.006 341.097 261.719 341.398 261.517C341.698 261.316 342.052 261.208 342.413 261.208C342.651 261.205 342.886 261.249 343.106 261.337C343.326 261.425 343.527 261.556 343.696 261.722C343.866 261.889 344.001 262.087 344.093 262.305C344.186 262.524 344.234 262.758 344.236 262.995Z" fill="white"/>
<path d="M341.359 263.981C341.496 264.122 341.66 264.234 341.841 264.311C342.022 264.388 342.217 264.427 342.413 264.428C342.604 264.431 342.793 264.396 342.97 264.326C343.147 264.255 343.309 264.15 343.445 264.017C343.582 263.884 343.69 263.725 343.765 263.55C343.84 263.375 343.879 263.186 343.88 262.996C343.876 262.652 343.746 262.321 343.514 262.067C342.755 262.659 342.036 263.298 341.359 263.981Z" fill="#263238"/>
<path d="M351.375 262.995C351.382 263.357 351.281 263.713 351.085 264.017C350.889 264.321 350.607 264.56 350.274 264.703C349.942 264.846 349.575 264.887 349.219 264.821C348.863 264.755 348.535 264.584 348.277 264.33C348.019 264.077 347.842 263.753 347.769 263.398C347.696 263.044 347.73 262.676 347.866 262.341C348.003 262.006 348.237 261.719 348.537 261.517C348.837 261.316 349.191 261.208 349.553 261.208C349.79 261.205 350.026 261.249 350.246 261.337C350.466 261.425 350.667 261.556 350.836 261.722C351.005 261.889 351.14 262.087 351.233 262.305C351.325 262.524 351.374 262.758 351.375 262.995Z" fill="white"/>
<path d="M348.51 263.981C348.71 264.191 348.967 264.336 349.25 264.399C349.532 264.461 349.827 264.438 350.096 264.333C350.366 264.227 350.598 264.043 350.762 263.805C350.927 263.567 351.016 263.285 351.02 262.996C351.016 262.652 350.885 262.321 350.653 262.067C349.896 262.656 349.18 263.295 348.51 263.981Z" fill="#263238"/>
<path d="M358.526 262.995C358.535 263.36 358.435 263.719 358.24 264.026C358.044 264.334 357.761 264.576 357.426 264.722C357.092 264.868 356.722 264.911 356.364 264.845C356.005 264.78 355.674 264.609 355.413 264.354C355.152 264.1 354.973 263.773 354.898 263.416C354.824 263.059 354.857 262.688 354.994 262.351C355.132 262.013 355.367 261.724 355.669 261.52C355.972 261.317 356.328 261.208 356.692 261.208C356.93 261.205 357.166 261.248 357.387 261.337C357.608 261.425 357.809 261.556 357.98 261.722C358.15 261.888 358.286 262.086 358.379 262.304C358.473 262.523 358.523 262.758 358.526 262.995Z" fill="white"/>
<path d="M355.65 263.981C355.849 264.191 356.107 264.336 356.389 264.399C356.672 264.461 356.967 264.438 357.236 264.333C357.505 264.227 357.737 264.043 357.902 263.805C358.066 263.567 358.156 263.285 358.159 262.996C358.155 262.652 358.025 262.321 357.793 262.067C357.038 262.659 356.322 263.298 355.65 263.981Z" fill="#263238"/>
<path d="M365.666 262.995C365.675 263.36 365.575 263.72 365.378 264.028C365.182 264.335 364.898 264.577 364.563 264.723C364.229 264.868 363.858 264.911 363.499 264.844C363.14 264.778 362.809 264.606 362.548 264.35C362.288 264.094 362.11 263.767 362.036 263.409C361.963 263.052 361.998 262.68 362.137 262.343C362.276 262.005 362.513 261.717 362.817 261.515C363.121 261.312 363.478 261.205 363.844 261.208C364.081 261.205 364.316 261.249 364.536 261.337C364.757 261.425 364.957 261.556 365.127 261.722C365.296 261.889 365.431 262.087 365.523 262.305C365.616 262.524 365.664 262.758 365.666 262.995Z" fill="white"/>
<path d="M362.789 263.981C362.989 264.191 363.246 264.336 363.529 264.399C363.811 264.461 364.106 264.438 364.376 264.333C364.645 264.227 364.877 264.043 365.041 263.805C365.206 263.567 365.296 263.285 365.299 262.996C365.3 262.651 365.168 262.319 364.932 262.067C364.178 262.659 363.462 263.298 362.789 263.981Z" fill="#263238"/>
<path d="M372.805 262.995C372.812 263.357 372.711 263.713 372.515 264.017C372.319 264.321 372.037 264.56 371.705 264.703C371.372 264.846 371.005 264.887 370.649 264.821C370.294 264.755 369.966 264.584 369.707 264.33C369.449 264.077 369.272 263.753 369.199 263.398C369.126 263.044 369.16 262.676 369.297 262.341C369.434 262.006 369.667 261.719 369.967 261.517C370.268 261.316 370.621 261.208 370.983 261.208C371.22 261.205 371.456 261.249 371.676 261.337C371.896 261.425 372.097 261.556 372.266 261.722C372.436 261.889 372.57 262.087 372.663 262.305C372.755 262.524 372.804 262.758 372.805 262.995Z" fill="white"/>
<path d="M369.929 263.981C370.13 264.189 370.388 264.333 370.671 264.395C370.953 264.456 371.248 264.433 371.518 264.328C371.787 264.222 372.019 264.04 372.185 263.803C372.351 263.566 372.443 263.285 372.45 262.996C372.446 262.652 372.315 262.321 372.083 262.067C371.323 262.656 370.603 263.295 369.929 263.981Z" fill="#263238"/>
<path d="M379.945 262.995C379.952 263.357 379.851 263.713 379.655 264.017C379.458 264.321 379.176 264.56 378.844 264.703C378.512 264.846 378.144 264.887 377.789 264.821C377.433 264.755 377.105 264.584 376.847 264.33C376.589 264.077 376.412 263.753 376.338 263.398C376.265 263.044 376.299 262.676 376.436 262.341C376.573 262.006 376.806 261.719 377.107 261.517C377.407 261.316 377.761 261.208 378.123 261.208C378.36 261.205 378.595 261.249 378.816 261.337C379.036 261.425 379.236 261.556 379.406 261.722C379.575 261.889 379.71 262.087 379.802 262.305C379.895 262.524 379.943 262.758 379.945 262.995Z" fill="white"/>
<path d="M377.034 263.981C377.171 264.122 377.335 264.234 377.516 264.311C377.697 264.388 377.892 264.427 378.088 264.428C378.279 264.431 378.468 264.396 378.645 264.326C378.822 264.255 378.984 264.15 379.12 264.017C379.256 263.884 379.365 263.725 379.44 263.55C379.514 263.375 379.554 263.186 379.555 262.996C379.551 262.652 379.421 262.321 379.188 262.067C378.43 262.659 377.711 263.298 377.034 263.981Z" fill="#263238"/>
<path d="M387.084 262.995C387.091 263.357 386.99 263.713 386.794 264.017C386.598 264.321 386.316 264.56 385.984 264.703C385.651 264.846 385.284 264.887 384.928 264.821C384.573 264.755 384.245 264.584 383.986 264.33C383.728 264.077 383.551 263.753 383.478 263.398C383.405 263.044 383.439 262.676 383.576 262.341C383.713 262.006 383.946 261.719 384.246 261.517C384.547 261.316 384.9 261.208 385.262 261.208C385.499 261.205 385.735 261.249 385.955 261.337C386.175 261.425 386.376 261.556 386.545 261.722C386.715 261.889 386.849 262.087 386.942 262.305C387.034 262.524 387.083 262.758 387.084 262.995Z" fill="white"/>
<path d="M384.219 263.981C384.419 264.191 384.676 264.336 384.959 264.399C385.242 264.461 385.536 264.438 385.806 264.333C386.075 264.227 386.307 264.043 386.471 263.805C386.636 263.567 386.726 263.285 386.729 262.996C386.725 262.652 386.595 262.321 386.362 262.067C385.605 262.656 384.889 263.295 384.219 263.981Z" fill="#263238"/>
<path d="M394.224 262.995C394.233 263.36 394.133 263.719 393.938 264.026C393.742 264.334 393.459 264.576 393.124 264.722C392.79 264.868 392.42 264.911 392.062 264.845C391.703 264.78 391.372 264.609 391.111 264.354C390.85 264.1 390.671 263.773 390.596 263.416C390.522 263.059 390.555 262.688 390.692 262.351C390.83 262.013 391.065 261.724 391.367 261.52C391.67 261.317 392.026 261.208 392.39 261.208C392.628 261.205 392.864 261.248 393.085 261.337C393.306 261.425 393.507 261.556 393.678 261.722C393.848 261.888 393.984 262.086 394.077 262.304C394.171 262.523 394.221 262.758 394.224 262.995Z" fill="white"/>
<path d="M391.359 263.981C391.559 264.191 391.816 264.336 392.099 264.399C392.381 264.461 392.676 264.438 392.945 264.333C393.215 264.227 393.447 264.043 393.611 263.805C393.775 263.567 393.865 263.285 393.869 262.996C393.865 262.652 393.734 262.321 393.502 262.067C392.747 262.659 392.032 263.298 391.359 263.981Z" fill="#263238"/>
<path d="M401.375 262.995C401.382 263.357 401.281 263.713 401.085 264.017C400.889 264.321 400.607 264.56 400.274 264.703C399.942 264.846 399.575 264.887 399.219 264.821C398.863 264.755 398.535 264.584 398.277 264.33C398.019 264.077 397.842 263.753 397.769 263.398C397.695 263.044 397.729 262.676 397.866 262.341C398.003 262.006 398.237 261.719 398.537 261.517C398.837 261.316 399.191 261.208 399.553 261.208C399.79 261.205 400.026 261.249 400.246 261.337C400.466 261.425 400.666 261.556 400.836 261.722C401.005 261.889 401.14 262.087 401.233 262.305C401.325 262.524 401.373 262.758 401.375 262.995Z" fill="white"/>
<path d="M398.499 263.981C398.635 264.122 398.799 264.235 398.98 264.312C399.161 264.388 399.356 264.428 399.553 264.428C399.742 264.43 399.931 264.394 400.106 264.322C400.282 264.251 400.442 264.146 400.577 264.013C400.712 263.88 400.82 263.722 400.894 263.547C400.968 263.373 401.007 263.185 401.008 262.996C401.009 262.651 400.878 262.319 400.642 262.067C399.887 262.659 399.171 263.298 398.499 263.981Z" fill="#263238"/>
<path d="M408.515 262.995C408.521 263.357 408.42 263.713 408.224 264.017C408.028 264.321 407.746 264.56 407.414 264.703C407.082 264.846 406.714 264.887 406.358 264.821C406.003 264.755 405.675 264.584 405.417 264.33C405.158 264.077 404.981 263.753 404.908 263.398C404.835 263.044 404.869 262.676 405.006 262.341C405.143 262.006 405.376 261.719 405.677 261.517C405.977 261.316 406.331 261.208 406.692 261.208C406.93 261.205 407.165 261.249 407.385 261.337C407.606 261.425 407.806 261.556 407.975 261.722C408.145 261.889 408.28 262.087 408.372 262.305C408.465 262.524 408.513 262.758 408.515 262.995Z" fill="white"/>
<path d="M405.684 263.981C405.885 264.189 406.143 264.333 406.426 264.395C406.709 264.456 407.003 264.433 407.273 264.328C407.542 264.222 407.775 264.04 407.94 263.803C408.106 263.566 408.199 263.285 408.205 262.996C408.201 262.652 408.071 262.321 407.838 262.067C407.08 262.659 406.361 263.298 405.684 263.981Z" fill="#263238"/>
<path d="M415.654 262.995C415.661 263.357 415.56 263.713 415.364 264.017C415.168 264.321 414.886 264.56 414.553 264.703C414.221 264.846 413.854 264.887 413.498 264.821C413.142 264.755 412.815 264.584 412.556 264.33C412.298 264.077 412.121 263.753 412.048 263.398C411.975 263.044 412.009 262.676 412.146 262.341C412.282 262.006 412.516 261.719 412.816 261.517C413.117 261.316 413.47 261.208 413.832 261.208C414.069 261.205 414.305 261.249 414.525 261.337C414.745 261.425 414.946 261.556 415.115 261.722C415.284 261.889 415.419 262.087 415.512 262.305C415.604 262.524 415.653 262.758 415.654 262.995Z" fill="white"/>
<path d="M412.778 263.981C412.915 264.122 413.079 264.234 413.26 264.311C413.441 264.388 413.635 264.427 413.832 264.428C414.023 264.431 414.212 264.396 414.389 264.326C414.566 264.255 414.728 264.15 414.864 264.017C415 263.884 415.109 263.725 415.184 263.55C415.258 263.375 415.298 263.186 415.299 262.996C415.295 262.652 415.165 262.321 414.932 262.067C414.174 262.659 413.454 263.298 412.778 263.981Z" fill="#263238"/>
<path d="M322.805 274.352C322.814 274.715 322.715 275.071 322.521 275.377C322.326 275.683 322.045 275.923 321.713 276.068C321.381 276.213 321.013 276.256 320.657 276.191C320.3 276.126 319.971 275.956 319.712 275.703C319.452 275.45 319.274 275.126 319.2 274.771C319.126 274.416 319.159 274.048 319.296 273.712C319.432 273.376 319.666 273.089 319.966 272.887C320.267 272.684 320.621 272.576 320.983 272.576C321.219 272.573 321.454 272.617 321.673 272.704C321.893 272.792 322.093 272.922 322.262 273.087C322.431 273.252 322.566 273.448 322.66 273.666C322.753 273.883 322.802 274.116 322.805 274.352Z" fill="white"/>
<path d="M319.94 275.349C320.074 275.491 320.236 275.604 320.415 275.68C320.595 275.757 320.788 275.797 320.983 275.796C321.174 275.798 321.364 275.762 321.541 275.69C321.718 275.618 321.879 275.512 322.016 275.378C322.152 275.244 322.26 275.084 322.335 274.908C322.409 274.732 322.448 274.543 322.45 274.352C322.443 274.012 322.313 273.686 322.083 273.436C321.329 274.027 320.613 274.666 319.94 275.349Z" fill="#263238"/>
<path d="M329.956 274.352C329.968 274.718 329.87 275.078 329.675 275.387C329.48 275.697 329.197 275.941 328.862 276.088C328.528 276.235 328.157 276.279 327.797 276.214C327.437 276.149 327.105 275.978 326.844 275.723C326.582 275.467 326.402 275.14 326.328 274.782C326.254 274.424 326.288 274.052 326.427 273.714C326.566 273.376 326.802 273.087 327.107 272.884C327.411 272.681 327.769 272.574 328.134 272.576C328.37 272.573 328.605 272.617 328.824 272.704C329.044 272.792 329.244 272.922 329.413 273.087C329.582 273.252 329.717 273.448 329.811 273.666C329.904 273.883 329.953 274.116 329.956 274.352Z" fill="white"/>
<path d="M327.08 275.349C327.28 275.56 327.539 275.705 327.822 275.768C328.106 275.83 328.402 275.806 328.671 275.699C328.941 275.591 329.173 275.406 329.337 275.166C329.5 274.926 329.588 274.643 329.59 274.352C329.588 274.011 329.457 273.683 329.223 273.436C328.468 274.027 327.752 274.666 327.08 275.349Z" fill="#263238"/>
<path d="M337.096 274.352C337.105 274.715 337.006 275.071 336.811 275.377C336.617 275.683 336.335 275.923 336.003 276.068C335.671 276.213 335.304 276.256 334.947 276.191C334.591 276.126 334.262 275.956 334.002 275.703C333.743 275.45 333.565 275.126 333.491 274.771C333.417 274.416 333.45 274.048 333.586 273.712C333.723 273.376 333.956 273.089 334.257 272.887C334.557 272.684 334.911 272.576 335.274 272.576C335.51 272.573 335.745 272.617 335.964 272.704C336.183 272.792 336.383 272.922 336.553 273.087C336.722 273.252 336.857 273.448 336.95 273.666C337.043 273.883 337.093 274.116 337.096 274.352Z" fill="white"/>
<path d="M334.219 275.349C334.421 275.558 334.68 275.702 334.964 275.763C335.248 275.825 335.543 275.801 335.813 275.694C336.083 275.587 336.316 275.403 336.481 275.164C336.646 274.925 336.736 274.643 336.741 274.352C336.734 274.012 336.604 273.686 336.374 273.436C335.613 274.024 334.893 274.663 334.219 275.349Z" fill="#263238"/>
<path d="M344.235 274.352C344.245 274.715 344.146 275.071 343.951 275.377C343.756 275.683 343.475 275.923 343.143 276.068C342.811 276.213 342.443 276.256 342.087 276.191C341.73 276.126 341.401 275.956 341.142 275.703C340.882 275.45 340.704 275.126 340.63 274.771C340.556 274.416 340.589 274.048 340.726 273.712C340.862 273.376 341.096 273.089 341.396 272.887C341.697 272.684 342.051 272.576 342.413 272.576C342.65 272.573 342.884 272.617 343.104 272.704C343.323 272.792 343.523 272.922 343.692 273.087C343.862 273.252 343.997 273.448 344.09 273.666C344.183 273.883 344.232 274.116 344.235 274.352Z" fill="white"/>
<path d="M341.359 275.349C341.496 275.49 341.66 275.602 341.841 275.679C342.022 275.756 342.217 275.796 342.413 275.796C342.605 275.798 342.794 275.762 342.971 275.69C343.148 275.618 343.31 275.512 343.446 275.378C343.582 275.244 343.691 275.084 343.765 274.908C343.84 274.732 343.879 274.543 343.88 274.352C343.874 274.012 343.743 273.686 343.514 273.436C342.755 274.027 342.036 274.666 341.359 275.349Z" fill="#263238"/>
<path d="M351.375 274.352C351.384 274.715 351.285 275.071 351.09 275.377C350.896 275.683 350.615 275.923 350.283 276.068C349.951 276.213 349.583 276.256 349.226 276.191C348.87 276.126 348.541 275.956 348.282 275.703C348.022 275.45 347.844 275.126 347.77 274.771C347.696 274.416 347.729 274.048 347.866 273.712C348.002 273.376 348.235 273.089 348.536 272.887C348.837 272.684 349.191 272.576 349.553 272.576C349.789 272.573 350.024 272.617 350.243 272.704C350.463 272.792 350.663 272.922 350.832 273.087C351.001 273.252 351.136 273.448 351.229 273.666C351.323 273.883 351.372 274.116 351.375 274.352Z" fill="white"/>
<path d="M348.51 275.349C348.644 275.491 348.806 275.604 348.985 275.68C349.165 275.757 349.358 275.797 349.553 275.796C349.744 275.798 349.934 275.762 350.111 275.69C350.288 275.618 350.449 275.512 350.585 275.378C350.722 275.244 350.83 275.084 350.905 274.908C350.979 274.732 351.018 274.543 351.02 274.352C351.013 274.012 350.883 273.686 350.653 273.436C349.896 274.024 349.18 274.663 348.51 275.349Z" fill="#263238"/>
<path d="M358.526 274.352C358.538 274.717 358.44 275.077 358.245 275.386C358.051 275.695 357.769 275.939 357.435 276.087C357.101 276.234 356.731 276.279 356.371 276.215C356.012 276.151 355.68 275.981 355.418 275.727C355.155 275.473 354.975 275.146 354.9 274.789C354.824 274.432 354.857 274.06 354.994 273.722C355.131 273.383 355.366 273.094 355.668 272.889C355.971 272.685 356.328 272.576 356.693 272.576C357.171 272.57 357.632 272.753 357.976 273.086C358.319 273.419 358.517 273.874 358.526 274.352Z" fill="white"/>
<path d="M355.65 275.349C355.784 275.491 355.946 275.604 356.125 275.68C356.304 275.757 356.497 275.797 356.692 275.796C356.884 275.798 357.073 275.762 357.25 275.69C357.427 275.618 357.589 275.512 357.725 275.378C357.861 275.244 357.97 275.084 358.044 274.908C358.119 274.732 358.158 274.543 358.159 274.352C358.153 274.012 358.022 273.686 357.793 273.436C357.038 274.027 356.322 274.666 355.65 275.349Z" fill="#263238"/>
<path d="M365.666 274.352C365.677 274.718 365.579 275.078 365.384 275.387C365.189 275.697 364.906 275.941 364.572 276.088C364.237 276.235 363.866 276.279 363.507 276.214C363.147 276.149 362.815 275.978 362.553 275.723C362.291 275.467 362.112 275.14 362.038 274.782C361.963 274.424 361.998 274.052 362.137 273.714C362.275 273.376 362.512 273.087 362.816 272.884C363.12 272.681 363.478 272.574 363.844 272.576C364.08 272.573 364.314 272.617 364.534 272.704C364.753 272.792 364.953 272.922 365.123 273.087C365.292 273.252 365.427 273.448 365.52 273.666C365.613 273.883 365.663 274.116 365.666 274.352Z" fill="white"/>
<path d="M362.789 275.349C362.989 275.56 363.248 275.705 363.532 275.768C363.815 275.83 364.111 275.806 364.381 275.699C364.651 275.591 364.882 275.406 365.046 275.166C365.21 274.926 365.298 274.643 365.299 274.352C365.298 274.011 365.167 273.683 364.932 273.436C364.178 274.027 363.462 274.666 362.789 275.349Z" fill="#263238"/>
<path d="M372.805 274.352C372.814 274.715 372.715 275.071 372.521 275.377C372.326 275.683 372.045 275.923 371.713 276.068C371.381 276.213 371.013 276.256 370.657 276.191C370.3 276.126 369.971 275.956 369.712 275.703C369.452 275.45 369.274 275.126 369.2 274.771C369.126 274.416 369.159 274.048 369.296 273.712C369.432 273.376 369.666 273.089 369.966 272.887C370.267 272.684 370.621 272.576 370.983 272.576C371.219 272.573 371.454 272.617 371.673 272.704C371.893 272.792 372.093 272.922 372.262 273.087C372.431 273.252 372.566 273.448 372.66 273.666C372.753 273.883 372.802 274.116 372.805 274.352Z" fill="white"/>
<path d="M369.929 275.349C370.131 275.558 370.39 275.702 370.673 275.763C370.957 275.825 371.253 275.801 371.523 275.694C371.793 275.587 372.025 275.403 372.19 275.164C372.355 274.925 372.445 274.643 372.45 274.352C372.443 274.012 372.313 273.686 372.083 273.436C371.323 274.024 370.603 274.663 369.929 275.349Z" fill="#263238"/>
<path d="M379.945 274.352C379.954 274.715 379.855 275.071 379.66 275.377C379.466 275.683 379.184 275.923 378.852 276.068C378.52 276.213 378.153 276.256 377.796 276.191C377.44 276.126 377.111 275.956 376.851 275.703C376.592 275.45 376.414 275.126 376.34 274.771C376.266 274.416 376.299 274.048 376.435 273.712C376.572 273.376 376.805 273.089 377.106 272.887C377.406 272.684 377.76 272.576 378.123 272.576C378.359 272.573 378.594 272.617 378.813 272.704C379.032 272.792 379.232 272.922 379.402 273.087C379.571 273.252 379.706 273.448 379.799 273.666C379.892 273.883 379.942 274.116 379.945 274.352Z" fill="white"/>
<path d="M377.034 275.349C377.171 275.49 377.335 275.602 377.516 275.679C377.697 275.756 377.892 275.796 378.088 275.796C378.279 275.798 378.469 275.762 378.646 275.69C378.823 275.618 378.985 275.512 379.121 275.378C379.257 275.244 379.365 275.084 379.44 274.908C379.514 274.732 379.554 274.543 379.555 274.352C379.548 274.012 379.418 273.686 379.188 273.436C378.43 274.027 377.711 274.666 377.034 275.349Z" fill="#263238"/>
<path d="M387.084 274.352C387.093 274.715 386.994 275.071 386.8 275.377C386.605 275.683 386.324 275.923 385.992 276.068C385.66 276.213 385.292 276.256 384.936 276.191C384.579 276.126 384.25 275.956 383.991 275.703C383.731 275.45 383.553 275.126 383.479 274.771C383.405 274.416 383.438 274.048 383.575 273.712C383.711 273.376 383.945 273.089 384.245 272.887C384.546 272.684 384.9 272.576 385.262 272.576C385.499 272.573 385.733 272.617 385.953 272.704C386.172 272.792 386.372 272.922 386.541 273.087C386.71 273.252 386.846 273.448 386.939 273.666C387.032 273.883 387.081 274.116 387.084 274.352Z" fill="white"/>
<path d="M384.219 275.349C384.354 275.491 384.515 275.604 384.695 275.68C384.874 275.757 385.067 275.797 385.262 275.796C385.453 275.798 385.643 275.762 385.82 275.69C385.997 275.618 386.158 275.512 386.295 275.378C386.431 275.244 386.539 275.084 386.614 274.908C386.688 274.732 386.728 274.543 386.729 274.352C386.722 274.012 386.592 273.686 386.362 273.436C385.605 274.024 384.889 274.663 384.219 275.349Z" fill="#263238"/>
<path d="M394.224 274.352C394.235 274.717 394.138 275.077 393.943 275.386C393.749 275.695 393.467 275.939 393.133 276.087C392.799 276.234 392.428 276.279 392.069 276.215C391.71 276.151 391.378 275.981 391.115 275.727C390.853 275.473 390.673 275.146 390.597 274.789C390.522 274.432 390.555 274.06 390.692 273.722C390.828 273.383 391.063 273.094 391.366 272.889C391.669 272.685 392.025 272.576 392.39 272.576C392.869 272.57 393.33 272.753 393.673 273.086C394.017 273.419 394.215 273.874 394.224 274.352Z" fill="white"/>
<path d="M391.359 275.349C391.493 275.491 391.655 275.604 391.834 275.68C392.014 275.757 392.207 275.797 392.402 275.796C392.593 275.798 392.783 275.762 392.96 275.69C393.137 275.618 393.298 275.512 393.434 275.378C393.571 275.244 393.679 275.084 393.754 274.908C393.828 274.732 393.867 274.543 393.869 274.352C393.862 274.012 393.732 273.686 393.502 273.436C392.747 274.027 392.032 274.666 391.359 275.349Z" fill="#263238"/>
<path d="M401.375 274.352C401.384 274.715 401.285 275.071 401.09 275.377C400.896 275.683 400.614 275.923 400.282 276.068C399.95 276.213 399.583 276.256 399.226 276.191C398.87 276.126 398.541 275.956 398.281 275.703C398.022 275.45 397.844 275.126 397.77 274.771C397.696 274.416 397.729 274.048 397.865 273.712C398.002 273.376 398.235 273.089 398.536 272.887C398.836 272.684 399.19 272.576 399.553 272.576C399.789 272.573 400.024 272.617 400.243 272.704C400.463 272.792 400.663 272.922 400.832 273.087C401.001 273.252 401.136 273.448 401.229 273.666C401.322 273.883 401.372 274.116 401.375 274.352Z" fill="white"/>
<path d="M398.499 275.349C398.699 275.56 398.957 275.705 399.241 275.768C399.525 275.83 399.82 275.806 400.09 275.699C400.36 275.591 400.592 275.406 400.755 275.166C400.919 274.926 401.007 274.643 401.008 274.352C401.007 274.011 400.876 273.683 400.642 273.436C399.887 274.027 399.171 274.666 398.499 275.349Z" fill="#263238"/>
<path d="M408.514 274.352C408.524 274.715 408.424 275.071 408.23 275.377C408.035 275.683 407.754 275.923 407.422 276.068C407.09 276.213 406.722 276.256 406.366 276.191C406.009 276.126 405.68 275.956 405.421 275.703C405.162 275.45 404.983 275.126 404.909 274.771C404.835 274.416 404.869 274.048 405.005 273.712C405.141 273.376 405.375 273.089 405.675 272.887C405.976 272.684 406.33 272.576 406.692 272.576C406.929 272.573 407.163 272.617 407.383 272.704C407.602 272.792 407.802 272.922 407.971 273.087C408.141 273.252 408.276 273.448 408.369 273.666C408.462 273.883 408.511 274.116 408.514 274.352Z" fill="white"/>
<path d="M405.684 275.349C405.886 275.558 406.145 275.702 406.429 275.763C406.712 275.825 407.008 275.801 407.278 275.694C407.548 275.587 407.78 275.403 407.945 275.164C408.11 274.925 408.201 274.643 408.205 274.352C408.199 274.012 408.068 273.686 407.838 273.436C407.08 274.027 406.361 274.666 405.684 275.349Z" fill="#263238"/>
<path d="M415.654 274.352C415.663 274.715 415.564 275.071 415.37 275.377C415.175 275.683 414.894 275.923 414.562 276.068C414.23 276.213 413.862 276.256 413.505 276.191C413.149 276.126 412.82 275.956 412.561 275.703C412.301 275.45 412.123 275.126 412.049 274.771C411.975 274.416 412.008 274.048 412.145 273.712C412.281 273.376 412.515 273.089 412.815 272.887C413.116 272.684 413.47 272.576 413.832 272.576C414.068 272.573 414.303 272.617 414.522 272.704C414.742 272.792 414.942 272.922 415.111 273.087C415.28 273.252 415.415 273.448 415.508 273.666C415.602 273.883 415.651 274.116 415.654 274.352Z" fill="white"/>
<path d="M412.778 275.349C412.915 275.49 413.079 275.602 413.26 275.679C413.441 275.756 413.635 275.796 413.832 275.796C414.023 275.798 414.213 275.762 414.39 275.69C414.567 275.618 414.728 275.512 414.865 275.378C415.001 275.244 415.109 275.084 415.184 274.908C415.258 274.732 415.298 274.543 415.299 274.352C415.292 274.012 415.162 273.686 414.932 273.436C414.174 274.027 413.454 274.666 412.778 275.349Z" fill="#263238"/>
<path d="M309.89 254.183H254.641C253.441 254.183 252.289 253.713 251.432 252.873C250.575 252.033 250.081 250.89 250.057 249.69V224.203C250.057 206.818 264.508 192.665 282.271 192.665C300.034 192.665 314.497 206.818 314.497 224.203V249.69C314.473 250.894 313.976 252.04 313.114 252.881C312.252 253.721 311.094 254.189 309.89 254.183ZM259.225 245.244H305.294V224.203C305.294 218.094 302.867 212.235 298.548 207.915C294.228 203.596 288.369 201.169 282.26 201.169C276.151 201.169 270.292 203.596 265.972 207.915C261.652 212.235 259.225 218.094 259.225 224.203V245.244Z" fill="white" stroke="#263238" stroke-linecap="round" stroke-linejoin="round"/>
<path d="M316.972 241.898H246.631V300.092H316.972V241.898Z" fill="#369577" stroke="#263238" stroke-linecap="round" stroke-linejoin="round"/>
<path d="M289.124 266.067C289.048 264.086 288.207 262.212 286.779 260.838C285.35 259.464 283.445 258.696 281.463 258.696C279.481 258.696 277.576 259.464 276.148 260.838C274.72 262.212 273.879 264.086 273.802 266.067C273.808 267.429 274.186 268.764 274.895 269.927C275.604 271.09 276.617 272.038 277.825 272.668L276.541 285.881H286.385L285.102 272.668C286.31 272.038 287.322 271.09 288.031 269.927C288.74 268.764 289.118 267.429 289.124 266.067Z" fill="#263238" stroke="#263238" stroke-linecap="round" stroke-linejoin="round"/>
<path d="M412.17 476.461C412.17 476.461 398.969 483.887 398.969 487.463C398.969 491.038 407.117 488.838 412.445 486.317C417.774 483.795 422.003 481.916 422.003 476.965C422.003 472.014 412.17 476.461 412.17 476.461Z" fill="#D7EAE4" stroke="#263238" stroke-miterlimit="10"/>
<path d="M475.372 476.461C475.372 476.461 488.574 483.887 488.574 487.463C488.574 491.038 480.426 488.838 475.097 486.317C469.768 483.795 465.54 481.916 465.54 476.965C465.54 472.014 475.372 476.461 475.372 476.461Z" fill="#D7EAE4" stroke="#263238" stroke-miterlimit="10"/>
<path d="M417.511 354.905L411.884 477.882C412.662 478.522 413.562 478.998 414.529 479.282C415.496 479.566 416.51 479.651 417.511 479.532C419.257 479.274 420.852 478.395 422.003 477.057L441.107 376.679H445.038L465.276 478.936C466.485 479.605 467.828 479.997 469.207 480.082C471.166 480.082 474.261 477.607 474.261 477.607L467.797 354.985L417.511 354.905Z" fill="#1B4B3B" stroke="#263238" stroke-miterlimit="10"/>
<path d="M437.176 280.38L411.609 290.82L418.347 350.229H467.224L476.22 288.62L448.407 279.83L437.176 280.38Z" fill="#D7EAE4" stroke="#263238" stroke-miterlimit="10"/>
<path d="M439.984 288.895L443.067 293.846L438.013 336.477L444.19 345.553L449.53 335.652L445.313 293.296L448.968 287.531L443.628 285.194L439.984 288.895Z" fill="#1B4B3B" stroke="#263238" stroke-miterlimit="10"/>
<path d="M443.628 285.193L439.525 292.218L432.214 282.477L436.305 277.607L443.628 285.193Z" fill="#D7EAE4" stroke="#263238" stroke-miterlimit="10"/>
<path d="M443.628 285.194L448.602 292.929L454.595 281.905L451.089 277.458L443.628 285.194Z" fill="#D7EAE4" stroke="#263238" stroke-miterlimit="10"/>
<path d="M433.704 301.822H416.479V307.69L425.097 310.99L433.704 307.323V301.822Z" fill="#D7EAE4" stroke="#263238" stroke-miterlimit="10"/>
<path d="M468.164 301.822H450.94V307.69L459.546 310.99L468.164 307.323V301.822Z" fill="#D7EAE4" stroke="#263238" stroke-miterlimit="10"/>
<path d="M467.797 349.129H417.511V354.905H467.797V349.129Z" fill="#263238" stroke="#263238" stroke-miterlimit="10"/>
<path d="M416.663 353.805L407.953 357.38C407.81 359.869 407.999 362.367 408.515 364.806C409.363 368.107 410.486 375.258 411.322 376.633C412.159 378.008 416.388 380.758 416.949 379.933C417.511 379.108 420.318 354.905 420.318 354.905L416.663 353.805Z" fill="#263238" stroke="#263238" stroke-miterlimit="10"/>
<path d="M436.305 267.58V277.607L443.628 285.194L451.089 277.458V267.431L436.305 267.58Z" fill="white" stroke="#263238" stroke-miterlimit="10"/>
<path d="M431.194 258.274C431.194 258.274 429.876 255.26 428.994 257.128C428.111 258.996 429.143 261.85 430.46 262.996C431.43 263.698 432.63 264.006 433.818 263.855L433.085 259.558L431.194 258.274Z" fill="white" stroke="#263238" stroke-miterlimit="10"/>
<path d="M455.031 258.274C455.031 258.274 456.349 255.26 457.231 257.128C458.114 258.996 457.082 261.85 455.764 262.996C454.791 263.699 453.586 264.006 452.395 263.855L453.128 259.558L455.031 258.274Z" fill="white" stroke="#263238" stroke-miterlimit="10"/>
<path d="M433.681 238.368C433.681 238.368 427.527 240.946 427.527 245.244C427.527 249.541 428.409 254.412 429.876 256.28C431.343 258.148 432.5 259.431 432.5 259.431L432.798 253.266L437.039 245.966C437.039 245.966 444.064 250.401 447.57 250.401C449.531 250.418 451.489 250.277 453.426 249.977L454.744 257.277L456.647 251.982V247.112C456.647 247.112 460.153 243.811 459.42 241.668C458.687 239.525 446.814 232.787 439.525 234.506C432.237 236.225 433.681 238.368 433.681 238.368Z" fill="#263238" stroke="#263238" stroke-miterlimit="10"/>
<path d="M430.747 252.83C430.747 252.83 432.5 263.568 433.967 266.433C435.896 269.612 438.261 272.506 440.992 275.028C442.012 275.739 445.817 275.166 447.284 275.166C448.751 275.166 453.014 266.571 453.713 265.001C454.412 263.431 454.859 249.965 454.859 249.965L453.575 247.536C453.575 247.536 447.284 249.117 442.31 247.112C439.61 246.145 437.195 244.518 435.285 242.379C435.285 242.379 434.85 247.249 433.085 250.114C431.32 252.979 430.747 252.83 430.747 252.83Z" fill="white" stroke="#263238" stroke-miterlimit="10"/>
<path d="M442.012 253.976C440.243 253.052 438.279 252.561 436.282 252.544C434.569 252.476 432.864 252.818 431.309 253.541C431.309 253.541 431.309 258.411 432.924 260.279C434.54 262.147 439.216 261.563 440.534 259.993C441.852 258.423 442.012 253.976 442.012 253.976Z" fill="#263238" stroke="#263238" stroke-miterlimit="10"/>
<path d="M444.063 253.976C445.833 253.052 447.797 252.561 449.793 252.544C451.507 252.476 453.212 252.818 454.767 253.541C454.767 253.541 454.767 258.411 453.151 260.279C451.535 262.147 446.86 261.563 445.553 259.993C444.247 258.423 444.063 253.976 444.063 253.976Z" fill="#263238" stroke="#263238" stroke-miterlimit="10"/>
<path d="M442.012 253.977H444.064" stroke="#263238" stroke-miterlimit="10"/>
<path d="M411.884 344.728L421.155 344.453L428.18 350.779C428.169 351.588 427.872 352.367 427.343 352.979C426.495 353.805 424.249 353.254 424.249 353.254C424.249 353.254 422.565 357.38 419.47 357.38C416.376 357.38 408.01 351.65 408.01 351.65L411.884 344.728Z" fill="white" stroke="#263238" stroke-miterlimit="10"/>
<path d="M411.609 290.82L380.426 331.801L407.953 351.604L411.884 344.728L403.461 328.501L414.978 318.049L411.609 290.82Z" fill="#D7EAE4" stroke="#263238" stroke-miterlimit="10"/>
<path d="M409.638 340.053L404.87 348.579" stroke="#263238" stroke-linecap="round" stroke-linejoin="round"/>
<path d="M403.461 328.501L399.805 319.149" stroke="#263238" stroke-linecap="round" stroke-linejoin="round"/>
<path d="M476.22 344.728L466.949 344.453L459.924 350.779C459.939 351.59 460.239 352.369 460.772 352.979C461.609 353.805 463.855 353.254 463.855 353.254C463.855 353.254 465.54 357.38 468.634 357.38C471.728 357.38 480.151 351.65 480.151 351.65L476.22 344.728Z" fill="white" stroke="#263238" stroke-miterlimit="10"/>
<path d="M476.22 288.62L507.678 331.801L480.151 351.604L476.22 344.728L484.643 328.501L471.442 317.774L476.22 288.62Z" fill="#D7EAE4" stroke="#263238" stroke-miterlimit="10"/>
<path d="M478.467 340.053L483.234 348.579" stroke="#263238" stroke-linecap="round" stroke-linejoin="round"/>
<path d="M484.643 328.501L488.299 319.149" stroke="#263238" stroke-linecap="round" stroke-linejoin="round"/>
<path d="M93.7658 476.461C93.7658 476.461 80.5638 483.887 80.5638 487.463C80.5638 491.038 88.7119 488.838 94.0523 486.317C99.3926 483.795 103.598 481.916 103.598 476.965C103.598 472.014 93.7658 476.461 93.7658 476.461Z" fill="#D7EAE4" stroke="#263238" stroke-miterlimit="10"/>
<path d="M157.002 476.461C157.002 476.461 170.204 483.887 170.204 487.463C170.204 491.038 162.067 488.838 156.727 486.317C151.386 483.795 147.169 481.916 147.169 476.965C147.169 472.014 157.002 476.461 157.002 476.461Z" fill="#D7EAE4" stroke="#263238" stroke-miterlimit="10"/>
<path d="M99.106 354.905L93.4906 477.882C94.2663 478.522 95.164 478.999 96.1291 479.283C97.0943 479.566 98.1071 479.651 99.106 479.532C100.852 479.274 102.447 478.395 103.598 477.057L122.702 376.679H126.633L146.86 478.982C148.069 479.651 149.412 480.043 150.791 480.128C152.762 480.128 155.844 477.653 155.844 477.653L149.381 355.031L99.106 354.905Z" fill="#1B4B3B" stroke="#263238" stroke-miterlimit="10"/>
<path d="M118.771 280.38L93.2041 290.82L99.9426 350.229H148.831L157.816 288.62L130.002 279.83L118.771 280.38Z" fill="#D7EAE4" stroke="#263238" stroke-miterlimit="10"/>
<path d="M149.393 349.129H99.1061V354.905H149.393V349.129Z" fill="#263238" stroke="#263238" stroke-miterlimit="10"/>
<path d="M98.258 353.805L89.5484 357.38C89.4055 359.869 89.5944 362.367 90.1099 364.806C90.958 368.107 92.081 375.258 92.9291 376.633C93.7771 378.008 97.9829 380.758 98.5445 379.933C99.106 379.108 101.914 354.905 101.914 354.905L98.258 353.805Z" fill="#263238" stroke="#263238" stroke-miterlimit="10"/>
<path d="M117.912 267.58V277.607L125.223 285.194L132.684 277.458V267.431L117.912 267.58Z" fill="white" stroke="#263238" stroke-miterlimit="10"/>
<path d="M112.789 258.274C112.789 258.274 111.471 255.26 110.589 257.128C109.707 258.996 110.738 261.85 112.056 262.996C113.029 263.699 114.234 264.006 115.425 263.855L114.692 259.558L112.789 258.274Z" fill="white" stroke="#263238" stroke-miterlimit="10"/>
<path d="M136.626 258.274C136.626 258.274 137.944 255.26 138.826 257.128C139.709 258.996 138.677 261.85 137.359 262.996C136.39 263.698 135.19 264.006 134.002 263.855L134.724 259.558L136.626 258.274Z" fill="white" stroke="#263238" stroke-miterlimit="10"/>
<path d="M115.276 238.368C115.276 238.368 109.134 240.946 109.134 245.244C109.134 249.541 110.005 254.412 111.426 256.28C112.847 258.148 114.061 259.431 114.061 259.431L114.348 253.266L118.588 245.966C118.588 245.966 125.613 250.401 129.12 250.401C131.08 250.418 133.039 250.277 134.976 249.977L136.294 257.277L138.196 251.982V247.112C138.196 247.112 141.703 243.811 140.969 241.668C140.236 239.525 128.363 232.787 121.075 234.506C113.786 236.225 115.276 238.368 115.276 238.368Z" fill="#263238" stroke="#263238" stroke-miterlimit="10"/>
<path d="M112.308 252.83C112.308 252.83 114.073 263.568 115.528 266.433C117.48 269.619 119.868 272.515 122.622 275.04C123.642 275.75 127.447 275.177 128.914 275.177C130.38 275.177 134.644 266.582 135.354 265.012C136.065 263.442 136.5 249.977 136.5 249.977L135.228 247.536C135.228 247.536 128.936 249.117 123.963 247.112C121.263 246.145 118.848 244.518 116.938 242.379C116.938 242.379 116.502 247.249 114.749 250.114C112.996 252.979 112.308 252.83 112.308 252.83Z" fill="white" stroke="#263238" stroke-miterlimit="10"/>
<path d="M123.607 253.976C121.838 253.052 119.874 252.561 117.877 252.544C116.164 252.476 114.459 252.818 112.904 253.541C112.904 253.541 112.904 258.411 114.508 260.279C116.113 262.147 120.8 261.563 122.118 259.993C123.436 258.423 123.607 253.976 123.607 253.976Z" fill="#263238" stroke="#263238" stroke-miterlimit="10"/>
<path d="M125.659 253.976C127.428 253.052 129.392 252.561 131.389 252.544C133.102 252.476 134.807 252.818 136.362 253.541C136.362 253.541 136.362 258.411 134.747 260.279C133.131 262.147 128.467 261.563 127.149 259.993C125.831 258.423 125.659 253.976 125.659 253.976Z" fill="#263238" stroke="#263238" stroke-miterlimit="10"/>
<path d="M123.608 253.977H125.659" stroke="#263238" stroke-miterlimit="10"/>
<path d="M121.579 288.895L124.662 293.846L119.608 336.477L125.796 345.553L131.125 335.652L126.92 293.296L130.564 287.531L125.223 285.194L121.579 288.895Z" fill="#1B4B3B" stroke="#263238" stroke-miterlimit="10"/>
<path d="M125.223 285.193L121.121 292.218L113.809 282.477L117.912 277.607L125.223 285.193Z" fill="#D7EAE4" stroke="#263238" stroke-miterlimit="10"/>
<path d="M125.223 285.194L130.197 292.929L136.191 281.905L132.684 277.458L125.223 285.194Z" fill="#D7EAE4" stroke="#263238" stroke-miterlimit="10"/>
<path d="M93.2041 290.82L62.0215 331.801L89.5484 351.604L93.4906 344.728L85.0561 328.501L96.5734 318.049L93.2041 290.82Z" fill="#D7EAE4" stroke="#263238" stroke-miterlimit="10"/>
<path d="M93.4907 344.728L102.75 344.453L109.775 350.779C109.764 351.588 109.468 352.367 108.939 352.979C108.091 353.805 105.845 353.254 105.845 353.254C105.845 353.254 104.16 357.38 101.066 357.38C97.9715 357.38 89.6057 351.65 89.6057 351.65L93.4907 344.728Z" fill="white" stroke="#263238" stroke-miterlimit="10"/>
<path d="M91.2445 340.053L86.4657 348.579" stroke="#263238" stroke-linecap="round" stroke-linejoin="round"/>
<path d="M85.056 328.501L81.4117 319.149" stroke="#263238" stroke-linecap="round" stroke-linejoin="round"/>
<path d="M157.816 288.62L189.273 331.801L161.746 351.604L157.816 344.728L166.239 328.501L153.037 317.774L157.816 288.62Z" fill="#D7EAE4" stroke="#263238" stroke-miterlimit="10"/>
<path d="M157.816 344.728L148.545 344.453L141.52 350.779C141.534 351.59 141.834 352.369 142.368 352.979C143.204 353.805 145.45 353.254 145.45 353.254C145.45 353.254 147.135 357.38 150.229 357.38C153.323 357.38 161.689 351.65 161.689 351.65L157.816 344.728Z" fill="white" stroke="#263238" stroke-miterlimit="10"/>
<path d="M160.062 340.053L164.841 348.579" stroke="#263238" stroke-linecap="round" stroke-linejoin="round"/>
<path d="M166.239 328.501L169.895 319.149" stroke="#263238" stroke-linecap="round" stroke-linejoin="round"/>
<path d="M115.299 301.822H98.0746V307.69L106.693 310.99L115.299 307.323V301.822Z" fill="#D7EAE4" stroke="#263238" stroke-miterlimit="10"/>
<path d="M149.759 301.822H132.535V307.69L141.153 310.99L149.759 307.323V301.822Z" fill="#D7EAE4" stroke="#263238" stroke-miterlimit="10"/>
</svg>
