<svg width="99" height="65" viewBox="0 0 99 65" fill="none" xmlns="http://www.w3.org/2000/svg">
<path d="M15.3783 51.7762C15.8022 51.7762 16.1672 51.6531 16.4733 51.404C16.7793 51.1549 16.9338 50.7995 16.9338 50.3349C16.9338 49.9823 16.8102 49.6773 16.5659 49.4226C16.3217 49.1679 15.9932 49.0392 15.5776 49.0392C15.2968 49.0392 15.0638 49.0784 14.8813 49.1567C14.6988 49.2351 14.5556 49.3386 14.4489 49.4674C14.3422 49.5961 14.2439 49.7612 14.1484 49.9627C14.053 50.1642 13.9687 50.3545 13.8901 50.5336C13.8452 50.6288 13.761 50.7072 13.6402 50.7603C13.5195 50.8163 13.3819 50.8443 13.2247 50.8443C13.0394 50.8443 12.8709 50.7687 12.7165 50.6204C12.562 50.4721 12.4834 50.2734 12.4834 50.0243C12.4834 49.7864 12.5564 49.5345 12.7024 49.2687C12.8484 49.0056 13.059 48.7537 13.3398 48.5131C13.6178 48.2752 13.9659 48.0821 14.3815 47.9366C14.797 47.791 15.2603 47.7183 15.7713 47.7183C16.2178 47.7183 16.6277 47.7798 16.9955 47.9002C17.3634 48.0233 17.6863 48.1968 17.9558 48.4263C18.2282 48.6558 18.4331 48.9217 18.5707 49.2267C18.7083 49.5289 18.7785 49.8564 18.7785 50.2062C18.7785 50.6652 18.6774 51.0598 18.4781 51.3872C18.2787 51.7146 17.9895 52.0365 17.6161 52.3499C17.9755 52.543 18.2787 52.7641 18.5258 53.0132C18.7729 53.2623 18.9582 53.5365 19.0817 53.836C19.2053 54.1382 19.2699 54.4629 19.2699 54.8127C19.2699 55.2297 19.1856 55.6355 19.0172 56.0245C18.8487 56.4163 18.6016 56.7633 18.2731 57.0683C17.9446 57.3734 17.5571 57.6141 17.1079 57.7848C16.6586 57.9583 16.1616 58.0423 15.6169 58.0423C15.0638 58.0423 14.5668 57.9443 14.1288 57.7456C13.6908 57.5469 13.3286 57.3006 13.0478 57.004C12.7642 56.7073 12.5508 56.3995 12.4048 56.0832C12.2588 55.767 12.1858 55.5039 12.1858 55.2968C12.1858 55.031 12.2728 54.8155 12.4441 54.6532C12.6154 54.4908 12.8316 54.4069 13.0899 54.4069C13.2191 54.4069 13.3426 54.4461 13.4633 54.5216C13.5841 54.5972 13.6627 54.6895 13.6992 54.7931C13.9379 55.4312 14.1962 55.9069 14.4713 56.2176C14.7465 56.5282 15.1312 56.6821 15.631 56.6821C15.9173 56.6821 16.1925 56.6122 16.4564 56.4722C16.7204 56.3323 16.9394 56.1252 17.1135 55.8482C17.2876 55.5711 17.3718 55.2521 17.3718 54.891C17.3718 54.3537 17.223 53.9311 16.9282 53.6261C16.6333 53.321 16.2234 53.1671 15.6983 53.1671C15.6057 53.1671 15.4625 53.1755 15.2687 53.1951C15.075 53.2147 14.9515 53.2231 14.8953 53.2231C14.6426 53.2231 14.4461 53.1587 14.3085 53.0328C14.1709 52.9068 14.1007 52.7305 14.1007 52.5066C14.1007 52.2856 14.1849 52.1093 14.3506 51.9721C14.5163 51.835 14.7633 51.7678 15.0919 51.7678H15.3783V51.7762Z" fill="white"/>
<path d="M20.8646 50.3352C20.8646 49.8763 20.991 49.4425 21.2409 49.0367C21.4936 48.6309 21.8614 48.3035 22.3472 48.06C22.8329 47.8165 23.4029 47.6934 24.0515 47.6934C24.599 47.6934 25.082 47.7633 25.4975 47.9061C25.9131 48.0488 26.2584 48.2447 26.5336 48.4966C26.8087 48.7484 27.0165 49.0311 27.1485 49.3445C27.2833 49.6608 27.3478 49.9938 27.3478 50.3464C27.3478 50.797 27.2327 51.2 26.9997 51.5526C26.7666 51.9052 26.4185 52.1963 25.958 52.4202C26.3511 52.5713 26.674 52.77 26.9323 53.0163C27.1906 53.2625 27.3843 53.548 27.5163 53.8698C27.6483 54.1945 27.7129 54.5527 27.7129 54.9473C27.7129 55.5266 27.5725 56.0527 27.2917 56.5229C27.0109 56.9931 26.5982 57.3625 26.0535 57.6283C25.5087 57.8942 24.8686 58.0285 24.1301 58.0285C23.3636 58.0285 22.7094 57.8942 22.1647 57.6283C21.6199 57.3625 21.21 56.9959 20.9348 56.5285C20.6569 56.0611 20.5193 55.5406 20.5193 54.9613C20.5193 53.7243 21.1061 52.8763 22.277 52.4174C21.3364 51.9836 20.8646 51.2867 20.8646 50.3352ZM25.8232 54.8969C25.8232 54.5387 25.7502 54.2253 25.6014 53.9594C25.4526 53.6935 25.2476 53.4892 24.9781 53.3465C24.7113 53.2038 24.4109 53.1338 24.0796 53.1338C23.6107 53.1338 23.2148 53.2905 22.8975 53.6012C22.5802 53.9146 22.4202 54.3512 22.4202 54.9109C22.4202 55.2691 22.496 55.5854 22.6448 55.8596C22.7936 56.1339 22.9986 56.3438 23.2569 56.4949C23.5152 56.6432 23.8044 56.7188 24.1217 56.7188C24.4446 56.7188 24.7338 56.6432 24.9921 56.4921C25.2504 56.341 25.4526 56.1255 25.6014 55.8512C25.7474 55.5742 25.8232 55.2579 25.8232 54.8969ZM24.0936 49.0115C23.6612 49.0115 23.3102 49.1458 23.0463 49.4145C22.7824 49.6832 22.6476 50.0302 22.6476 50.4528C22.6476 50.8446 22.7824 51.1692 23.0547 51.4295C23.3271 51.6897 23.6781 51.8185 24.1048 51.8185C24.321 51.8185 24.5176 51.7849 24.6973 51.7149C24.8742 51.645 25.0258 51.5498 25.155 51.4295C25.2813 51.3091 25.3796 51.1636 25.4498 50.9957C25.52 50.8278 25.5537 50.6431 25.5537 50.4416C25.5537 50.1701 25.4919 49.9266 25.3712 49.7111C25.2476 49.4957 25.0763 49.3249 24.8545 49.2018C24.6327 49.0731 24.38 49.0115 24.0936 49.0115Z" fill="white"/>
<path d="M30.8998 52.4092C31.2143 52.0369 31.554 51.7599 31.9246 51.5808C32.2924 51.4017 32.7052 51.3121 33.1629 51.3121C33.6009 51.3121 34.0052 51.3933 34.3758 51.5556C34.7465 51.7179 35.0722 51.9502 35.3501 52.2524C35.6281 52.5547 35.8443 52.9073 35.9959 53.3187C36.1475 53.7273 36.2234 54.1555 36.2234 54.6004C36.2234 55.2497 36.0745 55.8374 35.7769 56.3664C35.4793 56.8953 35.0637 57.3067 34.5331 57.6033C33.9996 57.9 33.3987 58.0483 32.7248 58.0483C31.9499 58.0483 31.2816 57.8608 30.7201 57.483C30.1585 57.1052 29.7289 56.5483 29.4313 55.8122C29.1337 55.0734 28.9849 54.1723 28.9849 53.106C28.9849 52.2384 29.0747 51.4604 29.2544 50.7748C29.4341 50.0891 29.6924 49.5238 30.0294 49.0732C30.3663 48.6227 30.7734 48.284 31.2536 48.0517C31.7337 47.8223 32.2784 47.7075 32.8933 47.7075C33.4829 47.7075 34.0024 47.8223 34.4516 48.0517C34.9009 48.2812 35.2406 48.5667 35.4681 48.9053C35.6955 49.2467 35.8106 49.5714 35.8106 49.8848C35.8106 50.0723 35.7404 50.2458 35.5972 50.397C35.454 50.5509 35.2715 50.6292 35.0497 50.6292C34.856 50.6292 34.6763 50.5677 34.5106 50.4473C34.3449 50.327 34.2214 50.1563 34.1428 49.9408C34.0361 49.6665 33.8676 49.4426 33.6374 49.2747C33.4071 49.1068 33.1404 49.0229 32.8343 49.0229C32.5901 49.0229 32.3458 49.0928 32.1043 49.2328C31.8628 49.3727 31.6579 49.563 31.4922 49.8009C31.1581 50.2906 30.9587 51.161 30.8998 52.4092ZM32.767 56.691C33.2331 56.691 33.6177 56.5007 33.921 56.1229C34.2242 55.7451 34.3786 55.2469 34.3786 54.6312C34.3786 54.2142 34.3084 53.8532 34.1652 53.5538C34.022 53.2515 33.8255 53.022 33.5784 52.8653C33.3313 52.7086 33.0562 52.6274 32.7557 52.6274C32.4693 52.6274 32.197 52.703 31.9359 52.8541C31.6747 53.0053 31.467 53.2263 31.3069 53.5118C31.1469 53.8001 31.0682 54.1359 31.0682 54.5221C31.0682 55.1434 31.2283 55.6583 31.5512 56.0725C31.8713 56.4839 32.2784 56.691 32.767 56.691Z" fill="white"/>
<path d="M42.4286 57.1861L40.7608 54.4575L39.736 55.423V56.9174C39.736 57.2813 39.6405 57.5583 39.4496 57.7542C39.2586 57.9501 39.0368 58.0481 38.7897 58.0481C38.5005 58.0481 38.2703 57.9501 38.1046 57.757C37.939 57.5639 37.8547 57.2785 37.8547 56.9034V48.8799C37.8547 48.4629 37.9362 48.1439 38.0962 47.9256C38.2562 47.7073 38.4893 47.5981 38.7869 47.5981C39.0761 47.5981 39.3064 47.6961 39.4776 47.8948C39.6489 48.0935 39.7331 48.3845 39.7331 48.7708V53.3352L41.8558 51.116C42.1198 50.8389 42.3191 50.6514 42.4567 50.5507C42.5943 50.4499 42.7628 50.3995 42.9621 50.3995C43.198 50.3995 43.3945 50.4751 43.5489 50.6234C43.7062 50.7717 43.7848 50.9592 43.7848 51.1859C43.7848 51.4602 43.5293 51.8296 43.0183 52.2886L42.0159 53.2065L43.9533 56.2402C44.0965 56.4641 44.1975 56.6376 44.2621 56.7523C44.3267 56.8671 44.3548 56.9818 44.3548 57.0853C44.3548 57.3848 44.2734 57.6199 44.1105 57.7934C43.9476 57.9669 43.7314 58.0509 43.4647 58.0509C43.2345 58.0509 43.0576 57.9893 42.9312 57.8634C42.8049 57.7374 42.6392 57.5135 42.4286 57.1861Z" fill="white"/>
<path d="M52.3736 54.2226C52.3736 54.7824 52.2866 55.3001 52.1097 55.7731C51.9328 56.246 51.6801 56.6518 51.3488 56.9932C51.0175 57.3347 50.6216 57.5949 50.1583 57.7768C49.6978 57.9588 49.1784 58.0483 48.6028 58.0483C48.03 58.0483 47.5162 57.956 47.0613 57.7713C46.6036 57.5865 46.2105 57.3235 45.8764 56.9821C45.5423 56.6406 45.2896 56.2348 45.1155 55.7675C44.9414 55.3001 44.8572 54.7852 44.8572 54.2198C44.8572 53.6489 44.9442 53.1284 45.1211 52.6554C45.2952 52.1825 45.5479 51.7767 45.8736 51.4436C46.2021 51.1078 46.598 50.8503 47.0641 50.6684C47.5302 50.4865 48.044 50.397 48.6056 50.397C49.1784 50.397 49.695 50.4893 50.1611 50.674C50.6272 50.8587 51.0259 51.119 51.3572 51.4604C51.6885 51.8019 51.9412 52.2049 52.1153 52.675C52.2866 53.1396 52.3736 53.6573 52.3736 54.2226ZM50.4784 54.2226C50.4784 53.4558 50.3099 52.8569 49.9702 52.4315C49.6304 52.0034 49.1756 51.7907 48.6056 51.7907C48.2378 51.7907 47.9121 51.8858 47.6313 52.0761C47.3505 52.2664 47.1343 52.5491 46.9799 52.9213C46.8254 53.2935 46.7524 53.7273 46.7524 54.2254C46.7524 54.718 46.8282 55.1462 46.9771 55.5156C47.1259 55.8822 47.3421 56.1649 47.62 56.3608C47.898 56.5567 48.2265 56.6546 48.6056 56.6546C49.1784 56.6546 49.6332 56.4391 49.9702 56.0109C50.3099 55.5744 50.4784 54.9811 50.4784 54.2226Z" fill="white"/>
<path d="M55.5747 51.4379V51.6646C55.906 51.228 56.271 50.9062 56.6641 50.7019C57.0572 50.4976 57.5121 50.394 58.0231 50.394C58.5201 50.394 58.9665 50.5032 59.3568 50.7187C59.7499 50.9342 60.0419 51.2392 60.2356 51.6366C60.3592 51.8661 60.4406 52.1152 60.4771 52.381C60.5136 52.6469 60.5333 52.9883 60.5333 53.4025V56.9036C60.5333 57.2814 60.4462 57.564 60.2749 57.7571C60.1009 57.9502 59.8762 58.0482 59.6011 58.0482C59.3203 58.0482 59.0929 57.9502 58.916 57.7515C58.7391 57.5528 58.652 57.2702 58.652 56.9036V53.7663C58.652 53.1451 58.565 52.6721 58.3937 52.3419C58.2225 52.0116 57.8771 51.8493 57.3605 51.8493C57.0235 51.8493 56.7175 51.9501 56.4395 52.1488C56.1615 52.3475 55.9594 52.6245 55.8302 52.9715C55.7375 53.2514 55.6926 53.7747 55.6926 54.5443V56.9008C55.6926 57.2814 55.6028 57.5668 55.4259 57.7599C55.249 57.9502 55.0188 58.0454 54.738 58.0454C54.4656 58.0454 54.241 57.9474 54.0669 57.7487C53.8928 57.55 53.803 57.2674 53.803 56.9008V51.4659C53.803 51.1077 53.8816 50.839 54.0388 50.6627C54.1961 50.4864 54.4095 50.3968 54.6818 50.3968C54.8475 50.3968 54.9991 50.436 55.1311 50.5144C55.2658 50.5927 55.3725 50.7103 55.454 50.867C55.5354 51.0209 55.5747 51.214 55.5747 51.4379Z" fill="white"/>
<path d="M68.4932 55.5881C68.4932 56.1086 68.3669 56.5508 68.1142 56.923C67.8615 57.2924 67.4852 57.5723 66.991 57.7626C66.4969 57.9529 65.8932 58.048 65.1828 58.048C64.5061 58.048 63.9249 57.9445 63.4392 57.7374C62.9562 57.5303 62.5968 57.2728 62.3666 56.9622C62.1364 56.6515 62.0212 56.3409 62.0212 56.0275C62.0212 55.8204 62.0942 55.6441 62.2431 55.4957C62.3919 55.3474 62.5772 55.2746 62.8046 55.2746C63.004 55.2746 63.1556 55.3222 63.2623 55.4202C63.369 55.5153 63.4701 55.6525 63.5655 55.826C63.7593 56.1618 63.9923 56.4109 64.2619 56.576C64.5314 56.7411 64.8992 56.8251 65.3653 56.8251C65.7444 56.8251 66.0532 56.7411 66.2947 56.5732C66.5362 56.4053 66.6569 56.215 66.6569 55.9967C66.6569 55.6664 66.5306 55.4258 66.2807 55.2718C66.0308 55.1207 65.6152 54.9752 65.0396 54.8381C64.3882 54.6785 63.8604 54.5078 63.4532 54.3315C63.0461 54.1552 62.7176 53.9201 62.4733 53.6319C62.229 53.3436 62.1055 52.9854 62.1055 52.5628C62.1055 52.185 62.2178 51.8296 62.4452 51.4938C62.6726 51.1579 63.004 50.8893 63.4448 50.6906C63.8856 50.4919 64.4163 50.3911 65.0396 50.3911C65.5282 50.3911 65.9662 50.4415 66.3565 50.5422C66.7468 50.643 67.0697 50.7801 67.3308 50.948C67.5919 51.1187 67.7885 51.3063 67.926 51.5133C68.0608 51.7204 68.131 51.9219 68.131 52.1206C68.131 52.3361 68.058 52.5124 67.912 52.6524C67.766 52.7895 67.561 52.8595 67.2943 52.8595C67.1005 52.8595 66.9349 52.8035 66.8001 52.6943C66.6653 52.5852 66.5081 52.4173 66.334 52.199C66.1908 52.0143 66.0224 51.8688 65.8286 51.7568C65.6349 51.6477 65.3709 51.5917 65.0396 51.5917C64.6971 51.5917 64.4135 51.6645 64.1889 51.81C63.9642 51.9555 63.8491 52.1346 63.8491 52.3501C63.8491 52.5488 63.9305 52.7111 64.099 52.8371C64.2647 52.963 64.4893 53.0694 64.7701 53.1505C65.0509 53.2345 65.4383 53.3352 65.9325 53.4528C66.5165 53.5955 66.9967 53.7662 67.3673 53.9621C67.7379 54.1608 68.0187 54.3931 68.2124 54.6618C68.3978 54.936 68.4932 55.2439 68.4932 55.5881Z" fill="white"/>
<path d="M74.996 56.9874V56.7467C74.7714 57.0322 74.5328 57.27 74.2829 57.4631C74.033 57.6562 73.7606 57.799 73.4658 57.8941C73.171 57.9893 72.834 58.034 72.455 58.034C71.9973 58.034 71.5902 57.9389 71.228 57.7514C70.8658 57.5639 70.585 57.3036 70.3885 56.9734C70.1526 56.5732 70.0347 55.9995 70.0347 55.2495V51.5189C70.0347 51.1411 70.1189 50.8613 70.2902 50.6738C70.4615 50.4863 70.6861 50.3939 70.9669 50.3939C71.2533 50.3939 71.4835 50.4891 71.6576 50.6766C71.8317 50.8641 71.9215 51.1439 71.9215 51.5161V54.5274C71.9215 54.964 71.958 55.3306 72.031 55.6273C72.104 55.9239 72.236 56.1562 72.4297 56.3241C72.6206 56.492 72.8818 56.576 73.2075 56.576C73.5248 56.576 73.8252 56.4808 74.106 56.2933C74.3867 56.1058 74.5917 55.8595 74.7209 55.5545C74.8276 55.2886 74.8809 54.7037 74.8809 53.8026V51.5133C74.8809 51.1411 74.968 50.8613 75.1449 50.6738C75.3189 50.4863 75.5492 50.3911 75.83 50.3911C76.1107 50.3911 76.3382 50.4835 76.5066 50.671C76.6751 50.8585 76.7621 51.1383 76.7621 51.5161V56.9678C76.7621 57.326 76.6807 57.5947 76.5151 57.7738C76.3494 57.9529 76.1416 58.0424 75.8833 58.0424C75.625 58.0424 75.4116 57.9501 75.2431 57.7626C75.0747 57.5751 74.996 57.3232 74.996 56.9874Z" fill="white"/>
<path d="M78.6462 56.9036V48.7429C78.6462 48.3651 78.7305 48.0796 78.8989 47.8893C79.0674 47.699 79.2948 47.6011 79.5812 47.6011C79.8676 47.6011 80.0979 47.6962 80.272 47.8865C80.446 48.0768 80.5359 48.3623 80.5359 48.7457V56.9064C80.5359 57.287 80.446 57.5724 80.2692 57.7655C80.0923 57.9558 79.862 58.051 79.5812 58.051C79.3033 58.051 79.0786 57.953 78.9074 57.7543C78.7333 57.5556 78.6462 57.273 78.6462 56.9036Z" fill="white"/>
<path d="M82.5884 50.5619H82.7962V49.4313C82.7962 49.129 82.8046 48.8911 82.8215 48.7176C82.8383 48.5441 82.8833 48.3986 82.9563 48.2726C83.0293 48.1439 83.136 48.0404 83.2735 47.9592C83.4111 47.878 83.5656 47.8389 83.7368 47.8389C83.9755 47.8389 84.1945 47.9284 84.3882 48.1075C84.5174 48.2279 84.5988 48.3734 84.6325 48.5441C84.6662 48.7176 84.6831 48.9611 84.6831 49.2773V50.5591H85.3738C85.6405 50.5591 85.8455 50.6235 85.9859 50.7494C86.1263 50.8753 86.1965 51.0377 86.1965 51.2364C86.1965 51.4882 86.0954 51.6673 85.896 51.7681C85.6967 51.8688 85.4075 51.9192 85.034 51.9192H84.6802V55.3811C84.6802 55.6749 84.6915 55.9016 84.7111 56.0611C84.7308 56.2206 84.7869 56.3494 84.8768 56.4473C84.9666 56.5453 85.1127 56.5956 85.3148 56.5956C85.4243 56.5956 85.5759 56.5761 85.7641 56.5369C85.9522 56.4977 86.101 56.4781 86.2077 56.4781C86.3593 56.4781 86.4969 56.5397 86.6176 56.66C86.7412 56.7832 86.8001 56.9315 86.8001 57.1106C86.8001 57.4128 86.6345 57.6451 86.3032 57.8074C85.9718 57.967 85.4945 58.0481 84.8712 58.0481C84.2815 58.0481 83.8323 57.9502 83.529 57.7515C83.2258 57.5528 83.0265 57.2813 82.931 56.9315C82.8355 56.5816 82.7878 56.1171 82.7878 55.5322V51.9192H82.5491C82.2768 51.9192 82.069 51.8548 81.9258 51.7261C81.7826 51.5974 81.7124 51.4351 81.7124 51.2364C81.7124 51.0377 81.7882 50.8781 81.937 50.7494C82.0858 50.6263 82.3049 50.5619 82.5884 50.5619Z" fill="white"/>
<g opacity="0.88">
<g opacity="0.88">
<path opacity="0.88" d="M41.6564 13.7018L30.0546 15.4006C28.4009 15.6441 27.0026 16.7467 26.3877 18.2943L22.0637 29.1584C21.4488 30.7061 21.7071 32.4636 22.7432 33.7705L30.0209 42.9331C31.057 44.24 32.7164 44.8949 34.3674 44.6514L45.9692 42.9527C47.623 42.7092 49.0213 41.6066 49.6362 40.0589L53.9602 29.1948C54.5751 27.6472 54.3168 25.8897 53.2807 24.5827L46.0029 15.4202C44.9668 14.116 43.3102 13.4584 41.6564 13.7018Z" fill="white"/>
</g>
<g opacity="0.53">
<path opacity="0.53" d="M54.6594 13.7018L66.2612 15.4006C67.915 15.6441 69.3133 16.7467 69.9282 18.2943L74.2522 29.1584C74.8671 30.7061 74.6088 32.4636 73.5727 33.7705L66.2949 42.9331C65.2588 44.24 63.5994 44.8949 61.9485 44.6514L50.3466 42.9527C48.6928 42.7092 47.2946 41.6066 46.6797 40.0589L42.3557 29.1948C41.7408 27.6472 41.9991 25.8897 43.0351 24.5827L50.3129 15.4202C51.349 14.116 53.0056 13.4584 54.6594 13.7018Z" fill="white"/>
</g>
</g>
<g opacity="0.88">
<path opacity="0.88" d="M56.0042 6.95166H40.3142C38.6436 6.95166 37.0993 7.83881 36.2626 9.28288L28.4176 22.828C27.5809 24.2693 27.5809 26.0464 28.4176 27.4905L36.2626 41.0357C37.0993 42.4769 38.6408 43.3669 40.3142 43.3669H56.0042C57.6748 43.3669 59.2191 42.4797 60.0558 41.0357L67.9008 27.4905C68.7375 26.0492 68.7375 24.2721 67.9008 22.828L60.0558 9.28288C59.2191 7.83881 57.6748 6.95166 56.0042 6.95166Z" fill="white"/>
</g>
</svg>
