<svg width="80" height="55" viewBox="0 0 80 55" fill="none" xmlns="http://www.w3.org/2000/svg">
<path d="M3.42289 48.2185C3.87747 48.2185 4.26883 48.0861 4.59697 47.8181C4.92511 47.5502 5.09069 47.1679 5.09069 46.6681C5.09069 46.2888 4.95823 45.9607 4.69632 45.6867C4.43441 45.4128 4.08218 45.2743 3.63664 45.2743C3.33559 45.2743 3.08572 45.3164 2.89004 45.4007C2.69436 45.485 2.54083 45.5964 2.42643 45.7349C2.31203 45.8734 2.20667 46.051 2.10431 46.2678C2.00196 46.4845 1.91164 46.6892 1.82735 46.8819C1.77918 46.9842 1.68887 47.0685 1.55942 47.1257C1.42997 47.1859 1.28246 47.216 1.11387 47.216C0.915179 47.216 0.734552 47.1348 0.568977 46.9752C0.403402 46.8157 0.319108 46.6019 0.319108 46.334C0.319108 46.0781 0.397381 45.8072 0.553925 45.5212C0.710469 45.2382 0.936252 44.9672 1.2373 44.7083C1.53533 44.4524 1.90863 44.2447 2.35418 44.0882C2.79973 43.9316 3.29645 43.8534 3.84436 43.8534C4.32302 43.8534 4.76255 43.9196 5.15692 44.049C5.55129 44.1815 5.89749 44.3682 6.1865 44.615C6.47851 44.8619 6.69828 45.1479 6.84579 45.476C6.9933 45.8011 7.06856 46.1534 7.06856 46.5297C7.06856 47.0234 6.96018 47.4479 6.74644 47.8001C6.5327 48.1523 6.22262 48.4985 5.82223 48.8357C6.20757 49.0434 6.5327 49.2812 6.79762 49.5492C7.06254 49.8171 7.26123 50.1121 7.39369 50.4342C7.52615 50.7594 7.59539 51.1086 7.59539 51.4849C7.59539 51.9334 7.50508 52.37 7.32445 52.7884C7.14382 53.2099 6.8789 53.5832 6.52668 53.9113C6.17446 54.2395 5.75901 54.4984 5.27734 54.682C4.79566 54.8686 4.26281 54.959 3.67878 54.959C3.08572 54.959 2.55287 54.8536 2.08324 54.6398C1.61361 54.4261 1.22526 54.1612 0.924211 53.8421C0.620155 53.523 0.39136 53.1918 0.234816 52.8516C0.0782716 52.5114 0 52.2285 0 52.0057C0 51.7197 0.0933237 51.4879 0.276962 51.3133C0.4606 51.1387 0.692405 51.0484 0.969368 51.0484C1.10785 51.0484 1.24031 51.0905 1.36976 51.1718C1.49921 51.2531 1.5835 51.3524 1.62264 51.4638C1.87853 52.1502 2.15549 52.662 2.45052 52.9961C2.74554 53.3303 3.15797 53.4959 3.69383 53.4959C4.0009 53.4959 4.29593 53.4206 4.57891 53.2701C4.86189 53.1196 5.09671 52.8968 5.28336 52.5988C5.47001 52.3007 5.56032 51.9575 5.56032 51.5692C5.56032 50.9912 5.40077 50.5366 5.08467 50.2084C4.76857 49.8803 4.32904 49.7147 3.76609 49.7147C3.66674 49.7147 3.51321 49.7238 3.30549 49.7448C3.09776 49.7659 2.9653 49.7749 2.90509 49.7749C2.63415 49.7749 2.42342 49.7057 2.27591 49.5702C2.1284 49.4348 2.05313 49.2451 2.05313 49.0043C2.05313 48.7664 2.14345 48.5768 2.32107 48.4293C2.49868 48.2818 2.7636 48.2095 3.11583 48.2095H3.42289V48.2185Z" fill="#141414"/>
<path d="M9.30534 46.6682C9.30534 46.1745 9.44082 45.7078 9.70875 45.2713C9.97969 44.8348 10.3741 44.4826 10.8949 44.2207C11.4157 43.9588 12.0268 43.8263 12.7222 43.8263C13.3093 43.8263 13.8271 43.9016 14.2726 44.0551C14.7182 44.2086 15.0884 44.4194 15.3835 44.6903C15.6785 44.9612 15.9013 45.2653 16.0428 45.6025C16.1873 45.9427 16.2565 46.3009 16.2565 46.6802C16.2565 47.1649 16.1331 47.5984 15.8832 47.9777C15.6333 48.357 15.26 48.6701 14.7663 48.911C15.1878 49.0735 15.534 49.2873 15.811 49.5522C16.0879 49.8171 16.2956 50.1242 16.4371 50.4704C16.5786 50.8196 16.6479 51.2049 16.6479 51.6294C16.6479 52.2526 16.4973 52.8185 16.1963 53.3243C15.8952 53.8301 15.4527 54.2274 14.8687 54.5134C14.2846 54.7994 13.5983 54.9439 12.8065 54.9439C11.9847 54.9439 11.2832 54.7994 10.6992 54.5134C10.1152 54.2274 9.67563 53.8331 9.38061 53.3303C9.08257 52.8276 8.93506 52.2676 8.93506 51.6445C8.93506 50.3138 9.56424 49.4017 10.8196 48.908C9.8111 48.4413 9.30534 47.6917 9.30534 46.6682ZM14.6218 51.5752C14.6218 51.1899 14.5435 50.8527 14.384 50.5667C14.2244 50.2807 14.0047 50.061 13.7157 49.9074C13.4297 49.7539 13.1076 49.6786 12.7523 49.6786C12.2496 49.6786 11.8251 49.8472 11.4849 50.1814C11.1447 50.5185 10.9731 50.9882 10.9731 51.5903C10.9731 51.9756 11.0544 52.3158 11.214 52.6108C11.3735 52.9058 11.5933 53.1316 11.8703 53.2942C12.1472 53.4537 12.4573 53.535 12.7975 53.535C13.1437 53.535 13.4538 53.4537 13.7307 53.2912C14.0077 53.1286 14.2244 52.8968 14.384 52.6018C14.5405 52.3038 14.6218 51.9636 14.6218 51.5752ZM12.7674 45.2442C12.3038 45.2442 11.9275 45.3887 11.6445 45.6777C11.3615 45.9667 11.217 46.34 11.217 46.7946C11.217 47.2161 11.3615 47.5653 11.6535 47.8453C11.9455 48.1252 12.3218 48.2637 12.7794 48.2637C13.0112 48.2637 13.222 48.2276 13.4146 48.1523C13.6043 48.0771 13.7668 47.9747 13.9053 47.8453C14.0408 47.7158 14.1462 47.5593 14.2214 47.3786C14.2967 47.198 14.3328 46.9993 14.3328 46.7826C14.3328 46.4906 14.2666 46.2286 14.1371 45.9968C14.0047 45.765 13.821 45.5814 13.5832 45.4489C13.3454 45.3105 13.0744 45.2442 12.7674 45.2442Z" fill="#141414"/>
<path d="M20.0646 48.8989C20.4018 48.4985 20.766 48.2005 21.1634 48.0078C21.5578 47.8151 22.0003 47.7188 22.491 47.7188C22.9607 47.7188 23.3942 47.8061 23.7916 47.9807C24.1889 48.1553 24.5382 48.4052 24.8362 48.7303C25.1342 49.0555 25.366 49.4348 25.5286 49.8773C25.6912 50.3168 25.7724 50.7774 25.7724 51.2561C25.7724 51.9545 25.6129 52.5867 25.2938 53.1557C24.9747 53.7247 24.5291 54.1672 23.9601 54.4863C23.3882 54.8054 22.7439 54.965 22.0214 54.965C21.1905 54.965 20.474 54.7633 19.8719 54.3569C19.2698 53.9505 18.8092 53.3514 18.4901 52.5596C18.171 51.7649 18.0115 50.7955 18.0115 49.6485C18.0115 48.7153 18.1078 47.8784 18.3005 47.1408C18.4931 46.4032 18.7701 45.7951 19.1314 45.3104C19.4926 44.8258 19.9291 44.4615 20.4439 44.2116C20.9587 43.9648 21.5427 43.8413 22.202 43.8413C22.8342 43.8413 23.3912 43.9648 23.8728 44.2116C24.3545 44.4585 24.7188 44.7656 24.9626 45.1298C25.2065 45.4971 25.3299 45.8463 25.3299 46.1835C25.3299 46.3852 25.2546 46.5718 25.1011 46.7344C24.9476 46.9 24.7519 46.9843 24.5141 46.9843C24.3063 46.9843 24.1137 46.918 23.9361 46.7886C23.7584 46.6591 23.626 46.4755 23.5417 46.2437C23.4273 45.9487 23.2467 45.7078 22.9998 45.5272C22.753 45.3466 22.467 45.2563 22.1388 45.2563C21.8769 45.2563 21.615 45.3315 21.3561 45.482C21.0972 45.6326 20.8774 45.8373 20.6998 46.0932C20.3416 46.62 20.1278 47.5562 20.0646 48.8989ZM22.0666 53.5049C22.5663 53.5049 22.9787 53.3002 23.3039 52.8938C23.629 52.4874 23.7946 51.9515 23.7946 51.2892C23.7946 50.8407 23.7193 50.4523 23.5658 50.1302C23.4122 49.8051 23.2015 49.5582 22.9366 49.3896C22.6717 49.221 22.3766 49.1337 22.0545 49.1337C21.7475 49.1337 21.4554 49.215 21.1755 49.3776C20.8955 49.5401 20.6727 49.778 20.5011 50.085C20.3295 50.3951 20.2452 50.7564 20.2452 51.1718C20.2452 51.8401 20.4168 52.3941 20.763 52.8396C21.1062 53.2821 21.5427 53.5049 22.0666 53.5049Z" fill="#141414"/>
<path d="M32.4258 54.0378L30.6376 51.1026L29.5387 52.1412V53.7488C29.5387 54.1401 29.4364 54.4382 29.2317 54.6489C29.027 54.8596 28.7891 54.965 28.5242 54.965C28.2141 54.965 27.9673 54.8596 27.7897 54.6519C27.612 54.4442 27.5217 54.1371 27.5217 53.7337V45.1027C27.5217 44.6542 27.609 44.311 27.7806 44.0762C27.9522 43.8413 28.2021 43.7239 28.5212 43.7239C28.8313 43.7239 29.0781 43.8293 29.2618 44.043C29.4454 44.2568 29.5357 44.5699 29.5357 44.9853V49.8954L31.8116 47.5081C32.0946 47.21 32.3084 47.0084 32.4559 46.9C32.6034 46.7916 32.784 46.7374 32.9978 46.7374C33.2506 46.7374 33.4614 46.8187 33.6269 46.9782C33.7955 47.1378 33.8798 47.3395 33.8798 47.5833C33.8798 47.8784 33.6059 48.2758 33.058 48.7695L31.9832 49.7569L34.0604 53.0202C34.214 53.2611 34.3224 53.4477 34.3916 53.5712C34.4608 53.6946 34.4909 53.818 34.4909 53.9294C34.4909 54.2515 34.4036 54.5044 34.229 54.691C34.0544 54.8777 33.8226 54.968 33.5366 54.968C33.2898 54.968 33.1001 54.9018 32.9646 54.7663C32.8292 54.6308 32.6516 54.39 32.4258 54.0378Z" fill="#141414"/>
<path d="M43.0888 50.8497C43.0888 51.4518 42.9955 52.0087 42.8058 52.5175C42.6161 53.0263 42.3452 53.4628 41.99 53.8301C41.6347 54.1973 41.2103 54.4773 40.7135 54.673C40.2198 54.8687 39.6629 54.965 39.0457 54.965C38.4316 54.965 37.8807 54.8657 37.393 54.667C36.9023 54.4683 36.4808 54.1853 36.1226 53.818C35.7643 53.4507 35.4934 53.0142 35.3067 52.5115C35.1201 52.0087 35.0298 51.4548 35.0298 50.8467C35.0298 50.2326 35.1231 49.6726 35.3128 49.1638C35.4994 48.6551 35.7704 48.2186 36.1196 47.8603C36.4718 47.4991 36.8963 47.2221 37.396 47.0264C37.8957 46.8307 38.4467 46.7344 39.0488 46.7344C39.6629 46.7344 40.2168 46.8338 40.7165 47.0324C41.2163 47.2311 41.6438 47.5111 41.999 47.8784C42.3542 48.2457 42.6252 48.6792 42.8118 49.1849C42.9955 49.6847 43.0888 50.2416 43.0888 50.8497ZM41.0567 50.8497C41.0567 50.0248 40.8761 49.3806 40.5118 48.923C40.1476 48.4624 39.6599 48.2336 39.0488 48.2336C38.6544 48.2336 38.3052 48.336 38.0041 48.5407C37.7031 48.7454 37.4713 49.0495 37.3057 49.4498C37.1401 49.8502 37.0618 50.3169 37.0618 50.8527C37.0618 51.3826 37.1431 51.8432 37.3027 52.2405C37.4622 52.6349 37.694 52.939 37.9921 53.1497C38.2901 53.3604 38.6423 53.4658 39.0488 53.4658C39.6629 53.4658 40.1506 53.234 40.5118 52.7734C40.8761 52.3038 41.0567 51.6655 41.0567 50.8497Z" fill="#141414"/>
<path d="M46.5207 47.8543V48.0981C46.8759 47.6285 47.2673 47.2823 47.6888 47.0625C48.1102 46.8428 48.5979 46.7314 49.1458 46.7314C49.6787 46.7314 50.1573 46.8488 50.5758 47.0806C50.9973 47.3124 51.3103 47.6405 51.5181 48.068C51.6505 48.3149 51.7378 48.5828 51.777 48.8688C51.8161 49.1548 51.8372 49.5221 51.8372 49.9676V53.7337C51.8372 54.1401 51.7438 54.4442 51.5602 54.6519C51.3736 54.8596 51.1327 54.965 50.8377 54.965C50.5367 54.965 50.2928 54.8596 50.1031 54.6459C49.9135 54.4321 49.8202 54.1281 49.8202 53.7337V50.359C49.8202 49.6907 49.7268 49.1819 49.5432 48.8267C49.3596 48.4714 48.9893 48.2968 48.4353 48.2968C48.0741 48.2968 47.746 48.4052 47.4479 48.6189C47.1499 48.8327 46.9331 49.1307 46.7946 49.504C46.6953 49.8051 46.6471 50.368 46.6471 51.1959V53.7307C46.6471 54.1401 46.5508 54.4472 46.3611 54.6549C46.1715 54.8596 45.9246 54.962 45.6236 54.962C45.3316 54.962 45.0907 54.8566 44.9041 54.6429C44.7174 54.4291 44.6211 54.1251 44.6211 53.7307V47.8844C44.6211 47.499 44.7054 47.21 44.874 47.0204C45.0426 46.8307 45.2714 46.7344 45.5634 46.7344C45.741 46.7344 45.9036 46.7765 46.045 46.8608C46.1895 46.9451 46.3039 47.0716 46.3912 47.2401C46.4785 47.4057 46.5207 47.6134 46.5207 47.8543Z" fill="#141414"/>
<path d="M60.3717 52.3188C60.3717 52.8788 60.2363 53.3544 59.9653 53.7548C59.6944 54.1522 59.291 54.4532 58.7611 54.6579C58.2313 54.8627 57.584 54.965 56.8224 54.965C56.0969 54.965 55.4737 54.8536 54.9529 54.6309C54.4351 54.4081 54.0498 54.1311 53.8029 53.797C53.556 53.4628 53.4326 53.1286 53.4326 52.7915C53.4326 52.5687 53.5109 52.379 53.6704 52.2195C53.83 52.0599 54.0287 51.9816 54.2725 51.9816C54.4863 51.9816 54.6488 52.0328 54.7632 52.1382C54.8776 52.2405 54.986 52.3881 55.0884 52.5747C55.2961 52.936 55.546 53.2039 55.835 53.3815C56.124 53.5591 56.5183 53.6494 57.0181 53.6494C57.4245 53.6494 57.7556 53.5591 58.0145 53.3785C58.2734 53.1979 58.4029 52.9932 58.4029 52.7583C58.4029 52.4031 58.2674 52.1442 57.9995 51.9786C57.7316 51.8161 57.286 51.6595 56.6689 51.512C55.9704 51.3404 55.4045 51.1568 54.968 50.9671C54.5314 50.7775 54.1792 50.5246 53.9173 50.2145C53.6554 49.9044 53.5229 49.5191 53.5229 49.0645C53.5229 48.6581 53.6433 48.2758 53.8872 47.9145C54.131 47.5533 54.4863 47.2643 54.9589 47.0505C55.4316 46.8368 56.0005 46.7284 56.6689 46.7284C57.1927 46.7284 57.6623 46.7826 58.0808 46.891C58.4992 46.9993 58.8454 47.1468 59.1254 47.3275C59.4054 47.5111 59.6161 47.7128 59.7636 47.9356C59.9081 48.1584 59.9834 48.3751 59.9834 48.5889C59.9834 48.8207 59.9051 49.0103 59.7486 49.1608C59.592 49.3084 59.3723 49.3836 59.0863 49.3836C58.8785 49.3836 58.7009 49.3234 58.5564 49.206C58.4119 49.0886 58.2433 48.908 58.0567 48.6732C57.9032 48.4745 57.7225 48.3179 57.5148 48.1975C57.3071 48.0801 57.0241 48.0199 56.6689 48.0199C56.3016 48.0199 55.9975 48.0982 55.7567 48.2547C55.5159 48.4112 55.3924 48.6039 55.3924 48.8357C55.3924 49.0495 55.4797 49.2241 55.6604 49.3595C55.838 49.495 56.0788 49.6094 56.3799 49.6967C56.6809 49.787 57.0964 49.8954 57.6262 50.0218C58.2524 50.1754 58.7672 50.359 59.1645 50.5697C59.5619 50.7835 59.863 51.0334 60.0707 51.3224C60.2694 51.6174 60.3717 51.9485 60.3717 52.3188Z" fill="#141414"/>
<path d="M67.3439 53.8241V53.5652C67.1031 53.8722 66.8472 54.1281 66.5792 54.3358C66.3113 54.5436 66.0193 54.6971 65.7032 54.7994C65.3871 54.9018 65.0258 54.95 64.6194 54.95C64.1287 54.95 63.6922 54.8476 63.3039 54.6459C62.9155 54.4442 62.6145 54.1642 62.4037 53.809C62.1509 53.3785 62.0244 52.7614 62.0244 51.9546V47.9416C62.0244 47.5352 62.1147 47.2342 62.2984 47.0325C62.482 46.8308 62.7228 46.7314 63.0239 46.7314C63.331 46.7314 63.5778 46.8338 63.7645 47.0355C63.9511 47.2372 64.0474 47.5382 64.0474 47.9386V51.1779C64.0474 51.6475 64.0866 52.0419 64.1649 52.361C64.2431 52.6801 64.3846 52.9299 64.5923 53.1106C64.797 53.2912 65.077 53.3815 65.4262 53.3815C65.7664 53.3815 66.0885 53.2792 66.3896 53.0775C66.6906 52.8758 66.9104 52.6108 67.0489 52.2827C67.1633 51.9967 67.2205 51.3675 67.2205 50.3981V47.9356C67.2205 47.5352 67.3138 47.2342 67.5035 47.0325C67.6901 46.8308 67.937 46.7284 68.238 46.7284C68.5391 46.7284 68.7829 46.8277 68.9635 47.0294C69.1442 47.2311 69.2375 47.5322 69.2375 47.9386V53.803C69.2375 54.1883 69.1502 54.4773 68.9726 54.67C68.7949 54.8627 68.5722 54.959 68.2952 54.959C68.0182 54.959 67.7895 54.8596 67.6088 54.6579C67.4282 54.4562 67.3439 54.1853 67.3439 53.8241Z" fill="#141414"/>
<path d="M71.2576 53.7337V44.9552C71.2576 44.5488 71.3479 44.2417 71.5285 44.037C71.7091 43.8323 71.953 43.7269 72.26 43.7269C72.5671 43.7269 72.814 43.8293 73.0006 44.034C73.1873 44.2387 73.2836 44.5458 73.2836 44.9582V53.7367C73.2836 54.1461 73.1873 54.4532 72.9976 54.6609C72.808 54.8656 72.5611 54.968 72.26 54.968C71.962 54.968 71.7212 54.8626 71.5375 54.6489C71.3509 54.4351 71.2576 54.1311 71.2576 53.7337Z" fill="#141414"/>
<path d="M75.4842 46.912H75.707V45.6958C75.707 45.3706 75.716 45.1148 75.7341 44.9281C75.7521 44.7415 75.8003 44.5849 75.8786 44.4494C75.9568 44.311 76.0712 44.1996 76.2187 44.1123C76.3663 44.025 76.5318 43.9828 76.7155 43.9828C76.9714 43.9828 77.2062 44.0792 77.4139 44.2718C77.5524 44.4013 77.6397 44.5578 77.6758 44.7415C77.7119 44.9281 77.73 45.19 77.73 45.5302V46.909H78.4706C78.7566 46.909 78.9763 46.9782 79.1268 47.1137C79.2774 47.2492 79.3526 47.4238 79.3526 47.6375C79.3526 47.9085 79.2443 48.1011 79.0305 48.2095C78.8168 48.3179 78.5067 48.3721 78.1063 48.3721H77.727V52.096C77.727 52.4121 77.739 52.656 77.7601 52.8276C77.7812 52.9992 77.8414 53.1376 77.9377 53.243C78.0341 53.3484 78.1906 53.4025 78.4073 53.4025C78.5248 53.4025 78.6873 53.3815 78.889 53.3393C79.0907 53.2972 79.2503 53.2761 79.3647 53.2761C79.5272 53.2761 79.6747 53.3423 79.8042 53.4718C79.9367 53.6043 79.9999 53.7638 79.9999 53.9565C79.9999 54.2816 79.8223 54.5315 79.467 54.7061C79.1118 54.8777 78.6 54.965 77.9317 54.965C77.2995 54.965 76.8178 54.8596 76.4927 54.6459C76.1676 54.4321 75.9538 54.1401 75.8515 53.7638C75.7491 53.3875 75.6979 52.8878 75.6979 52.2586V48.3721H75.442C75.15 48.3721 74.9273 48.3028 74.7737 48.1643C74.6202 48.0259 74.5449 47.8513 74.5449 47.6375C74.5449 47.4238 74.6262 47.2522 74.7858 47.1137C74.9453 46.9812 75.1801 46.912 75.4842 46.912Z" fill="#141414"/>
<g opacity="0.88">
<g opacity="0.88">
<path opacity="0.88" d="M31.5978 7.26123L19.1586 9.08858C17.3854 9.35049 15.8862 10.5366 15.2269 12.2014L10.5908 23.888C9.93154 25.5528 10.2085 27.4434 11.3194 28.8492L19.1225 38.7055C20.2333 40.1114 22.0125 40.8158 23.7827 40.5539L36.2219 38.7266C37.9951 38.4647 39.4943 37.2785 40.1536 35.6137L44.7897 23.9271C45.449 22.2624 45.172 20.3718 44.0611 18.9659L36.258 9.10965C35.1472 7.70678 33.371 6.99932 31.5978 7.26123Z" fill="#0073D8"/>
</g>
<g opacity="0.53">
<path opacity="0.53" d="M45.5393 7.26123L57.9785 9.08858C59.7517 9.35049 61.2509 10.5366 61.9102 12.2014L66.5463 23.888C67.2056 25.5528 66.9286 27.4434 65.8177 28.8492L58.0146 38.7055C56.9038 40.1114 55.1246 40.8158 53.3544 40.5539L40.9152 38.7266C39.142 38.4647 37.6428 37.2785 36.9835 35.6137L32.3474 23.9271C31.6881 22.2624 31.9651 20.3718 33.076 18.9659L40.8791 9.10965C41.9899 7.70678 43.7661 6.99932 45.5393 7.26123Z" fill="#459529"/>
</g>
</g>
<g opacity="0.88">
<path opacity="0.88" d="M46.9813 0H30.1589C28.3677 0 26.7119 0.954316 25.8148 2.50771L17.4036 17.0783C16.5064 18.6287 16.5064 20.5404 17.4036 22.0938L25.8148 36.6644C26.7119 38.2148 28.3646 39.1721 30.1589 39.1721H46.9813C48.7726 39.1721 50.4283 38.2178 51.3254 36.6644L59.7367 22.0938C60.6338 20.5434 60.6338 18.6317 59.7367 17.0783L51.3254 2.50771C50.4283 0.954316 48.7726 0 46.9813 0Z" fill="#198663"/>
</g>
</svg>
