<svg width="485" height="485" viewBox="0 0 485 485" fill="none" xmlns="http://www.w3.org/2000/svg">
<path d="M318.742 245.071L314.736 238.678H279.467V245.071V247.369V353.691H424.627V245.071H318.742Z" fill="#263238"/>
<path d="M423.677 248H280.543V351.373H423.677V248Z" fill="white"/>
<path opacity="0.17" d="M424.375 247.117H421.048V352.158H424.375V247.117Z" fill="black"/>
<path opacity="0.17" d="M424.375 310.623H421.048V351.305H424.375V310.623Z" fill="black"/>
<path d="M423.861 246.603H279.971V252.229H423.861V246.603Z" fill="#369577" stroke="#263238" stroke-miterlimit="10"/>
<path d="M423.677 248H280.543V351.373H423.677V248Z" stroke="#263238" stroke-linecap="round" stroke-linejoin="round"/>
<g opacity="0.17">
<path opacity="0.17" d="M355.117 257.642H345.107C344.99 257.643 344.875 257.621 344.767 257.577C344.66 257.533 344.562 257.468 344.479 257.386C344.397 257.304 344.332 257.206 344.288 257.098C344.244 256.991 344.223 256.875 344.224 256.759C344.224 256.525 344.317 256.3 344.482 256.135C344.648 255.969 344.872 255.876 345.107 255.876H355.117C355.351 255.876 355.576 255.969 355.741 256.135C355.907 256.3 356 256.525 356 256.759C356 256.993 355.907 257.218 355.741 257.383C355.576 257.549 355.351 257.642 355.117 257.642Z" fill="black"/>
<path opacity="0.17" d="M375.147 257.642H365.127C364.893 257.642 364.669 257.549 364.503 257.383C364.338 257.218 364.245 256.993 364.245 256.759C364.245 256.525 364.338 256.3 364.503 256.135C364.669 255.969 364.893 255.876 365.127 255.876H375.147C375.263 255.876 375.378 255.899 375.485 255.943C375.592 255.988 375.69 256.053 375.772 256.135C375.854 256.217 375.919 256.314 375.963 256.421C376.007 256.528 376.03 256.643 376.03 256.759C376.03 256.875 376.007 256.99 375.963 257.097C375.919 257.204 375.854 257.301 375.772 257.383C375.69 257.465 375.592 257.53 375.485 257.574C375.378 257.619 375.263 257.642 375.147 257.642Z" fill="black"/>
<path opacity="0.17" d="M395.168 257.642H385.158C384.924 257.642 384.699 257.549 384.534 257.383C384.368 257.218 384.275 256.993 384.275 256.759C384.275 256.525 384.368 256.3 384.534 256.135C384.699 255.969 384.924 255.876 385.158 255.876H395.168C395.284 255.876 395.399 255.899 395.506 255.943C395.613 255.988 395.71 256.053 395.792 256.135C395.874 256.217 395.939 256.314 395.984 256.421C396.028 256.528 396.051 256.643 396.051 256.759C396.052 256.875 396.03 256.991 395.986 257.098C395.943 257.206 395.878 257.304 395.795 257.386C395.713 257.468 395.615 257.533 395.508 257.577C395.4 257.621 395.285 257.643 395.168 257.642Z" fill="black"/>
<path opacity="0.17" d="M415.16 257.642H405.188C405.072 257.643 404.956 257.621 404.848 257.577C404.739 257.533 404.641 257.469 404.558 257.387C404.475 257.304 404.409 257.207 404.364 257.099C404.319 256.991 404.296 256.876 404.296 256.759C404.299 256.524 404.394 256.299 404.561 256.134C404.728 255.969 404.953 255.876 405.188 255.876H415.16C415.276 255.876 415.391 255.899 415.498 255.943C415.605 255.988 415.702 256.053 415.784 256.135C415.866 256.217 415.931 256.314 415.975 256.421C416.02 256.528 416.043 256.643 416.043 256.759C416.043 256.875 416.02 256.99 415.975 257.097C415.931 257.204 415.866 257.301 415.784 257.383C415.702 257.465 415.605 257.53 415.498 257.574C415.391 257.619 415.276 257.642 415.16 257.642Z" fill="black"/>
</g>
<path d="M402.24 310.351H392.821V340.062H402.24V310.351Z" fill="#369577" stroke="#263238" stroke-miterlimit="10"/>
<path d="M391.773 329.577H382.355V340.063H391.773V329.577Z" fill="#263238" stroke="#263238" stroke-linecap="round" stroke-linejoin="round"/>
<path d="M381.307 271.018H371.888V340.053H381.307V271.018Z" fill="#369577" stroke="#263238" stroke-miterlimit="10"/>
<path d="M370.85 274.52H361.432V340.062H370.85V274.52Z" fill="white" stroke="#263238" stroke-linecap="round" stroke-linejoin="round"/>
<path d="M360.384 310.351H350.965V340.062H360.384V310.351Z" fill="#369577" stroke="#263238" stroke-miterlimit="10"/>
<path d="M349.918 300.739H340.499V340.062H349.918V300.739Z" fill="#263238" stroke="#263238" stroke-linecap="round" stroke-linejoin="round"/>
<path d="M339.461 334.815H330.042V340.063H339.461V334.815Z" fill="#369577" stroke="#263238" stroke-miterlimit="10"/>
<path d="M328.995 329.577H319.576V340.063H328.995V329.577Z" fill="white" stroke="#263238" stroke-linecap="round" stroke-linejoin="round"/>
<path d="M318.529 310.351H309.11V340.062H318.529V310.351Z" fill="#369577" stroke="#263238" stroke-miterlimit="10"/>
<path d="M321.012 283.677L324.378 302.795C321.586 303.29 318.719 303.167 315.98 302.434C313.24 301.701 310.695 300.377 308.522 298.554C306.35 296.732 304.604 294.455 303.407 291.884C302.209 289.314 301.59 286.512 301.592 283.677H321.012Z" stroke="#263238" stroke-width="0.75" stroke-linecap="round" stroke-linejoin="round"/>
<path d="M321.012 283.677L336.309 295.627C333.415 299.477 329.136 302.048 324.378 302.795L321.012 283.677Z" stroke="#263238" stroke-width="0.75" stroke-miterlimit="10"/>
<path d="M321.012 283.676L311.312 266.866C313.519 265.59 315.956 264.76 318.484 264.426C321.012 264.092 323.581 264.26 326.044 264.919C328.507 265.578 330.816 266.717 332.838 268.269C334.861 269.822 336.558 271.758 337.832 273.967C339.807 277.304 340.721 281.164 340.45 285.033C340.18 288.902 338.739 292.597 336.318 295.627L321.012 283.676Z" stroke="#263238" stroke-width="0.75" stroke-linecap="round" stroke-linejoin="round"/>
<path d="M327.709 290.364C331.406 286.667 331.407 280.673 327.709 276.976C324.012 273.279 318.018 273.279 314.321 276.976C310.624 280.673 310.624 286.667 314.321 290.364C318.018 294.062 324.012 294.062 327.709 290.364Z" fill="white" stroke="#263238" stroke-width="0.75" stroke-linecap="round" stroke-linejoin="round"/>
<path d="M348.501 360.277H371.578" stroke="#263238" stroke-miterlimit="10"/>
<path d="M348.501 364.206H371.578" stroke="#263238" stroke-miterlimit="10"/>
<path d="M348.501 368.134H371.578" stroke="#263238" stroke-miterlimit="10"/>
<path d="M348.501 372.053H371.578" stroke="#263238" stroke-miterlimit="10"/>
<path d="M398.001 336.406V368.241H375.448" stroke="#263238" stroke-miterlimit="10"/>
<path d="M134.985 80.0444L129.311 70.9943H79.3459V80.0444V83.3036V233.935H285.015V80.0444H134.985Z" fill="#263238"/>
<path d="M283.657 84.1959H80.8688V230.656H283.657V84.1959Z" fill="white"/>
<path opacity="0.17" d="M284.656 82.9349H279.952V231.762H284.656V82.9349Z" fill="black"/>
<path opacity="0.17" d="M284.656 172.922H279.952V230.559H284.656V172.922Z" fill="black"/>
<path d="M283.929 82.2172H80.0637V90.1809H283.929V82.2172Z" fill="#369577" stroke="#263238" stroke-miterlimit="10"/>
<path d="M283.657 84.1959H80.8688V230.656H283.657V84.1959Z" stroke="#263238" stroke-linecap="round" stroke-linejoin="round"/>
<g opacity="0.17">
<path opacity="0.17" d="M186.531 97.8632H172.34C172.008 97.8632 171.69 97.7314 171.455 97.4967C171.22 97.262 171.089 96.9438 171.089 96.6119C171.089 96.4476 171.121 96.2849 171.184 96.133C171.247 95.9812 171.339 95.8433 171.455 95.7271C171.571 95.6109 171.709 95.5187 171.861 95.4558C172.013 95.393 172.176 95.3606 172.34 95.3606H186.531C186.695 95.3606 186.858 95.393 187.01 95.4558C187.162 95.5187 187.3 95.6109 187.416 95.7271C187.532 95.8433 187.624 95.9812 187.687 96.133C187.75 96.2849 187.782 96.4476 187.782 96.6119C187.782 96.9438 187.65 97.262 187.416 97.4967C187.181 97.7314 186.863 97.8632 186.531 97.8632Z" fill="black"/>
<path opacity="0.17" d="M214.903 97.8632H200.722C200.39 97.8632 200.072 97.7314 199.837 97.4967C199.603 97.262 199.471 96.9438 199.471 96.6119C199.471 96.4476 199.503 96.2849 199.566 96.133C199.629 95.9812 199.721 95.8433 199.837 95.7271C199.953 95.6109 200.091 95.5187 200.243 95.4558C200.395 95.393 200.558 95.3606 200.722 95.3606H214.903C215.068 95.3606 215.231 95.393 215.382 95.4558C215.534 95.5187 215.672 95.6109 215.788 95.7271C215.904 95.8433 215.997 95.9812 216.06 96.133C216.122 96.2849 216.155 96.4476 216.155 96.6119C216.155 96.9438 216.023 97.262 215.788 97.4967C215.554 97.7314 215.235 97.8632 214.903 97.8632Z" fill="black"/>
<path opacity="0.17" d="M243.276 97.8632H229.095C228.763 97.8632 228.444 97.7314 228.21 97.4967C227.975 97.262 227.843 96.9438 227.843 96.6119C227.843 96.4476 227.876 96.2849 227.939 96.133C228.001 95.9812 228.094 95.8433 228.21 95.7271C228.326 95.6109 228.464 95.5187 228.616 95.4558C228.768 95.393 228.93 95.3606 229.095 95.3606H243.276C243.44 95.3606 243.603 95.393 243.755 95.4558C243.907 95.5187 244.045 95.6109 244.161 95.7271C244.277 95.8433 244.369 95.9812 244.432 96.133C244.495 96.2849 244.527 96.4476 244.527 96.6119C244.527 96.9438 244.395 97.262 244.161 97.4967C243.926 97.7314 243.608 97.8632 243.276 97.8632Z" fill="black"/>
<path opacity="0.17" d="M271.658 97.8632H257.467C257.135 97.8632 256.817 97.7314 256.582 97.4967C256.348 97.262 256.216 96.9438 256.216 96.6119C256.216 96.4476 256.248 96.2849 256.311 96.133C256.374 95.9812 256.466 95.8433 256.582 95.7271C256.698 95.6109 256.836 95.5187 256.988 95.4558C257.14 95.393 257.303 95.3606 257.467 95.3606H271.658C271.822 95.3606 271.985 95.393 272.137 95.4558C272.289 95.5187 272.427 95.6109 272.543 95.7271C272.659 95.8433 272.751 95.9812 272.814 96.133C272.877 96.2849 272.909 96.4476 272.909 96.6119C272.909 96.9438 272.778 97.262 272.543 97.4967C272.308 97.7314 271.99 97.8632 271.658 97.8632Z" fill="black"/>
</g>
<path d="M91.9365 168.363H274.607" stroke="#263238" stroke-width="0.5" stroke-miterlimit="10"/>
<path d="M91.9365 168.363V166.947" stroke="#263238" stroke-width="0.5" stroke-miterlimit="10"/>
<path d="M114.77 168.363V166.947" stroke="#263238" stroke-width="0.5" stroke-miterlimit="10"/>
<path d="M137.604 168.363V166.947" stroke="#263238" stroke-width="0.5" stroke-miterlimit="10"/>
<path d="M160.438 168.363V166.947" stroke="#263238" stroke-width="0.5" stroke-miterlimit="10"/>
<path d="M183.272 168.363V166.947" stroke="#263238" stroke-width="0.5" stroke-miterlimit="10"/>
<path d="M206.106 168.363V166.947" stroke="#263238" stroke-width="0.5" stroke-miterlimit="10"/>
<path d="M228.939 168.363V166.947" stroke="#263238" stroke-width="0.5" stroke-miterlimit="10"/>
<path d="M251.773 168.363V166.947" stroke="#263238" stroke-width="0.5" stroke-miterlimit="10"/>
<path d="M274.607 168.363V166.947" stroke="#263238" stroke-width="0.5" stroke-miterlimit="10"/>
<path d="M126.187 153.638L103.353 160.7" stroke="#263238" stroke-width="2" stroke-miterlimit="10" stroke-linecap="round"/>
<path d="M149.021 138.109L126.187 153.638" stroke="#263238" stroke-width="2" stroke-miterlimit="10" stroke-linecap="round"/>
<path d="M171.855 116.924L149.021 138.109" stroke="#263238" stroke-width="2" stroke-miterlimit="10" stroke-linecap="round"/>
<path d="M194.689 114.809L171.855 116.924" stroke="#263238" stroke-width="2" stroke-miterlimit="10" stroke-linecap="round"/>
<path d="M217.522 130.339L194.689 114.809" stroke="#263238" stroke-width="2" stroke-miterlimit="10" stroke-linecap="round"/>
<path d="M240.356 145.17L217.522 130.339" stroke="#263238" stroke-width="2" stroke-miterlimit="10" stroke-linecap="round"/>
<path d="M263.19 114.101L240.356 145.17" stroke="#263238" stroke-width="2" stroke-miterlimit="10" stroke-linecap="round"/>
<path d="M103.353 157.79C104.125 157.79 104.865 158.096 105.411 158.642C105.957 159.188 106.263 159.928 106.263 160.7C106.263 161.472 105.957 162.212 105.411 162.757C104.865 163.303 104.125 163.61 103.353 163.61C102.582 163.61 101.842 163.303 101.296 162.757C100.75 162.212 100.443 161.472 100.443 160.7C100.443 159.928 100.75 159.188 101.296 158.642C101.842 158.096 102.582 157.79 103.353 157.79Z" fill="#369577" stroke="#263238" stroke-miterlimit="10"/>
<path d="M126.187 150.728C126.959 150.728 127.699 151.035 128.245 151.581C128.791 152.126 129.097 152.866 129.097 153.638C129.097 154.41 128.791 155.15 128.245 155.696C127.699 156.242 126.959 156.548 126.187 156.548C125.415 156.548 124.675 156.242 124.13 155.696C123.584 155.15 123.277 154.41 123.277 153.638C123.277 152.866 123.584 152.126 124.13 151.581C124.675 151.035 125.415 150.728 126.187 150.728Z" fill="#369577" stroke="#263238" stroke-miterlimit="10"/>
<path d="M149.021 135.199C149.793 135.199 150.533 135.505 151.079 136.051C151.624 136.597 151.931 137.337 151.931 138.109C151.931 138.88 151.624 139.621 151.079 140.166C150.533 140.712 149.793 141.019 149.021 141.019C148.249 141.019 147.509 140.712 146.963 140.166C146.418 139.621 146.111 138.88 146.111 138.109C146.111 137.337 146.418 136.597 146.963 136.051C147.509 135.505 148.249 135.199 149.021 135.199Z" fill="#369577" stroke="#263238" stroke-miterlimit="10"/>
<path d="M171.855 114.014C172.627 114.014 173.367 114.32 173.913 114.866C174.458 115.412 174.765 116.152 174.765 116.924C174.765 117.696 174.458 118.436 173.913 118.981C173.367 119.527 172.627 119.834 171.855 119.834C171.083 119.834 170.343 119.527 169.797 118.981C169.251 118.436 168.945 117.696 168.945 116.924C168.945 116.152 169.251 115.412 169.797 114.866C170.343 114.32 171.083 114.014 171.855 114.014Z" fill="#369577" stroke="#263238" stroke-miterlimit="10"/>
<path d="M194.689 111.899C195.46 111.899 196.201 112.206 196.746 112.751C197.292 113.297 197.599 114.037 197.599 114.809C197.599 115.581 197.292 116.321 196.746 116.867C196.201 117.413 195.46 117.719 194.689 117.719C193.917 117.719 193.177 117.413 192.631 116.867C192.085 116.321 191.779 115.581 191.779 114.809C191.779 114.037 192.085 113.297 192.631 112.751C193.177 112.206 193.917 111.899 194.689 111.899Z" fill="#369577" stroke="#263238" stroke-miterlimit="10"/>
<path d="M217.522 127.429C218.294 127.429 219.034 127.735 219.58 128.281C220.126 128.827 220.432 129.567 220.432 130.339C220.432 131.111 220.126 131.851 219.58 132.397C219.034 132.942 218.294 133.249 217.522 133.249C216.751 133.249 216.01 132.942 215.465 132.397C214.919 131.851 214.612 131.111 214.612 130.339C214.612 129.567 214.919 128.827 215.465 128.281C216.01 127.735 216.751 127.429 217.522 127.429Z" fill="#369577" stroke="#263238" stroke-miterlimit="10"/>
<path d="M243.266 145.17C243.266 143.563 241.963 142.26 240.356 142.26C238.749 142.26 237.446 143.563 237.446 145.17C237.446 146.777 238.749 148.08 240.356 148.08C241.963 148.08 243.266 146.777 243.266 145.17Z" fill="#369577" stroke="#263238" stroke-miterlimit="10"/>
<path d="M263.19 111.191C263.962 111.191 264.702 111.498 265.248 112.043C265.793 112.589 266.1 113.329 266.1 114.101C266.1 114.873 265.793 115.613 265.248 116.159C264.702 116.704 263.962 117.011 263.19 117.011C262.418 117.011 261.678 116.704 261.132 116.159C260.587 115.613 260.28 114.873 260.28 114.101C260.28 113.329 260.587 112.589 261.132 112.043C261.678 111.498 262.418 111.191 263.19 111.191Z" fill="#369577" stroke="#263238" stroke-miterlimit="10"/>
<path d="M176.656 205L156.17 208.618C155.211 203.174 156.454 197.573 159.624 193.046C162.795 188.518 167.634 185.435 173.077 184.475C174.272 184.27 175.482 184.166 176.695 184.164L176.656 205Z" fill="#263238" stroke="#263238" stroke-linecap="round" stroke-linejoin="round"/>
<path d="M176.656 205L163.833 221.422C159.693 218.322 156.93 213.727 156.131 208.618L176.656 205Z" fill="#369577" stroke="#263238" stroke-miterlimit="10"/>
<path d="M176.656 205L194.708 194.582C196.084 196.954 196.978 199.574 197.339 202.293C197.7 205.011 197.522 207.774 196.813 210.423C196.105 213.072 194.881 215.555 193.212 217.731C191.542 219.906 189.46 221.731 187.084 223.1C183.499 225.231 179.349 226.217 175.189 225.926C171.029 225.635 167.057 224.08 163.804 221.47L176.656 205Z" fill="white" stroke="#263238" stroke-linecap="round" stroke-linejoin="round"/>
<path d="M176.656 205V184.164C180.327 184.102 183.945 185.038 187.125 186.873C190.305 188.708 192.926 191.372 194.708 194.582L176.656 205Z" fill="#369577" stroke="#263238" stroke-miterlimit="10"/>
<path d="M183.843 212.19C187.813 208.22 187.813 201.783 183.843 197.813C179.873 193.843 173.436 193.843 169.466 197.813C165.497 201.783 165.497 208.22 169.466 212.19C173.436 216.159 179.873 216.159 183.843 212.19Z" fill="white" stroke="#263238" stroke-linecap="round" stroke-linejoin="round"/>
<path d="M115.013 205.039L118.631 225.564C115.936 226.04 113.173 225.98 110.5 225.388C107.828 224.796 105.298 223.683 103.056 222.113C100.814 220.542 98.9035 218.546 97.4332 216.237C95.963 213.928 94.9621 211.352 94.4877 208.657C94.2793 207.462 94.1722 206.251 94.1676 205.039H115.013Z" fill="#263238" stroke="#263238" stroke-linecap="round" stroke-linejoin="round"/>
<path d="M115.013 205.039L131.435 217.872C128.331 222.005 123.738 224.765 118.631 225.564L115.013 205.039Z" fill="#369577" stroke="#263238" stroke-miterlimit="10"/>
<path d="M115.013 205.039L104.585 186.987C109.375 184.224 115.065 183.477 120.405 184.908C125.746 186.34 130.299 189.833 133.065 194.621C135.191 198.207 136.173 202.356 135.882 206.515C135.591 210.674 134.04 214.646 131.435 217.901L115.013 205.039Z" fill="white" stroke="#263238" stroke-linecap="round" stroke-linejoin="round"/>
<path d="M115.013 205.038H94.1675C94.1049 201.368 95.0412 197.749 96.8762 194.57C98.7112 191.39 101.376 188.769 104.585 186.987L115.013 205.038Z" fill="#369577" stroke="#263238" stroke-miterlimit="10"/>
<path d="M115.013 215.204C120.627 215.204 125.179 210.653 125.179 205.039C125.179 199.424 120.627 194.873 115.013 194.873C109.399 194.873 104.847 199.424 104.847 205.039C104.847 210.653 109.399 215.204 115.013 215.204Z" fill="white" stroke="#263238" stroke-linecap="round" stroke-linejoin="round"/>
<path d="M238.242 205.039L241.86 225.564C239.164 226.04 236.401 225.98 233.729 225.388C231.057 224.796 228.527 223.683 226.285 222.113C224.043 220.542 222.132 218.546 220.662 216.237C219.192 213.928 218.191 211.352 217.716 208.657C217.508 207.462 217.401 206.251 217.396 205.039H238.242Z" fill="#263238" stroke="#263238" stroke-linecap="round" stroke-linejoin="round"/>
<path d="M238.242 205.039L254.664 217.872C251.56 222.005 246.967 224.765 241.86 225.564L238.242 205.039Z" fill="#369577" stroke="#263238" stroke-miterlimit="10"/>
<path d="M238.242 205.039L227.814 186.987C232.603 184.224 238.294 183.477 243.634 184.908C248.974 186.34 253.528 189.833 256.293 194.621C258.419 198.207 259.402 202.356 259.111 206.515C258.82 210.674 257.269 214.646 254.664 217.901L238.242 205.039Z" fill="white" stroke="#263238" stroke-linecap="round" stroke-linejoin="round"/>
<path d="M238.242 205.038H217.396C217.334 201.368 218.27 197.749 220.105 194.57C221.94 191.39 224.605 188.769 227.814 186.987L238.242 205.038Z" fill="#369577" stroke="#263238" stroke-miterlimit="10"/>
<path d="M238.242 215.204C243.856 215.204 248.407 210.653 248.407 205.039C248.407 199.424 243.856 194.873 238.242 194.873C232.627 194.873 228.076 199.424 228.076 205.039C228.076 210.653 232.627 215.204 238.242 215.204Z" fill="white" stroke="#263238" stroke-linecap="round" stroke-linejoin="round"/>
<path d="M92.4409 106.564H115.517" stroke="#263238" stroke-miterlimit="10"/>
<path d="M92.4409 110.483H115.517" stroke="#263238" stroke-miterlimit="10"/>
<path d="M92.4409 114.411H115.517" stroke="#263238" stroke-miterlimit="10"/>
<path d="M92.4409 118.34H115.517" stroke="#263238" stroke-miterlimit="10"/>
<path d="M271.969 115.527H294.521L321.06 138.739" stroke="#263238" stroke-linecap="round" stroke-linejoin="round"/>
<path d="M325.289 132.104H348.366" stroke="#263238" stroke-miterlimit="10"/>
<path d="M325.289 136.033H348.366" stroke="#263238" stroke-miterlimit="10"/>
<path d="M325.289 139.961H348.366" stroke="#263238" stroke-miterlimit="10"/>
<path d="M325.289 143.88H348.366" stroke="#263238" stroke-miterlimit="10"/>
<path d="M325.289 199.093H348.366" stroke="#263238" stroke-miterlimit="10"/>
<path d="M325.289 203.021H348.366" stroke="#263238" stroke-miterlimit="10"/>
<path d="M325.289 206.949H348.366" stroke="#263238" stroke-miterlimit="10"/>
<path d="M325.289 210.878H348.366" stroke="#263238" stroke-miterlimit="10"/>
<path d="M103.751 276.702H126.827" stroke="#263238" stroke-miterlimit="10"/>
<path d="M103.751 280.631H126.827" stroke="#263238" stroke-miterlimit="10"/>
<path d="M103.751 284.559H126.827" stroke="#263238" stroke-miterlimit="10"/>
<path d="M103.751 288.478H126.827" stroke="#263238" stroke-miterlimit="10"/>
<path d="M248.756 193.127L258.039 182.515H295.19L321.72 204.408" stroke="#263238" stroke-miterlimit="10"/>
<path d="M114.77 224.972V274.714" stroke="#263238" stroke-miterlimit="10"/>
<path d="M177.5 453.931C204.511 453.931 226.408 447.499 226.408 439.565C226.408 431.631 204.511 425.199 177.5 425.199C150.489 425.199 128.593 431.631 128.593 439.565C128.593 447.499 150.489 453.931 177.5 453.931Z" fill="#1F84DE"/>
<path opacity="0.5" d="M177.5 453.931C204.511 453.931 226.408 447.499 226.408 439.565C226.408 431.631 204.511 425.199 177.5 425.199C150.489 425.199 128.593 431.631 128.593 439.565C128.593 447.499 150.489 453.931 177.5 453.931Z" fill="white"/>
<path d="M197.531 240.094C197.619 238.42 197.515 236.74 197.22 235.089C196.745 233.372 195.649 232.276 195.804 231.646C195.959 231.015 197.841 231.491 198.316 232.742C198.792 233.993 199.568 236.185 199.568 236.185V231.335C199.568 230.55 197.686 230.365 197.065 229.618C196.444 228.872 196.9 228.522 197.376 228.522C197.851 228.522 199.723 228.357 200.819 229.298C201.222 229.707 201.53 230.2 201.719 230.742C201.909 231.284 201.976 231.861 201.915 232.431C201.915 232.905 201.863 233.376 201.76 233.838C201.76 233.838 204.263 234.148 205.039 235.875C205.681 237.573 205.793 239.427 205.359 241.191C205.039 242.607 206.135 245.42 206.135 245.42L202.846 247.922C202.846 247.922 200.189 245.109 198.782 243.538C197.942 242.591 197.495 241.36 197.531 240.094Z" fill="white" stroke="#263238" stroke-linecap="round" stroke-linejoin="round"/>
<path d="M206.135 245.41L202.846 247.913C202.846 247.913 220.937 284.773 222.654 286.043C224.371 287.314 226.534 287.615 229.075 284.171C231.617 280.728 231.267 278.536 229.541 274.626C227.814 270.717 206.135 245.41 206.135 245.41Z" fill="#1F84DE" stroke="#263238" stroke-linecap="round" stroke-linejoin="round"/>
<path d="M192.118 208.86C192.118 208.86 194.456 214.457 194.456 215.864C194.445 217.183 194.809 218.477 195.503 219.598C196.202 220.762 197.026 221.112 196.551 222.043C196.342 222.506 196.068 222.937 195.736 223.323C195.736 223.323 195.387 228.348 195.387 229.977C195.387 231.607 194.572 231.723 193.059 231.84C191.728 231.859 190.399 231.742 189.092 231.491L188.859 235.923C188.859 235.923 183.252 235.225 181.041 235.225H176.724L176.957 228.348C175.661 225.793 174.568 223.14 173.688 220.413C173.258 219.266 173.084 218.039 173.178 216.818C173.272 215.597 173.632 214.411 174.233 213.344C174.834 212.276 175.66 211.353 176.655 210.639C177.651 209.925 178.79 209.437 179.993 209.21C183.992 208.46 188.083 208.342 192.118 208.86Z" fill="white" stroke="#263238" stroke-linecap="round" stroke-linejoin="round"/>
<path d="M188.18 222.275C188.18 222.275 190.634 221.577 190.169 219.472C189.703 217.367 188.888 216.446 189.005 216.097C189.121 215.747 190.945 215.039 190.945 213.526C190.945 212.013 189.005 211.198 189.005 211.198C189.005 211.198 197.638 208.511 198.22 206.057C198.802 203.603 197.638 201.159 195.31 201.159C194.134 201.166 192.962 201.283 191.808 201.508C191.342 201.508 188.306 198.122 185.629 199.413C182.952 200.703 182.719 202.323 182.719 202.323C182.719 202.323 172.922 202.798 169.187 206.755C165.453 210.713 168.605 219.947 171.127 223.323C173.649 226.699 175.677 230.326 178.014 230.792C180.352 231.258 184.669 230.559 186.298 228.348C187.928 226.136 187.113 222.741 187.113 222.741L188.18 222.275Z" fill="#263238" stroke="#263238" stroke-linecap="round" stroke-linejoin="round"/>
<path d="M189.441 223.1C189.441 223.1 186.987 218.201 185.241 219.22C183.495 220.238 184.775 224.245 185.939 225.525C186.111 225.768 186.331 225.974 186.584 226.13C186.838 226.286 187.121 226.389 187.416 226.433C187.711 226.476 188.011 226.459 188.299 226.383C188.587 226.307 188.857 226.174 189.092 225.991" fill="white"/>
<path d="M189.441 223.1C189.441 223.1 186.987 218.201 185.241 219.22C183.495 220.238 184.775 224.245 185.939 225.525C186.111 225.768 186.331 225.974 186.584 226.13C186.838 226.286 187.121 226.389 187.416 226.433C187.711 226.476 188.011 226.459 188.299 226.383C188.587 226.307 188.857 226.174 189.092 225.991" stroke="#263238" stroke-linecap="round" stroke-linejoin="round"/>
<path d="M170.652 239.774C171.312 238.081 172.301 236.535 173.562 235.225C175.308 233.712 179.625 232.664 183.262 233.363C186.9 234.061 189.8 235.109 190.498 236.748C191.033 238.153 191.461 239.596 191.779 241.064C191.779 241.064 188.403 239.425 181.749 239.425C177.905 239.389 174.081 239.982 170.429 241.181L170.652 239.774Z" fill="#1F84DE" stroke="#263238" stroke-linecap="round" stroke-linejoin="round"/>
<path d="M155.549 431.65C155.549 431.65 151.116 431.301 149.254 431.766C147.392 432.232 146.916 433.862 147.741 435.026C148.823 436.559 150.072 437.968 151.466 439.226C152.63 440.196 156.316 440.623 157.994 441.437C159.672 442.252 161.612 442.96 163.814 441.437C166.016 439.914 164.784 434.211 164.784 434.211C164.784 434.211 159.284 435.142 155.549 431.65Z" fill="white" stroke="#263238" stroke-linecap="round" stroke-linejoin="round"/>
<path d="M162.31 441.088C160.215 441.437 156.364 440.39 152.979 438.644C150.602 437.412 148.565 434.56 147.576 432.979C147.409 433.301 147.336 433.664 147.365 434.026C147.394 434.388 147.524 434.734 147.741 435.026C148.823 436.559 150.072 437.968 151.465 439.226C152.629 440.196 156.315 440.623 157.994 441.437C159.672 442.252 161.612 442.96 163.814 441.437C164.16 441.19 164.434 440.855 164.609 440.467C163.86 440.735 163.092 440.942 162.31 441.088Z" fill="white" stroke="#263238" stroke-linecap="round" stroke-linejoin="round"/>
<path d="M200.189 431.65C200.189 431.65 204.622 431.301 206.484 431.766C208.346 432.232 208.822 433.862 208.007 435.026C206.918 436.557 205.666 437.966 204.272 439.226C203.108 440.196 199.374 440.623 197.744 441.437C196.115 442.252 194.126 442.96 191.924 441.437C189.722 439.914 190.954 434.211 190.954 434.211C190.954 434.211 196.454 435.142 200.189 431.65Z" fill="white" stroke="#263238" stroke-linecap="round" stroke-linejoin="round"/>
<path d="M193.428 441.088C195.523 441.437 199.374 440.39 202.759 438.644C205.136 437.412 207.173 434.56 208.162 432.979C208.33 433.3 208.405 433.663 208.377 434.024C208.35 434.386 208.221 434.733 208.007 435.026C206.918 436.557 205.666 437.965 204.272 439.226C203.108 440.196 199.374 440.623 197.744 441.437C196.115 442.252 194.126 442.96 191.924 441.437C191.578 441.19 191.303 440.855 191.129 440.467C191.878 440.733 192.646 440.941 193.428 441.088Z" fill="white" stroke="#263238" stroke-linecap="round" stroke-linejoin="round"/>
<path d="M162.368 302.776C162.368 302.776 161.398 313.63 161.321 318.529C161.27 321.688 161.464 324.847 161.903 327.976L159.575 372.781C159.575 372.781 156.073 401.599 156.073 407.313C156.073 413.026 156.539 427.964 156.539 427.964C156.012 428.986 155.545 430.039 155.142 431.116C155.144 432.478 155.222 433.838 155.375 435.19C157.194 436.286 159.217 437.002 161.321 437.295C162.149 437.403 162.99 437.246 163.723 436.847C164.457 436.449 165.045 435.828 165.404 435.074C165.813 432.829 166.085 430.562 166.219 428.284C166.27 426.922 166.231 425.558 166.103 424.2C166.103 424.2 171.234 399.116 173.688 390.6C176.142 382.083 180.575 358.978 180.808 355.951C181.041 352.925 183.718 338.802 183.718 338.802C183.718 338.802 186.056 364.119 186.628 368.872C187.2 373.625 185.784 386.933 185.784 394.092C185.784 401.25 190.12 429.002 190.12 429.002C190.104 430.463 190.179 431.924 190.343 433.377C190.576 434.347 191.963 437.528 191.963 437.528C191.963 437.528 195.416 438.217 197.036 437.295C198.656 436.374 201.178 434.764 201.411 431.999C201.644 429.235 200.586 423.638 200.363 422.028C200.14 420.417 204.243 389.29 204.243 378.232C204.243 367.174 206.086 343.186 206.086 338.123C206.086 333.059 204.932 315.987 204.932 315.987L202.856 299.623C202.856 299.623 183.67 306.85 162.368 302.776Z" fill="#263238" stroke="#263238" stroke-linecap="round" stroke-linejoin="round"/>
<path d="M183.718 338.831L182.108 328.209H178.189" stroke="white" stroke-linecap="round" stroke-linejoin="round"/>
<path d="M154.793 246.661C154.793 246.661 128.399 286.257 128.864 287.867C129.33 289.477 154.676 302.853 154.676 302.853L154.443 297.78L144.743 284.87L158.323 270.581L154.793 246.661Z" fill="#1F84DE" stroke="#263238" stroke-linecap="round" stroke-linejoin="round"/>
<path d="M154.443 297.79L158.091 296.286L161.971 299.73C161.971 299.73 163.319 302.553 162.329 302.785L161.359 303.018C161.359 303.018 162.456 305.676 160.739 306.462C159.022 307.247 156.509 306.307 155.413 305.366C154.513 304.393 153.773 303.283 153.221 302.077L154.443 297.79Z" fill="white" stroke="#263238" stroke-linecap="round" stroke-linejoin="round"/>
<path d="M159.187 297.528C159.187 297.528 160.603 299.099 160.438 299.875C160.273 300.651 159.662 303.319 159.032 303.474C158.401 303.629 157.78 302.378 157.935 301.912C158.067 301.45 158.174 300.98 158.255 300.506C158.255 300.506 156.839 301.602 156.063 300.972" fill="white"/>
<path d="M159.187 297.528C159.187 297.528 160.603 299.099 160.438 299.875C160.273 300.651 159.662 303.319 159.032 303.474C158.401 303.629 157.78 302.378 157.935 301.912C158.067 301.45 158.174 300.98 158.255 300.506C158.255 300.506 156.839 301.602 156.063 300.972" stroke="#263238" stroke-linecap="round" stroke-linejoin="round"/>
<path d="M188.975 238.62C185.038 237.987 181.032 237.909 177.073 238.387C172.032 239.076 167.125 240.532 162.523 242.704C159.613 244.1 154.831 246.205 154.831 246.671C154.831 247.137 161.621 290.418 161.621 290.418C161.621 290.418 161.621 301.621 162.32 303.251C163.018 304.881 165.123 305.123 170.254 305.705C177.961 306.18 185.696 305.946 193.36 305.007C197.909 304.182 201.876 303.484 202.575 301.389C203.273 299.293 202.342 293.687 202.342 293.687L204.718 248.32C202.691 245.902 200.192 243.922 197.376 242.5C194.655 241.042 191.85 239.746 188.975 238.62Z" fill="#1F84DE" stroke="#263238" stroke-linecap="round" stroke-linejoin="round"/>
<path d="M227.193 273.695L204.719 248.32L203.147 273.346C203.147 273.346 220.549 288.168 224.487 287.702C228.425 287.236 229.104 284.21 229.104 284.21" fill="#1F84DE"/>
<path d="M227.193 273.695L204.719 248.32L203.147 273.346C203.147 273.346 220.549 288.168 224.487 287.702C228.425 287.236 229.104 284.21 229.104 284.21" stroke="#263238" stroke-linecap="round" stroke-linejoin="round"/>
</svg>
